<svg xmlns="http://www.w3.org/2000/svg" viewBox="0 0 372.07 646.77"><defs><style>.cls-1{fill:#fff;}.cls-1,.cls-2,.cls-3,.cls-4{stroke:#282828;stroke-linecap:round;stroke-linejoin:round;}.cls-2{fill:none;}.cls-3{fill:#f4f4f4;}.cls-4{fill:#e2e2e2;}.cls-5{fill:#af8162;}.cls-6{fill:#9e734f;}</style></defs><title>Asset 3</title><g id="Layer_2" data-name="Layer 2"><g id="Layer_1-2" data-name="Layer 1"><rect class="cls-1" x="52.56" y="201.25" width="234.65" height="321.54"/><rect class="cls-2" x="0.5" y="0.5" width="371.07" height="645.77"/><polygon class="cls-3" points="204.25 269.31 204.25 460.85 88.74 460.85 101.7 386.23 88.74 269.31 204.25 269.31"/><polygon class="cls-4" points="146.16 460.84 88.08 460.84 99.79 386.81 88.08 269.3 146.16 269.3 146.16 460.84"/><polygon class="cls-1" points="204.25 269.31 203.02 270.38 200.66 272.42 199.18 273.71 192.8 279.24 191.51 280.36 187.41 283.92 185.93 285.21 181.31 289.23 180.03 290.33 174.17 295.41 172.69 296.71 169.81 299.21 168.51 300.33 160.94 306.91 159.44 308.2 158.31 309.19 157.01 310.31 147.65 318.43 146.79 319.18 146.19 319.7 146.17 319.72 146.15 319.7 145.71 319.32 145.52 319.14 144.69 318.43 135.31 310.29 134 309.16 132.9 308.2 131.42 306.91 123.8 300.3 122.52 299.19 119.65 296.71 118.17 295.41 112.3 290.33 111 289.19 106.41 285.21 104.91 283.92 100.8 280.34 99.5 279.21 93.16 273.71 91.67 272.42 89.28 270.34 88.74 269.88 88.08 269.31 204.25 269.31"/><polygon class="cls-5" points="89.27 269.3 89.27 270.34 88.08 269.3 89.27 269.3"/><polygon class="cls-5" points="204.25 269.31 203.02 270.38 203.02 269.31 204.25 269.31"/><polygon class="cls-4" points="232.9 365.73 232.9 460.83 162.25 460.83 162.25 413.27 163.03 412.39 163.62 411.73 164.75 410.45 173.78 400.24 174.92 398.95 183.97 388.73 185.1 387.45 194.14 377.23 195.27 375.95 204.32 365.73 232.9 365.73"/><polygon class="cls-1" points="232.9 365.73 232.9 460.25 232.03 459.25 224.81 450.93 223.9 449.88 216.69 441.58 215.8 440.55 208.56 432.22 207.65 431.17 200.44 422.86 199.53 421.8 192.31 413.49 191.88 412.98 192.28 412.52 192.34 412.44 199.55 404.15 200.46 403.08 207.68 394.77 208.58 393.73 215.8 385.41 216.71 384.36 223.92 376.07 224.84 375.01 232.05 366.69 232.88 365.73 232.9 365.73"/><polygon class="cls-6" points="232.9 366.69 232.05 366.69 232.9 365.71 232.9 366.69"/><polygon class="cls-6" points="232.9 459.25 232.9 460.25 232.03 459.25 232.9 459.25"/><polygon class="cls-3" points="232.9 365.71 226.87 372.67 225.59 374.14 215.37 385.9 214.08 387.4 203.87 399.16 202.58 400.66 192.35 412.43 191.88 412.98 179.58 412.98 169.36 412.97 162.25 412.97 168.08 406.41 169.36 404.98 179.58 393.5 180.86 392.06 191.08 380.58 192.35 379.14 202.58 367.66 203.87 366.21 204.32 365.71 232.9 365.71"/><rect class="cls-1" x="152.12" y="336.16" width="7.77" height="14.2"/><path class="cls-1" d="M107.58,504.23a17.57,17.57,0,0,0-20-28.82,1.25,1.25,0,0,1-.08-.12,9.82,9.82,0,0,0-15.91,11.49l-.07.05a14.53,14.53,0,1,0,18,22.83,14.69,14.69,0,0,0,2.36-2.37A17.57,17.57,0,0,0,107.58,504.23Z"/><path class="cls-1" d="M215.52,603.26a17.57,17.57,0,0,0-20-28.82.67.67,0,0,1-.07-.11,9.82,9.82,0,0,0-15.91,11.48l-.07.05a14.53,14.53,0,1,0,18,22.83,14.76,14.76,0,0,0,2.37-2.37A17.54,17.54,0,0,0,215.52,603.26Z"/><path class="cls-1" d="M275,292.08a7.7,7.7,0,0,0-3.33-6.35,5.08,5.08,0,0,0,.47-2.1,5,5,0,0,0-7.35-4.4,10.52,10.52,0,0,0-8.17-3.9,9.82,9.82,0,0,0-1.09.06.28.28,0,0,0,0-.09,4.4,4.4,0,1,0-8.8,0,4.53,4.53,0,0,0,.12,1,6.2,6.2,0,0,0-1.57-.23,5.92,5.92,0,0,0-5.36,3.42,3.94,3.94,0,0,0-1.42-.27,4,4,0,0,0-3.28,6.29,9.71,9.71,0,0,0,6.27,16.87,3.57,3.57,0,1,0,6,3.21,11,11,0,0,0,12.83,1.59,7.14,7.14,0,0,0,11.31-8.68A7.73,7.73,0,0,0,275,292.08Z"/><path class="cls-1" d="M261.05,158.06a7.73,7.73,0,0,0-3.33-6.35,4.89,4.89,0,0,0,.47-2.09,5,5,0,0,0-7.35-4.41,10.51,10.51,0,0,0-8.17-3.89,9.54,9.54,0,0,0-1.08.05v-.09a4.4,4.4,0,1,0-8.8,0,4.62,4.62,0,0,0,.12,1,5.79,5.79,0,0,0-1.57-.24,5.92,5.92,0,0,0-5.36,3.42,3.9,3.9,0,0,0-1.42-.27,4,4,0,0,0-3.28,6.29,9.71,9.71,0,0,0,6.27,16.87,3.57,3.57,0,1,0,6,3.21,11,11,0,0,0,12.82,1.59,7.14,7.14,0,0,0,11.31-8.68A7.7,7.7,0,0,0,261.05,158.06Z"/><path class="cls-1" d="M210.32,493.58a6.13,6.13,0,0,0-2.65-5.05,4,4,0,0,0,.37-1.67,4,4,0,0,0-4-4,4.06,4.06,0,0,0-1.87.48,8.33,8.33,0,0,0-6.49-3.1,8.11,8.11,0,0,0-.86.05v-.08a3.5,3.5,0,0,0-7,0,3.35,3.35,0,0,0,.1.79,4.6,4.6,0,0,0-5.51,2.53,3.24,3.24,0,0,0-1.13-.21,3.18,3.18,0,0,0-2.61,5,7.72,7.72,0,0,0,5,13.42,2.84,2.84,0,1,0,4.74,2.55,8.76,8.76,0,0,0,10.2,1.26,5.67,5.67,0,0,0,9-6.9A6.11,6.11,0,0,0,210.32,493.58Z"/><path class="cls-1" d="M80.35,405.4a5.05,5.05,0,0,0,3.5-3.09,3.23,3.23,0,0,0,3.78-4,3.22,3.22,0,0,0-.74-1.39,6.85,6.85,0,0,0,1.2-5.77c-.06-.23-.13-.45-.21-.67H88A2.86,2.86,0,1,0,86.58,385a3.07,3.07,0,0,0-.6.22,4,4,0,0,0-.09-1,3.85,3.85,0,0,0-3-2.86,2.72,2.72,0,0,0,0-.94,2.61,2.61,0,0,0-3.15-1.91,2.57,2.57,0,0,0-1.34.81,6.31,6.31,0,0,0-9.69,6.57,2.29,2.29,0,0,0-1.81-.31,2.32,2.32,0,0,0,.71,4.57,7.13,7.13,0,0,0,1,8.36,4.59,4.59,0,0,0-.76,3.81,4.65,4.65,0,0,0,8,2A5,5,0,0,0,80.35,405.4Z"/><polygon class="cls-3" points="105.44 318.31 106.69 357.06 113.69 382.56 113.69 357.06 105.44 318.31"/><polygon class="cls-3" points="111.19 418.31 105.44 445.31 109.57 442.06 111.19 418.31"/><polygon class="cls-3" points="137.94 363.35 135.69 381.06 124.69 385.56 132.44 377.16 137.94 363.35"/><polygon class="cls-3" points="134.89 401.65 132.6 431.81 137.94 452.84 134.89 401.65"/><line class="cls-3" x1="158.4" y1="365.07" x2="157.36" y2="397.7"/><line class="cls-3" x1="169.02" y1="354.01" x2="170.26" y2="363.35"/><polygon class="cls-3" points="181.29 329.46 179.63 343.25 182.75 360.46 187.32 343.25 181.29 329.46"/><polygon class="cls-3" points="191.88 293.47 191.88 320.72 195.23 340.69 197.57 321.14 191.88 293.47"/><line class="cls-3" x1="177.96" y1="304.5" x2="177.96" y2="313.65"/><line class="cls-3" x1="167.77" y1="315.31" x2="167.77" y2="332.38"/><polygon class="cls-3" points="205.22 377.16 190.03 390.97 198.77 389.35 205.22 377.16"/><polygon class="cls-3" points="172.18 448.97 192.84 445.31 214.32 448.97 172.18 448.97"/><line class="cls-3" x1="169.64" y1="430.17" x2="187.33" y2="430.17"/><line class="cls-3" x1="224.24" y1="394.85" x2="224.24" y2="422.94"/><polygon class="cls-3" points="214.32 405.8 209.78 413.28 214.32 420.26 214.32 405.8"/><line class="cls-3" x1="179.63" y1="276.79" x2="126.22" y2="276.79"/><polygon class="cls-3" points="132.4 290.29 148.83 294.51 163.95 291.43 132.4 290.29"/><path class="cls-1" d="M297.33,452.08a13.07,13.07,0,1,0-19.43-17.39A8.66,8.66,0,0,0,260.68,436c0,.08,0,.16,0,.24a9.7,9.7,0,1,0-10.49,16.31,20.54,20.54,0,0,0,.28,12.63,14,14,0,1,0,16.73,21,14.24,14.24,0,0,0,24-15.26,10.6,10.6,0,0,0,6.12-18.84Z"/><path class="cls-1" d="M110.91,282.8a9.13,9.13,0,1,0-3.18-17.93,6.05,6.05,0,0,0-10-6.7l-.09.14a6.78,6.78,0,1,0-12.8,4.44,14.3,14.3,0,0,0-5.29,7.06,9.78,9.78,0,1,0,.14,18.75,9.95,9.95,0,0,0,19.77,2,7.41,7.41,0,0,0,11.49-7.72Z"/><path class="cls-1" d="M151.47,549a5.48,5.48,0,1,0-10.91.65,3.63,3.63,0,0,0-4.68,5.52l.07.07a4.06,4.06,0,1,0,1.76,7.93,8.6,8.6,0,0,0,1.5,2,8.45,8.45,0,0,0,2.34,1.65A5.87,5.87,0,1,0,152.73,568a6,6,0,0,0,2.55-11.65,4.45,4.45,0,0,0-3.81-7.38Z"/><path class="cls-1" d="M265.42,47.83a5.48,5.48,0,1,0-10.91.65A3.63,3.63,0,0,0,249.82,54a.23.23,0,0,1,.07.07A4.06,4.06,0,1,0,251.65,62a8.65,8.65,0,0,0,1.5,2,8.93,8.93,0,0,0,2.35,1.65,5.86,5.86,0,1,0,11.18,1.21,6,6,0,0,0,2.54-11.65,4.44,4.44,0,0,0-3.8-7.38Z"/><path class="cls-1" d="M230.14,240.65a3.35,3.35,0,1,0,.27-6.68,2.22,2.22,0,0,0-3.07-3.19.1.1,0,0,0-.05,0,2.51,2.51,0,0,0-.56-1.35,2.49,2.49,0,0,0-4.38,1.94,5.08,5.08,0,0,0-1.31.79,5.33,5.33,0,0,0-1.14,1.33,3.59,3.59,0,1,0-1.42,6.73,3.65,3.65,0,0,0,5.86,3.76,3.74,3.74,0,0,0,1.08-1.5,2.71,2.71,0,0,0,4.72-1.87Z"/><path class="cls-1" d="M51.05,32.08a5.48,5.48,0,1,0-10.91.66,3.62,3.62,0,0,0-4.68,5.51.23.23,0,0,0,.07.07,4.07,4.07,0,0,0-2.08,6.88,4,4,0,0,0,3.84,1,8.45,8.45,0,0,0,1.5,2,8.66,8.66,0,0,0,2.34,1.65,5.86,5.86,0,1,0,11.18,1.22A6,6,0,0,0,57.47,41a5.9,5.9,0,0,0-2.61-1.52,4.46,4.46,0,0,0-3.81-7.39Z"/><path class="cls-1" d="M80.25,142.43a5.47,5.47,0,1,0-10.9.65,3.63,3.63,0,0,0-4.69,5.52l.07.07a4.06,4.06,0,1,0,1.76,7.93,8.51,8.51,0,0,0,3.84,3.64,5.87,5.87,0,1,0,11.19,1.22,6,6,0,0,0,5.16-10.13,6,6,0,0,0-2.62-1.52,4.44,4.44,0,0,0-3.81-7.38Z"/><path class="cls-1" d="M37.55,554.16a5.48,5.48,0,1,0-10.91.65A3.63,3.63,0,0,0,22,560.33l.07.07a4.06,4.06,0,1,0,1.76,7.93,8.65,8.65,0,0,0,1.5,2A8.89,8.89,0,0,0,27.63,572a5.87,5.87,0,1,0,11.18,1.21,6,6,0,0,0,2.55-11.65,4.45,4.45,0,0,0-3.81-7.38Z"/><line class="cls-1" x1="287.21" y1="643.28" x2="287.21" y2="522.79"/><line class="cls-1" x1="287.21" y1="201.25" x2="287.21" y2="0.5"/><polyline class="cls-1" points="88.94 84.96 88.94 124.45 207.42 124.45 207.42 84.96"/><rect class="cls-1" x="185.7" y="74.97" width="11.85" height="1.97"/><rect class="cls-1" x="185.7" y="71.02" width="11.85" height="1.97"/><rect class="cls-1" x="185.7" y="67.07" width="11.85" height="1.98"/><rect class="cls-1" x="185.7" y="63.12" width="11.85" height="1.97"/><path class="cls-1" d="M183.72,84.84h2V78.92h11.85v5.92h2V61.14h-15.8Zm13.83-7.9H185.7V75h11.85Zm0-4H185.7V71h11.85Zm0-3.95H185.7v-2h11.85Zm0-5.92v2H185.7v-2Z"/><rect class="cls-1" x="185.7" y="59.17" width="11.85" height="1.97"/><polyline class="cls-1" points="183.72 84.84 183.72 57.19 88.94 57.19 88.94 84.84"/><polygon class="cls-1" points="199.52 57.19 207.42 57.19 207.42 124.34 88.94 124.34 88.94 57.19 183.72 57.19 183.72 53.24 84.99 53.24 84.99 128.28 211.37 128.28 211.37 53.24 199.52 53.24 199.52 57.19"/><rect class="cls-1" x="185.7" y="55.22" width="11.85" height="1.97"/><path class="cls-1" d="M183.72,61.14h2v-2h11.85v2h2V49.29h-2v4H185.7v-4h-2Zm13.83-5.92v2H185.7v-2Z"/><rect class="cls-1" x="197.55" y="47.32" width="1.97" height="1.97"/><rect class="cls-1" x="183.72" y="47.32" width="1.97" height="1.97"/></g></g></svg>