<svg xmlns="http://www.w3.org/2000/svg" viewBox="0 0 54.49 56.95"><defs><style>.cls-1{fill:none;}.cls-1,.cls-2{stroke:#282828;stroke-linecap:round;stroke-linejoin:round;}.cls-2{fill:#fff;}</style></defs><title>Asset 15</title><g id="Layer_2" data-name="Layer 2"><g id="Layer_1-2" data-name="Layer 1"><path class="cls-1" d="M.5,28.36A27.54,27.54,0,0,1,48.55,11.55"/><polyline class="cls-1" points="37.38 11.74 48.54 11.71 47.85 0.5"/><path class="cls-1" d="M54,28.6A27.55,27.55,0,0,1,5.94,45.41"/><polyline class="cls-1" points="17.11 45.22 5.95 45.24 6.65 56.45"/><g id="home"><polyline class="cls-2" points="16.94 25.58 27.55 16.68 38.15 25.58"/><polyline class="cls-2" points="32.68 18.73 32.68 17.37 36.1 17.37 36.1 21.47"/><polyline class="cls-2" points="18.99 26.95 18.99 35.16 22.41 35.16 22.41 26.95 26.52 26.95 26.52 35.16 36.1 35.16 36.1 26.95"/><line class="cls-2" x1="22.41" y1="36.53" x2="26.52" y2="36.53"/><line class="cls-2" x1="21.73" y1="39.43" x2="27.2" y2="39.43"/><rect class="cls-2" x="29.26" y="26.95" width="3.42" height="3.42"/></g></g></g></svg>