<svg xmlns="http://www.w3.org/2000/svg" viewBox="0 0 64.87 65.67"><defs><style>.cls-1{fill:#fff;}.cls-1,.cls-2{stroke:#282828;stroke-linecap:round;stroke-linejoin:round;}.cls-2{fill:none;}</style></defs><title>Asset 16</title><g id="Layer_2" data-name="Layer 2"><g id="Layer_1-2" data-name="Layer 1"><line class="cls-1" x1="19.5" y1="65.17" x2="64.37" y2="65.17"/><path class="cls-1" d="M36.41.5h6.72a.41.41,0,0,1,.29.69L21,23.58V15.89Z"/><polyline class="cls-1" points="15.58 65.17 15.58 23.58 0.5 23.58 0.5 15.73 13.32 15.73 13.32 20.46 21.02 20.46 21.02 65.17"/><polyline class="cls-2" points="44.13 18.83 44.1 0.5 36.41 0.5"/><path class="cls-1" d="M44.29,19a2.53,2.53,0,1,1-2.53,2.52"/><polyline class="cls-2" points="32.14 65.17 32.14 37.74 54.88 37.74 54.88 65.17"/><rect class="cls-1" x="36.59" y="42.17" width="5" height="3.65"/><polyline class="cls-1" points="45.41 42.17 50.41 42.17 50.41 45.82 45.41 45.82"/><rect class="cls-1" x="36.59" y="49.22" width="5" height="3.65"/><polyline class="cls-1" points="45.41 49.23 50.41 49.23 50.41 52.88 45.41 52.88"/><rect class="cls-1" x="36.59" y="56.28" width="5" height="3.65"/><polyline class="cls-1" points="45.41 56.28 50.41 56.28 50.41 59.93 45.41 59.93"/><path class="cls-2" d="M32.3,34.49l10.89-10.9a.63.63,0,0,1,.9,0L55,34.49"/><line class="cls-1" x1="25.33" y1="65.17" x2="6.2" y2="65.17"/><line class="cls-1" x1="15.58" y1="25.89" x2="21.02" y2="32.51"/><line class="cls-1" x1="21.02" y1="25.89" x2="15.58" y2="32.51"/><line class="cls-1" x1="15.58" y1="33.1" x2="21.02" y2="39.72"/><line class="cls-1" x1="21.02" y1="33.1" x2="15.58" y2="39.72"/><line class="cls-1" x1="15.58" y1="40.31" x2="21.02" y2="46.92"/><line class="cls-1" x1="21.02" y1="40.31" x2="15.58" y2="46.92"/><line class="cls-1" x1="15.58" y1="47.51" x2="21.02" y2="54.13"/><line class="cls-1" x1="21.02" y1="47.51" x2="15.58" y2="54.13"/><line class="cls-1" x1="15.58" y1="54.72" x2="21.02" y2="61.33"/><line class="cls-1" x1="21.02" y1="54.72" x2="15.58" y2="61.33"/><rect class="cls-1" x="3.34" y="17.58" width="8.12" height="4.22"/><line class="cls-2" x1="21.02" y1="19.02" x2="39.52" y2="0.5"/></g></g></svg>