<svg xmlns="http://www.w3.org/2000/svg" viewBox="0 0 60.15 54.97"><defs><style>.cls-1{fill:none;stroke:#282828;stroke-linecap:round;stroke-linejoin:round;stroke-width:1.25px;}</style></defs><title>Asset 6</title><g id="Layer_2" data-name="Layer 2"><g id="Layer_1-2" data-name="Layer 1"><line class="cls-1" x1="24.57" y1="2.07" x2="44.56" y2="16.95"/><polygon class="cls-1" points="59.52 24.43 24.57 24.43 24.57 22.02 29.6 16.98 53.28 16.98 59.52 24.43"/><polyline class="cls-1" points="20.69 1.73 0.62 13.21 0.62 24.43"/><polyline class="cls-1" points="17.09 50.63 17.09 24.43 20.69 24.43 20.69 0.62 24.57 0.62 24.57 50.63"/><path class="cls-1" d="M49.5,39.57A2.54,2.54,0,1,0,52,37V28"/><polygon class="cls-1" points="32.56 24.43 32.56 33.69 28.92 37.34 24.57 37.34 24.57 24.43 32.56 24.43"/><rect class="cls-1" x="48.06" y="24.43" width="7.96" height="3.53"/><line class="cls-1" x1="8.15" y1="54.35" x2="34.45" y2="54.35"/><line class="cls-1" x1="27.88" y1="28.77" x2="32.56" y2="28.77"/><polygon class="cls-1" points="20.69 20.69 20.69 24.43 0.62 24.43 0.62 13.21 14.64 13.21 14.64 20.69 20.69 20.69"/><line class="cls-1" x1="6.71" y1="16.95" x2="0.63" y2="16.95"/><line class="cls-1" x1="7.64" y1="20.69" x2="0.63" y2="20.69"/><line class="cls-1" x1="8.57" y1="16.95" x2="10.43" y2="16.95"/></g></g></svg>