<svg xmlns="http://www.w3.org/2000/svg" viewBox="0 0 138.37 52.55"><defs><style>.cls-1{fill:none;stroke:#282828;stroke-linecap:round;stroke-linejoin:round;stroke-width:1.25px;}</style></defs><title>Asset 5</title><g id="Layer_2" data-name="Layer 2"><g id="Layer_1-2" data-name="Layer 1"><path class="cls-1" d="M36.24,19.29A17.81,17.81,0,1,1,18.43,1.49,17.81,17.81,0,0,1,36.24,19.29Z"/><path class="cls-1" d="M33.53,19.29a15.1,15.1,0,1,1-15.1-15.1A15.1,15.1,0,0,1,33.53,19.29Z"/><line class="cls-1" x1="30.47" y1="32.56" x2="34.57" y2="37.76"/><line class="cls-1" x1="32.4" y1="39.47" x2="28.3" y2="34.27"/><path class="cls-1" d="M44,46.72a3.22,3.22,0,0,1-.54,4.52h0a3.22,3.22,0,0,1-4.51-.54L32.81,43a3.23,3.23,0,0,1,.54-4.52h0a3.23,3.23,0,0,1,4.52.54Z"/><g id="house"><polyline class="cls-1" points="10.86 16.93 18.4 10.6 26.2 17.04"/><polyline class="cls-1" points="10.86 14.06 18.4 7.73 26.2 14.17"/><polygon class="cls-1" points="24.48 18.75 24.48 26.29 20.34 26.29 20.34 22.15 16.45 22.15 16.45 26.29 12.32 26.29 12.32 18.75 18.4 13.64 24.48 18.75"/></g><path class="cls-1" d="M129.34,18.43A17.81,17.81,0,1,1,111.54.62,17.81,17.81,0,0,1,129.34,18.43Z"/><path class="cls-1" d="M126.64,18.43a15.11,15.11,0,1,1-15.1-15.1A15.1,15.1,0,0,1,126.64,18.43Z"/><line class="cls-1" x1="123.58" y1="31.69" x2="127.67" y2="36.9"/><line class="cls-1" x1="125.5" y1="38.61" x2="121.41" y2="33.4"/><path class="cls-1" d="M137.05,45.86a3.21,3.21,0,0,1-.53,4.51h0a3.22,3.22,0,0,1-4.52-.54l-6.08-7.73a3.2,3.2,0,0,1,.54-4.51h0a3.2,3.2,0,0,1,4.51.54Z"/><g id="house-2" data-name="house"><polygon class="cls-1" points="117.58 17.88 117.58 25.42 113.45 25.42 113.45 21.29 109.56 21.29 109.56 25.42 105.42 25.42 105.42 17.88 111.5 12.77 117.58 17.88"/><polyline class="cls-1" points="119.31 16.18 117 14.28 117 9.49 114.29 9.49 114.29 12.04 111.5 9.74 103.96 16.06"/></g></g></g></svg>