<svg xmlns="http://www.w3.org/2000/svg" viewBox="0 0 45.26 51.68"><defs><style>.cls-1{fill:none;stroke:#282828;stroke-linecap:round;stroke-linejoin:round;stroke-width:1.25px;}</style></defs><title>Asset 2</title><g id="Layer_2" data-name="Layer 2"><g id="Layer_1-2" data-name="Layer 1"><path class="cls-1" d="M36.24,18.43A17.81,17.81,0,1,1,18.43.62,17.81,17.81,0,0,1,36.24,18.43Z"/><path class="cls-1" d="M33.53,18.43a15.1,15.1,0,1,1-15.1-15.1A15.1,15.1,0,0,1,33.53,18.43Z"/><line class="cls-1" x1="30.47" y1="31.69" x2="34.57" y2="36.9"/><line class="cls-1" x1="32.4" y1="38.61" x2="28.3" y2="33.4"/><path class="cls-1" d="M44,45.86a3.2,3.2,0,0,1-.54,4.51h0a3.2,3.2,0,0,1-4.51-.54L32.81,42.1a3.22,3.22,0,0,1,.54-4.51h0a3.22,3.22,0,0,1,4.52.54Z"/><g id="house"><polygon class="cls-1" points="24.48 17.88 24.48 25.42 20.34 25.42 20.34 21.29 16.45 21.29 16.45 25.42 12.32 25.42 12.32 17.88 18.4 12.77 24.48 17.88"/><polyline class="cls-1" points="26.2 16.18 23.9 14.28 23.9 9.49 21.19 9.49 21.19 12.04 18.4 9.74 10.86 16.06"/></g></g></g></svg>