<svg xmlns="http://www.w3.org/2000/svg" viewBox="0 0 205.55 197.22"><defs><style>.cls-1,.cls-2{fill:#fff;}.cls-1,.cls-3{stroke:#282828;stroke-linecap:round;stroke-linejoin:round;stroke-width:1.09px;}.cls-3{fill:none;}.cls-4{fill:#edeeef;stroke:#000;stroke-miterlimit:10;}</style></defs><title>Asset 4</title><g id="Layer_2" data-name="Layer 2"><g id="Layer_1-2" data-name="Layer 1"><path class="cls-1" d="M64.31,140.73A11.25,11.25,0,0,1,53.07,152h0a11.25,11.25,0,0,1-11.25-11.25v-2.5A11.25,11.25,0,0,1,53.07,127h0a11.25,11.25,0,0,1,11.24,11.25Z"/><path class="cls-1" d="M127.39,140.73A11.25,11.25,0,0,1,116.14,152h0a11.25,11.25,0,0,1-11.25-11.25v-2.5A11.25,11.25,0,0,1,116.14,127h0a11.25,11.25,0,0,1,11.25,11.25Z"/><path class="cls-1" d="M156.52,121.69a11.25,11.25,0,0,1-11.24,11.25h0A11.25,11.25,0,0,1,134,121.69v-2.5a11.25,11.25,0,0,1,11.25-11.25h0a11.25,11.25,0,0,1,11.24,11.25Z"/><path class="cls-1" d="M127.4,97.69a11.25,11.25,0,0,1-11.25,11.25h0a11.25,11.25,0,0,1-11.24-11.25v-2.5a11.24,11.24,0,0,1,11.24-11.25h0A11.24,11.24,0,0,1,127.4,95.19Z"/><path class="cls-1" d="M35.17,121.69a11.25,11.25,0,0,1-11.25,11.25h0a11.25,11.25,0,0,1-11.24-11.25v-2.5a11.25,11.25,0,0,1,11.24-11.25h0a11.25,11.25,0,0,1,11.25,11.25Z"/><path class="cls-1" d="M64.29,97.69A11.25,11.25,0,0,1,53,108.94h0A11.25,11.25,0,0,1,41.79,97.69v-2.5A11.24,11.24,0,0,1,53,83.94h0A11.25,11.25,0,0,1,64.29,95.19Z"/><path class="cls-1" d="M95.85,121.69A11.25,11.25,0,0,1,84.6,132.94h0a11.25,11.25,0,0,1-11.25-11.25v-2.5A11.25,11.25,0,0,1,84.6,107.94h0a11.25,11.25,0,0,1,11.25,11.25Z"/><path class="cls-2" d="M65.4,159,73,165a7.7,7.7,0,0,1,2.55,5.29v23.12a3.27,3.27,0,0,1-3.27,3.26H53.06"/><path class="cls-3" d="M65.4,159,73,165a7.7,7.7,0,0,1,2.55,5.29v23.12a3.27,3.27,0,0,1-3.27,3.26H53.06"/><path class="cls-2" d="M162.85,143.78l4,3.15a7.7,7.7,0,0,1,2.55,5.3v23.11a3.27,3.27,0,0,1-3.27,3.26H146.9"/><path class="cls-3" d="M162.85,143.78l4,3.15a7.7,7.7,0,0,1,2.55,5.3v23.11a3.27,3.27,0,0,1-3.27,3.26H146.9"/><path class="cls-2" d="M40.7,159l-7.55,6a7.66,7.66,0,0,0-2.55,5.29v23.12a3.26,3.26,0,0,0,3.26,3.26H53"/><path class="cls-3" d="M40.7,159l-7.55,6a7.66,7.66,0,0,0-2.55,5.29v23.12a3.26,3.26,0,0,0,3.26,3.26H53"/><path class="cls-2" d="M128.49,159l7.55,6a7.66,7.66,0,0,1,2.55,5.29v23.12a3.27,3.27,0,0,1-3.26,3.26H116.15"/><path class="cls-3" d="M128.49,159l7.55,6a7.66,7.66,0,0,1,2.55,5.29v23.12a3.27,3.27,0,0,1-3.26,3.26H116.15"/><path class="cls-2" d="M103.79,159l-7.55,6a7.67,7.67,0,0,0-2.56,5.29v23.12A3.27,3.27,0,0,0,97,196.67h19.18"/><path class="cls-3" d="M103.79,159l-7.55,6a7.67,7.67,0,0,0-2.56,5.29v23.12A3.27,3.27,0,0,0,97,196.67h19.18"/><path class="cls-2" d="M10.65,140.71l-7.56,6A7.72,7.72,0,0,0,.54,152v23.12a3.28,3.28,0,0,0,3.27,3.26H23"/><path class="cls-3" d="M10.65,140.71l-7.56,6A7.72,7.72,0,0,0,.54,152v23.12a3.28,3.28,0,0,0,3.27,3.26H23"/><path class="cls-1" d="M161.63,143.78l13.57-22.6a5.56,5.56,0,0,1,7.62-1.91h0a5.56,5.56,0,0,1,1.9,7.63l-15.51,25.83"/><path class="cls-1" d="M72.39,91.84,86,69.24a5.57,5.57,0,0,1,7.63-1.91h0A5.56,5.56,0,0,1,95.49,75L80,100.78"/><line class="cls-1" x1="91.05" y1="66.77" x2="91.05" y2="34.66"/><path class="cls-1" d="M116.14,25.63A25.09,25.09,0,1,1,91.05.54,25.09,25.09,0,0,1,116.14,25.63Z"/><path class="cls-1" d="M109.8,25.63A18.75,18.75,0,1,1,91.05,6.89,18.74,18.74,0,0,1,109.8,25.63Z"/><path class="cls-4" d="M93.41,14.77a.54.54,0,0,1-.34-.14A.19.19,0,0,1,93,14.5h0V13.29a1.5,1.5,0,0,0-.09-.52,1.73,1.73,0,0,0-.14-.31,2,2,0,0,0-1.7-.91H91a1.93,1.93,0,0,0-1.58.9,1.77,1.77,0,0,0-.15.31,1.5,1.5,0,0,0-.09.52v1.5a.15.15,0,0,1,0,.07l0,0a.55.55,0,0,1-.17.1l-.07,0c-3.41.76-5.53,3-5.53,5.78A5,5,0,0,0,83.42,22,4.64,4.64,0,0,0,84,23.37a5.48,5.48,0,0,0,.34.46,5.2,5.2,0,0,0,.38.44c.14.13.28.27.44.4s.31.25.48.36.34.24.51.35l.56.32c.39.21.8.4,1.23.59.72.3,1.47.57,2.24.83l.31.11a2.09,2.09,0,0,1,.3.11l.54.21.25.11.45.21.21.11a5.29,5.29,0,0,1,.53.31l.29.21a1.59,1.59,0,0,1,.24.2,2,2,0,0,1,.21.2,1.63,1.63,0,0,1,.17.2l.13.19,0,.1.09.19.06.18a2.56,2.56,0,0,1,0,.27c0,.06,0,.12,0,.18v.09a1.79,1.79,0,0,1-.16.76,2.21,2.21,0,0,1-.46.65,3.11,3.11,0,0,1-.28.23,5.06,5.06,0,0,1-3,.81A11.34,11.34,0,0,1,86,32h0l-.17-.06-.07,0-.12,0-.09,0h-.32l-.24,0h-.07a2.1,2.1,0,0,0-.24.06h0l-.23.08-.06,0a2.39,2.39,0,0,0-.22.12h0l-.2.14,0,0-.18.16h0a1.33,1.33,0,0,0-.14.19l0,.05a1.51,1.51,0,0,0-.11.22h0l-.12.28a1.06,1.06,0,0,0-.1.3.77.77,0,0,0,0,.15.92.92,0,0,0,0,.16,1.89,1.89,0,0,0,.06.47.94.94,0,0,0,.06.15,1,1,0,0,0,.07.15,1.63,1.63,0,0,0,.31.42l.13.12a2,2,0,0,0,.47.27,13.23,13.23,0,0,0,2.49.74c.36.07.73.13,1.1.17a5.32,5.32,0,0,0,.56.06.63.63,0,0,1,.3.11.22.22,0,0,1,.11.13s0,0,0,0V38a1.85,1.85,0,0,0,1.93,1.74h0A1.85,1.85,0,0,0,92.78,38V36.41a.26.26,0,0,1,.14-.19l.08,0a.45.45,0,0,1,.11,0,11.09,11.09,0,0,0,1.41-.43,8.48,8.48,0,0,0,1.25-.6l.49-.31c.16-.11.31-.23.46-.35l.21-.18a6.47,6.47,0,0,0,.59-.58c.11-.14.23-.28.33-.42l.15-.22a4.7,4.7,0,0,0,.39-.69,4.89,4.89,0,0,0,.2-.48,5.32,5.32,0,0,0,.32-1.82,5.56,5.56,0,0,0-2.53-4.74c-.16-.12-.33-.23-.51-.34a2.26,2.26,0,0,0-.26-.16l-.55-.31-.28-.14c-.29-.14-.58-.27-.88-.39l-.29-.12-.6-.23-.61-.21-.87-.31-.52-.2-.68-.28-.58-.28-.33-.17c-.92-.52-1.29-1-1.33-1.65a.53.53,0,0,1,0-.13c0-.87.75-1.88,2.79-2a5.54,5.54,0,0,1,.59,0,10.26,10.26,0,0,1,3.51.59l.19.05.06,0,.12,0h.37L96,19H96l.21-.05h0a1,1,0,0,0,.23-.08l0,0,.2-.1h0l.2-.14,0,0,.16-.16h0a1.33,1.33,0,0,0,.14-.19l0,0a1.51,1.51,0,0,0,.11-.22l.12-.25a1.58,1.58,0,0,0,0-1.28.8.8,0,0,0-.08-.16.86.86,0,0,0-.1-.16,1.74,1.74,0,0,0-.9-.67A13.75,13.75,0,0,0,95,15,16.34,16.34,0,0,0,93.41,14.77Z"/><line class="cls-1" x1="179.87" y1="118.04" x2="179.87" y2="85.93"/><path class="cls-1" d="M205,79.59a25.14,25.14,0,1,1-25.13-25.13A25.13,25.13,0,0,1,205,79.59Z"/><path class="cls-1" d="M199.4,79.59a19.53,19.53,0,1,1-19.53-19.53A19.53,19.53,0,0,1,199.4,79.59Z"/><path class="cls-4" d="M181.76,74.62a.38.38,0,0,1-.24-.1.14.14,0,0,1-.05-.09h0v-.86a1.15,1.15,0,0,0-.06-.37.88.88,0,0,0-.1-.22,1.42,1.42,0,0,0-1.21-.65H180a1.41,1.41,0,0,0-1.13.64,1.47,1.47,0,0,0-.1.22,1.15,1.15,0,0,0-.06.37v1a0,0,0,0,1,0,0,.09.09,0,0,1,0,0l0,0a.35.35,0,0,1-.12.07l0,0c-2.42.54-3.93,2.12-3.93,4.11a3.79,3.79,0,0,0,.1.84,3.56,3.56,0,0,0,.41,1,2.8,2.8,0,0,0,.24.33,4.12,4.12,0,0,0,.28.31,4,4,0,0,0,.3.28l.34.27.37.24.4.23c.28.15.57.28.87.41.51.22,1,.42,1.59.6l.23.07.21.08.38.15.18.08.32.15.14.07a4.23,4.23,0,0,1,.38.23l.21.14.17.15a1,1,0,0,1,.15.14l.12.14.09.14,0,.07.06.13a.93.93,0,0,1,0,.13,1.42,1.42,0,0,1,0,.2s0,.08,0,.12v.07a1.25,1.25,0,0,1-.12.54,1.31,1.31,0,0,1-.33.46l-.19.16a3.61,3.61,0,0,1-2.12.58,8,8,0,0,1-2.95-.57h0l-.12,0h0l-.09,0h-.5l-.18,0h0l-.17.06,0,0-.16.08h0a.71.71,0,0,0-.14.1l0,0-.13.12h0a.71.71,0,0,0-.1.14l0,0a.8.8,0,0,0-.08.16h0l-.09.19a.9.9,0,0,0-.06.22.43.43,0,0,0,0,.11.41.41,0,0,0,0,.11,1.26,1.26,0,0,0,.05.33.49.49,0,0,0,0,.11.37.37,0,0,0,0,.11,1.29,1.29,0,0,0,.22.3l.09.08a1.35,1.35,0,0,0,.33.19,9.67,9.67,0,0,0,1.77.53q.39.08.78.12l.4,0a.36.36,0,0,1,.22.07.22.22,0,0,1,.08.09v1a1.31,1.31,0,0,0,1.38,1.23h0a1.31,1.31,0,0,0,1.37-1.23V90a.17.17,0,0,1,.1-.13l.06,0,.08,0a7.75,7.75,0,0,0,1-.3,5.13,5.13,0,0,0,.88-.43l.36-.22.32-.24.15-.13a4,4,0,0,0,.41-.42,3.15,3.15,0,0,0,.24-.3l.11-.15a3.43,3.43,0,0,0,.28-.49c0-.12.1-.23.14-.35a3.69,3.69,0,0,0,.23-1.29,4,4,0,0,0-1.8-3.37l-.36-.24-.19-.11-.39-.22-.2-.1-.62-.28-.21-.08-.43-.17-.43-.15-.62-.22-.36-.14-.49-.2-.41-.19-.24-.13c-.65-.37-.91-.72-.94-1.17a.28.28,0,0,1,0-.09c0-.62.53-1.33,2-1.45l.43,0a7.27,7.27,0,0,1,2.49.42l.13,0h0l.09,0h.48l.15,0h0a1,1,0,0,0,.16-.06h0l.14-.07h0l.14-.1,0,0,.12-.11h0l.1-.14,0,0a1.09,1.09,0,0,1,.08-.15l.08-.18a1.06,1.06,0,0,0,.1-.46,1,1,0,0,0-.09-.45l-.06-.12-.07-.11a1.63,1.63,0,0,0-.17-.2,1.58,1.58,0,0,0-.47-.28,8.68,8.68,0,0,0-1.06-.3A10.79,10.79,0,0,0,181.76,74.62Z"/><path class="cls-4" d="M169.55,72.89a.26.26,0,0,1-.16-.06.09.09,0,0,1,0-.06h0V72.2a.69.69,0,0,0,0-.25.61.61,0,0,0-.07-.14.9.9,0,0,0-.79-.43h-.06a1,1,0,0,0-.75.43.61.61,0,0,0-.07.14,1,1,0,0,0,0,.25v.7a.08.08,0,0,1,0,0h0l-.08,0h0a2.91,2.91,0,0,0-2.6,2.72,2.53,2.53,0,0,0,.06.56,2.35,2.35,0,0,0,.27.65,1.77,1.77,0,0,0,.16.22l.18.2.21.19.22.18.25.16.26.15c.18.1.38.19.58.28s.69.27,1.05.39l.15.05.14,0,.25.1.12,0,.21.1.1,0,.25.15a.71.71,0,0,1,.14.1l.11.09.1.09.08.1.06.09,0,0a.36.36,0,0,1,0,.09.32.32,0,0,1,0,.09.61.61,0,0,1,0,.13v.12a.86.86,0,0,1-.07.36,1.1,1.1,0,0,1-.22.31l-.13.11a2.41,2.41,0,0,1-1.41.38,5.38,5.38,0,0,1-1.95-.37h0L166,81h0l-.06,0h-.34l-.11,0h0l-.11,0h0l-.11,0h0l-.09.06,0,0-.08.08h0l-.07.09v0l-.06.11h0l-.05.13a.58.58,0,0,0-.05.14.2.2,0,0,0,0,.07v.08a.58.58,0,0,0,0,.22.25.25,0,0,0,0,.07l0,.07a1,1,0,0,0,.15.2l.06,0a1,1,0,0,0,.22.13,6.42,6.42,0,0,0,1.17.35L167,83l.27,0a.2.2,0,0,1,.14,0s0,0,0,.06v.65a.86.86,0,0,0,.91.81h0a.86.86,0,0,0,.91-.81v-.74s0-.06.07-.09l0,0h0l.67-.2a3.92,3.92,0,0,0,.58-.29l.23-.14a1.84,1.84,0,0,0,.22-.17l.1-.08a3.7,3.7,0,0,0,.28-.28l.15-.2a.36.36,0,0,0,.07-.1,3.37,3.37,0,0,0,.19-.32L172,81a2.47,2.47,0,0,0,.15-.86A2.64,2.64,0,0,0,171,77.86l-.24-.16-.12-.07-.26-.14-.13-.07-.42-.19-.14,0-.28-.11-.28-.1-.41-.15-.24-.09-.33-.13-.27-.13-.16-.08c-.43-.25-.61-.48-.62-.78a.13.13,0,0,1,0-.06c0-.41.36-.88,1.32-1h.28a5,5,0,0,1,1.65.27l.08,0h0l.06,0h.32l.1,0h0l.1,0h0l.09,0h0l.1-.06,0,0,.08-.07h0l.07-.09,0,0a.31.31,0,0,0,.05-.1l.06-.12a1,1,0,0,0,.07-.3.8.8,0,0,0-.06-.3.3.3,0,0,1,0-.08l-.05-.07a.49.49,0,0,0-.12-.13.81.81,0,0,0-.31-.19,6.43,6.43,0,0,0-.7-.2C170.07,73,169.82,72.92,169.55,72.89Z"/><path class="cls-4" d="M192.64,72.89a.26.26,0,0,1-.16-.06.09.09,0,0,1,0-.06h0V72.2a1,1,0,0,0,0-.25s0-.1-.08-.14a.91.91,0,0,0-.8-.43h0a.92.92,0,0,0-.74.43.37.37,0,0,0-.07.14.7.7,0,0,0-.05.25v.7a.08.08,0,0,1,0,0h0l-.08,0h0a2.91,2.91,0,0,0-2.6,2.72,2.53,2.53,0,0,0,.06.56,2.35,2.35,0,0,0,.27.65,1.77,1.77,0,0,0,.16.22l.18.2.21.19.22.18.25.16.26.15c.18.1.38.19.58.28s.69.27,1.05.39l.15.05.14,0,.25.1.12,0,.21.1.1,0,.25.15a.71.71,0,0,1,.14.1l.11.09.1.09.08.1.06.09,0,0,.05.09a.29.29,0,0,1,0,.09.61.61,0,0,1,0,.13v.12a.86.86,0,0,1-.07.36,1.1,1.1,0,0,1-.22.31l-.13.11a2.39,2.39,0,0,1-1.41.38,5.38,5.38,0,0,1-2-.37h0l-.08,0h0l0,0h-.34l-.11,0h0l-.11,0h0l-.11,0h0l-.09.06a0,0,0,0,0,0,0l-.09.08h0l-.07.09v0l-.06.11h0l0,.13a.58.58,0,0,0-.05.14s0,.05,0,.07v.08a.89.89,0,0,0,0,.22.25.25,0,0,0,0,.07.25.25,0,0,0,0,.07.66.66,0,0,0,.14.2l.06,0a1,1,0,0,0,.22.13,6.3,6.3,0,0,0,1.18.35L190,83l.27,0a.2.2,0,0,1,.14,0s.05,0,.05.06v.65a.86.86,0,0,0,.91.81h0a.86.86,0,0,0,.91-.81v-.74s0-.06.07-.09l0,0h.05c.24-.06.46-.13.67-.2a3.92,3.92,0,0,0,.58-.29l.24-.14.21-.17.1-.08a3.7,3.7,0,0,0,.28-.28,1.49,1.49,0,0,0,.15-.2l.08-.1.18-.32.09-.23a2.47,2.47,0,0,0,.15-.86A2.64,2.64,0,0,0,194,77.86l-.24-.16-.12-.07-.26-.14-.13-.07-.42-.19-.13,0-.29-.11-.28-.1-.41-.15-.24-.09-.33-.13-.27-.13-.16-.08c-.43-.25-.6-.48-.62-.78a.13.13,0,0,1,0-.06c0-.41.36-.88,1.32-1h.28a4.92,4.92,0,0,1,1.65.27l.08,0h0l.06,0h.32l.1,0h0l.11,0h0l.09,0h0l.09-.06,0,0,.08-.07h0l.07-.09s0,0,0,0a.31.31,0,0,0,.05-.1l.06-.12a.78.78,0,0,0,.07-.3.8.8,0,0,0-.06-.3.3.3,0,0,1,0-.08l-.05-.07a.49.49,0,0,0-.12-.13.81.81,0,0,0-.31-.19,6.43,6.43,0,0,0-.7-.2C193.16,73,192.91,72.92,192.64,72.89Z"/></g></g></svg>