<svg xmlns="http://www.w3.org/2000/svg" viewBox="0 0 205.55 416.93"><defs><style>.cls-1,.cls-2{fill:#fff;}.cls-1,.cls-3{stroke:#282828;stroke-linecap:round;stroke-linejoin:round;stroke-width:1.09px;}.cls-3{fill:none;}.cls-4{fill:#edeeef;stroke:#000;stroke-miterlimit:10;}</style></defs><title>Asset 8</title><g id="Layer_2" data-name="Layer 2"><g id="Layer_1-2" data-name="Layer 1"><path class="cls-1" d="M64.31,360.44a11.25,11.25,0,0,1-11.24,11.25h0a11.25,11.25,0,0,1-11.25-11.25v-2.5a11.25,11.25,0,0,1,11.25-11.25h0a11.25,11.25,0,0,1,11.24,11.25Z"/><path class="cls-1" d="M127.39,360.44a11.25,11.25,0,0,1-11.25,11.25h0a11.25,11.25,0,0,1-11.25-11.25v-2.5a11.25,11.25,0,0,1,11.25-11.25h0a11.25,11.25,0,0,1,11.25,11.25Z"/><path class="cls-1" d="M156.52,341.4a11.24,11.24,0,0,1-11.24,11.25h0A11.24,11.24,0,0,1,134,341.4v-2.5a11.24,11.24,0,0,1,11.25-11.24h0a11.24,11.24,0,0,1,11.24,11.24Z"/><path class="cls-1" d="M127.4,317.4a11.25,11.25,0,0,1-11.25,11.25h0a11.25,11.25,0,0,1-11.24-11.25v-2.5a11.25,11.25,0,0,1,11.24-11.25h0A11.25,11.25,0,0,1,127.4,314.9Z"/><path class="cls-1" d="M35.17,341.4a11.24,11.24,0,0,1-11.25,11.25h0A11.24,11.24,0,0,1,12.68,341.4v-2.5a11.24,11.24,0,0,1,11.24-11.24h0A11.24,11.24,0,0,1,35.17,338.9Z"/><path class="cls-1" d="M64.29,317.4A11.25,11.25,0,0,1,53,328.65h0A11.25,11.25,0,0,1,41.79,317.4v-2.5A11.25,11.25,0,0,1,53,303.65h0A11.25,11.25,0,0,1,64.29,314.9Z"/><path class="cls-1" d="M95.85,341.4A11.25,11.25,0,0,1,84.6,352.65h0A11.25,11.25,0,0,1,73.35,341.4v-2.5A11.25,11.25,0,0,1,84.6,327.66h0A11.25,11.25,0,0,1,95.85,338.9Z"/><path class="cls-2" d="M65.4,378.68l7.56,6a7.7,7.7,0,0,1,2.55,5.3v23.11a3.28,3.28,0,0,1-3.27,3.27H53.06"/><path class="cls-3" d="M65.4,378.68l7.56,6a7.7,7.7,0,0,1,2.55,5.3v23.11a3.28,3.28,0,0,1-3.27,3.27H53.06"/><path class="cls-2" d="M162.85,363.49l4,3.15a7.7,7.7,0,0,1,2.55,5.3v23.11a3.28,3.28,0,0,1-3.27,3.27H146.9"/><path class="cls-3" d="M162.85,363.49l4,3.15a7.7,7.7,0,0,1,2.55,5.3v23.11a3.28,3.28,0,0,1-3.27,3.27H146.9"/><path class="cls-2" d="M40.7,378.68l-7.55,6A7.66,7.66,0,0,0,30.6,390v23.11a3.27,3.27,0,0,0,3.26,3.27H53"/><path class="cls-3" d="M40.7,378.68l-7.55,6A7.66,7.66,0,0,0,30.6,390v23.11a3.27,3.27,0,0,0,3.26,3.27H53"/><path class="cls-2" d="M128.49,378.68l7.55,6a7.66,7.66,0,0,1,2.55,5.3v23.11a3.28,3.28,0,0,1-3.26,3.27H116.15"/><path class="cls-3" d="M128.49,378.68l7.55,6a7.66,7.66,0,0,1,2.55,5.3v23.11a3.28,3.28,0,0,1-3.26,3.27H116.15"/><path class="cls-2" d="M103.79,378.68l-7.55,6a7.67,7.67,0,0,0-2.56,5.3v23.11A3.28,3.28,0,0,0,97,416.39h19.18"/><path class="cls-3" d="M103.79,378.68l-7.55,6a7.67,7.67,0,0,0-2.56,5.3v23.11A3.28,3.28,0,0,0,97,416.39h19.18"/><path class="cls-2" d="M10.65,360.43l-7.56,6a7.68,7.68,0,0,0-2.55,5.29v23.12a3.28,3.28,0,0,0,3.27,3.27H23"/><path class="cls-3" d="M10.65,360.43l-7.56,6a7.68,7.68,0,0,0-2.55,5.29v23.12a3.28,3.28,0,0,0,3.27,3.27H23"/><path class="cls-1" d="M161.63,363.49l13.57-22.6a5.55,5.55,0,0,1,7.62-1.9h0a5.55,5.55,0,0,1,1.9,7.62l-15.51,25.83"/><path class="cls-1" d="M72.39,311.55,86,289a5.56,5.56,0,0,1,7.63-1.9h0a5.55,5.55,0,0,1,1.9,7.62L80,320.5"/><line class="cls-1" x1="91.05" y1="286.48" x2="91.05" y2="254.38"/><path class="cls-1" d="M116.14,245.34a25.09,25.09,0,1,1-25.09-25.08A25.09,25.09,0,0,1,116.14,245.34Z"/><path class="cls-1" d="M109.8,245.34A18.75,18.75,0,1,1,91.05,226.6,18.74,18.74,0,0,1,109.8,245.34Z"/><path class="cls-4" d="M93.41,234.48a.54.54,0,0,1-.34-.14.19.19,0,0,1-.06-.13h0V233a1.44,1.44,0,0,0-.09-.51,1.83,1.83,0,0,0-.14-.32,2,2,0,0,0-1.7-.91H91a2,2,0,0,0-1.58.9,1.87,1.87,0,0,0-.15.32,1.44,1.44,0,0,0-.09.51v1.5a.25.25,0,0,1,0,.08l0,0a.55.55,0,0,1-.17.1l-.07,0c-3.41.77-5.53,3-5.53,5.78a4.89,4.89,0,0,0,.14,1.18,4.64,4.64,0,0,0,.58,1.39c.11.16.22.32.34.47a5.08,5.08,0,0,0,.38.43,5.66,5.66,0,0,0,.44.4c.15.13.31.25.48.37s.34.23.51.34l.56.32c.39.21.8.41,1.23.59.72.31,1.47.58,2.24.83l.31.11a2.09,2.09,0,0,1,.3.11l.54.21.25.11.45.21.21.11c.19.1.37.21.53.31l.29.21a2.54,2.54,0,0,1,.24.2l.21.2.17.2.13.19,0,.1.09.19.06.18c0,.1,0,.19,0,.28s0,.11,0,.17V250a1.76,1.76,0,0,1-.16.76,2.08,2.08,0,0,1-.46.65,3.11,3.11,0,0,1-.28.23,5.06,5.06,0,0,1-3,.82,11.31,11.31,0,0,1-4.14-.8h0l-.17,0-.07,0-.12,0h-.09l-.11,0h-.21l-.24,0h-.07l-.24,0h0l-.23.08-.06,0-.22.11h0L84,252l0,0-.18.17h0a1.33,1.33,0,0,0-.14.19l0,0a1.51,1.51,0,0,0-.11.22h0l-.12.28a1.18,1.18,0,0,0-.1.3.78.78,0,0,0,0,.16.76.76,0,0,0,0,.15,1.84,1.84,0,0,0,.06.47.94.94,0,0,0,.06.15.77.77,0,0,0,.07.16,1.77,1.77,0,0,0,.31.41l.13.12a2,2,0,0,0,.47.27,13.23,13.23,0,0,0,2.49.74c.36.07.73.13,1.1.18l.56.06a.63.63,0,0,1,.3.1.26.26,0,0,1,.11.13.08.08,0,0,1,0,0v1.33a1.85,1.85,0,0,0,1.93,1.74h0a1.85,1.85,0,0,0,1.94-1.74v-1.56c0-.05,0-.12.14-.18l.08-.05.11,0a9.68,9.68,0,0,0,1.41-.43,9.58,9.58,0,0,0,1.25-.59c.17-.1.33-.21.49-.32l.46-.34.21-.18a8.21,8.21,0,0,0,.59-.59c.11-.14.23-.28.33-.42l.15-.22a4.7,4.7,0,0,0,.39-.69,4.89,4.89,0,0,0,.2-.48,5.24,5.24,0,0,0,.32-1.82A5.56,5.56,0,0,0,96.38,245c-.16-.12-.33-.23-.51-.34a2.26,2.26,0,0,0-.26-.16,5.86,5.86,0,0,0-.55-.3l-.28-.15-.88-.39-.29-.12-.6-.23-.61-.21-.87-.31-.52-.2-.68-.28-.58-.27-.33-.18c-.92-.52-1.29-1-1.33-1.65a.53.53,0,0,1,0-.13c0-.87.75-1.87,2.79-2l.59,0a10.26,10.26,0,0,1,3.51.58l.19.05.06,0,.12,0h.08l.11,0H96l.21-.05h0l.23-.08,0,0a1.24,1.24,0,0,0,.2-.1h0a1.37,1.37,0,0,0,.2-.13l0,0,.16-.15,0,0a1.24,1.24,0,0,0,.14-.18l0,0a2.12,2.12,0,0,0,.11-.21l.12-.26a1.57,1.57,0,0,0,.14-.64,1.63,1.63,0,0,0-.13-.64l-.08-.16a1.4,1.4,0,0,0-.1-.16,2.09,2.09,0,0,0-.24-.28,2.3,2.3,0,0,0-.66-.39,13.75,13.75,0,0,0-1.5-.43A16.34,16.34,0,0,0,93.41,234.48Z"/><line class="cls-1" x1="179.87" y1="337.76" x2="179.87" y2="305.65"/><path class="cls-1" d="M205,299.3a25.14,25.14,0,1,1-25.13-25.13A25.13,25.13,0,0,1,205,299.3Z"/><path class="cls-1" d="M199.4,299.3a19.53,19.53,0,1,1-19.53-19.52A19.53,19.53,0,0,1,199.4,299.3Z"/><path class="cls-4" d="M181.76,294.34a.39.39,0,0,1-.24-.11.14.14,0,0,1-.05-.09h0v-.86a1,1,0,0,0-.06-.36.94.94,0,0,0-.1-.23,1.41,1.41,0,0,0-1.21-.64H180a1.41,1.41,0,0,0-1.13.64,1.6,1.6,0,0,0-.1.23,1,1,0,0,0-.06.36v1a0,0,0,0,1,0,0,.09.09,0,0,1,0,0l0,0a.34.34,0,0,1-.12.06l0,0c-2.42.55-3.93,2.12-3.93,4.11a3.72,3.72,0,0,0,.1.84,3.63,3.63,0,0,0,.41,1c.08.11.15.22.24.33l.28.3c.09.1.2.19.3.29l.34.26.37.24c.13.08.26.16.4.23s.57.29.87.42c.51.22,1,.41,1.59.59l.23.08.21.07.38.16.18.07.32.15.14.08a4.27,4.27,0,0,1,.38.22l.21.15.17.14.15.14.12.14.09.14a.43.43,0,0,0,0,.07l.06.13a.74.74,0,0,1,0,.14,1.29,1.29,0,0,1,0,.19s0,.08,0,.12v.07a1.25,1.25,0,0,1-.12.54,1.31,1.31,0,0,1-.33.46l-.19.16a3.54,3.54,0,0,1-2.12.58,8.23,8.23,0,0,1-2.95-.56h0l-.12,0h0l-.09,0H176l-.17,0h0l-.18,0h0l-.17.05,0,0-.16.08h0l-.14.1,0,0-.13.12h0a.71.71,0,0,0-.1.14l0,0a.53.53,0,0,0-.08.15h0l-.09.2a.83.83,0,0,0-.06.21.43.43,0,0,0,0,.11.45.45,0,0,0,0,.11,1.2,1.2,0,0,0,.05.33.36.36,0,0,0,0,.11.37.37,0,0,0,0,.11,1.29,1.29,0,0,0,.22.3l.09.08a1.38,1.38,0,0,0,.33.2,9.68,9.68,0,0,0,1.77.52q.39.08.78.12l.4.05a.57.57,0,0,1,.22.07.22.22,0,0,1,.08.09v1a1.31,1.31,0,0,0,1.38,1.23h0a1.31,1.31,0,0,0,1.37-1.23v-1.11a.17.17,0,0,1,.1-.13l.06,0,.08,0a7.75,7.75,0,0,0,1-.3,6,6,0,0,0,.88-.42l.36-.23.32-.24.15-.13a3.25,3.25,0,0,0,.41-.42,1.76,1.76,0,0,0,.24-.3l.11-.15a3.43,3.43,0,0,0,.28-.49c0-.11.1-.23.14-.34a3.73,3.73,0,0,0,.23-1.29,4,4,0,0,0-1.8-3.37l-.36-.25-.19-.11a3.72,3.72,0,0,0-.39-.21l-.2-.11-.62-.28-.21-.08-.43-.16-.43-.15-.62-.22-.36-.15a4.53,4.53,0,0,1-.49-.2l-.41-.19-.24-.12c-.65-.38-.91-.73-.94-1.17a.38.38,0,0,1,0-.1c0-.62.53-1.33,2-1.45l.43,0a7.27,7.27,0,0,1,2.49.42l.13,0h.61l.15,0h0a.52.52,0,0,0,.16-.06h0l.14-.07h0l.14-.1,0,0,.12-.11h0l.1-.13,0,0a1.09,1.09,0,0,1,.08-.15l.08-.18a1.14,1.14,0,0,0,0-.91l-.06-.11a.75.75,0,0,0-.07-.12,1.54,1.54,0,0,0-.17-.19,1.4,1.4,0,0,0-.47-.28,7.22,7.22,0,0,0-1.06-.31A8.76,8.76,0,0,0,181.76,294.34Z"/><path class="cls-4" d="M169.55,292.61a.34.34,0,0,1-.16-.07.09.09,0,0,1,0-.06h0v-.57a.61.61,0,0,0,0-.24.69.69,0,0,0-.07-.15.9.9,0,0,0-.79-.43h-.06a1,1,0,0,0-.75.43.69.69,0,0,0-.07.15.86.86,0,0,0,0,.24v.71l0,0s0,0,0,0l-.08,0h0a2.92,2.92,0,0,0-2.6,2.73,2.44,2.44,0,0,0,.06.55,2.41,2.41,0,0,0,.27.66l.16.21.18.21.21.18.22.18.25.16.26.15c.18.1.38.19.58.28s.69.27,1.05.39l.15.05.14,0,.25.1.12.05.21.1.1.05.25.15a.71.71,0,0,1,.14.1l.11.09.1.1.08.09.06.09s0,0,0,.05a.36.36,0,0,1,0,.09.26.26,0,0,1,0,.08.79.79,0,0,1,0,.13v.13a.84.84,0,0,1-.07.35,1,1,0,0,1-.22.31l-.13.11a2.41,2.41,0,0,1-1.41.38,5.38,5.38,0,0,1-1.95-.37h0a.13.13,0,0,0-.08,0h-.43l-.11,0h0l-.11,0h0l-.11.06h0l-.09.06,0,0-.08.08h0l-.07.09v0l-.06.1h0l-.05.13a.78.78,0,0,0-.05.14.22.22,0,0,0,0,.08v.07a.56.56,0,0,0,0,.22.19.19,0,0,0,0,.07l0,.07a.75.75,0,0,0,.15.2l.06.05a.71.71,0,0,0,.22.13,5.72,5.72,0,0,0,1.17.35l.52.08.27,0a.38.38,0,0,1,.14.05s0,0,0,.06v.65a.86.86,0,0,0,.91.81h0a.86.86,0,0,0,.91-.81v-.74a.13.13,0,0,1,.07-.08l0,0,0,0a4.73,4.73,0,0,0,.67-.2,5.18,5.18,0,0,0,.58-.28l.23-.15.22-.16.1-.09.28-.27.15-.2.07-.11a3.37,3.37,0,0,0,.19-.32l.09-.23a2.41,2.41,0,0,0,.15-.85,2.62,2.62,0,0,0-1.19-2.23l-.24-.16-.12-.08-.26-.14-.13-.07-.42-.18-.14-.06-.28-.11-.28-.1-.41-.14-.24-.1-.33-.13-.27-.13-.16-.08c-.43-.25-.61-.48-.62-.78a.13.13,0,0,1,0-.06c0-.41.36-.88,1.32-1h.28a5,5,0,0,1,1.65.27l.08,0h0l.06,0h.32l.1,0h0l.1,0h0l.09-.05h0a.33.33,0,0,0,.1-.06s0,0,0,0l.08-.07h0l.07-.09,0,0a.41.41,0,0,0,.05-.09l.06-.12a1.09,1.09,0,0,0,.07-.3.81.81,0,0,0-.06-.31.25.25,0,0,1,0-.07.56.56,0,0,0-.05-.08.49.49,0,0,0-.12-.13.79.79,0,0,0-.31-.18,4.77,4.77,0,0,0-.7-.21A6.2,6.2,0,0,0,169.55,292.61Z"/><path class="cls-4" d="M192.64,292.61a.34.34,0,0,1-.16-.07.09.09,0,0,1,0-.06h0v-.57a.88.88,0,0,0,0-.24l-.08-.15a.91.91,0,0,0-.8-.43h0a.92.92,0,0,0-.74.43.41.41,0,0,0-.07.15.6.6,0,0,0-.05.24v.71l0,0s0,0,0,0l-.08,0h0a2.92,2.92,0,0,0-2.6,2.73,2.44,2.44,0,0,0,.06.55,2.41,2.41,0,0,0,.27.66l.16.21.18.21.21.18.22.18.25.16.26.15c.18.1.38.19.58.28s.69.27,1.05.39l.15.05.14,0,.25.1.12.05.21.1.1.05.25.15a.71.71,0,0,1,.14.1l.11.09.1.1.08.09.06.09s0,0,0,.05l.05.09a.24.24,0,0,1,0,.08.79.79,0,0,1,0,.13v.13a.84.84,0,0,1-.07.35,1,1,0,0,1-.22.31l-.13.11a2.39,2.39,0,0,1-1.41.38,5.38,5.38,0,0,1-2-.37h0a.13.13,0,0,0-.08,0h-.43l-.11,0h0l-.11,0h0l-.11.06h0l-.09.06,0,0-.09.08h0L188,301v0l-.06.1h0l0,.13a.78.78,0,0,0-.05.14s0,.05,0,.08v.07a.83.83,0,0,0,0,.22.19.19,0,0,0,0,.07.16.16,0,0,0,0,.07.56.56,0,0,0,.14.2l.06.05a.71.71,0,0,0,.22.13,5.63,5.63,0,0,0,1.18.35l.51.08.27,0a.38.38,0,0,1,.14.05s.05,0,.05.06v.65a.86.86,0,0,0,.91.81h0a.86.86,0,0,0,.91-.81v-.74a.13.13,0,0,1,.07-.08l0,0,.05,0a4.37,4.37,0,0,0,.67-.2,5.18,5.18,0,0,0,.58-.28L194,302l.21-.16.1-.09.28-.27c0-.07.11-.13.15-.2l.08-.11.18-.32.09-.23a2.41,2.41,0,0,0,.15-.85,2.62,2.62,0,0,0-1.19-2.23l-.24-.16-.12-.08-.26-.14-.13-.07-.42-.18-.13-.06-.29-.11-.28-.1-.41-.14-.24-.1-.33-.13-.27-.13-.16-.08c-.43-.25-.6-.48-.62-.78a.13.13,0,0,1,0-.06c0-.41.36-.88,1.32-1h.28a4.92,4.92,0,0,1,1.65.27l.08,0h0l.06,0h.32l.1,0h0l.11,0h0l.09-.05h0l.09-.06s0,0,0,0l.08-.07h0l.07-.09,0,0a.41.41,0,0,0,.05-.09l.06-.12a.75.75,0,0,0,0-.61.25.25,0,0,1,0-.07.56.56,0,0,0-.05-.08.49.49,0,0,0-.12-.13.79.79,0,0,0-.31-.18,4.77,4.77,0,0,0-.7-.21A6.2,6.2,0,0,0,192.64,292.61Z"/><path class="cls-1" d="M71.11,126.12a11.25,11.25,0,0,1-11.25,11.25h0a11.25,11.25,0,0,1-11.25-11.25v-2.5a11.24,11.24,0,0,1,11.25-11.25h0a11.25,11.25,0,0,1,11.25,11.25Z"/><path class="cls-1" d="M134.18,126.12a11.25,11.25,0,0,1-11.25,11.25h0a11.25,11.25,0,0,1-11.25-11.25v-2.5a11.25,11.25,0,0,1,11.25-11.25h0a11.25,11.25,0,0,1,11.25,11.25Z"/><path class="cls-1" d="M163.31,107.08a11.25,11.25,0,0,1-11.24,11.25h0a11.25,11.25,0,0,1-11.25-11.25v-2.5a11.25,11.25,0,0,1,11.25-11.25h0a11.25,11.25,0,0,1,11.24,11.25Z"/><path class="cls-1" d="M134.19,83.08a11.25,11.25,0,0,1-11.25,11.25h0A11.25,11.25,0,0,1,111.7,83.08v-2.5a11.24,11.24,0,0,1,11.24-11.25h0a11.24,11.24,0,0,1,11.25,11.25Z"/><path class="cls-1" d="M42,107.08a11.25,11.25,0,0,1-11.25,11.25h0a11.25,11.25,0,0,1-11.24-11.25v-2.5A11.25,11.25,0,0,1,30.71,93.33h0A11.25,11.25,0,0,1,42,104.58Z"/><path class="cls-1" d="M71.08,83.08A11.25,11.25,0,0,1,59.83,94.33h0A11.25,11.25,0,0,1,48.58,83.08v-2.5A11.25,11.25,0,0,1,59.83,69.33h0A11.25,11.25,0,0,1,71.08,80.58Z"/><path class="cls-1" d="M102.64,107.08a11.25,11.25,0,0,1-11.25,11.25h0a11.25,11.25,0,0,1-11.25-11.25v-2.5A11.25,11.25,0,0,1,91.39,93.33h0a11.25,11.25,0,0,1,11.25,11.25Z"/><path class="cls-2" d="M72.19,144.35l7.56,6a7.72,7.72,0,0,1,2.55,5.3V178.8A3.28,3.28,0,0,1,79,182.06H59.86"/><path class="cls-3" d="M72.19,144.35l7.56,6a7.72,7.72,0,0,1,2.55,5.3V178.8A3.28,3.28,0,0,1,79,182.06H59.86"/><path class="cls-2" d="M169.64,129.17l4,3.15a7.68,7.68,0,0,1,2.55,5.29v23.12a3.28,3.28,0,0,1-3.27,3.26H153.7"/><path class="cls-3" d="M169.64,129.17l4,3.15a7.68,7.68,0,0,1,2.55,5.29v23.12a3.28,3.28,0,0,1-3.27,3.26H153.7"/><path class="cls-2" d="M47.49,144.35l-7.55,6a7.68,7.68,0,0,0-2.55,5.3V178.8a3.27,3.27,0,0,0,3.26,3.26H59.83"/><path class="cls-3" d="M47.49,144.35l-7.55,6a7.68,7.68,0,0,0-2.55,5.3V178.8a3.27,3.27,0,0,0,3.26,3.26H59.83"/><path class="cls-2" d="M135.28,144.35l7.55,6a7.68,7.68,0,0,1,2.55,5.3V178.8a3.27,3.27,0,0,1-3.26,3.26H122.94"/><path class="cls-3" d="M135.28,144.35l7.55,6a7.68,7.68,0,0,1,2.55,5.3V178.8a3.27,3.27,0,0,1-3.26,3.26H122.94"/><path class="cls-2" d="M110.58,144.35l-7.55,6a7.69,7.69,0,0,0-2.56,5.3V178.8a3.28,3.28,0,0,0,3.27,3.26h19.18"/><path class="cls-3" d="M110.58,144.35l-7.55,6a7.69,7.69,0,0,0-2.56,5.3V178.8a3.28,3.28,0,0,0,3.27,3.26h19.18"/><path class="cls-2" d="M17.44,126.1l-7.56,6a7.7,7.7,0,0,0-2.55,5.3v23.12a3.28,3.28,0,0,0,3.27,3.26H29.78"/><path class="cls-3" d="M17.44,126.1l-7.56,6a7.7,7.7,0,0,0-2.55,5.3v23.12a3.28,3.28,0,0,0,3.27,3.26H29.78"/><path class="cls-1" d="M168.42,129.17,182,106.57a5.55,5.55,0,0,1,7.62-1.91h0a5.56,5.56,0,0,1,1.9,7.63L176,138.11"/><line class="cls-1" x1="185.61" y1="104" x2="185.61" y2="75.05"/><path class="cls-1" d="M202.45,69.33a16.85,16.85,0,1,1-16.84-16.84A16.84,16.84,0,0,1,202.45,69.33Z"/><path class="cls-1" d="M79.18,77.22l13.58-22.6a5.56,5.56,0,0,1,7.62-1.9h0a5.55,5.55,0,0,1,1.9,7.62L86.77,86.17"/><line class="cls-1" x1="96.37" y1="52.06" x2="96.37" y2="23.11"/><path class="cls-1" d="M113.21,17.39A16.84,16.84,0,1,1,96.37.54,16.83,16.83,0,0,1,113.21,17.39Z"/><path class="cls-1" d="M101.14,12.92a2.73,2.73,0,0,0-2.73-2.72h-4a2.73,2.73,0,0,0-2.73,2.72v1.61a2.74,2.74,0,0,0,2.73,2.73h4A2.74,2.74,0,0,1,101.14,20v1.61a2.74,2.74,0,0,1-2.73,2.73h-4a2.74,2.74,0,0,1-2.73-2.73"/><line class="cls-1" x1="96.4" y1="10.2" x2="96.4" y2="7.42"/><line class="cls-1" x1="96.4" y1="27.1" x2="96.4" y2="24.32"/><path class="cls-1" d="M189.66,68.32a2.18,2.18,0,0,0-2.18-2.18h-3.21a2.19,2.19,0,0,0-2.18,2.18v1.29a2.19,2.19,0,0,0,2.18,2.18h3.21A2.18,2.18,0,0,1,189.66,74v1.28a2.18,2.18,0,0,1-2.18,2.18h-3.21a2.19,2.19,0,0,1-2.18-2.18"/><line class="cls-1" x1="185.88" y1="66.14" x2="185.88" y2="63.92"/><line class="cls-1" x1="185.88" y1="79.65" x2="185.88" y2="77.43"/><path class="cls-1" d="M179.2,65.32a1.31,1.31,0,0,0-1.31-1.3H176a1.31,1.31,0,0,0-1.3,1.3v.77a1.3,1.3,0,0,0,1.3,1.3h1.92a1.31,1.31,0,0,1,1.31,1.31v.76a1.31,1.31,0,0,1-1.31,1.31H176a1.31,1.31,0,0,1-1.3-1.31"/><line class="cls-1" x1="176.94" y1="64.02" x2="176.94" y2="62.7"/><line class="cls-1" x1="176.94" y1="72.09" x2="176.94" y2="70.77"/><path class="cls-1" d="M197,65.32a1.31,1.31,0,0,0-1.31-1.3h-1.92a1.31,1.31,0,0,0-1.3,1.3v.77a1.3,1.3,0,0,0,1.3,1.3h1.92A1.31,1.31,0,0,1,197,68.7v.76a1.31,1.31,0,0,1-1.31,1.31h-1.92a1.31,1.31,0,0,1-1.3-1.31"/><line class="cls-1" x1="194.75" y1="64.02" x2="194.75" y2="62.7"/><line class="cls-1" x1="194.75" y1="72.09" x2="194.75" y2="70.77"/></g></g></svg>