<svg xmlns="http://www.w3.org/2000/svg" viewBox="0 0 903.04 362.03"><defs><style>.cls-1{fill:#282828;}.cls-1,.cls-2,.cls-3,.cls-4,.cls-6,.cls-7{stroke:#282828;}.cls-1,.cls-2,.cls-3,.cls-4,.cls-5,.cls-6,.cls-7,.cls-8{stroke-linecap:round;stroke-linejoin:round;}.cls-2,.cls-5,.cls-6,.cls-7{fill:#fff;}.cls-10,.cls-3{fill:#edeeef;}.cls-4,.cls-8{fill:none;}.cls-5,.cls-8{stroke:#edeeef;}.cls-6{stroke-width:0.92px;}.cls-7{stroke-width:0.84px;}.cls-9{opacity:0.3;}</style></defs><title>Asset 1</title><g id="Layer_2" data-name="Layer 2"><g id="Layer_1-2" data-name="Layer 1"><path class="cls-1" d="M702.17,93.8a1.28,1.28,0,0,0-.47-.76h0l-5.83-3.59-2.43-8.88a1.18,1.18,0,0,0-.46-.69.28.28,0,0,0-.45.13l-2.43,5.87-5.66-3.52h0a.29.29,0,0,0-.47.16,1.19,1.19,0,0,0,.16.87l4.79,8.42-1.66,6.9a1.2,1.2,0,0,0,.18.86,1,1,0,0,0,.3.33.3.3,0,0,0,.27,0l5-1.35,5,7.52c.17.27.4.4.57.33s.24-.32.18-.64l-1.66-9,5-2.39C702.17,94.39,702.24,94.12,702.17,93.8Z"/><path class="cls-1" d="M725.79,108.55a1.25,1.25,0,0,0-.48-.76h0l-5.82-3.59-2.43-8.88a1.23,1.23,0,0,0-.46-.69.28.28,0,0,0-.45.12l-2.43,5.88-5.67-3.52h0a.29.29,0,0,0-.47.16,1.16,1.16,0,0,0,.16.86l4.79,8.43-1.66,6.9a1.2,1.2,0,0,0,.18.86,1,1,0,0,0,.3.33.39.39,0,0,0,.27,0l5-1.35,5,7.52c.18.27.41.4.57.33s.24-.32.18-.64l-1.66-9,5-2.39C725.79,109.14,725.86,108.87,725.79,108.55Z"/><path class="cls-1" d="M749.4,123.3a1.25,1.25,0,0,0-.47-.76h0L743.1,119l-2.43-8.88a1.17,1.17,0,0,0-.45-.69.29.29,0,0,0-.46.12l-2.43,5.87-5.66-3.51h0a.29.29,0,0,0-.47.17,1.2,1.2,0,0,0,.15.86l4.8,8.43-1.66,6.9a1.22,1.22,0,0,0,.18.86.83.83,0,0,0,.29.32.37.37,0,0,0,.28.06l5-1.35,5,7.52c.18.27.41.4.57.33s.24-.32.18-.64l-1.66-9,5-2.39C749.41,123.89,749.47,123.62,749.4,123.3Z"/><path class="cls-1" d="M773,138.05a1.25,1.25,0,0,0-.47-.76h0l-5.83-3.6-2.43-8.87a1.22,1.22,0,0,0-.45-.69.29.29,0,0,0-.46.12L761,130.12l-5.66-3.51h0a.29.29,0,0,0-.47.17,1.21,1.21,0,0,0,.15.86l4.8,8.43L758.1,143a1.29,1.29,0,0,0,.19.86.83.83,0,0,0,.29.32.36.36,0,0,0,.27.06l5-1.35,5,7.52c.18.27.4.39.57.33s.24-.32.18-.64l-1.66-8.95,5-2.39C773,138.64,773.09,138.37,773,138.05Z"/><path class="cls-1" d="M796.64,152.79a1.22,1.22,0,0,0-.47-.75h0l-5.83-3.6-2.43-8.88a1.22,1.22,0,0,0-.45-.68.29.29,0,0,0-.46.12l-2.43,5.87-5.66-3.52h0a.29.29,0,0,0-.47.17,1.16,1.16,0,0,0,.15.86l4.8,8.42-1.67,6.91a1.28,1.28,0,0,0,.18.86,1,1,0,0,0,.3.32.36.36,0,0,0,.27.06l5-1.35,5,7.52c.17.26.4.39.57.32s.24-.32.18-.63l-1.66-9,5-2.39C796.65,153.38,796.71,153.12,796.64,152.79Z"/><polyline class="cls-2" points="680.95 338.5 647.7 357.69 448.23 242.53 507.95 208.05"/><polygon class="cls-2" points="448.22 246.37 647.71 361.53 647.71 361.53 647.71 357.69 448.22 242.53 448.22 246.37"/><polygon class="cls-2" points="647.71 357.69 647.71 361.53 847.2 246.37 847.2 242.53 647.71 357.69"/><polygon class="cls-2" points="727.38 197.2 822.62 252.18 847.19 237.98 751.94 182.99 727.38 197.2"/><polygon class="cls-2" points="729.37 197.2 729.68 197.38 751.94 184.5 751.94 184.14 729.37 197.2"/><polygon class="cls-2" points="680.95 319.31 508.06 219.5 621.11 154.24 794 254.05 680.95 319.31"/><polygon class="cls-2" points="700.9 307.79 614.46 257.89 614.46 215.66 700.9 242.53 700.9 307.79"/><polygon class="cls-2" points="614.46 219.5 594.5 207.99 594.51 265.56 614.46 254.05 614.46 219.5"/><polygon class="cls-2" points="637.73 259.81 624.43 252.13 624.43 248.29 637.73 255.97 637.73 259.81"/><polygon class="cls-2" points="637.73 250.85 624.43 243.17 624.43 239.33 637.73 247.01 637.73 250.85"/><polygon class="cls-2" points="637.73 232.94 624.43 225.26 624.43 221.42 637.73 229.1 637.73 232.94"/><polygon class="cls-2" points="624.99 224.94 624.43 225.26 637.73 232.94 637.73 232.3 624.99 224.94"/><polygon class="cls-2" points="624.99 221.74 624.43 221.42 624.43 225.26 624.99 224.94 624.99 221.74"/><polygon class="cls-2" points="637.73 241.9 624.43 234.22 624.43 230.38 637.72 238.06 637.73 241.9"/><polygon class="cls-2" points="640.44 223.7 621.72 212.9 621.72 258.24 622.02 258.42 622.02 258.24 622.02 213.43 640.13 223.88 640.13 268.69 640.13 268.87 640.44 269.05 640.44 223.7"/><polyline class="cls-2" points="623.1 241.41 623.29 241.3 623.29 241.06 623.1 241.17 623.1 234.84 623.29 234.74 623.29 234.5 623.1 234.61"/><polygon class="cls-2" points="514.71 146.57 514.71 173.44 627.76 108.18 627.76 81.31 571.24 71.71 514.71 146.57"/><polygon class="cls-2" points="737.47 167.68 730.83 163.84 674.3 238.7 680.95 242.53 737.47 167.68"/><line class="cls-2" x1="571.23" y1="75.55" x2="571.24" y2="75.55"/><polygon class="cls-2" points="700.9 303.95 680.95 315.47 594.5 265.57 614.45 254.05 700.9 303.95"/><polygon class="cls-2" points="594.5 265.57 594.51 269.4 680.95 319.31 680.95 315.47 594.5 265.57"/><polygon class="cls-2" points="700.9 303.95 680.95 315.47 680.95 319.31 700.9 307.79 700.9 303.95"/><path class="cls-3" d="M690.93,252.13l-26.6-15.35v26.87L690.93,279Z"/><polyline class="cls-2" points="665.1 238.11 665.93 238.59 665.92 262.73 665.1 263.21"/><polyline class="cls-4" points="664.5 263.53 665.92 262.73 690.86 277.12"/><polyline class="cls-2" points="571.23 75.55 514.71 150.4 674.3 242.53 730.83 167.68"/><polyline class="cls-2" points="730.83 167.68 787.35 177.28 627.76 85.15 571.23 75.55"/><polyline class="cls-5" points="632.09 89.32 580.79 80.62 581.2 80.86"/><polyline class="cls-5" points="642.63 95.18 590.76 86.38 591.18 86.62"/><polyline class="cls-5" points="652.57 100.97 600.74 92.14 601.15 92.38"/><polyline class="cls-5" points="662.55 106.69 610.71 97.89 611.13 98.13"/><polyline class="cls-5" points="672.35 112.41 620.69 103.65 621.11 103.89"/><polyline class="cls-5" points="683.13 118.31 630.66 109.41 631.08 109.65"/><polyline class="cls-5" points="693.07 124.06 640.64 115.17 641.05 115.41"/><polyline class="cls-5" points="702.17 129.67 650.61 120.92 651.03 121.16"/><polyline class="cls-5" points="712.63 135.51 660.59 126.68 661 126.92"/><polyline class="cls-5" points="722.91 141.32 670.56 132.44 670.98 132.68"/><polyline class="cls-5" points="732.88 147.08 677.48 137.68 680.95 138.44"/><polyline class="cls-5" points="742.86 152.84 690.51 143.96 690.93 144.2"/><polyline class="cls-5" points="752.99 158.62 700.49 149.72 700.9 149.96"/><polyline class="cls-5" points="763.06 164.42 710.46 155.47 710.88 155.71"/><polyline class="cls-5" points="772.92 170.2 720.43 161.23 720.85 161.47"/><polygon class="cls-2" points="627.76 81.31 571.23 71.71 564.59 67.88 621.1 77.47 627.76 81.31"/><polygon class="cls-2" points="700.9 307.79 700.9 246.37 680.95 257.89 680.95 242.53 737.47 167.68 794 177.28 794 254.04 700.9 307.79"/><polygon class="cls-2" points="735.88 282.28 735.05 281.8 724.94 287.65 724.94 288.61 735.88 282.28"/><path class="cls-2" d="M724.94,289.57V241.46l11.77-6.8v48.1Z"/><polygon class="cls-2" points="748.35 274.13 749.18 274.61 749.18 227.45 748.35 227.93 748.35 274.13"/><polygon class="cls-2" points="749.18 274.61 748.35 274.13 738.24 279.98 738.24 280.94 749.18 274.61"/><path class="cls-2" d="M738.24,281.9V233.8L750,227v48.1Z"/><path class="cls-6" d="M737.47,216.05l18.3-10.57V182.19l-18.3-3.11Zm2.56-5.23.15-28.51,13.42,2.38v18.38Z"/><path class="cls-7" d="M719.17,226.62l18.3-10.57v-37l-18.31,24.23Zm2.37-5.25V203.9L735.13,186l0,27.56Z"/><polygon class="cls-2" points="737.48 167.68 730.83 163.84 674.3 238.7 680.95 242.53 737.48 167.68"/><polygon class="cls-2" points="571.23 71.71 564.59 67.88 508.06 142.73 514.71 146.57 571.23 71.71"/><polygon class="cls-2" points="508.06 219.5 508.06 142.73 514.71 146.57 514.71 150.4 674.3 242.53 674.3 238.69 680.95 242.53 680.95 257.89 594.5 207.98 594.51 269.4 508.06 219.5"/><polygon class="cls-2" points="674.3 246.38 514.71 154.25 514.71 150.4 674.3 242.53 674.3 246.38"/><polygon class="cls-2" points="594.51 269.4 508.06 219.5 508.06 158.08 594.5 207.99 594.51 269.4"/><path class="cls-3" d="M584.53,213.73l-33.25-19.19v26.88l33.25,19.2Z"/><polyline class="cls-4" points="551.48 221.32 552.88 220.51 584.53 238.76"/><line class="cls-2" x1="552.88" y1="220.51" x2="552.88" y2="195.97"/><path class="cls-2" d="M519.64,201.31V177.17l10.93,6.31v24.14Z"/><polygon class="cls-2" points="519.18 176.54 519.18 201.64 530.94 208.43 530.94 183.33 519.18 176.54"/><path class="cls-3" d="M531.33,183,518,175.36v26.87l13.29,7.68Z"/><polyline class="cls-4" points="518.12 202.15 519.64 201.31 531.22 208.01"/><polygon class="cls-3" points="620.42 335.51 651.52 317.56 679.29 333.59 648.18 351.55 620.42 335.51"/><polygon class="cls-2" points="680.95 257.89 684.27 255.97 684.28 309.71 680.95 311.63 680.95 257.89"/><polygon class="cls-2" points="677.62 255.97 680.95 257.89 680.95 311.63 677.63 309.71 677.62 255.97"/><line class="cls-5" x1="572.06" y1="76.79" x2="727.38" y2="164.92"/><polyline class="cls-8" points="524.27 155.47 524.68 155.71 581.2 80.86 580.79 80.62"/><polygon class="cls-2" points="524.68 156.16 524.27 155.93 524.27 155.47 524.68 155.71 524.68 156.16"/><polyline class="cls-8" points="591.18 86.61 590.76 86.37 534.24 161.23 534.66 161.47"/><polygon class="cls-2" points="534.66 161.92 534.24 161.68 534.24 161.23 534.66 161.47 534.66 161.92"/><polyline class="cls-5" points="601.15 92.37 600.74 92.13 544.22 166.99 544.63 167.23"/><polygon class="cls-2" points="544.63 167.68 544.22 167.44 544.22 166.98 544.63 167.23 544.63 167.68"/><polyline class="cls-5" points="611.13 98.13 610.71 97.89 554.19 172.74 554.61 172.98"/><polygon class="cls-2" points="554.61 173.44 554.19 173.2 554.19 172.74 554.61 172.98 554.61 173.44"/><polyline class="cls-5" points="621.1 103.89 620.69 103.65 564.16 178.5 564.58 178.74"/><polygon class="cls-2" points="564.58 179.19 564.16 178.96 564.16 178.5 564.58 178.74 564.58 179.19"/><polyline class="cls-5" points="631.08 109.65 630.66 109.41 574.14 184.26 574.56 184.5"/><polygon class="cls-2" points="574.56 184.95 574.14 184.72 574.14 184.26 574.56 184.5 574.56 184.95"/><polyline class="cls-5" points="651.03 121.16 650.61 120.92 594.09 195.78 594.5 196.02"/><polygon class="cls-2" points="594.5 196.47 594.09 196.23 594.09 195.77 594.5 196.02 594.5 196.47"/><polyline class="cls-5" points="661 126.92 660.59 126.68 604.07 201.53 604.48 201.77"/><polygon class="cls-2" points="604.48 202.23 604.07 201.99 604.07 201.53 604.48 201.77 604.48 202.23"/><polyline class="cls-5" points="670.98 132.68 670.56 132.44 614.04 207.29 614.46 207.53"/><polygon class="cls-2" points="614.45 207.99 614.04 207.75 614.04 207.29 614.45 207.53 614.45 207.99"/><polyline class="cls-5" points="680.95 138.44 680.54 138.2 624.01 213.05 624.43 213.29"/><polygon class="cls-2" points="624.43 213.74 624.01 213.51 624.01 213.05 624.43 213.29 624.43 213.74"/><polyline class="cls-5" points="690.93 144.2 690.51 143.96 633.99 218.81 634.4 219.05"/><polygon class="cls-2" points="634.4 219.5 633.99 219.26 633.99 218.81 634.4 219.05 634.4 219.5"/><polyline class="cls-5" points="700.9 149.95 700.49 149.71 643.96 224.57 644.38 224.81"/><polygon class="cls-2" points="644.38 225.26 643.96 225.02 643.96 224.56 644.38 224.81 644.38 225.26"/><polyline class="cls-5" points="710.88 155.71 710.46 155.47 653.94 230.32 654.36 230.56"/><polygon class="cls-2" points="654.35 231.02 653.94 230.78 653.94 230.32 654.35 230.56 654.35 231.02"/><polyline class="cls-5" points="720.85 161.47 720.43 161.23 663.91 236.08 664.33 236.32"/><polygon class="cls-2" points="664.33 236.78 663.91 236.54 663.91 236.08 664.33 236.32 664.33 236.78"/><polygon class="cls-2" points="628.76 114.32 645.38 123.92 635.41 137.36 618.79 127.76 628.76 114.32"/><polygon class="cls-2" points="618.79 127.76 618.79 129.75 635.41 139.35 635.41 137.36 618.79 127.76"/><polygon class="cls-2" points="645.38 123.92 635.41 137.36 635.41 139.35 645.38 125.92 645.38 123.92"/><polygon class="cls-2" points="621.04 108.52 629.17 103.77 643.12 111.82 634.99 116.57 621.04 108.52"/><polygon class="cls-2" points="634.99 135.34 621.05 127.29 621.04 108.52 634.99 116.57 634.99 135.34"/><polygon class="cls-3" points="643.12 124.39 634.99 135.34 634.99 116.57 643.12 111.82 643.12 124.39"/><polygon class="cls-2" points="634.99 114.74 643.43 109.82 643.43 111.82 634.99 116.75 634.99 114.74"/><polygon class="cls-2" points="620.74 106.52 629.18 101.6 643.43 109.83 634.99 114.75 620.74 106.52"/><polygon class="cls-2" points="625.33 106.51 629.18 104.26 638.84 109.83 634.99 112.08 625.33 106.51"/><polygon class="cls-2" points="620.74 106.52 620.74 108.52 634.99 116.75 634.99 114.75 620.74 106.52"/><g class="cls-9"><polygon class="cls-2" points="634.99 116.73 634.99 117.07 643.12 112.33 643.12 111.99 634.99 116.73"/><polygon class="cls-2" points="621.04 109.02 634.99 117.07 634.99 116.73 621.04 108.68 621.04 109.02"/></g><polygon class="cls-2" points="624.91 106.75 624.5 106.51 624.5 105.07 624.91 105.31 624.91 106.75"/><polygon class="cls-2" points="625.33 106.51 624.91 106.75 624.91 105.31 625.33 105.07 625.33 106.51"/><polygon class="cls-2" points="634.99 112.47 634.57 112.23 634.57 110.79 634.99 111.03 634.99 112.47"/><polygon class="cls-2" points="635.4 112.23 634.99 112.47 634.99 111.03 635.4 110.79 635.4 112.23"/><polygon class="cls-2" points="639.26 110.08 638.84 109.84 638.84 108.4 639.26 108.64 639.26 110.08"/><polygon class="cls-2" points="639.67 109.84 639.26 110.08 639.26 108.64 639.67 108.4 639.67 109.84"/><polygon class="cls-2" points="634.99 109.34 643.43 104.42 643.43 106.43 634.99 111.35 634.99 109.34"/><polygon class="cls-2" points="620.74 101.12 620.74 103.12 635 111.35 635 109.35 620.74 101.12"/><polygon class="cls-2" points="643.41 104.42 629.18 96.2 632.09 100.18 643.41 104.42"/><polygon class="cls-2" points="629.18 96.2 629.18 96.2 620.74 101.12 632.09 100.18 629.18 96.2"/><polygon class="cls-2" points="620.74 101.12 620.74 101.12 635 109.35 635 109.35 632.09 100.18 620.74 101.12"/><polygon class="cls-2" points="643.41 104.42 632.09 100.18 635 109.35 643.43 104.43 643.41 104.42"/><polyline class="cls-5" points="625.59 135.12 584.12 190.02 584.53 190.26"/><polygon class="cls-2" points="584.53 190.71 584.12 190.47 584.12 190.02 584.53 190.26 584.53 190.71"/><line class="cls-4" x1="519.64" y1="201.31" x2="519.64" y2="175.96"/><line class="cls-2" x1="847.2" y1="237.98" x2="847.2" y2="242.53"/><polyline class="cls-2" points="822.62 252.18 822.62 256.57 794 240.25"/><path class="cls-10" d="M892.66,192.13c0,5.58-11.11,10.1-24.82,10.1S843,197.71,843,192.13,854.14,182,867.84,182,892.66,186.56,892.66,192.13Z"/><line class="cls-3" x1="867.94" y1="140.38" x2="867.94" y2="192.13"/><line class="cls-3" x1="867.92" y1="157.82" x2="879.89" y2="148.11"/><line class="cls-3" x1="867.76" y1="157.82" x2="855.79" y2="148.11"/><line class="cls-3" x1="867.96" y1="140.15" x2="873.55" y2="134.56"/><line class="cls-3" x1="867.72" y1="140.15" x2="862.14" y2="134.56"/><path class="cls-4" d="M884.65,118.16c1.54-11.12-5-21.57-14.64-23.34s-18.67,5.81-20.2,16.93"/><path class="cls-4" d="M895.3,149.46a21.52,21.52,0,0,0,7.24-16.61c-.06-11.26-8-20.32-17.75-20.25"/><path class="cls-3" d="M889,152.83a16.55,16.55,0,0,0,6.32-3.37"/><path class="cls-4" d="M840.65,148.23c-5.12-4.82-7.67-12.79-6-20.7,2.33-10.93,11.9-17.6,21.35-14.9"/><path class="cls-4" d="M868.33,170.77c-6.55,5.71-16.35,5-22.75-1.56-7.31-7.44-7.54-20.32-1.1-28.77"/><path class="cls-4" d="M868.12,171c6.47,4.87,16.14,5.51,22.21-.68,5-5.05,5.94-13.73,4.65-20.7"/><polygon class="cls-2" points="554.19 246.13 554.19 172.36 620.74 106.52 673.64 111.63 698.25 125.84 639.26 121.93 575.77 184.61 575.77 258.59 554.19 246.13"/><polygon class="cls-2" points="655.63 134 730.5 176.94 730.41 290.76 712.63 302.03 712.63 200.58 608.79 141.19 655.63 134"/><path class="cls-2" d="M643,80.58l23,17.31c2.7-5.09,8.32-16.23,10.79-25.17,3.31-12,3-23-6.08-27.78a20.2,20.2,0,0,0-19.58.41s2.15,2,1,9.67C649.77,71.06,643,80.58,643,80.58Z"/><path class="cls-2" d="M638.87,77.5a79.05,79.05,0,0,1,3.45-20.65c4-12,14.2-15.51,22.75-13.86l-22.32-7.2c-6.72-2.15-15.46-3.41-21.92,3.73-6.67,7.4-6.72,19.5-6.72,19.5l19.1,22.9Z"/><path class="cls-2" d="M579.71,109.57S567.5,91.63,560.36,84c-5.44-5.88-9.05-8.57-11.3-7.12,0,0,26.09-21.45,29.7-24.29s4.64-4.5,10.13-.5S610.36,78.3,610.36,78.3Z"/><path class="cls-2" d="M579.71,109.57S567.5,91.63,560.36,84s-11.09-9.92-13-4.57,5.52,17.63,11,24.67c13.62,17.57,34,31.48,34,31.48Z"/><path class="cls-2" d="M582.24,114.8A141.1,141.1,0,0,1,571,95.37c-6.3-12.71-5.26-18.17,4.92-13s18.68,17.5,22.63,25.3,7.35,18,8,27Z"/><path class="cls-2" d="M606.51,134.75c-.64-9.08-4-19.23-8-27s-12.45-20.08-22.63-25.3c-3.81-2-6.35-2.41-7.69-1.55,0,0,27.47-22.76,30.73-25.49,4.37-3.64,5.79-4.92,12.36-1.94s12.13,8.13,17.56,16.7c9.09,14.38,11,33.33,11,33.33Z"/><path class="cls-2" d="M634.17,131.63a105.74,105.74,0,0,0-10.52-13.53c-20.42-22.84-23.51-15-21.17-2.69,3.45,18.13,12.41,34.14,12.41,34.14Z"/><path class="cls-2" d="M634.17,131.63l-19.28,17.92s10.35,4.31,16,3.12C637.53,151.29,643.58,146.51,634.17,131.63Z"/><path class="cls-2" d="M639.58,147.82a21.55,21.55,0,0,1-3.51,2.71c4.95-3.74,5.39-12.5-12.42-32.43-11.62-13-17.62-16.06-20.22-14,0,0,27.22-23.85,31.79-27.63s6.52-6.75,15.26.37,20.52,22.26,22.4,30,.61,9.94-4.35,14.44C664.67,124.72,647.17,141,639.58,147.82Z"/><path class="cls-2" d="M577.44,112.63c5.13-.16,10.72,1.74,16.42,5.84,16.2,11.68,21,31.08,21,31.08l-24.09-13.8A44.62,44.62,0,0,0,585,122.44,54.61,54.61,0,0,0,577.44,112.63Z"/><path class="cls-2" d="M590.8,135.75l24.09,13.8s-8.32,11.09-32.18,16.74c-20.2,4.77-28.4-2-29.36-13.88,0,0,7.12-.33,18.16-4.87C586.67,141.31,590.8,135.75,590.8,135.75Z"/><path class="cls-2" d="M558.75,164.2c-6.89-5.64-6.73-17.27-2.69-30.58,5.33-17.57,17.23-24.66,30.64-19.19,0,0-18.44-10.1-24.1-12.74s-22.41-6-29.77,18.9c-5.92,20-.34,25.81,5.57,29.82Z"/><polyline class="cls-2" points="233.24 338.5 199.98 357.69 0.51 242.53 60.23 208.05"/><polygon class="cls-2" points="0.5 246.37 199.99 361.53 199.99 361.53 199.99 357.69 0.5 242.53 0.5 246.37"/><polygon class="cls-2" points="199.99 357.69 199.99 361.53 399.48 246.37 399.48 242.53 199.99 357.69"/><polygon class="cls-2" points="279.66 197.2 374.9 252.18 399.47 237.98 304.23 182.99 279.66 197.2"/><polygon class="cls-2" points="281.65 197.2 281.96 197.38 304.23 184.5 304.23 184.14 281.65 197.2"/><polygon class="cls-2" points="233.24 319.31 60.35 219.5 173.39 154.24 346.28 254.05 233.24 319.31"/><polygon class="cls-2" points="253.19 307.79 166.74 257.89 166.74 215.66 253.19 242.53 253.19 307.79"/><polygon class="cls-2" points="166.74 219.5 146.79 207.99 146.79 265.56 166.74 254.05 166.74 219.5"/><polygon class="cls-2" points="190.02 259.81 176.72 252.13 176.72 248.29 190.01 255.97 190.02 259.81"/><polygon class="cls-2" points="190.01 250.85 176.72 243.17 176.72 239.33 190.01 247.01 190.01 250.85"/><polygon class="cls-2" points="190.02 232.94 176.72 225.26 176.72 221.42 190.01 229.1 190.02 232.94"/><polygon class="cls-2" points="177.27 224.94 176.72 225.26 190.02 232.94 190.02 232.3 177.27 224.94"/><polygon class="cls-2" points="177.27 221.74 176.72 221.42 176.72 225.26 177.27 224.94 177.27 221.74"/><polygon class="cls-2" points="190.01 241.9 176.71 234.22 176.71 230.38 190.01 238.06 190.01 241.9"/><polygon class="cls-2" points="192.72 223.7 174 212.9 174 258.24 174.31 258.42 174.31 258.24 174.31 213.43 192.41 223.88 192.41 268.69 192.41 268.87 192.72 269.05 192.72 223.7"/><polyline class="cls-2" points="175.38 241.41 175.57 241.3 175.57 241.06 175.38 241.17 175.38 234.84 175.57 234.74 175.57 234.5 175.38 234.61"/><polygon class="cls-2" points="66.99 146.57 66.99 173.44 180.04 108.18 180.04 81.31 123.52 71.71 66.99 146.57"/><polygon class="cls-2" points="289.76 167.68 283.11 163.84 226.58 238.7 233.23 242.53 289.76 167.68"/><line class="cls-2" x1="123.52" y1="75.55" x2="123.52" y2="75.55"/><polygon class="cls-2" points="253.19 303.95 233.23 315.47 146.79 265.57 166.74 254.05 253.19 303.95"/><polygon class="cls-2" points="146.79 265.57 146.79 269.4 233.24 319.31 233.24 315.47 146.79 265.57"/><polygon class="cls-2" points="253.19 303.95 233.24 315.47 233.24 319.31 253.19 307.79 253.19 303.95"/><path class="cls-3" d="M243.21,252.13l-26.6-15.35v26.87L243.21,279Z"/><polyline class="cls-2" points="217.38 238.11 218.21 238.59 218.21 262.73 217.38 263.21"/><polyline class="cls-4" points="216.78 263.53 218.21 262.73 243.14 277.12"/><polyline class="cls-2" points="123.52 75.55 66.99 150.4 226.58 242.53 283.11 167.68"/><polyline class="cls-2" points="283.11 167.68 339.63 177.28 180.04 85.15 123.52 75.55"/><polyline class="cls-5" points="184.37 89.32 133.07 80.62 133.49 80.86"/><polyline class="cls-5" points="194.92 95.18 143.05 86.38 143.46 86.62"/><polyline class="cls-5" points="204.86 100.97 153.02 92.14 153.44 92.38"/><polyline class="cls-5" points="214.83 106.69 163 97.89 163.41 98.13"/><polyline class="cls-5" points="224.63 112.41 172.97 103.65 173.39 103.89"/><polyline class="cls-5" points="235.42 118.31 182.95 109.41 183.36 109.65"/><polyline class="cls-5" points="245.35 124.06 192.92 115.17 193.34 115.41"/><polyline class="cls-5" points="254.46 129.67 202.9 120.92 203.31 121.16"/><polyline class="cls-5" points="264.92 135.51 212.87 126.68 213.29 126.92"/><polyline class="cls-5" points="275.2 141.32 222.85 132.44 223.26 132.68"/><polyline class="cls-5" points="285.16 147.08 229.76 137.68 233.24 138.44"/><polyline class="cls-5" points="295.14 152.84 242.79 143.96 243.21 144.2"/><polyline class="cls-5" points="305.28 158.62 252.77 149.72 253.19 149.96"/><polyline class="cls-5" points="315.34 164.42 262.75 155.47 263.16 155.71"/><polyline class="cls-5" points="325.2 170.2 272.72 161.23 273.13 161.47"/><polygon class="cls-2" points="180.04 81.31 123.52 71.71 116.87 67.88 173.39 77.47 180.04 81.31"/><polygon class="cls-2" points="253.18 307.79 253.19 246.37 233.24 257.89 233.23 242.53 289.76 167.68 346.28 177.28 346.28 254.04 253.18 307.79"/><polygon class="cls-2" points="288.16 282.28 287.33 281.8 277.23 287.65 277.23 288.61 288.16 282.28"/><path class="cls-2" d="M277.22,289.57V241.46l11.76-6.8v48.1Z"/><polygon class="cls-2" points="300.63 274.13 301.46 274.61 301.46 227.45 300.63 227.93 300.63 274.13"/><polygon class="cls-2" points="301.46 274.61 300.63 274.13 290.53 279.98 290.53 280.94 301.46 274.61"/><path class="cls-2" d="M290.53,281.9V233.8L302.29,227v48.1Z"/><path class="cls-6" d="M289.76,216.05l18.3-10.57V182.19l-18.29-3.11Zm2.55-5.23.15-28.51,13.43,2.38v18.38Z"/><path class="cls-7" d="M271.46,226.62l18.3-10.57v-37l-18.3,24.23Zm2.36-5.25V203.9L287.41,186l0,27.56Z"/><polygon class="cls-2" points="289.76 167.68 283.11 163.84 226.59 238.7 233.24 242.53 289.76 167.68"/><polygon class="cls-2" points="123.52 71.71 116.87 67.88 60.34 142.73 66.99 146.57 123.52 71.71"/><polygon class="cls-2" points="60.35 219.5 60.34 142.73 66.99 146.57 66.99 150.4 226.58 242.53 226.59 238.69 233.24 242.53 233.23 257.89 146.78 207.98 146.79 269.4 60.35 219.5"/><polygon class="cls-2" points="226.58 246.38 66.99 154.25 66.99 150.4 226.58 242.53 226.58 246.38"/><polygon class="cls-2" points="146.79 269.4 60.35 219.5 60.34 158.08 146.79 207.99 146.79 269.4"/><path class="cls-3" d="M136.82,213.73l-33.25-19.19v26.88l33.25,19.2Z"/><polyline class="cls-4" points="103.76 221.32 105.17 220.51 136.81 238.76"/><line class="cls-2" x1="105.17" y1="220.51" x2="105.17" y2="195.97"/><path class="cls-2" d="M71.92,201.31V177.17l10.93,6.31v24.14Z"/><polygon class="cls-2" points="71.47 176.54 71.47 201.64 83.23 208.43 83.23 183.33 71.47 176.54"/><path class="cls-3" d="M83.62,183l-13.3-7.67v26.87l13.3,7.68Z"/><polyline class="cls-4" points="70.41 202.15 71.92 201.31 83.51 208.01"/><polygon class="cls-3" points="172.71 335.51 203.81 317.56 231.57 333.59 200.47 351.55 172.71 335.51"/><polygon class="cls-2" points="233.23 257.89 236.56 255.97 236.56 309.71 233.24 311.63 233.23 257.89"/><polygon class="cls-2" points="229.91 255.97 233.23 257.89 233.24 311.63 229.91 309.71 229.91 255.97"/><line class="cls-5" x1="124.34" y1="76.79" x2="279.66" y2="164.92"/><polyline class="cls-8" points="76.55 155.47 76.97 155.71 133.49 80.86 133.07 80.62"/><polygon class="cls-2" points="76.97 156.16 76.55 155.93 76.55 155.47 76.97 155.71 76.97 156.16"/><polyline class="cls-8" points="143.46 86.61 143.05 86.37 86.53 161.23 86.94 161.47"/><polygon class="cls-2" points="86.94 161.92 86.53 161.68 86.53 161.23 86.94 161.47 86.94 161.92"/><polyline class="cls-5" points="153.44 92.37 153.02 92.13 96.5 166.99 96.92 167.23"/><polygon class="cls-2" points="96.91 167.68 96.5 167.44 96.5 166.98 96.91 167.23 96.91 167.68"/><polyline class="cls-5" points="163.41 98.13 163 97.89 106.47 172.74 106.89 172.98"/><polygon class="cls-2" points="106.89 173.44 106.47 173.2 106.47 172.74 106.89 172.98 106.89 173.44"/><polyline class="cls-5" points="173.39 103.89 172.97 103.65 116.45 178.5 116.86 178.74"/><polygon class="cls-2" points="116.86 179.19 116.45 178.96 116.45 178.5 116.86 178.74 116.86 179.19"/><polyline class="cls-5" points="183.36 109.65 182.95 109.41 126.42 184.26 126.84 184.5"/><polygon class="cls-2" points="126.84 184.95 126.42 184.72 126.42 184.26 126.84 184.5 126.84 184.95"/><polyline class="cls-5" points="203.31 121.16 202.9 120.92 146.38 195.78 146.79 196.02"/><polygon class="cls-2" points="146.79 196.47 146.38 196.23 146.38 195.77 146.79 196.02 146.79 196.47"/><polyline class="cls-5" points="213.28 126.92 212.87 126.68 156.35 201.53 156.76 201.77"/><polygon class="cls-2" points="156.76 202.23 156.35 201.99 156.35 201.53 156.76 201.77 156.76 202.23"/><polyline class="cls-5" points="223.26 132.68 222.85 132.44 166.32 207.29 166.74 207.53"/><polygon class="cls-2" points="166.74 207.99 166.32 207.75 166.32 207.29 166.74 207.53 166.74 207.99"/><polyline class="cls-5" points="233.24 138.44 232.82 138.2 176.3 213.05 176.72 213.29"/><polygon class="cls-2" points="176.71 213.74 176.3 213.51 176.3 213.05 176.71 213.29 176.71 213.74"/><polyline class="cls-5" points="243.21 144.2 242.79 143.96 186.27 218.81 186.69 219.05"/><polygon class="cls-2" points="186.69 219.5 186.27 219.26 186.27 218.81 186.69 219.05 186.69 219.5"/><polyline class="cls-5" points="253.19 149.95 252.77 149.71 196.25 224.57 196.66 224.81"/><polygon class="cls-2" points="196.66 225.26 196.25 225.02 196.25 224.56 196.66 224.81 196.66 225.26"/><polyline class="cls-5" points="263.16 155.71 262.75 155.47 206.22 230.32 206.64 230.56"/><polygon class="cls-2" points="206.64 231.02 206.22 230.78 206.22 230.32 206.64 230.56 206.64 231.02"/><polyline class="cls-5" points="273.13 161.47 272.72 161.23 216.2 236.08 216.61 236.32"/><polygon class="cls-2" points="216.61 236.78 216.2 236.54 216.2 236.08 216.61 236.32 216.61 236.78"/><polygon class="cls-2" points="181.04 114.32 197.67 123.92 187.69 137.36 171.07 127.76 181.04 114.32"/><polygon class="cls-2" points="171.07 127.76 171.07 129.75 187.69 139.35 187.69 137.36 171.07 127.76"/><polygon class="cls-2" points="197.67 123.92 187.69 137.36 187.69 139.35 197.67 125.92 197.67 123.92"/><polygon class="cls-2" points="173.33 108.52 181.46 103.77 195.4 111.82 187.27 116.57 173.33 108.52"/><polygon class="cls-2" points="187.28 135.34 173.33 127.29 173.33 108.52 187.27 116.57 187.28 135.34"/><polygon class="cls-3" points="195.41 124.39 187.28 135.34 187.27 116.57 195.4 111.82 195.41 124.39"/><polygon class="cls-2" points="187.28 114.74 195.71 109.82 195.71 111.82 187.27 116.75 187.28 114.74"/><polygon class="cls-2" points="173.02 106.52 181.46 101.6 195.72 109.83 187.28 114.75 173.02 106.52"/><polygon class="cls-2" points="177.61 106.51 181.47 104.26 191.13 109.83 187.27 112.08 177.61 106.51"/><polygon class="cls-2" points="173.02 106.52 173.02 108.52 187.28 116.75 187.28 114.75 173.02 106.52"/><g class="cls-9"><polygon class="cls-2" points="187.28 116.73 187.28 117.07 195.4 112.33 195.4 111.99 187.28 116.73"/><polygon class="cls-2" points="173.33 109.02 187.27 117.07 187.27 116.73 173.33 108.68 173.33 109.02"/></g><polygon class="cls-2" points="177.2 106.75 176.78 106.51 176.78 105.07 177.2 105.31 177.2 106.75"/><polygon class="cls-2" points="177.61 106.51 177.2 106.75 177.2 105.31 177.61 105.07 177.61 106.51"/><polygon class="cls-2" points="187.27 112.47 186.86 112.23 186.86 110.79 187.27 111.03 187.27 112.47"/><polygon class="cls-2" points="187.69 112.23 187.27 112.47 187.27 111.03 187.69 110.79 187.69 112.23"/><polygon class="cls-2" points="191.54 110.08 191.13 109.84 191.13 108.4 191.54 108.64 191.54 110.08"/><polygon class="cls-2" points="191.96 109.84 191.54 110.08 191.54 108.64 191.96 108.4 191.96 109.84"/><polygon class="cls-2" points="187.28 109.34 195.72 104.42 195.71 106.43 187.28 111.35 187.28 109.34"/><polygon class="cls-2" points="173.02 101.12 173.02 103.12 187.28 111.35 187.28 109.35 173.02 101.12"/><polygon class="cls-2" points="195.7 104.42 181.47 96.2 184.37 100.18 195.7 104.42"/><polygon class="cls-2" points="181.47 96.2 181.47 96.2 173.03 101.12 184.37 100.18 181.47 96.2"/><polygon class="cls-2" points="173.03 101.12 173.03 101.12 187.28 109.35 187.28 109.35 184.37 100.18 173.03 101.12"/><polygon class="cls-2" points="195.7 104.42 184.37 100.18 187.28 109.35 195.72 104.43 195.7 104.42"/><polyline class="cls-5" points="177.87 135.12 136.4 190.02 136.81 190.26"/><polygon class="cls-2" points="136.81 190.71 136.4 190.47 136.4 190.02 136.81 190.26 136.81 190.71"/><line class="cls-4" x1="71.92" y1="201.31" x2="71.92" y2="175.96"/><line class="cls-2" x1="399.48" y1="237.98" x2="399.48" y2="242.53"/><polyline class="cls-2" points="374.9 252.18 374.9 256.57 346.28 240.25"/><path class="cls-10" d="M444.94,192.13c0,5.58-11.11,10.1-24.82,10.1s-24.81-4.52-24.81-10.1S406.42,182,420.12,182,444.94,186.56,444.94,192.13Z"/><line class="cls-3" x1="420.22" y1="140.38" x2="420.22" y2="192.13"/><line class="cls-3" x1="420.21" y1="157.82" x2="432.18" y2="148.11"/><line class="cls-3" x1="420.04" y1="157.82" x2="408.07" y2="148.11"/><line class="cls-3" x1="420.25" y1="140.15" x2="425.83" y2="134.56"/><line class="cls-3" x1="420.01" y1="140.15" x2="414.42" y2="134.56"/><path class="cls-4" d="M436.94,118.16c1.53-11.12-5-21.57-14.65-23.34s-18.66,5.81-20.19,16.93"/><path class="cls-4" d="M447.58,149.46a21.5,21.5,0,0,0,7.25-16.61c-.07-11.26-8-20.32-17.76-20.25"/><path class="cls-3" d="M441.26,152.83a16.55,16.55,0,0,0,6.32-3.37"/><path class="cls-4" d="M392.93,148.23c-5.12-4.82-7.67-12.79-6-20.7,2.34-10.93,11.9-17.6,21.36-14.9"/><path class="cls-4" d="M420.61,170.77c-6.55,5.71-16.35,5-22.75-1.56-7.31-7.44-7.54-20.32-1.1-28.77"/><path class="cls-4" d="M420.4,171c6.47,4.87,16.14,5.51,22.22-.68,5-5.05,5.94-13.73,4.64-20.7"/><polygon class="cls-2" points="106.47 246.13 106.47 172.36 173.02 106.52 225.92 111.63 250.53 125.84 191.54 121.93 128.05 184.61 128.05 258.59 106.47 246.13"/><polygon class="cls-2" points="207.91 134 282.79 176.94 282.69 290.76 264.92 302.03 264.92 200.58 161.08 141.19 207.91 134"/><path class="cls-2" d="M195.25,80.58l23,17.31c2.69-5.09,8.32-16.23,10.79-25.17,3.31-12,3-23-6.09-27.78a20.18,20.18,0,0,0-19.57.41s2.14,2,1,9.67C202.05,71.06,195.25,80.58,195.25,80.58Z"/><path class="cls-2" d="M191.15,77.5a79.54,79.54,0,0,1,3.45-20.65c4-12,14.2-15.51,22.75-13.86L195,35.79c-6.72-2.15-15.47-3.41-21.92,3.73-6.68,7.4-6.72,19.5-6.72,19.5l19.1,22.9Z"/><path class="cls-2" d="M132,109.57S119.78,91.63,112.65,84c-5.45-5.88-9.05-8.57-11.31-7.12,0,0,26.1-21.45,29.7-24.29s4.64-4.5,10.14-.5S162.64,78.3,162.64,78.3Z"/><path class="cls-2" d="M132,109.57S119.78,91.63,112.65,84s-11.09-9.92-13-4.57,5.52,17.63,11,24.67c13.62,17.57,34,31.48,34,31.48Z"/><path class="cls-2" d="M134.53,114.8a140.36,140.36,0,0,1-11.28-19.43c-6.29-12.71-5.25-18.17,4.93-13s18.67,17.5,22.62,25.3,7.35,18,8,27Z"/><path class="cls-2" d="M158.79,134.75c-.64-9.08-4-19.23-8-27s-12.44-20.08-22.62-25.3c-3.82-2-6.35-2.41-7.69-1.55,0,0,27.46-22.76,30.72-25.49,4.37-3.64,5.8-4.92,12.37-1.94s12.13,8.13,17.55,16.7c9.1,14.38,11,33.33,11,33.33Z"/><path class="cls-2" d="M186.46,131.63a106,106,0,0,0-10.53-13.53c-20.41-22.84-23.51-15-21.17-2.69,3.45,18.13,12.41,34.14,12.41,34.14Z"/><path class="cls-2" d="M186.45,131.63l-19.28,17.92s10.35,4.31,16,3.12C189.81,151.29,195.87,146.51,186.45,131.63Z"/><path class="cls-2" d="M191.87,147.82a21.81,21.81,0,0,1-3.52,2.71c5-3.74,5.39-12.5-12.42-32.43-11.61-13-17.62-16.06-20.21-14,0,0,27.21-23.85,31.79-27.63s6.51-6.75,15.25.37,20.53,22.26,22.4,30,.62,9.94-4.35,14.44C217,124.72,199.45,141,191.87,147.82Z"/><path class="cls-2" d="M129.72,112.63c5.13-.16,10.72,1.74,16.42,5.84,16.21,11.68,21,31.08,21,31.08l-24.09-13.8a44.41,44.41,0,0,0-5.78-13.31A54.32,54.32,0,0,0,129.72,112.63Z"/><path class="cls-2" d="M143.08,135.75l24.09,13.8s-8.31,11.09-32.18,16.74c-20.19,4.77-28.39-2-29.36-13.88,0,0,7.12-.33,18.17-4.87C139,141.31,143.08,135.75,143.08,135.75Z"/><path class="cls-2" d="M111,164.2c-6.89-5.64-6.72-17.27-2.68-30.58,5.33-17.57,17.22-24.66,30.64-19.19,0,0-18.44-10.1-24.1-12.74s-22.42-6-29.78,18.9c-5.91,20-.34,25.81,5.57,29.82Z"/><path class="cls-1" d="M80.62,54a.69.69,0,0,0-.65-.46h0L72,53.59l-3.3-7.35a.68.68,0,0,0-.62-.41.71.71,0,0,0-.62.41l-3.3,7.39-7.71,0h0a.7.7,0,0,0-.43,1.23l6.52,5.42-2.26,8a.69.69,0,0,0,.25.74.67.67,0,0,0,.4.14.63.63,0,0,0,.37-.12l6.78-4.47L74.9,69a.65.65,0,0,0,.77,0,.7.7,0,0,0,.25-.75l-2.26-7.91,6.74-5.49A.72.72,0,0,0,80.62,54Z"/><path class="cls-1" d="M127,18.67a.67.67,0,0,0-.64-.46h0l-7.93.06-3.3-7.36a.71.71,0,0,0-.62-.4.68.68,0,0,0-.62.41l-3.31,7.39-7.7,0h0a.69.69,0,0,0-.65.46.7.7,0,0,0,.21.76L108.92,25l-2.26,7.94a.67.67,0,0,0,.65.88.72.72,0,0,0,.37-.11l6.78-4.47,6.78,4.4a.66.66,0,0,0,.77,0,.7.7,0,0,0,.25-.75L120,24.93l6.73-5.49A.69.69,0,0,0,127,18.67Z"/><path class="cls-1" d="M276,54.77l6.74,5.49-2.26,7.91a.7.7,0,0,0,.25.75.65.65,0,0,0,.77,0l6.78-4.4L295,69a.63.63,0,0,0,.37.12.68.68,0,0,0,.65-.88l-2.26-8,6.52-5.42a.7.7,0,0,0-.43-1.23h0l-7.7,0-3.31-7.39a.71.71,0,0,0-.62-.41.69.69,0,0,0-.62.41l-3.3,7.35-7.93-.05h0a.69.69,0,0,0-.65.46A.72.72,0,0,0,276,54.77Z"/><path class="cls-1" d="M228.8,19.44l6.74,5.49-2.26,7.91a.7.7,0,0,0,.25.75.66.66,0,0,0,.77,0l6.78-4.4,6.78,4.47a.7.7,0,0,0,.37.11.69.69,0,0,0,.41-.13.71.71,0,0,0,.24-.75L246.62,25l6.52-5.43a.69.69,0,0,0-.43-1.22h0l-7.7,0-3.31-7.39a.68.68,0,0,0-.62-.41.69.69,0,0,0-.62.4l-3.3,7.36-7.93-.06h0a.69.69,0,0,0-.65.46A.73.73,0,0,0,228.8,19.44Z"/><path class="cls-1" d="M188.62,8.67a.69.69,0,0,0-.65-.46h0L180,8.26,176.74.9a.68.68,0,0,0-.62-.4.68.68,0,0,0-.62.41L172.2,8.3l-7.71,0h0a.69.69,0,0,0-.43,1.22L170.58,15l-2.26,7.94a.7.7,0,0,0,.25.75.66.66,0,0,0,.4.13.7.7,0,0,0,.37-.11l6.78-4.47,6.78,4.4a.66.66,0,0,0,.77,0,.7.7,0,0,0,.25-.75l-2.26-7.91,6.74-5.49A.73.73,0,0,0,188.62,8.67Z"/></g></g></svg>