<svg xmlns="http://www.w3.org/2000/svg" viewBox="0 0 455.33 328.42"><defs><style>.cls-1{fill:#282828;}.cls-1,.cls-2,.cls-3,.cls-4,.cls-6,.cls-7{stroke:#282828;}.cls-1,.cls-2,.cls-3,.cls-4,.cls-5,.cls-6,.cls-7,.cls-8{stroke-linecap:round;stroke-linejoin:round;}.cls-2,.cls-5,.cls-6,.cls-7{fill:#fff;}.cls-10,.cls-3{fill:#edeeef;}.cls-4,.cls-8{fill:none;}.cls-5,.cls-8{stroke:#edeeef;}.cls-6{stroke-width:0.92px;}.cls-7{stroke-width:0.84px;}.cls-9{opacity:0.3;}</style></defs><title>Asset 1</title><g id="Layer_2" data-name="Layer 2"><g id="Layer_1-2" data-name="Layer 1"><path class="cls-1" d="M254.45,60.19a1.22,1.22,0,0,0-.47-.75h0l-5.83-3.6L245.72,47a1.22,1.22,0,0,0-.45-.68c-.2-.12-.38-.08-.46.12l-2.43,5.87-5.66-3.52h0a.29.29,0,0,0-.47.17,1.21,1.21,0,0,0,.15.86l4.8,8.42-1.67,6.91a1.33,1.33,0,0,0,.18.86,1.17,1.17,0,0,0,.3.32.36.36,0,0,0,.27.06l5-1.35,5,7.52c.18.26.4.39.57.32s.24-.32.18-.63l-1.66-9,4.95-2.39C254.46,60.78,254.52,60.51,254.45,60.19Z"/><path class="cls-1" d="M278.07,74.94a1.22,1.22,0,0,0-.47-.75h0l-5.83-3.6-2.43-8.88a1.22,1.22,0,0,0-.45-.68.28.28,0,0,0-.46.12L266,67l-5.66-3.52h0a.29.29,0,0,0-.47.17,1.16,1.16,0,0,0,.15.86l4.8,8.42-1.67,6.91a1.28,1.28,0,0,0,.18.86,1.17,1.17,0,0,0,.3.32.36.36,0,0,0,.27.06l5-1.36,5,7.53c.17.26.4.39.57.32s.24-.32.18-.63L273,78l5-2.39C278.08,75.53,278.14,75.26,278.07,74.94Z"/><path class="cls-1" d="M301.69,89.69a1.22,1.22,0,0,0-.47-.75h0l-5.83-3.59L293,76.46a1.21,1.21,0,0,0-.46-.69.28.28,0,0,0-.45.13l-2.43,5.87L284,78.25h0a.3.3,0,0,0-.48.16,1.19,1.19,0,0,0,.16.87l4.79,8.42-1.66,6.91a1.19,1.19,0,0,0,.18.85,1,1,0,0,0,.3.33.3.3,0,0,0,.27,0l5-1.35,5,7.52c.17.27.4.4.57.33s.24-.32.18-.64l-1.66-9,4.95-2.39C301.69,90.28,301.76,90,301.69,89.69Z"/><path class="cls-1" d="M325.31,104.44a1.28,1.28,0,0,0-.47-.76h0L319,100.09l-2.43-8.88a1.18,1.18,0,0,0-.46-.69.28.28,0,0,0-.45.13l-2.43,5.87L307.57,93h0a.29.29,0,0,0-.47.16,1.19,1.19,0,0,0,.16.87l4.79,8.42-1.66,6.9a1.2,1.2,0,0,0,.18.86,1,1,0,0,0,.3.33.39.39,0,0,0,.27,0l5-1.35,5,7.52c.17.27.4.4.56.33s.24-.32.19-.64l-1.67-9,5-2.39C325.31,105,325.38,104.76,325.31,104.44Z"/><path class="cls-1" d="M348.92,119.19a1.28,1.28,0,0,0-.47-.76h0l-5.83-3.59L340.19,106a1.17,1.17,0,0,0-.45-.69.28.28,0,0,0-.45.12l-2.43,5.87-5.67-3.51h0a.29.29,0,0,0-.47.17,1.2,1.2,0,0,0,.15.86l4.8,8.43L334,124.1a1.21,1.21,0,0,0,.18.86.85.85,0,0,0,.3.32.34.34,0,0,0,.27.06l5-1.35,5,7.52c.18.27.41.4.57.33s.24-.32.18-.64l-1.66-8.95,4.95-2.39C348.93,119.78,349,119.51,348.92,119.19Z"/><polyline class="cls-2" points="233.24 304.89 199.98 324.09 0.51 208.93 60.23 174.44"/><polygon class="cls-2" points="0.5 212.77 199.99 327.93 199.99 327.93 199.99 324.09 0.5 208.93 0.5 212.77"/><polygon class="cls-2" points="199.99 324.09 199.99 327.93 399.48 212.77 399.48 208.93 199.99 324.09"/><polygon class="cls-2" points="279.66 163.59 374.9 218.57 399.47 204.37 304.23 149.38 279.66 163.59"/><polygon class="cls-2" points="281.65 163.59 281.96 163.77 304.23 150.9 304.23 150.53 281.65 163.59"/><polygon class="cls-2" points="233.24 285.7 60.35 185.9 173.39 120.64 346.28 220.44 233.24 285.7"/><polygon class="cls-2" points="253.19 274.18 166.74 224.28 166.74 182.06 253.19 208.93 253.19 274.18"/><polygon class="cls-2" points="166.74 185.9 146.79 174.38 146.79 231.96 166.74 220.44 166.74 185.9"/><polygon class="cls-2" points="190.02 226.2 176.72 218.52 176.72 214.69 190.01 222.36 190.02 226.2"/><polygon class="cls-2" points="190.01 217.25 176.72 209.57 176.72 205.73 190.01 213.41 190.01 217.25"/><polygon class="cls-2" points="190.02 199.33 176.72 191.65 176.72 187.81 190.01 195.49 190.02 199.33"/><polygon class="cls-2" points="177.27 191.33 176.72 191.65 190.02 199.33 190.02 198.69 177.27 191.33"/><polygon class="cls-2" points="177.27 188.13 176.72 187.81 176.72 191.65 177.27 191.33 177.27 188.13"/><polygon class="cls-2" points="190.01 208.29 176.71 200.61 176.71 196.77 190.01 204.45 190.01 208.29"/><polygon class="cls-2" points="192.72 190.09 174 179.29 174 224.63 174.31 224.81 174.31 224.64 174.31 179.82 192.41 190.27 192.41 235.09 192.41 235.27 192.72 235.44 192.72 190.09"/><polyline class="cls-2" points="175.38 207.8 175.57 207.69 175.57 207.46 175.38 207.56 175.38 201.24 175.57 201.13 175.57 200.89 175.38 201"/><polygon class="cls-2" points="66.99 112.96 66.99 139.83 180.04 74.57 180.04 47.7 123.52 38.11 66.99 112.96"/><polygon class="cls-2" points="289.76 134.07 283.11 130.24 226.58 205.09 233.23 208.93 289.76 134.07"/><line class="cls-2" x1="123.52" y1="41.94" x2="123.52" y2="41.94"/><polygon class="cls-2" points="253.19 270.35 233.23 281.86 146.79 231.96 166.74 220.44 253.19 270.35"/><polygon class="cls-2" points="146.79 231.96 146.79 235.8 233.24 285.7 233.24 281.86 146.79 231.96"/><polygon class="cls-2" points="253.19 270.35 233.24 281.86 233.24 285.7 253.19 274.18 253.19 270.35"/><path class="cls-3" d="M243.21,218.52l-26.6-15.35V230l26.6,15.36Z"/><polyline class="cls-2" points="217.38 204.5 218.21 204.98 218.21 229.12 217.38 229.6"/><polyline class="cls-4" points="216.78 229.92 218.21 229.13 243.14 243.51"/><polyline class="cls-2" points="123.52 41.94 66.99 116.8 226.58 208.93 283.11 134.07"/><polyline class="cls-2" points="283.11 134.07 339.63 143.67 180.04 51.54 123.52 41.94"/><polyline class="cls-5" points="184.37 55.72 133.07 47.01 133.49 47.25"/><polyline class="cls-5" points="194.92 61.57 143.05 52.77 143.46 53.01"/><polyline class="cls-5" points="204.86 67.36 153.02 58.53 153.44 58.77"/><polyline class="cls-5" points="214.83 73.08 163 64.29 163.41 64.53"/><polyline class="cls-5" points="224.63 78.81 172.97 70.04 173.39 70.28"/><polyline class="cls-5" points="235.42 84.7 182.95 75.8 183.36 76.04"/><polyline class="cls-5" points="245.35 90.45 192.92 81.56 193.34 81.8"/><polyline class="cls-5" points="254.46 96.07 202.9 87.32 203.31 87.56"/><polyline class="cls-5" points="264.92 101.91 212.87 93.08 213.29 93.32"/><polyline class="cls-5" points="275.2 107.72 222.85 98.83 223.26 99.08"/><polyline class="cls-5" points="285.16 113.47 229.76 104.07 233.24 104.83"/><polyline class="cls-5" points="295.14 119.23 242.79 110.35 243.21 110.59"/><polyline class="cls-5" points="305.28 125.02 252.77 116.11 253.19 116.35"/><polyline class="cls-5" points="315.34 130.81 262.75 121.87 263.16 122.11"/><polyline class="cls-5" points="325.2 136.59 272.72 127.62 273.13 127.86"/><polygon class="cls-2" points="180.04 47.7 123.52 38.11 116.87 34.27 173.39 43.86 180.04 47.7"/><polygon class="cls-2" points="253.18 274.18 253.19 212.76 233.24 224.28 233.23 208.93 289.76 134.07 346.28 143.67 346.28 220.44 253.18 274.18"/><polygon class="cls-2" points="288.16 248.67 287.33 248.2 277.23 254.04 277.23 255 288.16 248.67"/><path class="cls-2" d="M277.22,256v-48.1L289,201.05v48.1Z"/><polygon class="cls-2" points="300.63 240.53 301.46 241 301.46 193.85 300.63 194.33 300.63 240.53"/><polygon class="cls-2" points="301.46 241 300.63 240.53 290.53 246.37 290.53 247.33 301.46 241"/><path class="cls-2" d="M290.53,248.29v-48.1l11.76-6.81v48.1Z"/><path class="cls-6" d="M289.76,182.44l18.3-10.57V148.59l-18.29-3.12Zm2.55-5.23.15-28.51,13.43,2.38v18.39Z"/><path class="cls-7" d="M271.46,193l18.3-10.57v-37l-18.3,24.24Zm2.36-5.24V170.3l13.58-18,0,27.56Z"/><polygon class="cls-2" points="289.76 134.07 283.11 130.24 226.59 205.09 233.24 208.93 289.76 134.07"/><polygon class="cls-2" points="123.52 38.11 116.87 34.27 60.34 109.12 66.99 112.96 123.52 38.11"/><polygon class="cls-2" points="60.35 185.9 60.34 109.12 66.99 112.96 66.99 116.8 226.58 208.93 226.59 205.09 233.24 208.93 233.23 224.28 146.78 174.38 146.79 235.8 60.35 185.9"/><polygon class="cls-2" points="226.58 212.77 66.99 120.64 66.99 116.8 226.58 208.93 226.58 212.77"/><polygon class="cls-2" points="146.79 235.8 60.35 185.9 60.34 124.47 146.79 174.38 146.79 235.8"/><path class="cls-3" d="M136.82,180.13l-33.25-19.19v26.88L136.82,207Z"/><polyline class="cls-4" points="103.76 187.72 105.17 186.91 136.81 205.15"/><line class="cls-2" x1="105.17" y1="186.9" x2="105.17" y2="162.36"/><path class="cls-2" d="M71.92,167.7V143.56l10.93,6.31V174Z"/><polygon class="cls-2" points="71.47 142.93 71.47 168.03 83.23 174.82 83.23 149.72 71.47 142.93"/><path class="cls-3" d="M83.62,149.42l-13.3-7.67v26.87l13.3,7.68Z"/><polyline class="cls-4" points="70.41 168.55 71.92 167.71 83.51 174.41"/><polygon class="cls-3" points="172.71 301.91 203.81 283.96 231.57 299.99 200.47 317.94 172.71 301.91"/><polygon class="cls-2" points="233.23 224.28 236.56 222.36 236.56 276.1 233.24 278.02 233.23 224.28"/><polygon class="cls-2" points="229.91 222.36 233.23 224.28 233.24 278.02 229.91 276.1 229.91 222.36"/><line class="cls-5" x1="124.34" y1="43.18" x2="279.66" y2="131.32"/><polyline class="cls-8" points="76.55 121.86 76.97 122.1 133.49 47.25 133.07 47.01"/><polygon class="cls-2" points="76.97 122.56 76.55 122.32 76.55 121.86 76.97 122.1 76.97 122.56"/><polyline class="cls-8" points="143.46 53.01 143.05 52.77 86.53 127.62 86.94 127.86"/><polygon class="cls-2" points="86.94 128.31 86.53 128.08 86.53 127.62 86.94 127.86 86.94 128.31"/><polyline class="cls-5" points="153.44 58.77 153.02 58.52 96.5 133.38 96.92 133.62"/><polygon class="cls-2" points="96.91 134.07 96.5 133.84 96.5 133.38 96.91 133.62 96.91 134.07"/><polyline class="cls-5" points="163.41 64.52 163 64.28 106.47 139.14 106.89 139.38"/><polygon class="cls-2" points="106.89 139.83 106.47 139.59 106.47 139.13 106.89 139.38 106.89 139.83"/><polyline class="cls-5" points="173.39 70.28 172.97 70.04 116.45 144.9 116.86 145.13"/><polygon class="cls-2" points="116.86 145.59 116.45 145.35 116.45 144.89 116.86 145.13 116.86 145.59"/><polyline class="cls-5" points="183.36 76.04 182.95 75.8 126.42 150.65 126.84 150.89"/><polygon class="cls-2" points="126.84 151.35 126.42 151.11 126.42 150.65 126.84 150.89 126.84 151.35"/><polyline class="cls-5" points="203.31 87.56 202.9 87.32 146.38 162.17 146.79 162.41"/><polygon class="cls-2" points="146.79 162.86 146.38 162.63 146.38 162.17 146.79 162.41 146.79 162.86"/><polyline class="cls-5" points="213.28 93.31 212.87 93.08 156.35 167.93 156.76 168.17"/><polygon class="cls-2" points="156.76 168.62 156.35 168.38 156.35 167.93 156.76 168.17 156.76 168.62"/><polyline class="cls-5" points="223.26 99.07 222.85 98.83 166.32 173.69 166.74 173.93"/><polygon class="cls-2" points="166.74 174.38 166.32 174.14 166.32 173.68 166.74 173.93 166.74 174.38"/><polyline class="cls-5" points="233.24 104.83 232.82 104.59 176.3 179.44 176.72 179.68"/><polygon class="cls-2" points="176.71 180.14 176.3 179.9 176.3 179.44 176.71 179.68 176.71 180.14"/><polyline class="cls-5" points="243.21 110.59 242.79 110.35 186.27 185.2 186.69 185.44"/><polygon class="cls-2" points="186.69 185.9 186.27 185.66 186.27 185.2 186.69 185.44 186.69 185.9"/><polyline class="cls-5" points="253.19 116.35 252.77 116.11 196.25 190.96 196.66 191.2"/><polygon class="cls-2" points="196.66 191.65 196.25 191.41 196.25 190.96 196.66 191.2 196.66 191.65"/><polyline class="cls-5" points="263.16 122.1 262.75 121.86 206.22 196.72 206.64 196.96"/><polygon class="cls-2" points="206.64 197.41 206.22 197.17 206.22 196.72 206.64 196.96 206.64 197.41"/><polyline class="cls-5" points="273.13 127.86 272.72 127.62 216.2 202.47 216.61 202.72"/><polygon class="cls-2" points="216.61 203.17 216.2 202.93 216.2 202.47 216.61 202.72 216.61 203.17"/><polygon class="cls-2" points="181.04 80.72 197.67 90.31 187.69 103.75 171.07 94.15 181.04 80.72"/><polygon class="cls-2" points="171.07 94.15 171.07 96.15 187.69 105.75 187.69 103.75 171.07 94.15"/><polygon class="cls-2" points="197.67 90.31 187.69 103.75 187.69 105.75 197.67 92.31 197.67 90.31"/><polygon class="cls-2" points="173.33 74.91 181.46 70.17 195.4 78.22 187.27 82.96 173.33 74.91"/><polygon class="cls-2" points="187.28 101.74 173.33 93.68 173.33 74.91 187.27 82.96 187.28 101.74"/><polygon class="cls-3" points="195.41 90.78 187.28 101.74 187.27 82.96 195.4 78.22 195.41 90.78"/><polygon class="cls-2" points="187.28 81.13 195.71 76.21 195.71 78.22 187.27 83.14 187.28 81.13"/><polygon class="cls-2" points="173.02 72.91 181.46 67.99 195.72 76.22 187.28 81.14 173.02 72.91"/><polygon class="cls-2" points="177.61 72.9 181.47 70.65 191.13 76.23 187.27 78.48 177.61 72.9"/><polygon class="cls-2" points="173.02 72.91 173.02 74.91 187.28 83.14 187.28 81.14 173.02 72.91"/><g class="cls-9"><polygon class="cls-2" points="187.28 83.12 187.28 83.47 195.4 78.72 195.4 78.38 187.28 83.12"/><polygon class="cls-2" points="173.33 75.42 187.27 83.47 187.27 83.13 173.33 75.07 173.33 75.42"/></g><polygon class="cls-2" points="177.2 73.14 176.78 72.9 176.78 71.46 177.2 71.7 177.2 73.14"/><polygon class="cls-2" points="177.61 72.9 177.2 73.14 177.2 71.7 177.61 71.46 177.61 72.9"/><polygon class="cls-2" points="187.27 78.87 186.86 78.63 186.86 77.19 187.27 77.42 187.27 78.87"/><polygon class="cls-2" points="187.69 78.63 187.27 78.87 187.27 77.42 187.69 77.19 187.69 78.63"/><polygon class="cls-2" points="191.54 76.47 191.13 76.23 191.13 74.79 191.54 75.03 191.54 76.47"/><polygon class="cls-2" points="191.96 76.23 191.54 76.47 191.54 75.03 191.96 74.79 191.96 76.23"/><polygon class="cls-2" points="187.28 75.73 195.72 70.81 195.71 72.82 187.28 77.74 187.28 75.73"/><polygon class="cls-2" points="173.02 67.51 173.02 69.51 187.28 77.74 187.28 75.74 173.02 67.51"/><polygon class="cls-2" points="195.7 70.81 181.47 62.59 184.37 66.57 195.7 70.81"/><polygon class="cls-2" points="181.47 62.59 181.47 62.59 173.03 67.51 184.37 66.57 181.47 62.59"/><polygon class="cls-2" points="173.03 67.51 173.03 67.51 187.28 75.74 187.28 75.74 184.37 66.57 173.03 67.51"/><polygon class="cls-2" points="195.7 70.81 184.37 66.57 187.28 75.74 195.72 70.82 195.7 70.81"/><polyline class="cls-5" points="177.87 101.52 136.4 156.41 136.81 156.65"/><polygon class="cls-2" points="136.81 157.1 136.4 156.87 136.4 156.41 136.81 156.65 136.81 157.1"/><line class="cls-4" x1="71.92" y1="167.71" x2="71.92" y2="142.35"/><line class="cls-2" x1="399.48" y1="204.37" x2="399.48" y2="208.93"/><polyline class="cls-2" points="374.9 218.57 374.9 222.96 346.28 206.65"/><path class="cls-10" d="M444.94,158.53c0,5.57-11.11,10.09-24.82,10.09s-24.81-4.52-24.81-10.09,11.11-10.1,24.81-10.1S444.94,153,444.94,158.53Z"/><line class="cls-3" x1="420.22" y1="106.77" x2="420.22" y2="158.53"/><line class="cls-3" x1="420.21" y1="124.21" x2="432.18" y2="114.51"/><line class="cls-3" x1="420.04" y1="124.21" x2="408.07" y2="114.51"/><line class="cls-3" x1="420.25" y1="106.54" x2="425.83" y2="100.96"/><line class="cls-3" x1="420.01" y1="106.54" x2="414.42" y2="100.96"/><path class="cls-4" d="M436.94,84.55c1.53-11.11-5-21.56-14.65-23.34S403.63,67,402.1,78.14"/><path class="cls-4" d="M447.58,115.86a21.53,21.53,0,0,0,7.25-16.62c-.07-11.25-8-20.32-17.76-20.25"/><path class="cls-3" d="M441.26,119.22a16.52,16.52,0,0,0,6.32-3.36"/><path class="cls-4" d="M392.93,114.63c-5.12-4.83-7.67-12.8-6-20.7C389.29,83,398.85,76.32,408.31,79"/><path class="cls-4" d="M420.61,137.16c-6.55,5.72-16.35,5-22.75-1.55-7.31-7.45-7.54-20.33-1.1-28.78"/><path class="cls-4" d="M420.4,137.39c6.47,4.86,16.14,5.51,22.22-.68,5-5.06,5.94-13.74,4.64-20.71"/><polygon class="cls-2" points="106.47 212.52 106.47 138.75 173.02 72.91 225.92 78.03 250.53 92.23 191.54 88.32 128.05 151 128.05 224.98 106.47 212.52"/><polygon class="cls-2" points="207.91 100.39 282.79 143.33 282.69 257.15 264.92 268.43 264.92 166.97 161.08 107.59 207.91 100.39"/><path class="cls-2" d="M195.25,47l23,17.31c2.7-5.09,8.32-16.23,10.79-25.17,3.31-12,3-23-6.09-27.78a20.21,20.21,0,0,0-19.57.41s2.14,2,1,9.67C202.05,37.45,195.25,47,195.25,47Z"/><path class="cls-2" d="M191.15,43.89a79.43,79.43,0,0,1,3.45-20.64c4-12,14.2-15.52,22.75-13.86,0,0-15.6-5.05-22.31-7.2s-15.47-3.42-21.92,3.72c-6.68,7.41-6.72,19.5-6.72,19.5l19.1,22.9Z"/><path class="cls-2" d="M132,76S119.78,58,112.65,50.34c-5.45-5.87-9.05-8.56-11.31-7.12,0,0,26.1-21.45,29.7-24.29s4.64-4.5,10.14-.5,21.46,26.26,21.46,26.26Z"/><path class="cls-2" d="M132,76S119.78,58,112.65,50.34s-11.09-9.92-13-4.57,5.52,17.63,11,24.68c13.62,17.56,34,31.47,34,31.47Z"/><path class="cls-2" d="M134.53,81.2a141,141,0,0,1-11.28-19.44C117,49.05,118,43.6,128.18,48.82s18.67,17.5,22.62,25.29,7.35,18,8,27Z"/><path class="cls-2" d="M158.79,101.15c-.64-9.09-4-19.24-8-27S138.36,54,128.18,48.82c-3.82-2-6.35-2.42-7.69-1.55,0,0,27.46-22.77,30.72-25.49,4.37-3.65,5.8-4.93,12.37-2s12.13,8.13,17.55,16.7c9.1,14.38,11,33.34,11,33.34Z"/><path class="cls-2" d="M186.46,98a106,106,0,0,0-10.53-13.53c-20.41-22.84-23.51-15-21.17-2.68,3.45,18.12,12.41,34.13,12.41,34.13Z"/><path class="cls-2" d="M186.45,98l-19.28,17.92s10.35,4.31,16,3.12C189.81,117.69,195.87,112.9,186.45,98Z"/><path class="cls-2" d="M191.87,114.22a21.26,21.26,0,0,1-3.52,2.7c5-3.74,5.39-12.5-12.42-32.43-11.61-13-17.62-16-20.21-14,0,0,27.21-23.85,31.79-27.63s6.51-6.74,15.25.37,20.53,22.26,22.4,30,.62,10-4.35,14.45C217,91.11,199.45,107.38,191.87,114.22Z"/><path class="cls-2" d="M129.72,79c5.13-.16,10.72,1.74,16.42,5.84,16.21,11.68,21,31.08,21,31.08l-24.09-13.8a44.31,44.31,0,0,0-5.78-13.3A54.21,54.21,0,0,0,129.72,79Z"/><path class="cls-2" d="M143.08,102.14l24.09,13.8S158.86,127,135,132.68c-20.19,4.78-28.39-2-29.36-13.88,0,0,7.12-.33,18.17-4.86C139,107.71,143.08,102.14,143.08,102.14Z"/><path class="cls-2" d="M111,130.59c-6.89-5.64-6.72-17.27-2.68-30.58,5.33-17.57,17.22-24.66,30.64-19.18,0,0-18.44-10.11-24.1-12.74S92.47,62.11,85.11,87c-5.91,20-.34,25.81,5.57,29.82Z"/></g></g></svg>