<svg xmlns="http://www.w3.org/2000/svg" viewBox="0 0 193.99 188.04"><defs><style>.cls-1{fill:#fff;}.cls-1,.cls-2{stroke:#282828;stroke-linecap:round;stroke-linejoin:round;}.cls-2{fill:none;}</style></defs><title>Asset 10</title><g id="Layer_2" data-name="Layer 2"><g id="Layer_1-2" data-name="Layer 1"><path class="cls-1" d="M64.73,22h7.94V.5H.5V72.67H22v7.87a14.57,14.57,0,1,0,29.14,0V72.67H72.67V51.16H64.73a14.58,14.58,0,0,1,0-29.15Z"/><path class="cls-1" d="M172,64.73v7.94h21.51V.5H121.32V22h-7.87a14.58,14.58,0,0,0,0,29.15h7.87V72.67h21.51V64.73a14.58,14.58,0,0,1,29.15,0Z"/><path class="cls-1" d="M129.25,166h-7.93v21.51h72.17V115.37H172V107.5a14.57,14.57,0,1,0-29.14,0v7.87H121.32v21.51h7.93a14.58,14.58,0,1,1,0,29.15Z"/><path class="cls-1" d="M22,123.31v-7.94H.5v72.17H72.67V166h7.87a14.58,14.58,0,0,0,0-29.15H72.67V115.37H51.16v7.94a14.58,14.58,0,0,1-29.15,0Z"/><line class="cls-1" x1="157.4" y1="82.26" x2="157.4" y2="60.34"/><line class="cls-1" x1="69.39" y1="36.59" x2="91.31" y2="36.59"/><line class="cls-1" x1="108.12" y1="151.45" x2="130.04" y2="151.45"/><line class="cls-1" x1="36.59" y1="128.76" x2="36.59" y2="106.84"/><path class="cls-1" d="M171.74,137.05c0,1.91-1.54,4.94-3.45,4.94s-3.45-3-3.45-4.94a3.45,3.45,0,0,1,6.9,0Z"/><polyline class="cls-1" points="166.95 141.48 166.96 143.09 160.95 144.74 160.95 147.94 175.39 147.94 175.39 144.73 169.6 143.04 169.59 141.52"/><path class="cls-1" d="M181.31,156.77c0,1.9-1.55,4.93-3.45,4.93s-3.45-3-3.45-4.93a3.45,3.45,0,1,1,6.9,0Z"/><polyline class="cls-1" points="176.52 161.19 176.53 162.81 170.52 164.46 170.52 167.65 184.96 167.65 184.96 164.44 179.17 162.75 179.16 161.23"/><path class="cls-1" d="M161.54,156.77c0,1.9-1.55,4.93-3.46,4.93s-3.45-3-3.45-4.93a3.46,3.46,0,0,1,6.91,0Z"/><polyline class="cls-1" points="156.75 161.19 156.75 162.81 150.74 164.46 150.74 167.65 165.18 167.65 165.18 164.44 159.39 162.75 159.38 161.23"/><polyline class="cls-1" points="168.17 148.91 168.17 150.57 177.84 150.57 177.84 152.39"/><polyline class="cls-1" points="168.17 150.57 158.07 150.57 158.07 152.39"/><path class="cls-1" d="M38.39,32.14a11.74,11.74,0,1,0-22.17,5.37h0l0,.08c.1.19.21.38.32.57l10.08,18,10.07-18c.11-.19.22-.38.32-.57l0-.08h0A11.67,11.67,0,0,0,38.39,32.14ZM26.66,39.7a7.56,7.56,0,1,1,7.56-7.56A7.56,7.56,0,0,1,26.66,39.7Z"/><polygon class="cls-1" points="154.7 42.38 142.11 42.38 142.11 27.46 148.4 22.51 154.7 27.46 154.7 42.38"/><polyline class="cls-2" points="142.11 23.89 148.4 18.93 154.7 23.89"/><line class="cls-1" x1="148.4" y1="28.44" x2="148.4" y2="37.62"/><line class="cls-1" x1="146.16" y1="35.41" x2="148.4" y2="37.62"/><line class="cls-1" x1="150.64" y1="35.41" x2="148.4" y2="37.62"/><polygon class="cls-1" points="170.35 42.38 157.75 42.38 157.75 17.49 164.05 12.53 170.35 17.49 170.35 42.38"/><polyline class="cls-2" points="157.75 13.91 164.05 8.96 170.35 13.91"/><line class="cls-1" x1="164.05" y1="36.64" x2="164.05" y2="27.46"/><line class="cls-1" x1="161.81" y1="29.66" x2="164.05" y2="27.46"/><line class="cls-1" x1="166.29" y1="29.66" x2="164.05" y2="27.46"/><path class="cls-2" d="M39.18,168.59s-.17-1.15.79-1.15a1.26,1.26,0,0,0,1.34.94,1.09,1.09,0,0,1,.94-.67,1.14,1.14,0,0,1,1,.73,3.33,3.33,0,0,1,2.14-.06"/><rect class="cls-2" x="29.5" y="144.8" width="18.8" height="28.2"/><polyline class="cls-2" points="27.83 147.48 26.82 147.48 26.82 150.16 26.82 175.69 42.95 175.69 45.63 175.69 45.63 174.68"/><polyline class="cls-2" points="42.95 177.36 42.95 178.36 24.14 178.36 24.14 150.16 25.15 150.16"/><path class="cls-2" d="M53.26,173l1.05-1.87a2.58,2.58,0,0,0,.33-1.24V149.41H51.89v20.46a2.57,2.57,0,0,0,.32,1.24Z"/><line class="cls-2" x1="51.89" y1="168.39" x2="54.64" y2="168.39"/><polyline class="cls-2" points="51.89 152.19 56.48 152.19 56.48 157.23"/><line class="cls-2" x1="53.26" y1="172.98" x2="53.26" y2="173.81"/><line class="cls-2" x1="45.34" y1="148.43" x2="32.47" y2="148.43"/><line class="cls-2" x1="45.34" y1="152.35" x2="32.47" y2="152.35"/><line class="cls-2" x1="45.34" y1="154.93" x2="32.47" y2="154.93"/><line class="cls-2" x1="45.34" y1="157.51" x2="32.47" y2="157.51"/><line class="cls-2" x1="45.34" y1="160.09" x2="32.47" y2="160.09"/><line class="cls-2" x1="45.34" y1="162.67" x2="32.47" y2="162.67"/><line class="cls-2" x1="45.34" y1="170.44" x2="39.17" y2="170.44"/><path class="cls-2" d="M36.74,168.32a2.12,2.12,0,1,0-2.12,2.12A2.12,2.12,0,0,0,36.74,168.32Z"/></g></g></svg>