<svg xmlns="http://www.w3.org/2000/svg" viewBox="0 0 159.93 124.14"><defs><style>.cls-1{fill:#fff;stroke:#282828;stroke-linecap:round;stroke-linejoin:round;}</style></defs><title>Asset 9</title><g id="Layer_2" data-name="Layer 2"><g id="Layer_1-2" data-name="Layer 1"><path class="cls-1" d="M139.78,95.62H3.89A3.4,3.4,0,0,1,.5,92.22V3.9A3.4,3.4,0,0,1,3.89.5H153.36a3.4,3.4,0,0,1,3.4,3.4V85.42"/><line class="cls-1" x1="68.44" y1="112.6" x2="68.44" y2="95.62"/><line class="cls-1" x1="88.82" y1="95.62" x2="88.82" y2="112.6"/><line class="cls-1" x1="44.66" y1="112.6" x2="112.6" y2="112.6"/><path class="cls-1" d="M143.17,56.55A25.48,25.48,0,1,1,117.7,31.07,25.47,25.47,0,0,1,143.17,56.55Z"/><line class="cls-1" x1="132.98" y1="75.23" x2="156.76" y2="99.01"/><polyline class="cls-1" points="95.61 31.07 95.61 17.48 78.63 17.48 78.63 85.42"/><polyline class="cls-1" points="65.04 85.42 65.04 37.87 48.06 37.87 48.06 85.42"/><polyline class="cls-1" points="34.47 85.42 34.47 54.85 17.48 54.85 17.48 85.42"/><line class="cls-1" x1="0.5" y1="123.64" x2="159.43" y2="123.64"/><path class="cls-1" d="M100.2,56.55a17.49,17.49,0,0,1,17.5-17.49"/><line class="cls-1" x1="53.56" y1="43.38" x2="53.56" y2="85.42"/><line class="cls-1" x1="22.39" y1="68.28" x2="22.39" y2="85.42"/><line class="cls-1" x1="83.35" y1="22.91" x2="83.35" y2="41.29"/></g></g></svg>