<svg xmlns="http://www.w3.org/2000/svg" xmlns:xlink="http://www.w3.org/1999/xlink" viewBox="0 0 525.26 374.84"><defs><style>.cls-1,.cls-10,.cls-11,.cls-12,.cls-2,.cls-5,.cls-7{fill:#fff;}.cls-1,.cls-10,.cls-11,.cls-12,.cls-2,.cls-3,.cls-5{stroke:#282828;stroke-linecap:round;stroke-linejoin:round;}.cls-2{stroke-width:0.5px;}.cls-3,.cls-4{fill:none;}.cls-4,.cls-5,.cls-6{fill-rule:evenodd;}.cls-8{clip-path:url(#clip-path);}.cls-9{clip-path:url(#clip-path-2);}.cls-10{stroke-width:0.64px;}.cls-11{stroke-width:0.46px;}.cls-12{stroke-width:0.5px;}</style><clipPath id="clip-path"><path class="cls-1" d="M96.48,80.78a.15.15,0,0,1-.11,0C94.44,80,93,79.87,92,80.33l-.19.1h0a.27.27,0,1,1-.27-.46h0l5.6-3.53.26-.14c1.11-.53,2.67-.4,4.78.41a.25.25,0,0,1,.16.23.29.29,0,0,1-.14.26l-5.6,3.53A.42.42,0,0,1,96.48,80.78Z"/></clipPath><clipPath id="clip-path-2"><path class="cls-1" d="M99.43,82,105,78.43a27.18,27.18,0,0,1,5.68,4.46l-5.6,3.53A27.22,27.22,0,0,0,99.43,82Z"/></clipPath></defs><title>Asset 2</title><g id="Layer_2" data-name="Layer 2"><g id="Layer_1-2" data-name="Layer 1"><polygon class="cls-2" points="101.39 49.14 101.13 49.01 102.76 45.2 102.76 34.01 99.41 33.63 100.8 33.06 104.22 33.78 104.22 45.49 101.39 49.14"/><polygon class="cls-2" points="103.4 45.15 103.4 33.96 100.06 33.58 101.15 33.14 100.8 33.06 99.41 33.63 102.76 34.01 102.76 45.2 101.13 49.01 101.39 49.14 102.07 48.26 103.4 45.15"/><path class="cls-2" d="M110.35,32.8v.26a4.18,4.18,0,0,1-.2,1.25l9.6,3.2v9.24l-2.26,2.67.17.21,3.55-2.27V36.42Z"/><path class="cls-2" d="M120.39,46.7V37.46l-9.6-3.2A4.12,4.12,0,0,0,111,33h0l-.64-.21v.26a4.18,4.18,0,0,1-.2,1.25l9.6,3.2v9.24l-2.26,2.67.17.21.55-.35Z"/><path class="cls-2" d="M95,49.18l2.89-8.78c-.5,0-1,0-1.49,0l-2.83,8.57,0,12.12,3.42.34.22-.32L95,60.19Z"/><path class="cls-2" d="M94.22,61l0-12.13,2.79-8.49c-.2,0-.41,0-.61,0l-2.83,8.57,0,12.12,3.42.34.17-.26Z"/><path class="cls-2" d="M83.6,44.51l10.17-4.88a3.2,3.2,0,0,1-.09-.75V38.1L82.14,43.63V54.57l3.57,1.74.18-.25L83.6,53.74Z"/><polygon class="cls-2" points="82.78 54.52 82.78 43.58 93.68 38.36 93.68 38.1 82.14 43.63 82.14 54.57 85.71 56.31 85.89 56.06 85.84 56.01 82.78 54.52"/><path class="cls-1" d="M110,37c-4.39,2.85-11.51,3.37-15.9,1.16s-4.39-6.32,0-9.18,11.51-3.37,15.9-1.16S114.37,34.11,110,37Z"/><path class="cls-1" d="M113.27,32.14c0,1.66-1.1,3.4-3.29,4.83-4.39,2.85-11.51,3.37-15.9,1.16-2.19-1.11-3.29-2.69-3.29-4.35h0v2c0,1.67,1.1,3.25,3.29,4.35,4.39,2.22,11.51,1.7,15.9-1.16,2.19-1.43,3.29-3.17,3.29-4.83v-2Z"/><path class="cls-1" d="M99.38,16.11a5.7,5.7,0,0,0,5.13-.37,2,2,0,0,0,1.06-1.56V31.69h0a2,2,0,0,1-1.06,1.56,5.7,5.7,0,0,1-5.13.37,1.65,1.65,0,0,1-1.06-1.4h0V14.71A1.64,1.64,0,0,0,99.38,16.11Z"/><path class="cls-1" d="M145.27,24.28c-.24.55,0,.91.63.8h0a2.17,2.17,0,0,0,1.47-1.19l3-7c.24-.55,0-.91-.62-.8h0a2.22,2.22,0,0,0-1.48,1.19Z"/><path class="cls-1" d="M148.94,17.23c-.07.17,0,.28.19.25a.66.66,0,0,0,.45-.36c.08-.17,0-.28-.19-.25A.66.66,0,0,0,148.94,17.23Z"/><path class="cls-1" d="M145.94,24.29c-.08.18,0,.28.19.25a.68.68,0,0,0,.45-.36c.07-.17,0-.28-.19-.25A.68.68,0,0,0,145.94,24.29Z"/><path class="cls-1" d="M115.1,14.25c-.24.55.05.91.63.81h0a2.21,2.21,0,0,0,1.47-1.2l3-7c.24-.56,0-.92-.62-.81h0a2.24,2.24,0,0,0-1.48,1.19Z"/><path class="cls-1" d="M118.77,7.21c-.07.17,0,.28.19.24a.66.66,0,0,0,.45-.36c.08-.17,0-.28-.19-.25A.7.7,0,0,0,118.77,7.21Z"/><path class="cls-1" d="M115.77,14.27c-.08.17,0,.28.19.25a.7.7,0,0,0,.45-.37c.07-.17,0-.28-.19-.24A.63.63,0,0,0,115.77,14.27Z"/><path class="cls-1" d="M149.57,125c14.15,7.14,37.1,5.46,51.25-3.75s14.16-22.45,0-29.59-37.1-5.45-51.25,3.75S135.42,117.83,149.57,125Z"/><path class="cls-1" d="M154,113.82c11.71,5.9,30.69,4.52,42.39-3.1s11.71-18.57,0-24.48-30.69-4.51-42.4,3.1S142.29,107.92,154,113.82Z"/><path class="cls-1" d="M154,113.82c11.71,5.9,30.69,4.52,42.39-3.1,5.86-3.81,8.78-8.45,8.79-12.88v6.8h0c0,4.43-2.93,9.07-8.79,12.88-11.7,7.61-30.68,9-42.39,3.1-5.85-3-8.78-7.17-8.78-11.6h0v-6.8C145.22,106.65,148.15,110.87,154,113.82Z"/><polygon class="cls-1" points="174.69 111.25 200.34 94.57 174.69 81.64 149.04 98.32 174.69 111.25"/><polygon class="cls-1" points="149.04 98.32 149.04 101.16 174.69 114.09 174.69 111.25 149.04 98.32"/><polyline class="cls-3" points="200.34 94.57 200.34 97.41 174.69 114.09 174.69 111.25"/><polygon class="cls-1" points="174.58 104.36 195.68 90.75 176.09 80.83 155 94.44 174.58 104.36"/><polygon class="cls-1" points="155 94.44 155 98.91 174.58 108.83 174.58 104.36 155 94.44"/><polygon class="cls-1" points="174.58 108.83 174.58 104.36 195.68 90.75 195.68 95.22 174.58 108.83"/><polygon class="cls-1" points="162.77 20.46 173.12 13.77 170.21 12.22 159.86 18.91 162.77 20.46"/><polygon class="cls-1" points="159.86 18.91 155 94.42 157.91 95.97 162.77 20.46 159.86 18.91"/><polygon class="cls-1" points="157.91 95.97 162.77 20.46 173.12 13.77 179.01 82.36 157.91 95.97"/><polygon class="cls-1" points="105.57 0.5 171.27 19.58 181.5 24.74 115.8 5.66 105.57 0.5"/><polygon class="cls-1" points="115.81 5.63 181.5 24.71 181.5 28.59 115.81 9.51 115.81 5.63"/><polygon class="cls-1" points="115.81 5.63 105.57 0.5 105.57 4.38 115.81 9.51 115.81 5.63"/><polygon class="cls-1" points="105.57 9.23 171.27 28.31 181.5 33.47 115.8 14.39 105.57 9.23"/><polygon class="cls-1" points="115.81 14.36 181.5 33.45 181.5 37.32 115.81 18.24 115.81 14.36"/><polygon class="cls-1" points="115.81 14.36 105.57 9.23 105.57 13.11 115.81 18.24 115.81 14.36"/><polygon class="cls-1" points="179.44 28.85 189.78 22.16 186.87 20.61 176.53 27.3 179.44 28.85"/><polygon class="cls-1" points="176.53 27.3 171.66 102.81 174.58 104.36 179.44 28.85 176.53 27.3"/><polygon class="cls-1" points="174.58 104.36 179.44 28.85 189.78 22.16 195.67 90.75 174.58 104.36"/><polygon class="cls-1" points="188.92 87.71 185 42.02 181.76 92.33 188.92 87.71"/><path class="cls-1" d="M183.83,30.63c0,.83.58,1.12,1.29.66a3.14,3.14,0,0,0,1.3-2.35c0-.83-.58-1.11-1.3-.65A3.14,3.14,0,0,0,183.83,30.63Z"/><path class="cls-1" d="M183.83,36.23c0,.83.58,1.12,1.29.65a3.12,3.12,0,0,0,1.3-2.34c0-.83-.58-1.12-1.3-.66A3.16,3.16,0,0,0,183.83,36.23Z"/><path class="cls-1" d="M155.78,28c-.23.55.05.91.63.8h0a2.24,2.24,0,0,0,1.48-1.19l3-7c.23-.55-.05-.91-.63-.8h0A2.24,2.24,0,0,0,158.76,21Z"/><path class="cls-1" d="M159.45,20.92c-.07.16,0,.27.2.24a.7.7,0,0,0,.45-.36c.07-.17,0-.28-.2-.25A.69.69,0,0,0,159.45,20.92Z"/><path class="cls-1" d="M156.45,28c-.07.17,0,.27.19.24a.66.66,0,0,0,.45-.36c.07-.17,0-.28-.19-.25A.7.7,0,0,0,156.45,28Z"/><path class="cls-1" d="M125.61,17.93c-.23.55,0,.91.63.81h0a2.25,2.25,0,0,0,1.48-1.2l3-7c.23-.56,0-.92-.63-.81h0a2.27,2.27,0,0,0-1.48,1.19Z"/><path class="cls-1" d="M129.28,10.89c-.07.17,0,.28.2.24a.66.66,0,0,0,.45-.36c.07-.17,0-.28-.19-.25A.74.74,0,0,0,129.28,10.89Z"/><path class="cls-1" d="M126.28,18c-.07.17,0,.28.19.24a.66.66,0,0,0,.45-.36c.07-.17,0-.28-.19-.25A.7.7,0,0,0,126.28,18Z"/><polygon class="cls-1" points="103.64 13.71 103.64 20.02 93.41 14.89 93.41 8.58 103.64 13.71"/><polygon class="cls-1" points="105.57 0.64 93.41 8.58 103.64 13.71 115.81 5.77 105.57 0.64"/><polygon class="cls-1" points="115.81 18.39 103.64 20.02 103.64 13.71 115.81 5.77 115.81 18.39"/><polygon class="cls-1" points="250.8 175.23 254.65 173.07 254.65 205.45 250.8 207.61 250.8 175.23"/><polygon class="cls-1" points="246.35 172.94 250.8 175.23 250.8 207.61 246.35 205.33 246.35 172.94"/><polygon class="cls-1" points="250.8 175.23 246.35 172.94 250.21 170.78 254.65 173.07 250.8 175.23"/><polygon class="cls-1" points="251.07 202.51 208.65 225.59 208.65 230.58 251.07 207.5 251.07 202.51"/><polygon class="cls-1" points="77.59 91.5 247.31 183.82 205.29 207.05 7.91 100.13 16.04 77.05 77.59 91.5"/><polygon class="cls-1" points="227.05 192.82 206.12 203.72 8.75 96.8 13.86 77.05 227.05 192.82"/><path class="cls-1" d="M53.37,54.1C47.26,53.24,45,57.85,45,64.44S47.3,77.09,53.41,78s11-3.77,11-10.37S59.47,55,53.37,54.1Z"/><path class="cls-1" d="M250.48,160.93c-6.1-.86-11,3.79-11,10.37s5,12.62,11.08,13.48,11-3.77,11-10.37S256.59,161.78,250.48,160.93Z"/><polyline class="cls-1" points="13.86 78.05 57.61 59.75 254.58 166.52 212.15 189.6"/><polygon class="cls-1" points="57.61 55.53 227.33 147.85 184.9 170.93 15.18 78.61 57.61 55.53"/><polyline class="cls-1" points="257.63 182.99 216.44 205.95 212.15 185.38 254.58 162.3"/><polyline class="cls-1" points="48.29 55.02 5.02 78.84 15.18 78.61 34.54 68.37 57.61 55.53"/><path class="cls-1" d="M204.49,202.83l.09-.31a8.36,8.36,0,0,0,4.24,2c4.23.59,7.65-2.61,7.64-7.18s-3.44-8.74-7.67-9.34h0l.06-.2L203.7,185a9.48,9.48,0,0,1,5.09-.68c6.1.85,11.06,6.89,11.07,13.47s-4.93,11.23-11,10.38c-4.49-.63-8.34-4.06-10.08-8.46Z"/><path class="cls-1" d="M4.12,97.15A14.19,14.19,0,0,1,.5,87.83c0-6.58,4.93-11.23,11-10.37a11,11,0,0,1,2.92.83l3.06,1.59"/><polygon class="cls-1" points="159.36 173.13 169.26 166.28 160.29 161.4 159.36 173.13"/><polyline class="cls-1" points="196.47 181.07 195.57 180.58 195.57 176.36 196.47 176.85"/><polyline class="cls-1" points="238.49 153.55 237.59 153.06 195.57 176.36 196.47 176.85"/><polyline class="cls-1" points="180.88 172.6 179.97 172.11 179.97 167.9 180.88 168.39"/><polyline class="cls-1" points="222.89 145.15 222 144.66 179.97 167.97 180.88 168.46"/><polyline class="cls-1" points="166.79 164.96 165.89 164.47 165.89 160.25 166.79 160.74"/><polyline class="cls-1" points="208.81 137.44 207.91 136.94 165.89 160.25 166.79 160.74"/><polyline class="cls-1" points="195.81 201.85 194.91 201.35 194.91 197.63"/><polyline class="cls-1" points="180.88 193.82 179.97 193.32 179.97 189.6 180.88 190.09"/><polyline class="cls-1" points="166.79 186.16 165.89 185.66 165.89 181.94 166.79 182.43"/><polygon class="cls-1" points="151.19 173.86 151.19 177.59 150.29 177.09 150.29 173.37 151.19 173.86"/><polygon class="cls-1" points="91.78 141.61 91.78 145.34 90.87 144.84 90.87 141.12 91.78 141.61"/><polygon class="cls-1" points="212.4 206.45 212.92 207.9 211.61 208.18 211.15 206.74 212.4 206.45"/><path class="cls-1" d="M152,155.22c-5.28-.74-9.56,3.29-9.54,9s4.3,10.93,9.59,11.67,9.56-3.26,9.55-9S157.29,156,152,155.22Z"/><path class="cls-1" d="M151.61,158.4c-3.66-.51-6.62,2.27-6.61,6.22a8.22,8.22,0,0,0,6.64,8.09c3.66.51,6.62-2.27,6.61-6.22S155.27,158.91,151.61,158.4Z"/><path class="cls-1" d="M208.62,186.08c-5.28-.74-9.56,3.28-9.55,9s4.31,10.94,9.59,11.68,9.56-3.26,9.55-9S213.91,186.82,208.62,186.08Z"/><path class="cls-1" d="M208.23,189.26c-3.67-.52-6.63,2.27-6.62,6.22s3,7.57,6.64,8.08,6.62-2.26,6.61-6.22S211.88,189.77,208.23,189.26Z"/><path class="cls-1" d="M209.15,192.12a3.11,3.11,0,0,0-3.51,3.3,4.34,4.34,0,0,0,3.52,4.28,3.09,3.09,0,0,0,3.51-3.29A4.36,4.36,0,0,0,209.15,192.12Z"/><path class="cls-1" d="M208.64,194.23a1.58,1.58,0,0,0-1.08.23c-.47.29-3.94,2.87-3.94,2.87l2.42,3s3.11-2.08,3.33-2.15a1.69,1.69,0,0,0,1.13-1.69A2.32,2.32,0,0,0,208.64,194.23Z"/><polygon class="cls-1" points="204.79 200.35 208.65 198.19 208.65 230.58 204.79 232.74 204.79 200.35"/><polygon class="cls-1" points="200.35 198.07 204.79 200.35 204.79 232.74 200.35 230.46 200.35 198.07"/><polygon class="cls-1" points="204.79 200.35 200.35 198.07 204.2 195.91 208.65 198.19 204.79 200.35"/><path class="cls-1" d="M152.24,163.34a1.59,1.59,0,0,0-1.08.22c-.47.3-3.94,2.88-3.94,2.88l2.42,3s3.11-2.08,3.33-2.16a1.68,1.68,0,0,0,1.13-1.69A2.31,2.31,0,0,0,152.24,163.34Z"/><polygon class="cls-1" points="148.39 169.46 152.25 167.3 152.25 199.69 148.39 201.85 148.39 169.46"/><polygon class="cls-1" points="143.95 167.18 148.39 169.46 148.39 201.85 143.95 199.57 143.95 167.18"/><polygon class="cls-1" points="148.39 169.46 143.95 167.18 147.8 165.02 152.25 167.3 148.39 169.46"/><rect class="cls-1" x="249.35" y="155.18" width="33.51" height="145.17"/><polygon class="cls-1" points="370.65 107.41 370.65 252.59 282.86 300.35 282.86 155.18 370.65 107.41"/><polygon class="cls-1" points="367.54 115.97 367.54 246.12 288.84 288.93 288.84 158.79 367.54 115.97"/><polygon class="cls-1" points="357.72 142.55 357.72 240.16 298.66 272.29 298.66 174.68 357.72 142.55"/><polygon class="cls-1" points="357.72 240.16 346.81 233.99 346.81 148.49 357.72 142.55 357.72 240.16"/><polygon class="cls-1" points="357.72 240.16 346.81 233.99 298.66 261.47 298.66 272.29 357.72 240.16"/><path class="cls-1" d="M327.59,142.54a4.4,4.4,0,0,1,5,4.68,6.18,6.18,0,0,1-5,6.09c-2.76.39-5-1.7-5-4.68A6.21,6.21,0,0,1,327.59,142.54Z"/><path class="cls-1" d="M329.26,144.63a3.45,3.45,0,0,1,3.9,3.67,4.85,4.85,0,0,1-3.92,4.77,3.45,3.45,0,0,1-3.9-3.67A4.87,4.87,0,0,1,329.26,144.63Z"/><path class="cls-1" d="M344.26,133.26a4.4,4.4,0,0,1,5,4.68,6.19,6.19,0,0,1-5,6.09c-2.76.39-5-1.7-5-4.68A6.21,6.21,0,0,1,344.26,133.26Z"/><path class="cls-1" d="M345.92,135.35a3.46,3.46,0,0,1,3.91,3.67,4.85,4.85,0,0,1-3.92,4.77,3.45,3.45,0,0,1-3.9-3.67A4.87,4.87,0,0,1,345.92,135.35Z"/><path class="cls-1" d="M310.32,151.81c2.75-.39,5,1.71,5,4.68a6.2,6.2,0,0,1-5,6.09c-2.76.39-5-1.7-5-4.68A6.2,6.2,0,0,1,310.32,151.81Z"/><path class="cls-1" d="M312,153.9a3.45,3.45,0,0,1,3.9,3.67,4.84,4.84,0,0,1-3.91,4.77,3.45,3.45,0,0,1-3.91-3.67A4.87,4.87,0,0,1,312,153.9Z"/><polygon class="cls-1" points="161.55 107.41 161.55 252.59 249.35 300.35 249.35 155.18 161.55 107.41"/><polygon class="cls-1" points="164.66 115.97 164.67 246.12 243.37 288.93 243.37 158.79 164.66 115.97"/><polygon class="cls-1" points="174.49 142.55 174.49 240.16 233.55 272.29 233.55 174.68 174.49 142.55"/><polygon class="cls-1" points="174.49 240.16 185.4 233.99 185.4 148.49 174.49 142.55 174.49 240.16"/><polygon class="cls-1" points="174.49 240.16 185.4 233.99 233.55 261.47 233.55 272.29 174.49 240.16"/><path class="cls-1" d="M204.3,142.53a4.41,4.41,0,0,0-5,4.69,6.19,6.19,0,0,0,5,6.09,4.41,4.41,0,0,0,5-4.69A6.21,6.21,0,0,0,204.3,142.53Z"/><path class="cls-1" d="M202.64,144.63a3.45,3.45,0,0,0-3.9,3.67,4.85,4.85,0,0,0,3.91,4.77,3.45,3.45,0,0,0,3.9-3.67A4.85,4.85,0,0,0,202.64,144.63Z"/><path class="cls-1" d="M187.63,133.25a4.4,4.4,0,0,0-5,4.69,6.17,6.17,0,0,0,5,6.08,4.39,4.39,0,0,0,5-4.68A6.21,6.21,0,0,0,187.63,133.25Z"/><path class="cls-1" d="M186,135.34a3.45,3.45,0,0,0-3.9,3.67,4.85,4.85,0,0,0,3.91,4.78,3.45,3.45,0,0,0,3.9-3.67A4.87,4.87,0,0,0,186,135.34Z"/><path class="cls-1" d="M221.57,151.8c-2.75-.38-5,1.71-5,4.69a6.21,6.21,0,0,0,5,6.09c2.76.38,5-1.71,5-4.69A6.21,6.21,0,0,0,221.57,151.8Z"/><path class="cls-1" d="M219.91,153.9a3.45,3.45,0,0,0-3.9,3.67,4.87,4.87,0,0,0,3.92,4.77,3.45,3.45,0,0,0,3.9-3.67A4.86,4.86,0,0,0,219.91,153.9Z"/><polygon class="cls-1" points="249.35 59.71 282.86 59.71 370.65 107.41 283.05 155.01 282.86 155.18 249.35 155.18 161.55 107.41 249.35 59.71"/><rect class="cls-1" x="254.35" y="164.47" width="23.47" height="23.47"/><rect class="cls-1" x="254.35" y="162.72" width="23.47" height="1.75"/><rect class="cls-1" x="259.8" y="176.13" width="14.98" height="1.5" transform="translate(35.74 398.5) rotate(-77.24)"/><rect class="cls-1" x="262.52" y="179.36" width="7.16" height="7.16"/><rect class="cls-1" x="273.24" y="174.02" width="2.25" height="2.42"/><rect class="cls-1" x="264.63" y="166.99" width="2.25" height="2.42"/><rect class="cls-1" x="256.47" y="174.46" width="2.25" height="2.42"/><rect class="cls-1" x="254.35" y="224.03" width="23.47" height="23.47"/><rect class="cls-1" x="254.35" y="222.28" width="23.47" height="1.75"/><rect class="cls-1" x="259.8" y="235.69" width="14.98" height="1.5" transform="translate(-22.35 444.9) rotate(-77.24)"/><rect class="cls-1" x="262.52" y="238.92" width="7.16" height="7.16"/><rect class="cls-1" x="273.24" y="233.58" width="2.25" height="2.42"/><rect class="cls-1" x="264.63" y="226.55" width="2.25" height="2.42"/><rect class="cls-1" x="256.47" y="234.02" width="2.25" height="2.42"/><rect class="cls-1" x="259.85" y="199.05" width="12.48" height="12.48"/><rect class="cls-1" x="262.59" y="202.01" width="6.99" height="6.98"/><polygon class="cls-1" points="514 316.83 517.86 314.67 517.86 347.05 514 349.21 514 316.83"/><polygon class="cls-1" points="509.56 314.55 514 316.83 514 349.21 509.56 346.93 509.56 314.55"/><polygon class="cls-1" points="514 316.83 509.56 314.55 513.42 312.39 517.86 314.67 514 316.83"/><polygon class="cls-1" points="514.28 344.12 471.85 367.2 471.85 372.18 514.28 349.1 514.28 344.12"/><polygon class="cls-1" points="340.8 233.1 510.52 325.42 468.5 348.65 298.37 256.18 306.49 233.1 340.8 233.1"/><polygon class="cls-1" points="490.26 334.42 469.33 345.32 299.2 252.85 304.32 233.1 490.26 334.42"/><path class="cls-1" d="M343.82,210.14c-6.1-.85-11,3.79-11,10.38s5,12.61,11.07,13.47,11.05-3.76,11-10.37S349.92,211,343.82,210.14Z"/><path class="cls-1" d="M513.69,302.53c-6.1-.86-11,3.79-11,10.37s5,12.62,11.07,13.48,11-3.77,11-10.37S519.79,303.38,513.69,302.53Z"/><polygon class="cls-1" points="348.06 215.8 517.78 308.12 475.36 331.2 305.64 238.88 304.32 234.1 348.06 215.8"/><polygon class="cls-1" points="348.06 211.58 517.78 303.9 475.36 326.98 305.64 234.66 348.06 211.58"/><polyline class="cls-1" points="520.84 324.59 479.64 347.55 475.36 326.98 517.78 303.9"/><polyline class="cls-1" points="337.23 211.58 295.47 234.89 305.64 234.66 325 224.42 348.06 211.58"/><path class="cls-1" d="M467.7,344.43l.09-.31a8.32,8.32,0,0,0,4.24,2c4.22.59,7.64-2.61,7.64-7.18s-3.45-8.74-7.67-9.33h0l.05-.2-5.11-2.78a9.49,9.49,0,0,1,5.09-.68c6.1.85,11.06,6.89,11.07,13.48s-4.92,11.23-11,10.37c-4.48-.63-8.33-4.06-10.07-8.46Z"/><path class="cls-1" d="M297.78,255.85a14.17,14.17,0,0,1-6.82-12c0-6.59,4.92-11.24,11-10.38,4.66.66,8.63,4.34,10.26,9"/><path class="cls-1" d="M302,236c-4.84-.68-8.76,3-8.75,8.23s3.95,10,8.79,10.69,8.75-3,8.74-8.23S306.83,236.65,302,236Z"/><path class="cls-1" d="M301.59,238.27c-3.66-.51-6.62,2.28-6.61,6.23s3,7.57,6.64,8.08,6.62-2.26,6.61-6.22S305.25,238.79,301.59,238.27Z"/><polyline class="cls-1" points="352.25 213.89 351.35 213.4 309.33 236.7 310.24 237.19"/><polygon class="cls-1" points="414.4 315.46 414.4 319.19 413.5 318.69 413.5 314.97 414.4 315.46"/><polygon class="cls-1" points="354.98 283.21 354.98 286.94 354.08 286.44 354.08 282.72 354.98 283.21"/><polygon class="cls-1" points="292.44 245.43 290.96 244.68 290.96 243.23 292.44 244.08 292.44 245.43"/><path class="cls-1" d="M358.6,266c-5.29-.74-9.56,3.28-9.55,9s4.31,10.94,9.59,11.68,9.56-3.26,9.55-9S363.88,266.7,358.6,266Z"/><path class="cls-1" d="M358.2,269.14c-3.66-.52-6.62,2.27-6.61,6.22s3,7.57,6.64,8.08,6.62-2.26,6.61-6.22A8.21,8.21,0,0,0,358.2,269.14Z"/><path class="cls-1" d="M415.21,296.83c-5.28-.75-9.56,3.28-9.55,9s4.31,10.93,9.59,11.67,9.56-3.26,9.55-9S420.5,297.56,415.21,296.83Z"/><path class="cls-1" d="M414.82,300c-3.66-.51-6.63,2.27-6.61,6.22a8.22,8.22,0,0,0,6.63,8.09c3.66.51,6.62-2.26,6.62-6.22S418.48,300.51,414.82,300Z"/><path class="cls-1" d="M471.83,327.68c-5.29-.74-9.56,3.28-9.55,9s4.3,10.93,9.59,11.67,9.56-3.26,9.55-9S477.11,328.42,471.83,327.68Z"/><path class="cls-1" d="M471.43,330.86c-3.66-.52-6.62,2.27-6.61,6.22a8.19,8.19,0,0,0,6.64,8.08c3.65.52,6.62-2.25,6.61-6.22S475.09,331.37,471.43,330.86Z"/><rect class="cls-1" x="288.83" y="174.46" width="9.83" height="101.28"/><path class="cls-1" d="M471.84,335.84a1.5,1.5,0,0,0-1.07.22c-.48.29-3.94,2.87-3.94,2.87l2.41,3s3.11-2.09,3.34-2.16a1.71,1.71,0,0,0,1.13-1.69A2.31,2.31,0,0,0,471.84,335.84Z"/><polygon class="cls-1" points="467.99 341.95 471.85 339.79 471.85 372.18 467.99 374.34 467.99 341.95"/><polygon class="cls-1" points="463.55 339.67 467.99 341.95 467.99 374.34 463.55 372.06 463.55 339.67"/><polygon class="cls-1" points="467.99 341.95 463.55 339.67 467.41 337.51 471.85 339.79 467.99 341.95"/><path class="cls-1" d="M415.44,304.94a1.6,1.6,0,0,0-1.07.22c-.48.3-3.94,2.88-3.94,2.88l2.41,3s3.11-2.08,3.33-2.15a1.71,1.71,0,0,0,1.14-1.7A2.32,2.32,0,0,0,415.44,304.94Z"/><polygon class="cls-1" points="411.6 311.06 415.45 308.9 415.45 341.29 411.6 343.45 411.6 311.06"/><polygon class="cls-1" points="407.15 308.78 411.6 311.06 411.6 343.45 407.15 341.17 407.15 308.78"/><polygon class="cls-1" points="411.6 311.06 407.15 308.78 411.01 306.62 415.45 308.9 411.6 311.06"/><path class="cls-1" d="M358.2,274.14a1.56,1.56,0,0,0-1.08.22c-.48.3-3.94,2.88-3.94,2.88l2.41,3s3.11-2.09,3.34-2.16a1.7,1.7,0,0,0,1.13-1.69A2.31,2.31,0,0,0,358.2,274.14Z"/><polygon class="cls-1" points="354.34 280.26 358.2 278.1 358.2 310.48 354.34 312.64 354.34 280.26"/><polygon class="cls-1" points="349.9 277.98 354.34 280.26 354.34 312.64 349.9 310.36 349.9 277.98"/><polygon class="cls-1" points="354.34 280.26 349.9 277.98 353.76 275.82 358.2 278.1 354.34 280.26"/><path class="cls-1" d="M302.45,243.22a1.55,1.55,0,0,0-1.07.22l-2.72,1.66v4.24s4.3-2.09,4.52-2.16a1.7,1.7,0,0,0,1.14-1.69A2.31,2.31,0,0,0,302.45,243.22Z"/><path class="cls-4" d="M188.85,194.37a8,8,0,0,1,0,.86,3.31,3.31,0,0,0,.23,1.43,21.71,21.71,0,0,0,4,7,11,11,0,0,0,2.65,2.25c2.48,1.51,5,2.81,7.43,4.21q8.4,4.75,16.78,9.3a20.28,20.28,0,0,0,3.35,1.59,4.86,4.86,0,0,0,5-.79,4.78,4.78,0,0,0,1.37-3.59c.21-7.93.1-16,.05-24.11,0-2.33,0-4.65-.21-7.1a12.75,12.75,0,0,0-1.8-4.74,24.86,24.86,0,0,0-4.13-5.1,2,2,0,0,0-.52-.36Q211,168.59,199,162c-1.26-.69-2.53-1.38-3.78-1.92a4.78,4.78,0,0,0-3.85-.07,5.32,5.32,0,0,0-2.41,2.31,1.15,1.15,0,0,0-.1.6v31.45Z"/><path class="cls-5" d="M188.85,194.37V162.92c.62-5.79,6.36-2.84,6.36-2.84,1.25.54,2.52,1.23,3.78,1.92q12,6.57,24.07,13.22c6.59,4.48,6.45,10.2,6.45,10.2.23,2.45.2,4.77.21,7.1.05,8.07.16,16.18-.05,24.11a4.78,4.78,0,0,1-1.37,3.59,4.86,4.86,0,0,1-5,.79,20.28,20.28,0,0,1-3.35-1.59q-8.38-4.54-16.78-9.3c-2.47-1.4-4.95-2.7-7.43-4.21a35,35,0,0,1-2.93-2.18C188.81,201.05,188.85,194.37,188.85,194.37Zm9.83-29.72c-.94-.51-1.88-1-2.81-1.36-2.11-.9-4.43.21-4.48,2.73-.18,8.89,0,18-.06,26.95,0,.91,0,1.85.11,2.8a10.57,10.57,0,0,0,2.66,5.65,8.2,8.2,0,0,0,2.24,1.87c2.78,1.67,5.56,3.19,8.34,4.72l15.58,8.56a21.46,21.46,0,0,0,2.44,1.23,2.8,2.8,0,0,0,3.46-.7c.2-.23.35-.51.53-.75a2.28,2.28,0,0,0,.38-1.42q0-14.6,0-29.16a7.45,7.45,0,0,0-.7-2.74,15.81,15.81,0,0,0-3-4.58,2.36,2.36,0,0,0-.65-.49c-3.37-1.86-6.74-3.74-10.12-5.6l-2-1.08v-.07C206.64,169,202.66,166.82,198.68,164.65Z"/><path class="cls-4" d="M210.62,171.28l2,1.08c3.38,1.86,6.75,3.74,10.12,5.6a2.36,2.36,0,0,1,.65.49,15.81,15.81,0,0,1,3,4.58,7.45,7.45,0,0,1,.7,2.74q0,14.55,0,29.16a2.28,2.28,0,0,1-.38,1.42c-.18.24-.33.52-.53.75a2.8,2.8,0,0,1-3.46.7,21.46,21.46,0,0,1-2.44-1.23L204.68,208c-2.78-1.53-5.56-3-8.34-4.72a8.2,8.2,0,0,1-2.24-1.87,10.57,10.57,0,0,1-2.66-5.65c-.08-1-.11-1.89-.11-2.8,0-9-.12-18.06.06-26.95.05-2.52,2.37-3.63,4.48-2.73.93.39,1.87.85,2.81,1.36,4,2.17,8,4.37,11.94,6.56Z"/><path class="cls-4" d="M208.27,195.54c0,.54-.14.71-.6.61a3.08,3.08,0,0,0-1.85.15c-1.5.61-1.73,3.14-.89,5.44a10.3,10.3,0,0,0,3.65,4.94c2.32,1.68,4.9,1.28,5.36-1.35.35-2-.57-4.89-3-7.29-1.23-1.24-1-.93-1-2.15s0-2.31,0-3.47c0-.59.18-.95.64-1.07a1,1,0,0,0,.73-1.06,2,2,0,0,1,1.4-1.85c.8-.37,1.64-.68,2.44-1.05.25-.11.46,0,.73.29a8.29,8.29,0,0,0,3.72,2.55,2.51,2.51,0,0,0,3.32-1.95,8.05,8.05,0,0,0-1.11-5.37c-1.36-2.46-3.87-4.31-5.69-4.23s-2.79,1.7-2.44,4.37a8.32,8.32,0,0,0,.2,1.18c.18.58.05.88-.25,1.08a18.31,18.31,0,0,1-2.82,1.54c-.79.36-2.23-.45-3.16-1.73-1.19-1.65-2.26-3.38-3.39-5.07a.55.55,0,0,1-.06-.68,4.61,4.61,0,0,0,.56-2.5c-.06-2.5-2-5.77-4.47-7.48-2-1.42-4.17-1-4.83.91s-.1,4.13,1.42,6.36,3.8,3.69,5.5,3.65c.39,0,.62.12.94.66.91,1.54,1.87,3.05,2.79,4.59a5.49,5.49,0,0,1,.85,2.22,5.39,5.39,0,0,0,.75,2,3.66,3.66,0,0,1,.46,1.75c0,.69,0,1.38,0,2.07h0C208.26,194.26,208.23,194.89,208.27,195.54Z"/><path class="cls-6" d="M208.24,193.61c0-.69,0-1.38,0-2.07a3.66,3.66,0,0,0-.46-1.75,5.39,5.39,0,0,1-.75-2,5.49,5.49,0,0,0-.85-2.22c-.92-1.54-1.88-3.05-2.79-4.59-.32-.54-.55-.67-.94-.66-1.7,0-4.06-1.54-5.5-3.65s-2-4.53-1.42-6.36,2.79-2.33,4.83-.91c2.47,1.71,4.41,5,4.47,7.48a4.61,4.61,0,0,1-.56,2.5.55.55,0,0,0,.06.68c1.13,1.69,2.2,3.42,3.39,5.07.93,1.28,2.37,2.09,3.16,1.73a18.31,18.31,0,0,0,2.82-1.54c.3-.2.43-.5.25-1.08a8.32,8.32,0,0,1-.2-1.18c-.35-2.67.55-4.28,2.44-4.37s4.33,1.77,5.69,4.23a8.05,8.05,0,0,1,1.11,5.37,2.51,2.51,0,0,1-3.32,1.95,8.29,8.29,0,0,1-3.72-2.55c-.27-.32-.48-.4-.73-.29-.8.37-1.64.68-2.44,1.05a2,2,0,0,0-1.4,1.85,1,1,0,0,1-.73,1.06c-.46.12-.64.48-.64,1.07,0,1.16,0,2.3,0,3.47s-.25.91,1,2.15c2.39,2.4,3.31,5.33,3,7.29-.46,2.63-3,3-5.36,1.35a10.3,10.3,0,0,1-3.65-4.94c-.84-2.3-.61-4.83.89-5.44a3.08,3.08,0,0,1,1.85-.15c.46.1.63-.07.6-.61s0-1.28,0-1.92ZM216,182.39a.9.9,0,0,0-.06.47,1,1,0,0,0,.46.77c.28.2.31,0,.37-.22.3-1,1.26-.95,2.2,0a2.55,2.55,0,0,1,.76,2.19c-.11.66-.47.85-1.13.58-.3-.13-.7-.44-.6.19a1.23,1.23,0,0,0,.87,1.08,1.59,1.59,0,0,0,2-1.7,5.57,5.57,0,0,0-2.49-3.85A1.63,1.63,0,0,0,216,182.39Zm-18.14-7.8a5.76,5.76,0,0,0,1.87,2.35c.4.32.57.08.61-.27a.82.82,0,0,0-.49-.81,2.51,2.51,0,0,1-1.31-2.15c0-.89.52-1.32,1.25-1a3.18,3.18,0,0,1,1.63,2.16.83.83,0,0,0,.53.77c.38.13.45-.1.41-.47a5.89,5.89,0,0,0-2.2-3.28C198.17,170.81,196.94,172.25,197.89,174.59ZM211.3,204.3a2.77,2.77,0,0,0,0-2.66,1.13,1.13,0,0,0-.57-.71c-.43-.15-.38.22-.26.62.25.84.32,1.54-.14,1.94s-.76.31-1.31-.07a3,3,0,0,1-1.15-1.68,1.69,1.69,0,0,1,.18-1.63c.13-.14.24-.26,0-.57s-.5-.61-.71-.37a2.22,2.22,0,0,0-.36,2.48,5.12,5.12,0,0,0,2.32,2.89C210.13,204.94,210.85,204.92,211.3,204.3Z"/><path class="cls-4" d="M218.4,181.9a1.63,1.63,0,0,0-2.37.49.9.9,0,0,0-.06.47,1,1,0,0,0,.46.77c.28.2.31,0,.37-.22.3-1,1.26-.95,2.2,0a2.55,2.55,0,0,1,.76,2.19c-.11.66-.47.85-1.13.58-.3-.13-.7-.44-.6.19a1.23,1.23,0,0,0,.87,1.08,1.59,1.59,0,0,0,2-1.7A5.57,5.57,0,0,0,218.4,181.9Z"/><path class="cls-4" d="M200.19,171.89c-2-1.08-3.25.36-2.3,2.7a5.76,5.76,0,0,0,1.87,2.35c.4.32.57.08.61-.27a.82.82,0,0,0-.49-.81,2.51,2.51,0,0,1-1.31-2.15c0-.89.52-1.32,1.25-1a3.18,3.18,0,0,1,1.63,2.16.83.83,0,0,0,.53.77c.38.13.45-.1.41-.47A5.89,5.89,0,0,0,200.19,171.89Z"/><path class="cls-4" d="M209.28,204.54c.85.4,1.57.38,2-.24a2.77,2.77,0,0,0,0-2.66,1.13,1.13,0,0,0-.57-.71c-.43-.15-.38.22-.26.62.25.84.32,1.54-.14,1.94s-.76.31-1.31-.07a3,3,0,0,1-1.15-1.68,1.69,1.69,0,0,1,.18-1.63c.13-.14.24-.26,0-.57s-.5-.61-.71-.37a2.22,2.22,0,0,0-.36,2.48A5.12,5.12,0,0,0,209.28,204.54Z"/><polygon class="cls-1" points="123.56 97.26 129.21 100.39 134.89 96.96 129.25 93.83 123.56 97.26"/><path class="cls-1" d="M129,100.69l-5.65-3.13a.34.34,0,0,1-.17-.29.35.35,0,0,1,.17-.3l5.68-3.43a.34.34,0,0,1,.35,0l5.64,3.13a.33.33,0,0,1,.18.29.34.34,0,0,1-.18.3l-5.68,3.44a.33.33,0,0,1-.17,0A.25.25,0,0,1,129,100.69Z"/><polygon class="cls-1" points="123.56 97.26 123.65 119.03 129.29 122.17 129.21 100.39 123.56 97.26"/><path class="cls-1" d="M129.12,122.47l-5.65-3.14a.33.33,0,0,1-.17-.29l-.08-21.77a.36.36,0,0,1,.17-.3.32.32,0,0,1,.34,0l5.65,3.13a.32.32,0,0,1,.17.29l.08,21.78a.33.33,0,0,1-.17.3.34.34,0,0,1-.17.05A.33.33,0,0,1,129.12,122.47Z"/><polygon class="cls-1" points="129.21 100.39 129.29 122.17 134.98 118.73 134.89 96.96 129.21 100.39"/><path class="cls-1" d="M129.12,122.47a.34.34,0,0,1-.17-.29l-.08-21.78a.34.34,0,0,1,.17-.3l5.68-3.43a.34.34,0,0,1,.34,0,.35.35,0,0,1,.18.29l.08,21.78a.38.38,0,0,1-.17.3l-5.69,3.43a.34.34,0,0,1-.17.05A.33.33,0,0,1,129.12,122.47Z"/><polygon class="cls-1" points="132.14 109.84 137.79 112.98 143.47 109.55 137.82 106.41 132.14 109.84"/><path class="cls-1" d="M137.61,113.28,132,110.14a.31.31,0,0,1-.17-.29.35.35,0,0,1,.17-.3l5.68-3.43a.34.34,0,0,1,.34,0l5.65,3.14a.31.31,0,0,1,.17.29.34.34,0,0,1-.17.3L138,113.27a.41.41,0,0,1-.17,0A.39.39,0,0,1,137.61,113.28Z"/><polygon class="cls-7" points="132.14 109.84 132.22 123.55 137.87 126.68 137.79 112.98 132.14 109.84"/><path class="cls-1" d="M137.7,127l-5.65-3.14a.34.34,0,0,1-.17-.29l-.08-13.7a.36.36,0,0,1,.17-.31.34.34,0,0,1,.34,0l5.65,3.14a.32.32,0,0,1,.17.29l.08,13.7a.36.36,0,0,1-.17.31.34.34,0,0,1-.17,0A.47.47,0,0,1,137.7,127Z"/><polygon class="cls-1" points="137.79 112.98 137.87 126.68 143.55 123.25 143.47 109.55 137.79 112.98"/><path class="cls-1" d="M137.7,127a.32.32,0,0,1-.17-.29L137.44,113a.34.34,0,0,1,.18-.3l5.68-3.44a.34.34,0,0,1,.34,0,.3.3,0,0,1,.17.29l.09,13.7a.37.37,0,0,1-.18.31L138,127a.34.34,0,0,1-.17,0A.47.47,0,0,1,137.7,127Z"/><polygon class="cls-1" points="140.72 120.99 146.36 124.13 152.05 120.7 146.4 117.56 140.72 120.99"/><path class="cls-1" d="M146.19,124.43l-5.65-3.14a.32.32,0,0,1-.16-.29.34.34,0,0,1,.17-.3l5.68-3.43a.32.32,0,0,1,.34,0l5.65,3.14a.31.31,0,0,1,.17.29.38.38,0,0,1-.17.3l-5.68,3.43a.41.41,0,0,1-.18,0A.33.33,0,0,1,146.19,124.43Z"/><polygon class="cls-1" points="140.72 120.99 140.8 128.07 146.45 131.2 146.36 124.13 140.72 120.99"/><path class="cls-1" d="M146.28,131.5l-5.65-3.13a.32.32,0,0,1-.17-.29l-.08-7.08a.33.33,0,0,1,.16-.3.36.36,0,0,1,.35,0l5.65,3.14a.32.32,0,0,1,.17.28l.08,7.08a.34.34,0,0,1-.17.3.35.35,0,0,1-.17.06A.34.34,0,0,1,146.28,131.5Z"/><polygon class="cls-1" points="146.36 124.13 146.45 131.2 152.13 127.77 152.05 120.7 146.36 124.13"/><path class="cls-1" d="M146.28,131.5a.33.33,0,0,1-.18-.29l-.08-7.07a.37.37,0,0,1,.17-.31l5.69-3.43a.37.37,0,0,1,.34,0,.34.34,0,0,1,.17.29l.08,7.08a.34.34,0,0,1-.17.3l-5.68,3.44a.48.48,0,0,1-.17.05A.34.34,0,0,1,146.28,131.5Z"/><polyline class="cls-1" points="103.81 103.97 99.29 106.91 99.33 103.7 104.94 100.17"/><path class="cls-1" d="M104.61,95.06a3.71,3.71,0,0,1-1.77-.56,18.27,18.27,0,0,1-3.4-2.35l-.9-.78-.29-.26-.58-.54-.34-.32-.51-.5-.34-.36-.6-.63-5.6,3.53.28.3.32.33.34.35.51.5.33.32c.19.19.39.37.59.54l.28.26.91.79A18.75,18.75,0,0,0,97.23,98a4,4,0,0,0,1.78.56.62.62,0,0,0,.28-.09l5.6-3.53A.58.58,0,0,1,104.61,95.06Z"/><path class="cls-1" d="M99,98.87a4.22,4.22,0,0,1-1.9-.6,18.9,18.9,0,0,1-3.44-2.38c-.31-.25-.61-.52-.91-.79l-.29-.26-.59-.54L91.52,94l-.51-.5-.27-.28L90.55,93l-.2-.21-.29-.31a.26.26,0,0,1-.06-.23.34.34,0,0,1,.14-.2l5.6-3.52a.3.3,0,0,1,.36,0l.52.56.41.42.51.5.33.32.58.54.28.26.91.78A18.29,18.29,0,0,0,103,94.25a3.69,3.69,0,0,0,1.63.54h0a.26.26,0,0,0,.14,0h0a.27.27,0,0,1,.38.07.3.3,0,0,1-.11.39h0l-5.6,3.52a.83.83,0,0,1-.42.13Z"/><path class="cls-1" d="M110.76,96.17s0-.06,0-.09,0-.28,0-.41V95.6c0-.12,0-.25,0-.37s0,0,0-.07,0-.27-.07-.4a.29.29,0,0,1,0-.09l-.09-.39v0l-.12-.4,0-.09c0-.13-.09-.27-.14-.39l0-.06L110,93l0,0,0,0c-.06-.13-.12-.26-.19-.39a.3.3,0,0,0,0-.08c-.07-.13-.14-.27-.22-.4l-.2-.32-.06-.1-.15-.23-.08-.11-.18-.26a.35.35,0,0,1,0-.08l-.26-.33-.06-.09-.22-.26-.09-.12-.21-.25-.09-.11c-.11-.11-.21-.23-.32-.35h0c-.1-.12-.21-.24-.32-.35l0,0-.06-.07-.31-.32-.09-.1-.41-.4-.08-.08-.36-.35-.12-.11-.46-.42c-1-.87-1.73-1.59-2.28-2.15l-.22-.22-.13-.15,0,0-.16-.18,0,0-.11-.12,0-.06-.08-.1,0,0-.08-.09,0-.06-.07-.09,0,0-.09-.13-.08-.13,0,0-.05-.09a.08.08,0,0,0,0,0l0-.14s0,0,0,0a1,1,0,0,1,0-.16v0l0-.15v0a1,1,0,0,1,0-.17.7.7,0,0,1,.26-.62l-5.6,3.53a.67.67,0,0,0-.26.61v.17a.09.09,0,0,1,0,0,.59.59,0,0,0,0,.14v0a1,1,0,0,0,0,.17s0,0,0,0a.69.69,0,0,0,0,.13s0,0,0,0v0l0,.09,0,0a1,1,0,0,0,.08.14.83.83,0,0,0,.08.12l0,0,.07.09,0,0,.07.09,0,.06.08.1,0,.06.1.12,0,0,.15.17,0,0,.11.12,0,0,.22.23c.54.56,1.3,1.27,2.28,2.14l.45.43.12.11c.13.12.25.23.36.35l.08.07.41.41.1.1.31.32.09.1c.12.12.22.24.33.36h0l.31.35.09.11c.08.08.15.17.22.25l.09.12.21.26a.27.27,0,0,0,.07.08c.08.12.17.23.25.34a.35.35,0,0,1,0,.08,2.48,2.48,0,0,1,.19.26l.07.1c.06.08.11.16.16.24l.06.1c.07.1.13.21.2.32s.15.26.22.4l0,.08c.07.13.13.26.19.39l0,.07a2.75,2.75,0,0,1,.15.36.17.17,0,0,1,0,.05c.06.13.1.26.15.4s0,0,0,.08a3.17,3.17,0,0,1,.12.41s0,0,0,0,.07.26.09.39a.24.24,0,0,1,0,.08c0,.14.06.27.08.4a.19.19,0,0,0,0,.08c0,.12,0,.24,0,.37s0,0,0,.07l0,.4v.1c0,.14,0,.28,0,.42,0,1.78-.54,3-1.53,3.61l5.6-3.53c1-.63,1.51-1.83,1.53-3.61Z"/><path class="cls-1" d="M103.62,104a.26.26,0,0,1-.24-.12.28.28,0,0,1,.11-.38h0c.9-.57,1.36-1.7,1.39-3.36,0-.14,0-.28,0-.41v-.09l0-.4.27-.11-.28.05c0-.12,0-.24,0-.36l.27-.13-.28.06c0-.13,0-.26-.07-.39l0-.06c0-.16-.06-.28-.09-.41s-.08-.28-.12-.41l0-.08c0-.13-.09-.26-.14-.38l.24-.17-.26.11c-.05-.11-.09-.23-.15-.34l0-.07-.18-.38,0-.08c-.07-.13-.14-.26-.22-.39l-.19-.32-.06-.09-.15-.23L103,94.7l-.05-.08-.25-.33-.37-.46-.21-.25-.09-.1-.31-.36-.33-.35-.09-.1-.31-.33-.1-.09-.4-.4-.08-.08-.36-.34-.12-.12-.45-.42c-1-.87-1.75-1.59-2.29-2.15l-.33-.35.17-.24-.22.19-.66-.8,0-.07a.51.51,0,0,1-.09-.13.6.6,0,0,1-.09-.15l0,0L95.85,87l-.08-.19c0-.11,0-.18-.07-.24s0-.14,0-.2,0-.18,0-.25a1,1,0,0,1,.41-.86l5.6-3.53h0a.27.27,0,1,1,.27.46c-.09.06-.12.24-.12.37a.61.61,0,0,0,0,.14c0,.08,0,.12,0,.16s0,.12.05.17a1.24,1.24,0,0,0,0,.15l.06.12c0,.08.07.12.09.17a1,1,0,0,1,.08.11l.47.58-.18.24.22-.18.53.56c.54.56,1.3,1.28,2.27,2.14l.46.43.53.5.44.44.1.1.31.33.07.07.36.39.33.37.06.08.24.28.1.12.21.27,0,0,.29.38,0,.08.19.26.3.45.2.33.22.41.05.08.19.4,0,.06.16.38,0,.06.15.41,0,.09.12.41a4.19,4.19,0,0,1,.1.42l0,.09c0,.14.06.28.08.42v.07c0,.13,0,.26,0,.38v.07a3,3,0,0,1,0,.43v.53c0,1.87-.59,3.17-1.67,3.85l-5.6,3.52A.3.3,0,0,1,103.62,104Z"/><path class="cls-7" d="M96.48,80.78a.15.15,0,0,1-.11,0C94.44,80,93,79.87,92,80.33l-.19.1h0a.27.27,0,1,1-.27-.46h0l5.6-3.53.26-.14c1.11-.53,2.67-.4,4.78.41a.25.25,0,0,1,.16.23.29.29,0,0,1-.14.26l-5.6,3.53A.42.42,0,0,1,96.48,80.78Z"/><g class="cls-8"><path class="cls-1" d="M102.21,76.72c-2.11-.81-3.67-.94-4.78-.41l-.26.14L91.57,80h0a.27.27,0,1,0,.27.46h0l.19-.1c.94-.46,2.4-.31,4.33.43a.15.15,0,0,0,.11,0,.42.42,0,0,0,.15,0l5.6-3.53a.29.29,0,0,0,.14-.26A.25.25,0,0,0,102.21,76.72Z"/></g><path class="cls-3" d="M96.48,80.78a.15.15,0,0,1-.11,0C94.44,80,93,79.87,92,80.33l-.19.1h0a.27.27,0,1,1-.27-.46h0l5.6-3.53.26-.14c1.11-.53,2.67-.4,4.78.41a.25.25,0,0,1,.16.23.29.29,0,0,1-.14.26l-5.6,3.53A.42.42,0,0,1,96.48,80.78Z"/><polygon class="cls-1" points="96.52 78.3 102.12 74.77 105.07 76.26 99.46 79.78 96.52 78.3"/><path class="cls-1" d="M99.46,80.06a.32.32,0,0,1-.14,0l-2.94-1.48a.25.25,0,0,1-.14-.23.3.3,0,0,1,.14-.25l5.6-3.52a.28.28,0,0,1,.29,0L105.21,76a.24.24,0,0,1,.14.23.32.32,0,0,1-.14.25L99.6,80A.24.24,0,0,1,99.46,80.06Z"/><polygon class="cls-1" points="99.46 79.78 105.07 76.26 105.04 78.44 99.43 81.96 99.46 79.78"/><path class="cls-1" d="M99.43,82.23a.22.22,0,0,1-.14,0,.25.25,0,0,1-.14-.23l0-2.18a.29.29,0,0,1,.14-.24L104.93,76a.31.31,0,0,1,.28,0,.24.24,0,0,1,.14.23l0,2.18a.3.3,0,0,1-.14.24l-5.61,3.53A.23.23,0,0,1,99.43,82.23Z"/><polygon class="cls-1" points="105.12 86.42 110.72 82.89 108.97 86.62 103.36 90.15 105.12 86.42"/><path class="cls-7" d="M99.43,82,105,78.43a27.18,27.18,0,0,1,5.68,4.46l-5.6,3.53A27.22,27.22,0,0,0,99.43,82Z"/><g class="cls-9"><path class="cls-1" d="M110.93,82.69a27.45,27.45,0,0,0-5.74-4.5.3.3,0,0,0-.29,0l-5.6,3.53a.32.32,0,0,0-.15.24.26.26,0,0,0,.13.23,27,27,0,0,1,5.63,4.41.26.26,0,0,0,.2.08.44.44,0,0,0,.15,0l5.6-3.52a.3.3,0,0,0,.14-.21A.24.24,0,0,0,110.93,82.69Z"/></g><path class="cls-3" d="M99.43,82,105,78.43a27.18,27.18,0,0,1,5.68,4.46l-5.6,3.53A27.22,27.22,0,0,0,99.43,82Z"/><path class="cls-7" d="M99.46,79.79l0,2.17a27.22,27.22,0,0,1,5.69,4.46l-1.76,3.73A21.72,21.72,0,0,0,98,85.93a3.22,3.22,0,0,0-1.61-.49c-.31.06-.47.28-.47.69a1.82,1.82,0,0,0,.32,1.05,9.39,9.39,0,0,0,1.15,1.36c.54.56,1.3,1.27,2.28,2.14a22.33,22.33,0,0,1,4.23,4.87,8.67,8.67,0,0,1,1.24,4.57c0,1.8-.55,3-1.58,3.63s-2.51.58-4.45-.13l0,3.11-3-1.48,0-3a27.31,27.31,0,0,1-6-4.61l.08-5.34a39.63,39.63,0,0,0,3.56,3.39A18.75,18.75,0,0,0,97.23,98a4,4,0,0,0,1.78.56c.38,0,.57-.3.58-.82a2,2,0,0,0-.4-1.11,11.91,11.91,0,0,0-1.34-1.52c-.62-.62-1.47-1.43-2.54-2.41a23,23,0,0,1-2.89-3.17,11.29,11.29,0,0,1-1.59-2.92,9.35,9.35,0,0,1-.46-3.17c0-1.77.55-2.9,1.57-3.39s2.53-.35,4.55.43l0-2.21Z"/><path class="cls-1" d="M99.09,107a.32.32,0,0,1-.14,0l-3-1.48a.27.27,0,0,1-.14-.23l0-2.86A28.29,28.29,0,0,1,90,97.83a.29.29,0,0,1-.07-.18L90,92.3a.3.3,0,0,1,.18-.27.27.27,0,0,1,.31.06A37.83,37.83,0,0,0,94,95.46a17.94,17.94,0,0,0,3.35,2.32,3.81,3.81,0,0,0,1.63.54c.1,0,.29,0,.3-.53a1.75,1.75,0,0,0-.35-1,12.43,12.43,0,0,0-1.32-1.49c-.62-.62-1.47-1.43-2.53-2.4a22.88,22.88,0,0,1-2.92-3.21,11.3,11.3,0,0,1-1.62-3,9.42,9.42,0,0,1-.48-3.26c0-1.88.61-3.11,1.74-3.66s2.47-.41,4.38.28l0-1.79a.3.3,0,0,1,.14-.25.31.31,0,0,1,.28,0l3,1.49a.24.24,0,0,1,.13.23l0,2a27.67,27.67,0,0,1,5.6,4.42.26.26,0,0,1,.05.3l-1.76,3.74a.3.3,0,0,1-.21.17.29.29,0,0,1-.25-.07,21.27,21.27,0,0,0-5.28-4.17,2.91,2.91,0,0,0-1.43-.47c-.08,0-.22,0-.22.41a1.58,1.58,0,0,0,.28.9,8.91,8.91,0,0,0,1.12,1.32c.54.56,1.3,1.27,2.26,2.13a22.36,22.36,0,0,1,4.28,4.93,9,9,0,0,1,1.28,4.7c0,1.91-.61,3.21-1.73,3.89s-2.47.63-4.3,0l0,2.7a.3.3,0,0,1-.14.24A.48.48,0,0,1,99.09,107Z"/><polygon class="cls-1" points="64.81 85.26 59.62 82.24 59.63 83.81 64.81 86.82 64.81 85.26"/><path class="cls-1" d="M61.85,75.37l.39-.24a.94.94,0,0,1,.12-.09l.25-.2.14-.12.22-.2.14-.14.2-.22.12-.14.3-.36.06-.08c.11-.15.22-.31.32-.47l.08-.13c.08-.12.15-.24.22-.37l.08-.15c.08-.15.15-.3.22-.45l0-.07c.09-.19.16-.38.23-.57l0-.15a5.18,5.18,0,0,0,.17-.56v0c0-.2.08-.39.11-.58a.59.59,0,0,1,0-.14,5.78,5.78,0,0,0,0-.58,2.43,2.43,0,0,0-1-2.24l5.19,3a2.49,2.49,0,0,1,1,2.25,5.46,5.46,0,0,1,0,.57s0,.09,0,.14-.06.39-.11.58c0,0,0,0,0,0,0,.19-.1.38-.16.57a1.21,1.21,0,0,1,0,.14c-.06.19-.14.39-.22.58h0s0,0,0,.06-.14.3-.21.44l-.09.15c-.06.13-.14.26-.21.38l-.08.13c-.1.16-.21.31-.32.46l-.07.08c-.09.13-.19.25-.29.37l-.05.06-.07.08-.21.21-.14.14a2.09,2.09,0,0,1-.22.2l-.14.12a2.43,2.43,0,0,1-.25.2l-.12.09c-.12.09-.25.17-.38.25a2.47,2.47,0,0,1-2.49.24l-5.19-3A2.47,2.47,0,0,0,61.85,75.37Z"/><path class="cls-1" d="M64.42,78.85l-5.18-3h0a.25.25,0,0,1-.09-.35.24.24,0,0,1,.34-.09,2.23,2.23,0,0,0,2.24-.25h0l.36-.23.12-.09.24-.18.13-.12.21-.19.13-.14.2-.21.12-.13.29-.36.06-.07L63.9,73l.07-.13c.08-.12.15-.24.23-.38l.07-.13.21-.43.23.1-.2-.17c.08-.18.15-.37.22-.56l0-.14c.06-.18.12-.36.17-.57S65,70.2,65,70v-.13a3.48,3.48,0,0,0,0-.55,2.19,2.19,0,0,0-.9-2h0a.26.26,0,1,1,.26-.44h0l5.18,3a2.69,2.69,0,0,1,1.15,2.47c0,.19,0,.4,0,.6v.14c0,.21-.07.41-.12.64s-.11.39-.17.6l0,.13a5.91,5.91,0,0,1-.24.61l0,.06c-.07.16-.15.31-.23.46l-.08.16c-.07.13-.15.25-.25.42l-.06.09q-.17.26-.33.48l-.06.09c-.1.12-.2.25-.33.39l0,0-.08.07a2.29,2.29,0,0,1-.21.23,1.85,1.85,0,0,1-.14.14l-.26.24-.12.1-.26.2-.12.1a4.37,4.37,0,0,1-.4.25,3.42,3.42,0,0,1-1.7.52A2.11,2.11,0,0,1,64.42,78.85ZM69.89,75l-.19-.17c.08-.19.15-.38.22-.56l0-.14c.06-.18.11-.36.17-.57s.07-.38.1-.56v-.14a4.9,4.9,0,0,0,0-.54,2.24,2.24,0,0,0-.9-2l-4-2.33a3.69,3.69,0,0,1,.23,1.34q0,.3,0,.6l0,.15a6.38,6.38,0,0,1-.12.64,4.51,4.51,0,0,1-.18.61l0,.12a4.92,4.92,0,0,1-.23.6l-.23-.11.2.18c-.07.15-.15.3-.23.46l-.08.15c-.07.13-.15.26-.23.39l-.08.13q-.15.24-.33.48l-.06.08-.3.38-.13.14-.21.22-.15.15-.26.24-.11.09-.26.21,0,0-.08.06-.4.26a3.83,3.83,0,0,1-1.32.49l4,2.33a2.23,2.23,0,0,0,2.23-.24,2.92,2.92,0,0,0,.37-.24l.11-.08a2.23,2.23,0,0,0,.24-.19l.14-.12.21-.19.13-.13.2-.21,0,0,.05-.06,0,0c.1-.11.19-.23.28-.35l.06-.08a5.15,5.15,0,0,0,.32-.45l.07-.12c.08-.12.15-.24.22-.37l.07-.14.22-.44Z"/><polyline class="cls-1" points="72.98 64.06 74.16 62.59 68.97 59.58 67.8 61.04"/><path class="cls-1" d="M67.67,61.26a.23.23,0,0,1-.12-.17.23.23,0,0,1,0-.21l1.17-1.46a.26.26,0,0,1,.33-.06l5.18,3a.27.27,0,0,1,.13.18.25.25,0,0,1-.06.2l-1.17,1.46a.26.26,0,0,1-.2.1.17.17,0,0,1-.12,0"/><path class="cls-1" d="M57.57,83.27l-5.18-3a.27.27,0,0,1-.13-.17.26.26,0,0,1,.06-.21l1.17-1.46a.26.26,0,0,1,.33-.06l5.18,3a.23.23,0,0,1,.12.17.23.23,0,0,1,0,.21L57.9,83.21a.27.27,0,0,1-.2.09A.21.21,0,0,1,57.57,83.27Z"/><polygon class="cls-1" points="57.7 83.05 52.51 80.04 54.71 83.13 59.9 86.14 57.7 83.05"/><path class="cls-1" d="M59.77,86.36l-5.19-3a.3.3,0,0,1-.08-.08l-2.19-3.09a.24.24,0,0,1,0-.31.25.25,0,0,1,.31-.05l5.19,3a.6.6,0,0,1,.08.08L60.1,86a.24.24,0,0,1,0,.31.22.22,0,0,1-.18.08A.28.28,0,0,1,59.77,86.36Z"/><polygon class="cls-1" points="58.86 76.56 53.67 73.55 53.69 78.58 58.88 81.59 58.86 76.56"/><path class="cls-1" d="M64.69,66.47l-5.19-3a.25.25,0,0,1-.12-.22V61.67a.24.24,0,0,1,.13-.21.23.23,0,0,1,.25,0l5.19,3a.26.26,0,0,1,.12.22v1.56a.26.26,0,0,1-.13.22.27.27,0,0,1-.12,0A.28.28,0,0,1,64.69,66.47Z"/><path class="cls-1" d="M64.68,64.91l-5.18-3a.25.25,0,0,1-.13-.22.24.24,0,0,1,.13-.21l4.37-2.53a.28.28,0,0,1,.25,0l5.19,3a.24.24,0,0,1,.13.21.25.25,0,0,1-.13.22l-4.37,2.53a.3.3,0,0,1-.26,0Z"/><polyline class="cls-1" points="61.03 70.95 64.81 66.25 59.63 63.23 55.85 67.94"/><path class="cls-1" d="M57.55,76.69l-5.18-3a.24.24,0,0,1-.11-.31l2.17-5.61a.25.25,0,0,1,.15-.15.22.22,0,0,1,.21,0l5.19,3a.26.26,0,0,1,.11.31l-2.17,5.62a.28.28,0,0,1-.16.14l-.08,0A.31.31,0,0,1,57.55,76.69Z"/><path class="cls-1" d="M58.88,81.59,57.7,83.05l2.2,3.09,1.17-1.46,3.8.32v1.57l4.38-2.52V82.48L73,77.78l1.18.1,2.18-5.61-1.18-.1,0-5,1.18-1.46-2.2-3.09L73,64.05l-3.79-.32V62.16l-4.37,2.53v1.56L61,71l-1.18-.1-2.17,5.62,1.18.09Zm4.65-5.2a7.65,7.65,0,0,1,3.49-6c1.93-1.12,3.5-.22,3.51,2a7.72,7.72,0,0,1-3.49,6C65.11,79.5,63.54,78.61,63.53,76.39Z"/><path class="cls-1" d="M64.75,86.79a.25.25,0,0,1-.13-.22V85.24l-3.44-.3L60.09,86.3a.22.22,0,0,1-.2.09.26.26,0,0,1-.2-.1l-2.2-3.09a.25.25,0,0,1,0-.3l1.12-1.4V76.8l-1-.08a.25.25,0,0,1-.19-.12.24.24,0,0,1,0-.23l2.17-5.61a.24.24,0,0,1,.26-.16l1,.09,3.64-4.53V64.69a.26.26,0,0,1,.12-.22L69.06,62a.23.23,0,0,1,.25,0,.23.23,0,0,1,.13.21v1.33l3.43.3L74,62.43a.27.27,0,0,1,.21-.09.24.24,0,0,1,.19.1l2.2,3.1a.23.23,0,0,1,0,.3l-1.12,1.39,0,4.7,1,.09a.25.25,0,0,1,.19.12.24.24,0,0,1,0,.22L74.44,78a.25.25,0,0,1-.26.16l-1.05-.08L69.5,82.57v1.48a.23.23,0,0,1-.13.21L65,86.79a.28.28,0,0,1-.13,0A.27.27,0,0,1,64.75,86.79Zm-.32-7.94a2.66,2.66,0,0,1-1.15-2.46,8,8,0,0,1,3.61-6.26,2.71,2.71,0,0,1,2.74-.25,2.68,2.68,0,0,1,1.15,2.47,8,8,0,0,1-3.61,6.25h0a3.42,3.42,0,0,1-1.7.52A2,2,0,0,1,64.43,78.85Z"/><path class="cls-10" d="M366.08,203.33l21,11.12,20.17-11.66-21-11Z"/><path class="cls-10" d="M368.49,203.28,387,213.12l17.74-10.26-18.54-9.76Z"/><path class="cls-10" d="M366.08,203.33v51.85l21,11.33V214.42Z"/><polygon class="cls-10" points="387.04 265.23 366.08 253.91 366.08 245.73 387.04 257.02 387.04 265.23"/><polygon class="cls-10" points="407.21 255.02 387.04 266.51 387.04 214.43 407.21 202.76 407.21 255.02"/><polygon class="cls-10" points="387.04 266.51 366.08 255.18 366.08 247.01 387.04 258.3 387.04 266.51"/><polygon class="cls-10" points="407.21 253.74 387.04 265.23 387.04 257.02 407.21 245.5 407.21 253.74"/><polygon class="cls-10" points="407.21 255.02 387.04 266.51 387.04 258.3 407.21 246.78 407.21 255.02"/><path class="cls-10" d="M381.34,227.56v4.7l2.8,1.54v-4.69Z"/><path class="cls-10" d="M377.93,225.72v4.7l2.8,1.54v-4.69Z"/><path class="cls-10" d="M374.44,223.85v4.69l2.8,1.55V225.4Z"/><path class="cls-10" d="M371,222v4.69l2.8,1.55v-4.69Z"/><path class="cls-10" d="M367.63,220.26V225l2.8,1.54v-4.68Z"/><path class="cls-10" d="M381.34,244.6v4.69l2.8,1.56v-4.7Z"/><path class="cls-10" d="M377.93,242.75v4.7l2.8,1.55v-4.69Z"/><path class="cls-10" d="M374.44,240.86v4.69l2.8,1.56v-4.69Z"/><path class="cls-10" d="M371,239v4.69l2.8,1.56v-4.69Z"/><path class="cls-10" d="M367.63,237.25v4.69l2.8,1.55v-4.68Z"/><path class="cls-10" d="M381.34,235.91v4.7l2.8,1.54v-4.69Z"/><path class="cls-10" d="M377.93,234.07v4.69l2.8,1.55v-4.69Z"/><path class="cls-10" d="M374.44,232.19v4.69l2.8,1.55v-4.69Z"/><path class="cls-10" d="M371,230.32V235l2.8,1.56v-4.69Z"/><path class="cls-10" d="M367.63,228.59v4.68l2.8,1.55v-4.68Z"/><path class="cls-10" d="M389.09,229.17v4.71l2.79-1.66v-4.71Z"/><path class="cls-10" d="M392.49,227.2v4.7l2.8-1.66v-4.71Z"/><path class="cls-10" d="M396,225.18v4.7l2.8-1.66V223.5Z"/><path class="cls-10" d="M399.44,223.17v4.71l2.8-1.67v-4.72Z"/><path class="cls-10" d="M402.8,221.28V226l2.8-1.67V219.6Z"/><path class="cls-10" d="M381.34,219.29V224l2.8,1.54v-4.69Z"/><path class="cls-10" d="M377.93,217.46v4.71l2.8,1.53V219Z"/><path class="cls-10" d="M374.44,215.59v4.7l2.8,1.54v-4.69Z"/><path class="cls-10" d="M371,213.75v4.68l2.8,1.55v-4.69Z"/><path class="cls-10" d="M367.63,212v4.69l2.8,1.54v-4.68Z"/><path class="cls-10" d="M389.09,220.9v4.7l2.79-1.66v-4.71Z"/><path class="cls-10" d="M392.49,218.92v4.7l2.8-1.67v-4.7Z"/><path class="cls-10" d="M396,216.89v4.7l2.8-1.66v-4.72Z"/><path class="cls-10" d="M399.44,214.88v4.71l2.8-1.68v-4.72Z"/><path class="cls-10" d="M402.8,213v4.72l2.8-1.68V211.3Z"/><path class="cls-10" d="M389.09,246.24v4.69l2.79-1.64v-4.71Z"/><path class="cls-10" d="M392.49,244.27V249l2.8-1.65v-4.71Z"/><path class="cls-10" d="M396,242.26V247l2.8-1.65v-4.72Z"/><path class="cls-10" d="M399.44,240.26V245l2.8-1.66v-4.72Z"/><path class="cls-10" d="M402.8,238.38v4.71l2.8-1.66v-4.72Z"/><path class="cls-10" d="M389.09,237.54v4.7l2.79-1.65v-4.71Z"/><path class="cls-10" d="M392.49,235.57v4.7l2.8-1.66V233.9Z"/><path class="cls-10" d="M396,233.55v4.7l2.8-1.66v-4.71Z"/><path class="cls-10" d="M399.44,231.55v4.7l2.8-1.66v-4.72Z"/><path class="cls-10" d="M402.8,229.66v4.71l2.8-1.67V228Z"/><polygon class="cls-10" points="380.83 201.79 386.61 198.47 383.29 196.72 377.51 200.05 380.83 201.79"/><polygon class="cls-10" points="377.51 200.8 380.83 202.54 380.83 201.79 377.51 200.05 377.51 200.8"/><polygon class="cls-10" points="380.83 202.54 386.61 199.22 386.61 198.47 380.83 201.79 380.83 202.54"/><polygon class="cls-11" points="381.58 200.06 384.29 198.5 382.92 197.78 380.22 199.34 381.58 200.06"/><polygon class="cls-11" points="380.22 199.8 381.58 200.53 381.58 200.06 380.22 199.34 380.22 199.8"/><polygon class="cls-11" points="381.58 200.53 384.29 198.97 384.29 198.5 381.58 200.06 381.58 200.53"/><polygon class="cls-10" points="389.97 207.44 395.76 204.09 392.44 202.35 386.65 205.69 389.97 207.44"/><polygon class="cls-10" points="386.65 206.44 389.97 208.19 389.97 207.44 386.65 205.69 386.65 206.44"/><polygon class="cls-10" points="389.97 208.19 395.76 204.85 395.76 204.09 389.97 207.44 389.97 208.19"/><polygon class="cls-12" points="390.61 205.7 393.51 204.03 392.04 203.26 389.14 204.93 390.61 205.7"/><polygon class="cls-12" points="389.14 205.44 390.61 206.21 390.61 205.7 389.14 204.93 389.14 205.44"/><polygon class="cls-12" points="390.61 206.21 393.51 204.53 393.51 204.03 390.61 205.7 390.61 206.21"/><polygon class="cls-7" points="458.73 301.48 435.83 288.89 435.83 271.77 433.08 272.15 433.12 270.79 458.73 255.05 462.87 254.48 462.87 250.93 462.6 249.74 465.81 248.13 468.65 249.15 468.37 253.72 471.55 253.28 484.65 269.09 484.65 270.79 481.62 272.44 481.62 287.64 458.73 301.48"/><polygon class="cls-10" points="465.62 255.71 468.37 254.1 468.37 253.92 471.55 253.55 446.69 268.45 433.12 270.26 454.13 257.74 454.18 257.71 454.47 257.54 454.94 257.27 454.98 257.24 455.73 256.81 456.58 256.31 457.07 256.02 457.47 255.79 458.32 255.29 458.73 255.06 459.11 255.01 459.83 254.93 460.43 254.86 460.58 254.84 460.82 254.81 460.99 254.79 462.87 254.57 462.87 256.03 465.62 255.71"/><polygon class="cls-10" points="462.87 256.03 462.87 254.57 462.87 253.62 462.87 251.02 465.49 252.61 465.62 252.69 465.62 255.71 462.87 256.03"/><polyline class="cls-10" points="465.62 252.69 465.49 252.61 462.87 251.02 462.74 250.94 462.6 250.85 462.6 249.82"/><polygon class="cls-10" points="468.37 253.92 468.37 254.1 465.62 255.71 465.62 252.69 468.37 251.08 468.37 253.92"/><polygon class="cls-10" points="435.83 292.12 439.03 290.25 442.7 288.11 443.75 288.71 443.75 289.08 444.67 289.61 444.99 289.42 449.25 291.85 449.25 292.22 450.17 292.74 450.48 292.55 451.86 293.34 444.99 297.35 435.83 292.12"/><polygon class="cls-10" points="443.75 277.45 443.75 288.71 442.7 288.11 435.83 284.19 435.83 271.3 445.9 270.11 458.73 286.25 458.73 297.26 451.86 293.34 450.48 292.55 450.48 280.92 444.07 277.26 443.75 277.45"/><polygon class="cls-10" points="445.9 270.11 435.83 271.3 433.08 271.62 433.12 270.26 446.69 268.45 458.73 284.67 458.73 287.11 445.9 270.11"/><polyline class="cls-10" points="446.69 268.45 471.55 253.55 478.85 262.74 484.37 269.69"/><polygon class="cls-10" points="484.37 271.28 481.62 272.88 474.01 277.32 467.38 281.2 467.11 281.36 458.73 286.25 458.73 284.67 484.37 269.69 484.37 271.28"/><path class="cls-10" d="M467.92,290.12v-7.38l5.93-3.47v7.38Z"/><polygon class="cls-10" points="481.62 288.12 458.73 301.49 458.73 297.26 481.62 283.89 481.62 288.12"/><polygon class="cls-10" points="435.83 288.42 435.83 284.19 442.7 288.11 439.03 290.25 435.83 288.42"/><polygon class="cls-10" points="458.73 297.26 458.73 301.49 451.86 297.57 451.86 293.34 458.73 297.26"/><polygon class="cls-10" points="451.86 293.34 451.86 297.57 441.69 303.5 441.69 302.45 442.79 301.81 442.79 300.75 443.89 300.11 443.89 299.05 444.99 298.41 444.99 297.35 451.86 293.34"/><polyline class="cls-10" points="444.99 297.35 444.99 298.41 435.83 293.18 435.83 292.12"/><polyline class="cls-10" points="444.99 298.41 443.89 299.05 434.73 293.82 435.83 293.18"/><polyline class="cls-10" points="443.89 299.05 443.89 300.11 434.73 294.88 434.73 293.82"/><polyline class="cls-10" points="443.89 300.11 442.79 300.75 433.63 295.52 434.73 294.88"/><polyline class="cls-10" points="442.79 300.75 442.79 301.81 433.63 296.58 433.63 295.52"/><polyline class="cls-10" points="442.79 301.81 441.69 302.45 432.53 297.22 433.63 296.58"/><polyline class="cls-10" points="441.69 302.45 441.69 303.5 432.53 298.28 432.53 297.22"/><polyline class="cls-10" points="462.6 249.82 465.81 248.28 468.65 249.78"/><line class="cls-10" x1="481.62" y1="288.12" x2="481.62" y2="273.08"/><path class="cls-1" d="M197.15,223.21c0,5.75,4.67,13.17,10.43,16.59S218,241.32,218,235.58,213.34,222.4,207.58,219,197.15,217.46,197.15,223.21Z"/><line class="cls-1" x1="213.78" y1="238.16" x2="212.82" y2="236.8"/><line class="cls-1" x1="215.27" y1="236.39" x2="214.11" y2="235.33"/><path class="cls-1" d="M213.27,238.4c1.49-.58,2.41-2.07,2.41-4.32,0-4.46-3.63-10.23-8.1-12.88s-8.1-1.18-8.1,3.28a11.94,11.94,0,0,0,1,4.4"/><line class="cls-1" x1="215.66" y1="233.53" x2="214.39" y2="232.87"/><line class="cls-1" x1="214.87" y1="230.1" x2="213.82" y2="229.99"/><line class="cls-1" x1="213.02" y1="226.53" x2="212.22" y2="226.94"/><line class="cls-1" x1="207.3" y1="221.04" x2="207.34" y2="222.27"/><line class="cls-1" x1="204.27" y1="219.94" x2="204.76" y2="221.33"/><line class="cls-1" x1="201.74" y1="220.22" x2="202.59" y2="221.56"/><line class="cls-1" x1="200.06" y1="221.82" x2="201.14" y2="222.91"/><line class="cls-1" x1="199.48" y1="224.51" x2="200.64" y2="225.21"/><line class="cls-1" x1="200.07" y1="227.88" x2="201.15" y2="228.09"/><polygon class="cls-1" points="204.29 234.53 211.04 238.53 211.04 236.81 204.29 232.8 204.29 234.53"/><polygon class="cls-1" points="207.31 230.29 201.93 224.79 207.59 228.14 207.31 230.29"/><path class="cls-1" d="M208.88,230a3.19,3.19,0,0,0-1.57-2.35c-.83-.46-1.47-.14-1.43.71a3.23,3.23,0,0,0,1.57,2.36,1.37,1.37,0,0,0,.85.19C208.67,230.83,208.9,230.51,208.88,230Z"/><path class="cls-1" d="M92.57,122.74C87.29,122,83,126,83,131.73s4.31,10.93,9.59,11.67,9.56-3.26,9.55-9S97.85,123.48,92.57,122.74Z"/><path class="cls-1" d="M92.17,125.92c-3.66-.51-6.62,2.27-6.61,6.22a8.23,8.23,0,0,0,6.64,8.09c3.66.51,6.62-2.26,6.62-6.23S95.84,126.43,92.17,125.92Z"/><path class="cls-1" d="M92.17,130.92a1.56,1.56,0,0,0-1.08.22c-.48.3-3.94,2.88-3.94,2.88l2.42,3s3.1-2.09,3.33-2.16A1.68,1.68,0,0,0,94,133.19,2.32,2.32,0,0,0,92.17,130.92Z"/><polygon class="cls-1" points="88.31 137.04 92.17 134.88 92.17 167.26 88.31 169.43 88.31 137.04"/><polygon class="cls-1" points="83.87 134.76 88.31 137.04 88.31 169.43 83.87 167.15 83.87 134.76"/><polygon class="cls-1" points="88.31 137.04 83.87 134.76 87.73 132.6 92.17 134.88 88.31 137.04"/><path class="cls-1" d="M9.84,81.91c-3.66-.51-6.63,2.28-6.62,6.22s3,7.58,6.64,8.09S16.48,94,16.47,90A8.23,8.23,0,0,0,9.84,81.91Z"/><path class="cls-1" d="M9.83,86.91a1.57,1.57,0,0,0-1.08.23C8.28,87.43,4.81,90,4.81,90l2.41,3s3.11-2.08,3.34-2.15a1.71,1.71,0,0,0,1.13-1.69A2.33,2.33,0,0,0,9.83,86.91Z"/><polygon class="cls-1" points="5.97 93.03 9.83 90.87 9.83 123.26 5.97 125.42 5.97 93.03"/><polygon class="cls-1" points="1.53 90.75 5.97 93.03 5.97 125.42 1.53 123.14 1.53 90.75"/><polygon class="cls-1" points="5.97 93.03 1.53 90.75 5.39 88.59 9.83 90.87 5.97 93.03"/></g></g></svg>