<svg xmlns="http://www.w3.org/2000/svg" xmlns:xlink="http://www.w3.org/1999/xlink" viewBox="0 0 525.26 374.84" style=""><defs><style>.cls-1,.cls-10,.cls-11,.cls-12,.cls-2,.cls-5,.cls-7{fill:#fff;}.cls-1,.cls-10,.cls-11,.cls-12,.cls-2,.cls-3,.cls-5{stroke:#282828;stroke-linecap:round;stroke-linejoin:round;}.cls-2{stroke-width:0.5px;}.cls-3,.cls-4{fill:none;}.cls-4,.cls-5,.cls-6{fill-rule:evenodd;}.cls-8{clip-path:url(#clip-path);}.cls-9{clip-path:url(#clip-path-2);}.cls-10{stroke-width:0.64px;}.cls-11{stroke-width:0.46px;}.cls-12{stroke-width:0.5px;}</style><clipPath id="clip-path"><path class="cls-1 FaVLwhhy_0" d="M96.48,80.78a.15.15,0,0,1-.11,0C94.44,80,93,79.87,92,80.33l-.19.1h0a.27.27,0,1,1-.27-.46h0l5.6-3.53.26-.14c1.11-.53,2.67-.4,4.78.41a.25.25,0,0,1,.16.23.29.29,0,0,1-.14.26l-5.6,3.53A.42.42,0,0,1,96.48,80.78Z"></path></clipPath><clipPath id="clip-path-2"><path class="cls-1 FaVLwhhy_1" d="M99.43,82,105,78.43a27.18,27.18,0,0,1,5.68,4.46l-5.6,3.53A27.22,27.22,0,0,0,99.43,82Z"></path></clipPath></defs><title>Asset 2</title><g id="Layer_2" data-name="Layer 2"><g id="Layer_1-2" data-name="Layer 1"><path class="cls-2 FaVLwhhy_2" d="M101.39,49.14L101.13,49.01L102.76,45.2L102.76,34.01L99.41,33.63L100.8,33.06L104.22,33.78L104.22,45.49L101.39,49.14Z"></path><path class="cls-2 FaVLwhhy_3" d="M103.4,45.15L103.4,33.96L100.06,33.58L101.15,33.14L100.8,33.06L99.41,33.63L102.76,34.01L102.76,45.2L101.13,49.01L101.39,49.14L102.07,48.26L103.4,45.15Z"></path><path class="cls-2 FaVLwhhy_4" d="M110.35,32.8v.26a4.18,4.18,0,0,1-.2,1.25l9.6,3.2v9.24l-2.26,2.67.17.21,3.55-2.27V36.42Z"></path><path class="cls-2 FaVLwhhy_5" d="M120.39,46.7V37.46l-9.6-3.2A4.12,4.12,0,0,0,111,33h0l-.64-.21v.26a4.18,4.18,0,0,1-.2,1.25l9.6,3.2v9.24l-2.26,2.67.17.21.55-.35Z"></path><path class="cls-2 FaVLwhhy_6" d="M95,49.18l2.89-8.78c-.5,0-1,0-1.49,0l-2.83,8.57,0,12.12,3.42.34.22-.32L95,60.19Z"></path><path class="cls-2 FaVLwhhy_7" d="M94.22,61l0-12.13,2.79-8.49c-.2,0-.41,0-.61,0l-2.83,8.57,0,12.12,3.42.34.17-.26Z"></path><path class="cls-2 FaVLwhhy_8" d="M83.6,44.51l10.17-4.88a3.2,3.2,0,0,1-.09-.75V38.1L82.14,43.63V54.57l3.57,1.74.18-.25L83.6,53.74Z"></path><path class="cls-2 FaVLwhhy_9" d="M82.78,54.52L82.78,43.58L93.68,38.36L93.68,38.1L82.14,43.63L82.14,54.57L85.71,56.31L85.89,56.06L85.84,56.01L82.78,54.52Z"></path><path class="cls-1 FaVLwhhy_10" d="M110,37c-4.39,2.85-11.51,3.37-15.9,1.16s-4.39-6.32,0-9.18,11.51-3.37,15.9-1.16S114.37,34.11,110,37Z"></path><path class="cls-1 FaVLwhhy_11" d="M113.27,32.14c0,1.66-1.1,3.4-3.29,4.83-4.39,2.85-11.51,3.37-15.9,1.16-2.19-1.11-3.29-2.69-3.29-4.35h0v2c0,1.67,1.1,3.25,3.29,4.35,4.39,2.22,11.51,1.7,15.9-1.16,2.19-1.43,3.29-3.17,3.29-4.83v-2Z"></path><path class="cls-1 FaVLwhhy_12" d="M99.38,16.11a5.7,5.7,0,0,0,5.13-.37,2,2,0,0,0,1.06-1.56V31.69h0a2,2,0,0,1-1.06,1.56,5.7,5.7,0,0,1-5.13.37,1.65,1.65,0,0,1-1.06-1.4h0V14.71A1.64,1.64,0,0,0,99.38,16.11Z"></path><path class="cls-1 FaVLwhhy_13" d="M145.27,24.28c-.24.55,0,.91.63.8h0a2.17,2.17,0,0,0,1.47-1.19l3-7c.24-.55,0-.91-.62-.8h0a2.22,2.22,0,0,0-1.48,1.19Z"></path><path class="cls-1 FaVLwhhy_14" d="M148.94,17.23c-.07.17,0,.28.19.25a.66.66,0,0,0,.45-.36c.08-.17,0-.28-.19-.25A.66.66,0,0,0,148.94,17.23Z"></path><path class="cls-1 FaVLwhhy_15" d="M145.94,24.29c-.08.18,0,.28.19.25a.68.68,0,0,0,.45-.36c.07-.17,0-.28-.19-.25A.68.68,0,0,0,145.94,24.29Z"></path><path class="cls-1 FaVLwhhy_16" d="M115.1,14.25c-.24.55.05.91.63.81h0a2.21,2.21,0,0,0,1.47-1.2l3-7c.24-.56,0-.92-.62-.81h0a2.24,2.24,0,0,0-1.48,1.19Z"></path><path class="cls-1 FaVLwhhy_17" d="M118.77,7.21c-.07.17,0,.28.19.24a.66.66,0,0,0,.45-.36c.08-.17,0-.28-.19-.25A.7.7,0,0,0,118.77,7.21Z"></path><path class="cls-1 FaVLwhhy_18" d="M115.77,14.27c-.08.17,0,.28.19.25a.7.7,0,0,0,.45-.37c.07-.17,0-.28-.19-.24A.63.63,0,0,0,115.77,14.27Z"></path><path class="cls-1 FaVLwhhy_19" d="M149.57,125c14.15,7.14,37.1,5.46,51.25-3.75s14.16-22.45,0-29.59-37.1-5.45-51.25,3.75S135.42,117.83,149.57,125Z"></path><path class="cls-1 FaVLwhhy_20" d="M154,113.82c11.71,5.9,30.69,4.52,42.39-3.1s11.71-18.57,0-24.48-30.69-4.51-42.4,3.1S142.29,107.92,154,113.82Z"></path><path class="cls-1 FaVLwhhy_21" d="M154,113.82c11.71,5.9,30.69,4.52,42.39-3.1,5.86-3.81,8.78-8.45,8.79-12.88v6.8h0c0,4.43-2.93,9.07-8.79,12.88-11.7,7.61-30.68,9-42.39,3.1-5.85-3-8.78-7.17-8.78-11.6h0v-6.8C145.22,106.65,148.15,110.87,154,113.82Z"></path><path class="cls-1 FaVLwhhy_22" d="M174.69,111.25L200.34,94.57L174.69,81.64L149.04,98.32L174.69,111.25Z"></path><path class="cls-1 FaVLwhhy_23" d="M149.04,98.32L149.04,101.16L174.69,114.09L174.69,111.25L149.04,98.32Z"></path><path class="cls-3 FaVLwhhy_24" d="M200.34,94.57L200.34,97.41L174.69,114.09L174.69,111.25"></path><path class="cls-1 FaVLwhhy_25" d="M174.58,104.36L195.68,90.75L176.09,80.83L155,94.44L174.58,104.36Z"></path><path class="cls-1 FaVLwhhy_26" d="M155,94.44L155,98.91L174.58,108.83L174.58,104.36L155,94.44Z"></path><path class="cls-1 FaVLwhhy_27" d="M174.58,108.83L174.58,104.36L195.68,90.75L195.68,95.22L174.58,108.83Z"></path><path class="cls-1 FaVLwhhy_28" d="M162.77,20.46L173.12,13.77L170.21,12.22L159.86,18.91L162.77,20.46Z"></path><path class="cls-1 FaVLwhhy_29" d="M159.86,18.91L155,94.42L157.91,95.97L162.77,20.46L159.86,18.91Z"></path><path class="cls-1 FaVLwhhy_30" d="M157.91,95.97L162.77,20.46L173.12,13.77L179.01,82.36L157.91,95.97Z"></path><path class="cls-1 FaVLwhhy_31" d="M105.57,0.5L171.27,19.58L181.5,24.74L115.8,5.66L105.57,0.5Z"></path><path class="cls-1 FaVLwhhy_32" d="M115.81,5.63L181.5,24.71L181.5,28.59L115.81,9.51L115.81,5.63Z"></path><path class="cls-1 FaVLwhhy_33" d="M115.81,5.63L105.57,0.5L105.57,4.38L115.81,9.51L115.81,5.63Z"></path><path class="cls-1 FaVLwhhy_34" d="M105.57,9.23L171.27,28.31L181.5,33.47L115.8,14.39L105.57,9.23Z"></path><path class="cls-1 FaVLwhhy_35" d="M115.81,14.36L181.5,33.45L181.5,37.32L115.81,18.24L115.81,14.36Z"></path><path class="cls-1 FaVLwhhy_36" d="M115.81,14.36L105.57,9.23L105.57,13.11L115.81,18.24L115.81,14.36Z"></path><path class="cls-1 FaVLwhhy_37" d="M179.44,28.85L189.78,22.16L186.87,20.61L176.53,27.3L179.44,28.85Z"></path><path class="cls-1 FaVLwhhy_38" d="M176.53,27.3L171.66,102.81L174.58,104.36L179.44,28.85L176.53,27.3Z"></path><path class="cls-1 FaVLwhhy_39" d="M174.58,104.36L179.44,28.85L189.78,22.16L195.67,90.75L174.58,104.36Z"></path><path class="cls-1 FaVLwhhy_40" d="M188.92,87.71L185,42.02L181.76,92.33L188.92,87.71Z"></path><path class="cls-1 FaVLwhhy_41" d="M183.83,30.63c0,.83.58,1.12,1.29.66a3.14,3.14,0,0,0,1.3-2.35c0-.83-.58-1.11-1.3-.65A3.14,3.14,0,0,0,183.83,30.63Z"></path><path class="cls-1 FaVLwhhy_42" d="M183.83,36.23c0,.83.58,1.12,1.29.65a3.12,3.12,0,0,0,1.3-2.34c0-.83-.58-1.12-1.3-.66A3.16,3.16,0,0,0,183.83,36.23Z"></path><path class="cls-1 FaVLwhhy_43" d="M155.78,28c-.23.55.05.91.63.8h0a2.24,2.24,0,0,0,1.48-1.19l3-7c.23-.55-.05-.91-.63-.8h0A2.24,2.24,0,0,0,158.76,21Z"></path><path class="cls-1 FaVLwhhy_44" d="M159.45,20.92c-.07.16,0,.27.2.24a.7.7,0,0,0,.45-.36c.07-.17,0-.28-.2-.25A.69.69,0,0,0,159.45,20.92Z"></path><path class="cls-1 FaVLwhhy_45" d="M156.45,28c-.07.17,0,.27.19.24a.66.66,0,0,0,.45-.36c.07-.17,0-.28-.19-.25A.7.7,0,0,0,156.45,28Z"></path><path class="cls-1 FaVLwhhy_46" d="M125.61,17.93c-.23.55,0,.91.63.81h0a2.25,2.25,0,0,0,1.48-1.2l3-7c.23-.56,0-.92-.63-.81h0a2.27,2.27,0,0,0-1.48,1.19Z"></path><path class="cls-1 FaVLwhhy_47" d="M129.28,10.89c-.07.17,0,.28.2.24a.66.66,0,0,0,.45-.36c.07-.17,0-.28-.19-.25A.74.74,0,0,0,129.28,10.89Z"></path><path class="cls-1 FaVLwhhy_48" d="M126.28,18c-.07.17,0,.28.19.24a.66.66,0,0,0,.45-.36c.07-.17,0-.28-.19-.25A.7.7,0,0,0,126.28,18Z"></path><path class="cls-1 FaVLwhhy_49" d="M103.64,13.71L103.64,20.02L93.41,14.89L93.41,8.58L103.64,13.71Z"></path><path class="cls-1 FaVLwhhy_50" d="M105.57,0.64L93.41,8.58L103.64,13.71L115.81,5.77L105.57,0.64Z"></path><path class="cls-1 FaVLwhhy_51" d="M115.81,18.39L103.64,20.02L103.64,13.71L115.81,5.77L115.81,18.39Z"></path><path class="cls-1 FaVLwhhy_52" d="M250.8,175.23L254.65,173.07L254.65,205.45L250.8,207.61L250.8,175.23Z"></path><path class="cls-1 FaVLwhhy_53" d="M246.35,172.94L250.8,175.23L250.8,207.61L246.35,205.33L246.35,172.94Z"></path><path class="cls-1 FaVLwhhy_54" d="M250.8,175.23L246.35,172.94L250.21,170.78L254.65,173.07L250.8,175.23Z"></path><path class="cls-1 FaVLwhhy_55" d="M251.07,202.51L208.65,225.59L208.65,230.58L251.07,207.5L251.07,202.51Z"></path><path class="cls-1 FaVLwhhy_56" d="M77.59,91.5L247.31,183.82L205.29,207.05L7.91,100.13L16.04,77.05L77.59,91.5Z"></path><path class="cls-1 FaVLwhhy_57" d="M227.05,192.82L206.12,203.72L8.75,96.8L13.86,77.05L227.05,192.82Z"></path><path class="cls-1 FaVLwhhy_58" d="M53.37,54.1C47.26,53.24,45,57.85,45,64.44S47.3,77.09,53.41,78s11-3.77,11-10.37S59.47,55,53.37,54.1Z"></path><path class="cls-1 FaVLwhhy_59" d="M250.48,160.93c-6.1-.86-11,3.79-11,10.37s5,12.62,11.08,13.48,11-3.77,11-10.37S256.59,161.78,250.48,160.93Z"></path><path class="cls-1 FaVLwhhy_60" d="M13.86,78.05L57.61,59.75L254.58,166.52L212.15,189.6"></path><path class="cls-1 FaVLwhhy_61" d="M57.61,55.53L227.33,147.85L184.9,170.93L15.18,78.61L57.61,55.53Z"></path><path class="cls-1 FaVLwhhy_62" d="M257.63,182.99L216.44,205.95L212.15,185.38L254.58,162.3"></path><path class="cls-1 FaVLwhhy_63" d="M48.29,55.02L5.02,78.84L15.18,78.61L34.54,68.37L57.61,55.53"></path><path class="cls-1 FaVLwhhy_64" d="M204.49,202.83l.09-.31a8.36,8.36,0,0,0,4.24,2c4.23.59,7.65-2.61,7.64-7.18s-3.44-8.74-7.67-9.34h0l.06-.2L203.7,185a9.48,9.48,0,0,1,5.09-.68c6.1.85,11.06,6.89,11.07,13.47s-4.93,11.23-11,10.38c-4.49-.63-8.34-4.06-10.08-8.46Z"></path><path class="cls-1 FaVLwhhy_65" d="M4.12,97.15A14.19,14.19,0,0,1,.5,87.83c0-6.58,4.93-11.23,11-10.37a11,11,0,0,1,2.92.83l3.06,1.59"></path><path class="cls-1 FaVLwhhy_66" d="M159.36,173.13L169.26,166.28L160.29,161.4L159.36,173.13Z"></path><path class="cls-1 FaVLwhhy_67" d="M196.47,181.07L195.57,180.58L195.57,176.36L196.47,176.85"></path><path class="cls-1 FaVLwhhy_68" d="M238.49,153.55L237.59,153.06L195.57,176.36L196.47,176.85"></path><path class="cls-1 FaVLwhhy_69" d="M180.88,172.6L179.97,172.11L179.97,167.9L180.88,168.39"></path><path class="cls-1 FaVLwhhy_70" d="M222.89,145.15L222,144.66L179.97,167.97L180.88,168.46"></path><path class="cls-1 FaVLwhhy_71" d="M166.79,164.96L165.89,164.47L165.89,160.25L166.79,160.74"></path><path class="cls-1 FaVLwhhy_72" d="M208.81,137.44L207.91,136.94L165.89,160.25L166.79,160.74"></path><path class="cls-1 FaVLwhhy_73" d="M195.81,201.85L194.91,201.35L194.91,197.63"></path><path class="cls-1 FaVLwhhy_74" d="M180.88,193.82L179.97,193.32L179.97,189.6L180.88,190.09"></path><path class="cls-1 FaVLwhhy_75" d="M166.79,186.16L165.89,185.66L165.89,181.94L166.79,182.43"></path><path class="cls-1 FaVLwhhy_76" d="M151.19,173.86L151.19,177.59L150.29,177.09L150.29,173.37L151.19,173.86Z"></path><path class="cls-1 FaVLwhhy_77" d="M91.78,141.61L91.78,145.34L90.87,144.84L90.87,141.12L91.78,141.61Z"></path><path class="cls-1 FaVLwhhy_78" d="M212.4,206.45L212.92,207.9L211.61,208.18L211.15,206.74L212.4,206.45Z"></path><path class="cls-1 FaVLwhhy_79" d="M152,155.22c-5.28-.74-9.56,3.29-9.54,9s4.3,10.93,9.59,11.67,9.56-3.26,9.55-9S157.29,156,152,155.22Z"></path><path class="cls-1 FaVLwhhy_80" d="M151.61,158.4c-3.66-.51-6.62,2.27-6.61,6.22a8.22,8.22,0,0,0,6.64,8.09c3.66.51,6.62-2.27,6.61-6.22S155.27,158.91,151.61,158.4Z"></path><path class="cls-1 FaVLwhhy_81" d="M208.62,186.08c-5.28-.74-9.56,3.28-9.55,9s4.31,10.94,9.59,11.68,9.56-3.26,9.55-9S213.91,186.82,208.62,186.08Z"></path><path class="cls-1 FaVLwhhy_82" d="M208.23,189.26c-3.67-.52-6.63,2.27-6.62,6.22s3,7.57,6.64,8.08,6.62-2.26,6.61-6.22S211.88,189.77,208.23,189.26Z"></path><path class="cls-1 FaVLwhhy_83" d="M209.15,192.12a3.11,3.11,0,0,0-3.51,3.3,4.34,4.34,0,0,0,3.52,4.28,3.09,3.09,0,0,0,3.51-3.29A4.36,4.36,0,0,0,209.15,192.12Z"></path><path class="cls-1 FaVLwhhy_84" d="M208.64,194.23a1.58,1.58,0,0,0-1.08.23c-.47.29-3.94,2.87-3.94,2.87l2.42,3s3.11-2.08,3.33-2.15a1.69,1.69,0,0,0,1.13-1.69A2.32,2.32,0,0,0,208.64,194.23Z"></path><path class="cls-1 FaVLwhhy_85" d="M204.79,200.35L208.65,198.19L208.65,230.58L204.79,232.74L204.79,200.35Z"></path><path class="cls-1 FaVLwhhy_86" d="M200.35,198.07L204.79,200.35L204.79,232.74L200.35,230.46L200.35,198.07Z"></path><path class="cls-1 FaVLwhhy_87" d="M204.79,200.35L200.35,198.07L204.2,195.91L208.65,198.19L204.79,200.35Z"></path><path class="cls-1 FaVLwhhy_88" d="M152.24,163.34a1.59,1.59,0,0,0-1.08.22c-.47.3-3.94,2.88-3.94,2.88l2.42,3s3.11-2.08,3.33-2.16a1.68,1.68,0,0,0,1.13-1.69A2.31,2.31,0,0,0,152.24,163.34Z"></path><path class="cls-1 FaVLwhhy_89" d="M148.39,169.46L152.25,167.3L152.25,199.69L148.39,201.85L148.39,169.46Z"></path><path class="cls-1 FaVLwhhy_90" d="M143.95,167.18L148.39,169.46L148.39,201.85L143.95,199.57L143.95,167.18Z"></path><path class="cls-1 FaVLwhhy_91" d="M148.39,169.46L143.95,167.18L147.8,165.02L152.25,167.3L148.39,169.46Z"></path><path class="cls-1 FaVLwhhy_92" width="33.51" height="145.17" d="M249.35 155.18 L282.86 155.18 L282.86 300.35 L249.35 300.35 Z"></path><path class="cls-1 FaVLwhhy_93" d="M370.65,107.41L370.65,252.59L282.86,300.35L282.86,155.18L370.65,107.41Z"></path><path class="cls-1 FaVLwhhy_94" d="M367.54,115.97L367.54,246.12L288.84,288.93L288.84,158.79L367.54,115.97Z"></path><path class="cls-1 FaVLwhhy_95" d="M357.72,142.55L357.72,240.16L298.66,272.29L298.66,174.68L357.72,142.55Z"></path><path class="cls-1 FaVLwhhy_96" d="M357.72,240.16L346.81,233.99L346.81,148.49L357.72,142.55L357.72,240.16Z"></path><path class="cls-1 FaVLwhhy_97" d="M357.72,240.16L346.81,233.99L298.66,261.47L298.66,272.29L357.72,240.16Z"></path><path class="cls-1 FaVLwhhy_98" d="M327.59,142.54a4.4,4.4,0,0,1,5,4.68,6.18,6.18,0,0,1-5,6.09c-2.76.39-5-1.7-5-4.68A6.21,6.21,0,0,1,327.59,142.54Z"></path><path class="cls-1 FaVLwhhy_99" d="M329.26,144.63a3.45,3.45,0,0,1,3.9,3.67,4.85,4.85,0,0,1-3.92,4.77,3.45,3.45,0,0,1-3.9-3.67A4.87,4.87,0,0,1,329.26,144.63Z"></path><path class="cls-1 FaVLwhhy_100" d="M344.26,133.26a4.4,4.4,0,0,1,5,4.68,6.19,6.19,0,0,1-5,6.09c-2.76.39-5-1.7-5-4.68A6.21,6.21,0,0,1,344.26,133.26Z"></path><path class="cls-1 FaVLwhhy_101" d="M345.92,135.35a3.46,3.46,0,0,1,3.91,3.67,4.85,4.85,0,0,1-3.92,4.77,3.45,3.45,0,0,1-3.9-3.67A4.87,4.87,0,0,1,345.92,135.35Z"></path><path class="cls-1 FaVLwhhy_102" d="M310.32,151.81c2.75-.39,5,1.71,5,4.68a6.2,6.2,0,0,1-5,6.09c-2.76.39-5-1.7-5-4.68A6.2,6.2,0,0,1,310.32,151.81Z"></path><path class="cls-1 FaVLwhhy_103" d="M312,153.9a3.45,3.45,0,0,1,3.9,3.67,4.84,4.84,0,0,1-3.91,4.77,3.45,3.45,0,0,1-3.91-3.67A4.87,4.87,0,0,1,312,153.9Z"></path><path class="cls-1 FaVLwhhy_104" d="M161.55,107.41L161.55,252.59L249.35,300.35L249.35,155.18L161.55,107.41Z"></path><path class="cls-1 FaVLwhhy_105" d="M164.66,115.97L164.67,246.12L243.37,288.93L243.37,158.79L164.66,115.97Z"></path><path class="cls-1 FaVLwhhy_106" d="M174.49,142.55L174.49,240.16L233.55,272.29L233.55,174.68L174.49,142.55Z"></path><path class="cls-1 FaVLwhhy_107" d="M174.49,240.16L185.4,233.99L185.4,148.49L174.49,142.55L174.49,240.16Z"></path><path class="cls-1 FaVLwhhy_108" d="M174.49,240.16L185.4,233.99L233.55,261.47L233.55,272.29L174.49,240.16Z"></path><path class="cls-1 FaVLwhhy_109" d="M204.3,142.53a4.41,4.41,0,0,0-5,4.69,6.19,6.19,0,0,0,5,6.09,4.41,4.41,0,0,0,5-4.69A6.21,6.21,0,0,0,204.3,142.53Z"></path><path class="cls-1 FaVLwhhy_110" d="M202.64,144.63a3.45,3.45,0,0,0-3.9,3.67,4.85,4.85,0,0,0,3.91,4.77,3.45,3.45,0,0,0,3.9-3.67A4.85,4.85,0,0,0,202.64,144.63Z"></path><path class="cls-1 FaVLwhhy_111" d="M187.63,133.25a4.4,4.4,0,0,0-5,4.69,6.17,6.17,0,0,0,5,6.08,4.39,4.39,0,0,0,5-4.68A6.21,6.21,0,0,0,187.63,133.25Z"></path><path class="cls-1 FaVLwhhy_112" d="M186,135.34a3.45,3.45,0,0,0-3.9,3.67,4.85,4.85,0,0,0,3.91,4.78,3.45,3.45,0,0,0,3.9-3.67A4.87,4.87,0,0,0,186,135.34Z"></path><path class="cls-1 FaVLwhhy_113" d="M221.57,151.8c-2.75-.38-5,1.71-5,4.69a6.21,6.21,0,0,0,5,6.09c2.76.38,5-1.71,5-4.69A6.21,6.21,0,0,0,221.57,151.8Z"></path><path class="cls-1 FaVLwhhy_114" d="M219.91,153.9a3.45,3.45,0,0,0-3.9,3.67,4.87,4.87,0,0,0,3.92,4.77,3.45,3.45,0,0,0,3.9-3.67A4.86,4.86,0,0,0,219.91,153.9Z"></path><path class="cls-1 FaVLwhhy_115" d="M249.35,59.71L282.86,59.71L370.65,107.41L283.05,155.01L282.86,155.18L249.35,155.18L161.55,107.41L249.35,59.71Z"></path><path class="cls-1 FaVLwhhy_116" width="23.47" height="23.47" d="M254.35 164.47 L277.82 164.47 L277.82 187.94 L254.35 187.94 Z"></path><path class="cls-1 FaVLwhhy_117" width="23.47" height="1.75" d="M254.35 162.72 L277.82 162.72 L277.82 164.47 L254.35 164.47 Z"></path><path class="cls-1 FaVLwhhy_118" width="14.98" height="1.5" transform="translate(35.74 398.5) rotate(-77.24)" d="M259.8 176.13 L274.78000000000003 176.13 L274.78000000000003 177.63 L259.8 177.63 Z"></path><path class="cls-1 FaVLwhhy_119" width="7.16" height="7.16" d="M262.52 179.36 L269.68 179.36 L269.68 186.52 L262.52 186.52 Z"></path><path class="cls-1 FaVLwhhy_120" width="2.25" height="2.42" d="M273.24 174.02 L275.49 174.02 L275.49 176.44 L273.24 176.44 Z"></path><path class="cls-1 FaVLwhhy_121" width="2.25" height="2.42" d="M264.63 166.99 L266.88 166.99 L266.88 169.41 L264.63 169.41 Z"></path><path class="cls-1 FaVLwhhy_122" width="2.25" height="2.42" d="M256.47 174.46 L258.72 174.46 L258.72 176.88 L256.47 176.88 Z"></path><path class="cls-1 FaVLwhhy_123" width="23.47" height="23.47" d="M254.35 224.03 L277.82 224.03 L277.82 247.5 L254.35 247.5 Z"></path><path class="cls-1 FaVLwhhy_124" width="23.47" height="1.75" d="M254.35 222.28 L277.82 222.28 L277.82 224.03 L254.35 224.03 Z"></path><path class="cls-1 FaVLwhhy_125" width="14.98" height="1.5" transform="translate(-22.35 444.9) rotate(-77.24)" d="M259.8 235.69 L274.78000000000003 235.69 L274.78000000000003 237.19 L259.8 237.19 Z"></path><path class="cls-1 FaVLwhhy_126" width="7.16" height="7.16" d="M262.52 238.92 L269.68 238.92 L269.68 246.07999999999998 L262.52 246.07999999999998 Z"></path><path class="cls-1 FaVLwhhy_127" width="2.25" height="2.42" d="M273.24 233.58 L275.49 233.58 L275.49 236 L273.24 236 Z"></path><path class="cls-1 FaVLwhhy_128" width="2.25" height="2.42" d="M264.63 226.55 L266.88 226.55 L266.88 228.97 L264.63 228.97 Z"></path><path class="cls-1 FaVLwhhy_129" width="2.25" height="2.42" d="M256.47 234.02 L258.72 234.02 L258.72 236.44 L256.47 236.44 Z"></path><path class="cls-1 FaVLwhhy_130" width="12.48" height="12.48" d="M259.85 199.05 L272.33000000000004 199.05 L272.33000000000004 211.53 L259.85 211.53 Z"></path><path class="cls-1 FaVLwhhy_131" width="6.99" height="6.98" d="M262.59 202.01 L269.58 202.01 L269.58 208.98999999999998 L262.59 208.98999999999998 Z"></path><path class="cls-1 FaVLwhhy_132" d="M514,316.83L517.86,314.67L517.86,347.05L514,349.21L514,316.83Z"></path><path class="cls-1 FaVLwhhy_133" d="M509.56,314.55L514,316.83L514,349.21L509.56,346.93L509.56,314.55Z"></path><path class="cls-1 FaVLwhhy_134" d="M514,316.83L509.56,314.55L513.42,312.39L517.86,314.67L514,316.83Z"></path><path class="cls-1 FaVLwhhy_135" d="M514.28,344.12L471.85,367.2L471.85,372.18L514.28,349.1L514.28,344.12Z"></path><path class="cls-1 FaVLwhhy_136" d="M340.8,233.1L510.52,325.42L468.5,348.65L298.37,256.18L306.49,233.1L340.8,233.1Z"></path><path class="cls-1 FaVLwhhy_137" d="M490.26,334.42L469.33,345.32L299.2,252.85L304.32,233.1L490.26,334.42Z"></path><path class="cls-1 FaVLwhhy_138" d="M343.82,210.14c-6.1-.85-11,3.79-11,10.38s5,12.61,11.07,13.47,11.05-3.76,11-10.37S349.92,211,343.82,210.14Z"></path><path class="cls-1 FaVLwhhy_139" d="M513.69,302.53c-6.1-.86-11,3.79-11,10.37s5,12.62,11.07,13.48,11-3.77,11-10.37S519.79,303.38,513.69,302.53Z"></path><path class="cls-1 FaVLwhhy_140" d="M348.06,215.8L517.78,308.12L475.36,331.2L305.64,238.88L304.32,234.1L348.06,215.8Z"></path><path class="cls-1 FaVLwhhy_141" d="M348.06,211.58L517.78,303.9L475.36,326.98L305.64,234.66L348.06,211.58Z"></path><path class="cls-1 FaVLwhhy_142" d="M520.84,324.59L479.64,347.55L475.36,326.98L517.78,303.9"></path><path class="cls-1 FaVLwhhy_143" d="M337.23,211.58L295.47,234.89L305.64,234.66L325,224.42L348.06,211.58"></path><path class="cls-1 FaVLwhhy_144" d="M467.7,344.43l.09-.31a8.32,8.32,0,0,0,4.24,2c4.22.59,7.64-2.61,7.64-7.18s-3.45-8.74-7.67-9.33h0l.05-.2-5.11-2.78a9.49,9.49,0,0,1,5.09-.68c6.1.85,11.06,6.89,11.07,13.48s-4.92,11.23-11,10.37c-4.48-.63-8.33-4.06-10.07-8.46Z"></path><path class="cls-1 FaVLwhhy_145" d="M297.78,255.85a14.17,14.17,0,0,1-6.82-12c0-6.59,4.92-11.24,11-10.38,4.66.66,8.63,4.34,10.26,9"></path><path class="cls-1 FaVLwhhy_146" d="M302,236c-4.84-.68-8.76,3-8.75,8.23s3.95,10,8.79,10.69,8.75-3,8.74-8.23S306.83,236.65,302,236Z"></path><path class="cls-1 FaVLwhhy_147" d="M301.59,238.27c-3.66-.51-6.62,2.28-6.61,6.23s3,7.57,6.64,8.08,6.62-2.26,6.61-6.22S305.25,238.79,301.59,238.27Z"></path><path class="cls-1 FaVLwhhy_148" d="M352.25,213.89L351.35,213.4L309.33,236.7L310.24,237.19"></path><path class="cls-1 FaVLwhhy_149" d="M414.4,315.46L414.4,319.19L413.5,318.69L413.5,314.97L414.4,315.46Z"></path><path class="cls-1 FaVLwhhy_150" d="M354.98,283.21L354.98,286.94L354.08,286.44L354.08,282.72L354.98,283.21Z"></path><path class="cls-1 FaVLwhhy_151" d="M292.44,245.43L290.96,244.68L290.96,243.23L292.44,244.08L292.44,245.43Z"></path><path class="cls-1 FaVLwhhy_152" d="M358.6,266c-5.29-.74-9.56,3.28-9.55,9s4.31,10.94,9.59,11.68,9.56-3.26,9.55-9S363.88,266.7,358.6,266Z"></path><path class="cls-1 FaVLwhhy_153" d="M358.2,269.14c-3.66-.52-6.62,2.27-6.61,6.22s3,7.57,6.64,8.08,6.62-2.26,6.61-6.22A8.21,8.21,0,0,0,358.2,269.14Z"></path><path class="cls-1 FaVLwhhy_154" d="M415.21,296.83c-5.28-.75-9.56,3.28-9.55,9s4.31,10.93,9.59,11.67,9.56-3.26,9.55-9S420.5,297.56,415.21,296.83Z"></path><path class="cls-1 FaVLwhhy_155" d="M414.82,300c-3.66-.51-6.63,2.27-6.61,6.22a8.22,8.22,0,0,0,6.63,8.09c3.66.51,6.62-2.26,6.62-6.22S418.48,300.51,414.82,300Z"></path><path class="cls-1 FaVLwhhy_156" d="M471.83,327.68c-5.29-.74-9.56,3.28-9.55,9s4.3,10.93,9.59,11.67,9.56-3.26,9.55-9S477.11,328.42,471.83,327.68Z"></path><path class="cls-1 FaVLwhhy_157" d="M471.43,330.86c-3.66-.52-6.62,2.27-6.61,6.22a8.19,8.19,0,0,0,6.64,8.08c3.65.52,6.62-2.25,6.61-6.22S475.09,331.37,471.43,330.86Z"></path><path class="cls-1 FaVLwhhy_158" width="9.83" height="101.28" d="M288.83 174.46 L298.65999999999997 174.46 L298.65999999999997 275.74 L288.83 275.74 Z"></path><path class="cls-1 FaVLwhhy_159" d="M471.84,335.84a1.5,1.5,0,0,0-1.07.22c-.48.29-3.94,2.87-3.94,2.87l2.41,3s3.11-2.09,3.34-2.16a1.71,1.71,0,0,0,1.13-1.69A2.31,2.31,0,0,0,471.84,335.84Z"></path><path class="cls-1 FaVLwhhy_160" d="M467.99,341.95L471.85,339.79L471.85,372.18L467.99,374.34L467.99,341.95Z"></path><path class="cls-1 FaVLwhhy_161" d="M463.55,339.67L467.99,341.95L467.99,374.34L463.55,372.06L463.55,339.67Z"></path><path class="cls-1 FaVLwhhy_162" d="M467.99,341.95L463.55,339.67L467.41,337.51L471.85,339.79L467.99,341.95Z"></path><path class="cls-1 FaVLwhhy_163" d="M415.44,304.94a1.6,1.6,0,0,0-1.07.22c-.48.3-3.94,2.88-3.94,2.88l2.41,3s3.11-2.08,3.33-2.15a1.71,1.71,0,0,0,1.14-1.7A2.32,2.32,0,0,0,415.44,304.94Z"></path><path class="cls-1 FaVLwhhy_164" d="M411.6,311.06L415.45,308.9L415.45,341.29L411.6,343.45L411.6,311.06Z"></path><path class="cls-1 FaVLwhhy_165" d="M407.15,308.78L411.6,311.06L411.6,343.45L407.15,341.17L407.15,308.78Z"></path><path class="cls-1 FaVLwhhy_166" d="M411.6,311.06L407.15,308.78L411.01,306.62L415.45,308.9L411.6,311.06Z"></path><path class="cls-1 FaVLwhhy_167" d="M358.2,274.14a1.56,1.56,0,0,0-1.08.22c-.48.3-3.94,2.88-3.94,2.88l2.41,3s3.11-2.09,3.34-2.16a1.7,1.7,0,0,0,1.13-1.69A2.31,2.31,0,0,0,358.2,274.14Z"></path><path class="cls-1 FaVLwhhy_168" d="M354.34,280.26L358.2,278.1L358.2,310.48L354.34,312.64L354.34,280.26Z"></path><path class="cls-1 FaVLwhhy_169" d="M349.9,277.98L354.34,280.26L354.34,312.64L349.9,310.36L349.9,277.98Z"></path><path class="cls-1 FaVLwhhy_170" d="M354.34,280.26L349.9,277.98L353.76,275.82L358.2,278.1L354.34,280.26Z"></path><path class="cls-1 FaVLwhhy_171" d="M302.45,243.22a1.55,1.55,0,0,0-1.07.22l-2.72,1.66v4.24s4.3-2.09,4.52-2.16a1.7,1.7,0,0,0,1.14-1.69A2.31,2.31,0,0,0,302.45,243.22Z"></path><path class="cls-4 FaVLwhhy_172" d="M188.85,194.37a8,8,0,0,1,0,.86,3.31,3.31,0,0,0,.23,1.43,21.71,21.71,0,0,0,4,7,11,11,0,0,0,2.65,2.25c2.48,1.51,5,2.81,7.43,4.21q8.4,4.75,16.78,9.3a20.28,20.28,0,0,0,3.35,1.59,4.86,4.86,0,0,0,5-.79,4.78,4.78,0,0,0,1.37-3.59c.21-7.93.1-16,.05-24.11,0-2.33,0-4.65-.21-7.1a12.75,12.75,0,0,0-1.8-4.74,24.86,24.86,0,0,0-4.13-5.1,2,2,0,0,0-.52-.36Q211,168.59,199,162c-1.26-.69-2.53-1.38-3.78-1.92a4.78,4.78,0,0,0-3.85-.07,5.32,5.32,0,0,0-2.41,2.31,1.15,1.15,0,0,0-.1.6v31.45Z"></path><path class="cls-5 FaVLwhhy_173" d="M188.85,194.37V162.92c.62-5.79,6.36-2.84,6.36-2.84,1.25.54,2.52,1.23,3.78,1.92q12,6.57,24.07,13.22c6.59,4.48,6.45,10.2,6.45,10.2.23,2.45.2,4.77.21,7.1.05,8.07.16,16.18-.05,24.11a4.78,4.78,0,0,1-1.37,3.59,4.86,4.86,0,0,1-5,.79,20.28,20.28,0,0,1-3.35-1.59q-8.38-4.54-16.78-9.3c-2.47-1.4-4.95-2.7-7.43-4.21a35,35,0,0,1-2.93-2.18C188.81,201.05,188.85,194.37,188.85,194.37Zm9.83-29.72c-.94-.51-1.88-1-2.81-1.36-2.11-.9-4.43.21-4.48,2.73-.18,8.89,0,18-.06,26.95,0,.91,0,1.85.11,2.8a10.57,10.57,0,0,0,2.66,5.65,8.2,8.2,0,0,0,2.24,1.87c2.78,1.67,5.56,3.19,8.34,4.72l15.58,8.56a21.46,21.46,0,0,0,2.44,1.23,2.8,2.8,0,0,0,3.46-.7c.2-.23.35-.51.53-.75a2.28,2.28,0,0,0,.38-1.42q0-14.6,0-29.16a7.45,7.45,0,0,0-.7-2.74,15.81,15.81,0,0,0-3-4.58,2.36,2.36,0,0,0-.65-.49c-3.37-1.86-6.74-3.74-10.12-5.6l-2-1.08v-.07C206.64,169,202.66,166.82,198.68,164.65Z"></path><path class="cls-4 FaVLwhhy_174" d="M210.62,171.28l2,1.08c3.38,1.86,6.75,3.74,10.12,5.6a2.36,2.36,0,0,1,.65.49,15.81,15.81,0,0,1,3,4.58,7.45,7.45,0,0,1,.7,2.74q0,14.55,0,29.16a2.28,2.28,0,0,1-.38,1.42c-.18.24-.33.52-.53.75a2.8,2.8,0,0,1-3.46.7,21.46,21.46,0,0,1-2.44-1.23L204.68,208c-2.78-1.53-5.56-3-8.34-4.72a8.2,8.2,0,0,1-2.24-1.87,10.57,10.57,0,0,1-2.66-5.65c-.08-1-.11-1.89-.11-2.8,0-9-.12-18.06.06-26.95.05-2.52,2.37-3.63,4.48-2.73.93.39,1.87.85,2.81,1.36,4,2.17,8,4.37,11.94,6.56Z"></path><path class="cls-4 FaVLwhhy_175" d="M208.27,195.54c0,.54-.14.71-.6.61a3.08,3.08,0,0,0-1.85.15c-1.5.61-1.73,3.14-.89,5.44a10.3,10.3,0,0,0,3.65,4.94c2.32,1.68,4.9,1.28,5.36-1.35.35-2-.57-4.89-3-7.29-1.23-1.24-1-.93-1-2.15s0-2.31,0-3.47c0-.59.18-.95.64-1.07a1,1,0,0,0,.73-1.06,2,2,0,0,1,1.4-1.85c.8-.37,1.64-.68,2.44-1.05.25-.11.46,0,.73.29a8.29,8.29,0,0,0,3.72,2.55,2.51,2.51,0,0,0,3.32-1.95,8.05,8.05,0,0,0-1.11-5.37c-1.36-2.46-3.87-4.31-5.69-4.23s-2.79,1.7-2.44,4.37a8.32,8.32,0,0,0,.2,1.18c.18.58.05.88-.25,1.08a18.31,18.31,0,0,1-2.82,1.54c-.79.36-2.23-.45-3.16-1.73-1.19-1.65-2.26-3.38-3.39-5.07a.55.55,0,0,1-.06-.68,4.61,4.61,0,0,0,.56-2.5c-.06-2.5-2-5.77-4.47-7.48-2-1.42-4.17-1-4.83.91s-.1,4.13,1.42,6.36,3.8,3.69,5.5,3.65c.39,0,.62.12.94.66.91,1.54,1.87,3.05,2.79,4.59a5.49,5.49,0,0,1,.85,2.22,5.39,5.39,0,0,0,.75,2,3.66,3.66,0,0,1,.46,1.75c0,.69,0,1.38,0,2.07h0C208.26,194.26,208.23,194.89,208.27,195.54Z"></path><path class="cls-6 FaVLwhhy_176" d="M208.24,193.61c0-.69,0-1.38,0-2.07a3.66,3.66,0,0,0-.46-1.75,5.39,5.39,0,0,1-.75-2,5.49,5.49,0,0,0-.85-2.22c-.92-1.54-1.88-3.05-2.79-4.59-.32-.54-.55-.67-.94-.66-1.7,0-4.06-1.54-5.5-3.65s-2-4.53-1.42-6.36,2.79-2.33,4.83-.91c2.47,1.71,4.41,5,4.47,7.48a4.61,4.61,0,0,1-.56,2.5.55.55,0,0,0,.06.68c1.13,1.69,2.2,3.42,3.39,5.07.93,1.28,2.37,2.09,3.16,1.73a18.31,18.31,0,0,0,2.82-1.54c.3-.2.43-.5.25-1.08a8.32,8.32,0,0,1-.2-1.18c-.35-2.67.55-4.28,2.44-4.37s4.33,1.77,5.69,4.23a8.05,8.05,0,0,1,1.11,5.37,2.51,2.51,0,0,1-3.32,1.95,8.29,8.29,0,0,1-3.72-2.55c-.27-.32-.48-.4-.73-.29-.8.37-1.64.68-2.44,1.05a2,2,0,0,0-1.4,1.85,1,1,0,0,1-.73,1.06c-.46.12-.64.48-.64,1.07,0,1.16,0,2.3,0,3.47s-.25.91,1,2.15c2.39,2.4,3.31,5.33,3,7.29-.46,2.63-3,3-5.36,1.35a10.3,10.3,0,0,1-3.65-4.94c-.84-2.3-.61-4.83.89-5.44a3.08,3.08,0,0,1,1.85-.15c.46.1.63-.07.6-.61s0-1.28,0-1.92ZM216,182.39a.9.9,0,0,0-.06.47,1,1,0,0,0,.46.77c.28.2.31,0,.37-.22.3-1,1.26-.95,2.2,0a2.55,2.55,0,0,1,.76,2.19c-.11.66-.47.85-1.13.58-.3-.13-.7-.44-.6.19a1.23,1.23,0,0,0,.87,1.08,1.59,1.59,0,0,0,2-1.7,5.57,5.57,0,0,0-2.49-3.85A1.63,1.63,0,0,0,216,182.39Zm-18.14-7.8a5.76,5.76,0,0,0,1.87,2.35c.4.32.57.08.61-.27a.82.82,0,0,0-.49-.81,2.51,2.51,0,0,1-1.31-2.15c0-.89.52-1.32,1.25-1a3.18,3.18,0,0,1,1.63,2.16.83.83,0,0,0,.53.77c.38.13.45-.1.41-.47a5.89,5.89,0,0,0-2.2-3.28C198.17,170.81,196.94,172.25,197.89,174.59ZM211.3,204.3a2.77,2.77,0,0,0,0-2.66,1.13,1.13,0,0,0-.57-.71c-.43-.15-.38.22-.26.62.25.84.32,1.54-.14,1.94s-.76.31-1.31-.07a3,3,0,0,1-1.15-1.68,1.69,1.69,0,0,1,.18-1.63c.13-.14.24-.26,0-.57s-.5-.61-.71-.37a2.22,2.22,0,0,0-.36,2.48,5.12,5.12,0,0,0,2.32,2.89C210.13,204.94,210.85,204.92,211.3,204.3Z"></path><path class="cls-4 FaVLwhhy_177" d="M218.4,181.9a1.63,1.63,0,0,0-2.37.49.9.9,0,0,0-.06.47,1,1,0,0,0,.46.77c.28.2.31,0,.37-.22.3-1,1.26-.95,2.2,0a2.55,2.55,0,0,1,.76,2.19c-.11.66-.47.85-1.13.58-.3-.13-.7-.44-.6.19a1.23,1.23,0,0,0,.87,1.08,1.59,1.59,0,0,0,2-1.7A5.57,5.57,0,0,0,218.4,181.9Z"></path><path class="cls-4 FaVLwhhy_178" d="M200.19,171.89c-2-1.08-3.25.36-2.3,2.7a5.76,5.76,0,0,0,1.87,2.35c.4.32.57.08.61-.27a.82.82,0,0,0-.49-.81,2.51,2.51,0,0,1-1.31-2.15c0-.89.52-1.32,1.25-1a3.18,3.18,0,0,1,1.63,2.16.83.83,0,0,0,.53.77c.38.13.45-.1.41-.47A5.89,5.89,0,0,0,200.19,171.89Z"></path><path class="cls-4 FaVLwhhy_179" d="M209.28,204.54c.85.4,1.57.38,2-.24a2.77,2.77,0,0,0,0-2.66,1.13,1.13,0,0,0-.57-.71c-.43-.15-.38.22-.26.62.25.84.32,1.54-.14,1.94s-.76.31-1.31-.07a3,3,0,0,1-1.15-1.68,1.69,1.69,0,0,1,.18-1.63c.13-.14.24-.26,0-.57s-.5-.61-.71-.37a2.22,2.22,0,0,0-.36,2.48A5.12,5.12,0,0,0,209.28,204.54Z"></path><path class="cls-1 FaVLwhhy_180" d="M123.56,97.26L129.21,100.39L134.89,96.96L129.25,93.83L123.56,97.26Z"></path><path class="cls-1 FaVLwhhy_181" d="M129,100.69l-5.65-3.13a.34.34,0,0,1-.17-.29.35.35,0,0,1,.17-.3l5.68-3.43a.34.34,0,0,1,.35,0l5.64,3.13a.33.33,0,0,1,.18.29.34.34,0,0,1-.18.3l-5.68,3.44a.33.33,0,0,1-.17,0A.25.25,0,0,1,129,100.69Z"></path><path class="cls-1 FaVLwhhy_182" d="M123.56,97.26L123.65,119.03L129.29,122.17L129.21,100.39L123.56,97.26Z"></path><path class="cls-1 FaVLwhhy_183" d="M129.12,122.47l-5.65-3.14a.33.33,0,0,1-.17-.29l-.08-21.77a.36.36,0,0,1,.17-.3.32.32,0,0,1,.34,0l5.65,3.13a.32.32,0,0,1,.17.29l.08,21.78a.33.33,0,0,1-.17.3.34.34,0,0,1-.17.05A.33.33,0,0,1,129.12,122.47Z"></path><path class="cls-1 FaVLwhhy_184" d="M129.21,100.39L129.29,122.17L134.98,118.73L134.89,96.96L129.21,100.39Z"></path><path class="cls-1 FaVLwhhy_185" d="M129.12,122.47a.34.34,0,0,1-.17-.29l-.08-21.78a.34.34,0,0,1,.17-.3l5.68-3.43a.34.34,0,0,1,.34,0,.35.35,0,0,1,.18.29l.08,21.78a.38.38,0,0,1-.17.3l-5.69,3.43a.34.34,0,0,1-.17.05A.33.33,0,0,1,129.12,122.47Z"></path><path class="cls-1 FaVLwhhy_186" d="M132.14,109.84L137.79,112.98L143.47,109.55L137.82,106.41L132.14,109.84Z"></path><path class="cls-1 FaVLwhhy_187" d="M137.61,113.28,132,110.14a.31.31,0,0,1-.17-.29.35.35,0,0,1,.17-.3l5.68-3.43a.34.34,0,0,1,.34,0l5.65,3.14a.31.31,0,0,1,.17.29.34.34,0,0,1-.17.3L138,113.27a.41.41,0,0,1-.17,0A.39.39,0,0,1,137.61,113.28Z"></path><path class="cls-7 FaVLwhhy_188" d="M132.14,109.84L132.22,123.55L137.87,126.68L137.79,112.98L132.14,109.84Z"></path><path class="cls-1 FaVLwhhy_189" d="M137.7,127l-5.65-3.14a.34.34,0,0,1-.17-.29l-.08-13.7a.36.36,0,0,1,.17-.31.34.34,0,0,1,.34,0l5.65,3.14a.32.32,0,0,1,.17.29l.08,13.7a.36.36,0,0,1-.17.31.34.34,0,0,1-.17,0A.47.47,0,0,1,137.7,127Z"></path><path class="cls-1 FaVLwhhy_190" d="M137.79,112.98L137.87,126.68L143.55,123.25L143.47,109.55L137.79,112.98Z"></path><path class="cls-1 FaVLwhhy_191" d="M137.7,127a.32.32,0,0,1-.17-.29L137.44,113a.34.34,0,0,1,.18-.3l5.68-3.44a.34.34,0,0,1,.34,0,.3.3,0,0,1,.17.29l.09,13.7a.37.37,0,0,1-.18.31L138,127a.34.34,0,0,1-.17,0A.47.47,0,0,1,137.7,127Z"></path><path class="cls-1 FaVLwhhy_192" d="M140.72,120.99L146.36,124.13L152.05,120.7L146.4,117.56L140.72,120.99Z"></path><path class="cls-1 FaVLwhhy_193" d="M146.19,124.43l-5.65-3.14a.32.32,0,0,1-.16-.29.34.34,0,0,1,.17-.3l5.68-3.43a.32.32,0,0,1,.34,0l5.65,3.14a.31.31,0,0,1,.17.29.38.38,0,0,1-.17.3l-5.68,3.43a.41.41,0,0,1-.18,0A.33.33,0,0,1,146.19,124.43Z"></path><path class="cls-1 FaVLwhhy_194" d="M140.72,120.99L140.8,128.07L146.45,131.2L146.36,124.13L140.72,120.99Z"></path><path class="cls-1 FaVLwhhy_195" d="M146.28,131.5l-5.65-3.13a.32.32,0,0,1-.17-.29l-.08-7.08a.33.33,0,0,1,.16-.3.36.36,0,0,1,.35,0l5.65,3.14a.32.32,0,0,1,.17.28l.08,7.08a.34.34,0,0,1-.17.3.35.35,0,0,1-.17.06A.34.34,0,0,1,146.28,131.5Z"></path><path class="cls-1 FaVLwhhy_196" d="M146.36,124.13L146.45,131.2L152.13,127.77L152.05,120.7L146.36,124.13Z"></path><path class="cls-1 FaVLwhhy_197" d="M146.28,131.5a.33.33,0,0,1-.18-.29l-.08-7.07a.37.37,0,0,1,.17-.31l5.69-3.43a.37.37,0,0,1,.34,0,.34.34,0,0,1,.17.29l.08,7.08a.34.34,0,0,1-.17.3l-5.68,3.44a.48.48,0,0,1-.17.05A.34.34,0,0,1,146.28,131.5Z"></path><path class="cls-1 FaVLwhhy_198" d="M103.81,103.97L99.29,106.91L99.33,103.7L104.94,100.17"></path><path class="cls-1 FaVLwhhy_199" d="M104.61,95.06a3.71,3.71,0,0,1-1.77-.56,18.27,18.27,0,0,1-3.4-2.35l-.9-.78-.29-.26-.58-.54-.34-.32-.51-.5-.34-.36-.6-.63-5.6,3.53.28.3.32.33.34.35.51.5.33.32c.19.19.39.37.59.54l.28.26.91.79A18.75,18.75,0,0,0,97.23,98a4,4,0,0,0,1.78.56.62.62,0,0,0,.28-.09l5.6-3.53A.58.58,0,0,1,104.61,95.06Z"></path><path class="cls-1 FaVLwhhy_200" d="M99,98.87a4.22,4.22,0,0,1-1.9-.6,18.9,18.9,0,0,1-3.44-2.38c-.31-.25-.61-.52-.91-.79l-.29-.26-.59-.54L91.52,94l-.51-.5-.27-.28L90.55,93l-.2-.21-.29-.31a.26.26,0,0,1-.06-.23.34.34,0,0,1,.14-.2l5.6-3.52a.3.3,0,0,1,.36,0l.52.56.41.42.51.5.33.32.58.54.28.26.91.78A18.29,18.29,0,0,0,103,94.25a3.69,3.69,0,0,0,1.63.54h0a.26.26,0,0,0,.14,0h0a.27.27,0,0,1,.38.07.3.3,0,0,1-.11.39h0l-5.6,3.52a.83.83,0,0,1-.42.13Z"></path><path class="cls-1 FaVLwhhy_201" d="M110.76,96.17s0-.06,0-.09,0-.28,0-.41V95.6c0-.12,0-.25,0-.37s0,0,0-.07,0-.27-.07-.4a.29.29,0,0,1,0-.09l-.09-.39v0l-.12-.4,0-.09c0-.13-.09-.27-.14-.39l0-.06L110,93l0,0,0,0c-.06-.13-.12-.26-.19-.39a.3.3,0,0,0,0-.08c-.07-.13-.14-.27-.22-.4l-.2-.32-.06-.1-.15-.23-.08-.11-.18-.26a.35.35,0,0,1,0-.08l-.26-.33-.06-.09-.22-.26-.09-.12-.21-.25-.09-.11c-.11-.11-.21-.23-.32-.35h0c-.1-.12-.21-.24-.32-.35l0,0-.06-.07-.31-.32-.09-.1-.41-.4-.08-.08-.36-.35-.12-.11-.46-.42c-1-.87-1.73-1.59-2.28-2.15l-.22-.22-.13-.15,0,0-.16-.18,0,0-.11-.12,0-.06-.08-.1,0,0-.08-.09,0-.06-.07-.09,0,0-.09-.13-.08-.13,0,0-.05-.09a.08.08,0,0,0,0,0l0-.14s0,0,0,0a1,1,0,0,1,0-.16v0l0-.15v0a1,1,0,0,1,0-.17.7.7,0,0,1,.26-.62l-5.6,3.53a.67.67,0,0,0-.26.61v.17a.09.09,0,0,1,0,0,.59.59,0,0,0,0,.14v0a1,1,0,0,0,0,.17s0,0,0,0a.69.69,0,0,0,0,.13s0,0,0,0v0l0,.09,0,0a1,1,0,0,0,.08.14.83.83,0,0,0,.08.12l0,0,.07.09,0,0,.07.09,0,.06.08.1,0,.06.1.12,0,0,.15.17,0,0,.11.12,0,0,.22.23c.54.56,1.3,1.27,2.28,2.14l.45.43.12.11c.13.12.25.23.36.35l.08.07.41.41.1.1.31.32.09.1c.12.12.22.24.33.36h0l.31.35.09.11c.08.08.15.17.22.25l.09.12.21.26a.27.27,0,0,0,.07.08c.08.12.17.23.25.34a.35.35,0,0,1,0,.08,2.48,2.48,0,0,1,.19.26l.07.1c.06.08.11.16.16.24l.06.1c.07.1.13.21.2.32s.15.26.22.4l0,.08c.07.13.13.26.19.39l0,.07a2.75,2.75,0,0,1,.15.36.17.17,0,0,1,0,.05c.06.13.1.26.15.4s0,0,0,.08a3.17,3.17,0,0,1,.12.41s0,0,0,0,.07.26.09.39a.24.24,0,0,1,0,.08c0,.14.06.27.08.4a.19.19,0,0,0,0,.08c0,.12,0,.24,0,.37s0,0,0,.07l0,.4v.1c0,.14,0,.28,0,.42,0,1.78-.54,3-1.53,3.61l5.6-3.53c1-.63,1.51-1.83,1.53-3.61Z"></path><path class="cls-1 FaVLwhhy_202" d="M103.62,104a.26.26,0,0,1-.24-.12.28.28,0,0,1,.11-.38h0c.9-.57,1.36-1.7,1.39-3.36,0-.14,0-.28,0-.41v-.09l0-.4.27-.11-.28.05c0-.12,0-.24,0-.36l.27-.13-.28.06c0-.13,0-.26-.07-.39l0-.06c0-.16-.06-.28-.09-.41s-.08-.28-.12-.41l0-.08c0-.13-.09-.26-.14-.38l.24-.17-.26.11c-.05-.11-.09-.23-.15-.34l0-.07-.18-.38,0-.08c-.07-.13-.14-.26-.22-.39l-.19-.32-.06-.09-.15-.23L103,94.7l-.05-.08-.25-.33-.37-.46-.21-.25-.09-.1-.31-.36-.33-.35-.09-.1-.31-.33-.1-.09-.4-.4-.08-.08-.36-.34-.12-.12-.45-.42c-1-.87-1.75-1.59-2.29-2.15l-.33-.35.17-.24-.22.19-.66-.8,0-.07a.51.51,0,0,1-.09-.13.6.6,0,0,1-.09-.15l0,0L95.85,87l-.08-.19c0-.11,0-.18-.07-.24s0-.14,0-.2,0-.18,0-.25a1,1,0,0,1,.41-.86l5.6-3.53h0a.27.27,0,1,1,.27.46c-.09.06-.12.24-.12.37a.61.61,0,0,0,0,.14c0,.08,0,.12,0,.16s0,.12.05.17a1.24,1.24,0,0,0,0,.15l.06.12c0,.08.07.12.09.17a1,1,0,0,1,.08.11l.47.58-.18.24.22-.18.53.56c.54.56,1.3,1.28,2.27,2.14l.46.43.53.5.44.44.1.1.31.33.07.07.36.39.33.37.06.08.24.28.1.12.21.27,0,0,.29.38,0,.08.19.26.3.45.2.33.22.41.05.08.19.4,0,.06.16.38,0,.06.15.41,0,.09.12.41a4.19,4.19,0,0,1,.1.42l0,.09c0,.14.06.28.08.42v.07c0,.13,0,.26,0,.38v.07a3,3,0,0,1,0,.43v.53c0,1.87-.59,3.17-1.67,3.85l-5.6,3.52A.3.3,0,0,1,103.62,104Z"></path><path class="cls-7 FaVLwhhy_203" d="M96.48,80.78a.15.15,0,0,1-.11,0C94.44,80,93,79.87,92,80.33l-.19.1h0a.27.27,0,1,1-.27-.46h0l5.6-3.53.26-.14c1.11-.53,2.67-.4,4.78.41a.25.25,0,0,1,.16.23.29.29,0,0,1-.14.26l-5.6,3.53A.42.42,0,0,1,96.48,80.78Z"></path><g class="cls-8"><path class="cls-1 FaVLwhhy_204" d="M102.21,76.72c-2.11-.81-3.67-.94-4.78-.41l-.26.14L91.57,80h0a.27.27,0,1,0,.27.46h0l.19-.1c.94-.46,2.4-.31,4.33.43a.15.15,0,0,0,.11,0,.42.42,0,0,0,.15,0l5.6-3.53a.29.29,0,0,0,.14-.26A.25.25,0,0,0,102.21,76.72Z"></path></g><path class="cls-3 FaVLwhhy_205" d="M96.48,80.78a.15.15,0,0,1-.11,0C94.44,80,93,79.87,92,80.33l-.19.1h0a.27.27,0,1,1-.27-.46h0l5.6-3.53.26-.14c1.11-.53,2.67-.4,4.78.41a.25.25,0,0,1,.16.23.29.29,0,0,1-.14.26l-5.6,3.53A.42.42,0,0,1,96.48,80.78Z"></path><path class="cls-1 FaVLwhhy_206" d="M96.52,78.3L102.12,74.77L105.07,76.26L99.46,79.78L96.52,78.3Z"></path><path class="cls-1 FaVLwhhy_207" d="M99.46,80.06a.32.32,0,0,1-.14,0l-2.94-1.48a.25.25,0,0,1-.14-.23.3.3,0,0,1,.14-.25l5.6-3.52a.28.28,0,0,1,.29,0L105.21,76a.24.24,0,0,1,.14.23.32.32,0,0,1-.14.25L99.6,80A.24.24,0,0,1,99.46,80.06Z"></path><path class="cls-1 FaVLwhhy_208" d="M99.46,79.78L105.07,76.26L105.04,78.44L99.43,81.96L99.46,79.78Z"></path><path class="cls-1 FaVLwhhy_209" d="M99.43,82.23a.22.22,0,0,1-.14,0,.25.25,0,0,1-.14-.23l0-2.18a.29.29,0,0,1,.14-.24L104.93,76a.31.31,0,0,1,.28,0,.24.24,0,0,1,.14.23l0,2.18a.3.3,0,0,1-.14.24l-5.61,3.53A.23.23,0,0,1,99.43,82.23Z"></path><path class="cls-1 FaVLwhhy_210" d="M105.12,86.42L110.72,82.89L108.97,86.62L103.36,90.15L105.12,86.42Z"></path><path class="cls-7 FaVLwhhy_211" d="M99.43,82,105,78.43a27.18,27.18,0,0,1,5.68,4.46l-5.6,3.53A27.22,27.22,0,0,0,99.43,82Z"></path><g class="cls-9"><path class="cls-1 FaVLwhhy_212" d="M110.93,82.69a27.45,27.45,0,0,0-5.74-4.5.3.3,0,0,0-.29,0l-5.6,3.53a.32.32,0,0,0-.15.24.26.26,0,0,0,.13.23,27,27,0,0,1,5.63,4.41.26.26,0,0,0,.2.08.44.44,0,0,0,.15,0l5.6-3.52a.3.3,0,0,0,.14-.21A.24.24,0,0,0,110.93,82.69Z"></path></g><path class="cls-3 FaVLwhhy_213" d="M99.43,82,105,78.43a27.18,27.18,0,0,1,5.68,4.46l-5.6,3.53A27.22,27.22,0,0,0,99.43,82Z"></path><path class="cls-7 FaVLwhhy_214" d="M99.46,79.79l0,2.17a27.22,27.22,0,0,1,5.69,4.46l-1.76,3.73A21.72,21.72,0,0,0,98,85.93a3.22,3.22,0,0,0-1.61-.49c-.31.06-.47.28-.47.69a1.82,1.82,0,0,0,.32,1.05,9.39,9.39,0,0,0,1.15,1.36c.54.56,1.3,1.27,2.28,2.14a22.33,22.33,0,0,1,4.23,4.87,8.67,8.67,0,0,1,1.24,4.57c0,1.8-.55,3-1.58,3.63s-2.51.58-4.45-.13l0,3.11-3-1.48,0-3a27.31,27.31,0,0,1-6-4.61l.08-5.34a39.63,39.63,0,0,0,3.56,3.39A18.75,18.75,0,0,0,97.23,98a4,4,0,0,0,1.78.56c.38,0,.57-.3.58-.82a2,2,0,0,0-.4-1.11,11.91,11.91,0,0,0-1.34-1.52c-.62-.62-1.47-1.43-2.54-2.41a23,23,0,0,1-2.89-3.17,11.29,11.29,0,0,1-1.59-2.92,9.35,9.35,0,0,1-.46-3.17c0-1.77.55-2.9,1.57-3.39s2.53-.35,4.55.43l0-2.21Z"></path><path class="cls-1 FaVLwhhy_215" d="M99.09,107a.32.32,0,0,1-.14,0l-3-1.48a.27.27,0,0,1-.14-.23l0-2.86A28.29,28.29,0,0,1,90,97.83a.29.29,0,0,1-.07-.18L90,92.3a.3.3,0,0,1,.18-.27.27.27,0,0,1,.31.06A37.83,37.83,0,0,0,94,95.46a17.94,17.94,0,0,0,3.35,2.32,3.81,3.81,0,0,0,1.63.54c.1,0,.29,0,.3-.53a1.75,1.75,0,0,0-.35-1,12.43,12.43,0,0,0-1.32-1.49c-.62-.62-1.47-1.43-2.53-2.4a22.88,22.88,0,0,1-2.92-3.21,11.3,11.3,0,0,1-1.62-3,9.42,9.42,0,0,1-.48-3.26c0-1.88.61-3.11,1.74-3.66s2.47-.41,4.38.28l0-1.79a.3.3,0,0,1,.14-.25.31.31,0,0,1,.28,0l3,1.49a.24.24,0,0,1,.13.23l0,2a27.67,27.67,0,0,1,5.6,4.42.26.26,0,0,1,.05.3l-1.76,3.74a.3.3,0,0,1-.21.17.29.29,0,0,1-.25-.07,21.27,21.27,0,0,0-5.28-4.17,2.91,2.91,0,0,0-1.43-.47c-.08,0-.22,0-.22.41a1.58,1.58,0,0,0,.28.9,8.91,8.91,0,0,0,1.12,1.32c.54.56,1.3,1.27,2.26,2.13a22.36,22.36,0,0,1,4.28,4.93,9,9,0,0,1,1.28,4.7c0,1.91-.61,3.21-1.73,3.89s-2.47.63-4.3,0l0,2.7a.3.3,0,0,1-.14.24A.48.48,0,0,1,99.09,107Z"></path><path class="cls-1 FaVLwhhy_216" d="M64.81,85.26L59.62,82.24L59.63,83.81L64.81,86.82L64.81,85.26Z"></path><path class="cls-1 FaVLwhhy_217" d="M61.85,75.37l.39-.24a.94.94,0,0,1,.12-.09l.25-.2.14-.12.22-.2.14-.14.2-.22.12-.14.3-.36.06-.08c.11-.15.22-.31.32-.47l.08-.13c.08-.12.15-.24.22-.37l.08-.15c.08-.15.15-.3.22-.45l0-.07c.09-.19.16-.38.23-.57l0-.15a5.18,5.18,0,0,0,.17-.56v0c0-.2.08-.39.11-.58a.59.59,0,0,1,0-.14,5.78,5.78,0,0,0,0-.58,2.43,2.43,0,0,0-1-2.24l5.19,3a2.49,2.49,0,0,1,1,2.25,5.46,5.46,0,0,1,0,.57s0,.09,0,.14-.06.39-.11.58c0,0,0,0,0,0,0,.19-.1.38-.16.57a1.21,1.21,0,0,1,0,.14c-.06.19-.14.39-.22.58h0s0,0,0,.06-.14.3-.21.44l-.09.15c-.06.13-.14.26-.21.38l-.08.13c-.1.16-.21.31-.32.46l-.07.08c-.09.13-.19.25-.29.37l-.05.06-.07.08-.21.21-.14.14a2.09,2.09,0,0,1-.22.2l-.14.12a2.43,2.43,0,0,1-.25.2l-.12.09c-.12.09-.25.17-.38.25a2.47,2.47,0,0,1-2.49.24l-5.19-3A2.47,2.47,0,0,0,61.85,75.37Z"></path><path class="cls-1 FaVLwhhy_218" d="M64.42,78.85l-5.18-3h0a.25.25,0,0,1-.09-.35.24.24,0,0,1,.34-.09,2.23,2.23,0,0,0,2.24-.25h0l.36-.23.12-.09.24-.18.13-.12.21-.19.13-.14.2-.21.12-.13.29-.36.06-.07L63.9,73l.07-.13c.08-.12.15-.24.23-.38l.07-.13.21-.43.23.1-.2-.17c.08-.18.15-.37.22-.56l0-.14c.06-.18.12-.36.17-.57S65,70.2,65,70v-.13a3.48,3.48,0,0,0,0-.55,2.19,2.19,0,0,0-.9-2h0a.26.26,0,1,1,.26-.44h0l5.18,3a2.69,2.69,0,0,1,1.15,2.47c0,.19,0,.4,0,.6v.14c0,.21-.07.41-.12.64s-.11.39-.17.6l0,.13a5.91,5.91,0,0,1-.24.61l0,.06c-.07.16-.15.31-.23.46l-.08.16c-.07.13-.15.25-.25.42l-.06.09q-.17.26-.33.48l-.06.09c-.1.12-.2.25-.33.39l0,0-.08.07a2.29,2.29,0,0,1-.21.23,1.85,1.85,0,0,1-.14.14l-.26.24-.12.1-.26.2-.12.1a4.37,4.37,0,0,1-.4.25,3.42,3.42,0,0,1-1.7.52A2.11,2.11,0,0,1,64.42,78.85ZM69.89,75l-.19-.17c.08-.19.15-.38.22-.56l0-.14c.06-.18.11-.36.17-.57s.07-.38.1-.56v-.14a4.9,4.9,0,0,0,0-.54,2.24,2.24,0,0,0-.9-2l-4-2.33a3.69,3.69,0,0,1,.23,1.34q0,.3,0,.6l0,.15a6.38,6.38,0,0,1-.12.64,4.51,4.51,0,0,1-.18.61l0,.12a4.92,4.92,0,0,1-.23.6l-.23-.11.2.18c-.07.15-.15.3-.23.46l-.08.15c-.07.13-.15.26-.23.39l-.08.13q-.15.24-.33.48l-.06.08-.3.38-.13.14-.21.22-.15.15-.26.24-.11.09-.26.21,0,0-.08.06-.4.26a3.83,3.83,0,0,1-1.32.49l4,2.33a2.23,2.23,0,0,0,2.23-.24,2.92,2.92,0,0,0,.37-.24l.11-.08a2.23,2.23,0,0,0,.24-.19l.14-.12.21-.19.13-.13.2-.21,0,0,.05-.06,0,0c.1-.11.19-.23.28-.35l.06-.08a5.15,5.15,0,0,0,.32-.45l.07-.12c.08-.12.15-.24.22-.37l.07-.14.22-.44Z"></path><path class="cls-1 FaVLwhhy_219" d="M72.98,64.06L74.16,62.59L68.97,59.58L67.8,61.04"></path><path class="cls-1 FaVLwhhy_220" d="M67.67,61.26a.23.23,0,0,1-.12-.17.23.23,0,0,1,0-.21l1.17-1.46a.26.26,0,0,1,.33-.06l5.18,3a.27.27,0,0,1,.13.18.25.25,0,0,1-.06.2l-1.17,1.46a.26.26,0,0,1-.2.1.17.17,0,0,1-.12,0"></path><path class="cls-1 FaVLwhhy_221" d="M57.57,83.27l-5.18-3a.27.27,0,0,1-.13-.17.26.26,0,0,1,.06-.21l1.17-1.46a.26.26,0,0,1,.33-.06l5.18,3a.23.23,0,0,1,.12.17.23.23,0,0,1,0,.21L57.9,83.21a.27.27,0,0,1-.2.09A.21.21,0,0,1,57.57,83.27Z"></path><path class="cls-1 FaVLwhhy_222" d="M57.7,83.05L52.51,80.04L54.71,83.13L59.9,86.14L57.7,83.05Z"></path><path class="cls-1 FaVLwhhy_223" d="M59.77,86.36l-5.19-3a.3.3,0,0,1-.08-.08l-2.19-3.09a.24.24,0,0,1,0-.31.25.25,0,0,1,.31-.05l5.19,3a.6.6,0,0,1,.08.08L60.1,86a.24.24,0,0,1,0,.31.22.22,0,0,1-.18.08A.28.28,0,0,1,59.77,86.36Z"></path><path class="cls-1 FaVLwhhy_224" d="M58.86,76.56L53.67,73.55L53.69,78.58L58.88,81.59L58.86,76.56Z"></path><path class="cls-1 FaVLwhhy_225" d="M64.69,66.47l-5.19-3a.25.25,0,0,1-.12-.22V61.67a.24.24,0,0,1,.13-.21.23.23,0,0,1,.25,0l5.19,3a.26.26,0,0,1,.12.22v1.56a.26.26,0,0,1-.13.22.27.27,0,0,1-.12,0A.28.28,0,0,1,64.69,66.47Z"></path><path class="cls-1 FaVLwhhy_226" d="M64.68,64.91l-5.18-3a.25.25,0,0,1-.13-.22.24.24,0,0,1,.13-.21l4.37-2.53a.28.28,0,0,1,.25,0l5.19,3a.24.24,0,0,1,.13.21.25.25,0,0,1-.13.22l-4.37,2.53a.3.3,0,0,1-.26,0Z"></path><path class="cls-1 FaVLwhhy_227" d="M61.03,70.95L64.81,66.25L59.63,63.23L55.85,67.94"></path><path class="cls-1 FaVLwhhy_228" d="M57.55,76.69l-5.18-3a.24.24,0,0,1-.11-.31l2.17-5.61a.25.25,0,0,1,.15-.15.22.22,0,0,1,.21,0l5.19,3a.26.26,0,0,1,.11.31l-2.17,5.62a.28.28,0,0,1-.16.14l-.08,0A.31.31,0,0,1,57.55,76.69Z"></path><path class="cls-1 FaVLwhhy_229" d="M58.88,81.59,57.7,83.05l2.2,3.09,1.17-1.46,3.8.32v1.57l4.38-2.52V82.48L73,77.78l1.18.1,2.18-5.61-1.18-.1,0-5,1.18-1.46-2.2-3.09L73,64.05l-3.79-.32V62.16l-4.37,2.53v1.56L61,71l-1.18-.1-2.17,5.62,1.18.09Zm4.65-5.2a7.65,7.65,0,0,1,3.49-6c1.93-1.12,3.5-.22,3.51,2a7.72,7.72,0,0,1-3.49,6C65.11,79.5,63.54,78.61,63.53,76.39Z"></path><path class="cls-1 FaVLwhhy_230" d="M64.75,86.79a.25.25,0,0,1-.13-.22V85.24l-3.44-.3L60.09,86.3a.22.22,0,0,1-.2.09.26.26,0,0,1-.2-.1l-2.2-3.09a.25.25,0,0,1,0-.3l1.12-1.4V76.8l-1-.08a.25.25,0,0,1-.19-.12.24.24,0,0,1,0-.23l2.17-5.61a.24.24,0,0,1,.26-.16l1,.09,3.64-4.53V64.69a.26.26,0,0,1,.12-.22L69.06,62a.23.23,0,0,1,.25,0,.23.23,0,0,1,.13.21v1.33l3.43.3L74,62.43a.27.27,0,0,1,.21-.09.24.24,0,0,1,.19.1l2.2,3.1a.23.23,0,0,1,0,.3l-1.12,1.39,0,4.7,1,.09a.25.25,0,0,1,.19.12.24.24,0,0,1,0,.22L74.44,78a.25.25,0,0,1-.26.16l-1.05-.08L69.5,82.57v1.48a.23.23,0,0,1-.13.21L65,86.79a.28.28,0,0,1-.13,0A.27.27,0,0,1,64.75,86.79Zm-.32-7.94a2.66,2.66,0,0,1-1.15-2.46,8,8,0,0,1,3.61-6.26,2.71,2.71,0,0,1,2.74-.25,2.68,2.68,0,0,1,1.15,2.47,8,8,0,0,1-3.61,6.25h0a3.42,3.42,0,0,1-1.7.52A2,2,0,0,1,64.43,78.85Z"></path><path class="cls-10 FaVLwhhy_231" d="M366.08,203.33l21,11.12,20.17-11.66-21-11Z"></path><path class="cls-10 FaVLwhhy_232" d="M368.49,203.28,387,213.12l17.74-10.26-18.54-9.76Z"></path><path class="cls-10 FaVLwhhy_233" d="M366.08,203.33v51.85l21,11.33V214.42Z"></path><path class="cls-10 FaVLwhhy_234" d="M387.04,265.23L366.08,253.91L366.08,245.73L387.04,257.02L387.04,265.23Z"></path><path class="cls-10 FaVLwhhy_235" d="M407.21,255.02L387.04,266.51L387.04,214.43L407.21,202.76L407.21,255.02Z"></path><path class="cls-10 FaVLwhhy_236" d="M387.04,266.51L366.08,255.18L366.08,247.01L387.04,258.3L387.04,266.51Z"></path><path class="cls-10 FaVLwhhy_237" d="M407.21,253.74L387.04,265.23L387.04,257.02L407.21,245.5L407.21,253.74Z"></path><path class="cls-10 FaVLwhhy_238" d="M407.21,255.02L387.04,266.51L387.04,258.3L407.21,246.78L407.21,255.02Z"></path><path class="cls-10 FaVLwhhy_239" d="M381.34,227.56v4.7l2.8,1.54v-4.69Z"></path><path class="cls-10 FaVLwhhy_240" d="M377.93,225.72v4.7l2.8,1.54v-4.69Z"></path><path class="cls-10 FaVLwhhy_241" d="M374.44,223.85v4.69l2.8,1.55V225.4Z"></path><path class="cls-10 FaVLwhhy_242" d="M371,222v4.69l2.8,1.55v-4.69Z"></path><path class="cls-10 FaVLwhhy_243" d="M367.63,220.26V225l2.8,1.54v-4.68Z"></path><path class="cls-10 FaVLwhhy_244" d="M381.34,244.6v4.69l2.8,1.56v-4.7Z"></path><path class="cls-10 FaVLwhhy_245" d="M377.93,242.75v4.7l2.8,1.55v-4.69Z"></path><path class="cls-10 FaVLwhhy_246" d="M374.44,240.86v4.69l2.8,1.56v-4.69Z"></path><path class="cls-10 FaVLwhhy_247" d="M371,239v4.69l2.8,1.56v-4.69Z"></path><path class="cls-10 FaVLwhhy_248" d="M367.63,237.25v4.69l2.8,1.55v-4.68Z"></path><path class="cls-10 FaVLwhhy_249" d="M381.34,235.91v4.7l2.8,1.54v-4.69Z"></path><path class="cls-10 FaVLwhhy_250" d="M377.93,234.07v4.69l2.8,1.55v-4.69Z"></path><path class="cls-10 FaVLwhhy_251" d="M374.44,232.19v4.69l2.8,1.55v-4.69Z"></path><path class="cls-10 FaVLwhhy_252" d="M371,230.32V235l2.8,1.56v-4.69Z"></path><path class="cls-10 FaVLwhhy_253" d="M367.63,228.59v4.68l2.8,1.55v-4.68Z"></path><path class="cls-10 FaVLwhhy_254" d="M389.09,229.17v4.71l2.79-1.66v-4.71Z"></path><path class="cls-10 FaVLwhhy_255" d="M392.49,227.2v4.7l2.8-1.66v-4.71Z"></path><path class="cls-10 FaVLwhhy_256" d="M396,225.18v4.7l2.8-1.66V223.5Z"></path><path class="cls-10 FaVLwhhy_257" d="M399.44,223.17v4.71l2.8-1.67v-4.72Z"></path><path class="cls-10 FaVLwhhy_258" d="M402.8,221.28V226l2.8-1.67V219.6Z"></path><path class="cls-10 FaVLwhhy_259" d="M381.34,219.29V224l2.8,1.54v-4.69Z"></path><path class="cls-10 FaVLwhhy_260" d="M377.93,217.46v4.71l2.8,1.53V219Z"></path><path class="cls-10 FaVLwhhy_261" d="M374.44,215.59v4.7l2.8,1.54v-4.69Z"></path><path class="cls-10 FaVLwhhy_262" d="M371,213.75v4.68l2.8,1.55v-4.69Z"></path><path class="cls-10 FaVLwhhy_263" d="M367.63,212v4.69l2.8,1.54v-4.68Z"></path><path class="cls-10 FaVLwhhy_264" d="M389.09,220.9v4.7l2.79-1.66v-4.71Z"></path><path class="cls-10 FaVLwhhy_265" d="M392.49,218.92v4.7l2.8-1.67v-4.7Z"></path><path class="cls-10 FaVLwhhy_266" d="M396,216.89v4.7l2.8-1.66v-4.72Z"></path><path class="cls-10 FaVLwhhy_267" d="M399.44,214.88v4.71l2.8-1.68v-4.72Z"></path><path class="cls-10 FaVLwhhy_268" d="M402.8,213v4.72l2.8-1.68V211.3Z"></path><path class="cls-10 FaVLwhhy_269" d="M389.09,246.24v4.69l2.79-1.64v-4.71Z"></path><path class="cls-10 FaVLwhhy_270" d="M392.49,244.27V249l2.8-1.65v-4.71Z"></path><path class="cls-10 FaVLwhhy_271" d="M396,242.26V247l2.8-1.65v-4.72Z"></path><path class="cls-10 FaVLwhhy_272" d="M399.44,240.26V245l2.8-1.66v-4.72Z"></path><path class="cls-10 FaVLwhhy_273" d="M402.8,238.38v4.71l2.8-1.66v-4.72Z"></path><path class="cls-10 FaVLwhhy_274" d="M389.09,237.54v4.7l2.79-1.65v-4.71Z"></path><path class="cls-10 FaVLwhhy_275" d="M392.49,235.57v4.7l2.8-1.66V233.9Z"></path><path class="cls-10 FaVLwhhy_276" d="M396,233.55v4.7l2.8-1.66v-4.71Z"></path><path class="cls-10 FaVLwhhy_277" d="M399.44,231.55v4.7l2.8-1.66v-4.72Z"></path><path class="cls-10 FaVLwhhy_278" d="M402.8,229.66v4.71l2.8-1.67V228Z"></path><path class="cls-10 FaVLwhhy_279" d="M380.83,201.79L386.61,198.47L383.29,196.72L377.51,200.05L380.83,201.79Z"></path><path class="cls-10 FaVLwhhy_280" d="M377.51,200.8L380.83,202.54L380.83,201.79L377.51,200.05L377.51,200.8Z"></path><path class="cls-10 FaVLwhhy_281" d="M380.83,202.54L386.61,199.22L386.61,198.47L380.83,201.79L380.83,202.54Z"></path><path class="cls-11 FaVLwhhy_282" d="M381.58,200.06L384.29,198.5L382.92,197.78L380.22,199.34L381.58,200.06Z"></path><path class="cls-11 FaVLwhhy_283" d="M380.22,199.8L381.58,200.53L381.58,200.06L380.22,199.34L380.22,199.8Z"></path><path class="cls-11 FaVLwhhy_284" d="M381.58,200.53L384.29,198.97L384.29,198.5L381.58,200.06L381.58,200.53Z"></path><path class="cls-10 FaVLwhhy_285" d="M389.97,207.44L395.76,204.09L392.44,202.35L386.65,205.69L389.97,207.44Z"></path><path class="cls-10 FaVLwhhy_286" d="M386.65,206.44L389.97,208.19L389.97,207.44L386.65,205.69L386.65,206.44Z"></path><path class="cls-10 FaVLwhhy_287" d="M389.97,208.19L395.76,204.85L395.76,204.09L389.97,207.44L389.97,208.19Z"></path><path class="cls-12 FaVLwhhy_288" d="M390.61,205.7L393.51,204.03L392.04,203.26L389.14,204.93L390.61,205.7Z"></path><path class="cls-12 FaVLwhhy_289" d="M389.14,205.44L390.61,206.21L390.61,205.7L389.14,204.93L389.14,205.44Z"></path><path class="cls-12 FaVLwhhy_290" d="M390.61,206.21L393.51,204.53L393.51,204.03L390.61,205.7L390.61,206.21Z"></path><path class="cls-7 FaVLwhhy_291" d="M458.73,301.48L435.83,288.89L435.83,271.77L433.08,272.15L433.12,270.79L458.73,255.05L462.87,254.48L462.87,250.93L462.6,249.74L465.81,248.13L468.65,249.15L468.37,253.72L471.55,253.28L484.65,269.09L484.65,270.79L481.62,272.44L481.62,287.64L458.73,301.48Z"></path><path class="cls-10 FaVLwhhy_292" d="M465.62,255.71L468.37,254.1L468.37,253.92L471.55,253.55L446.69,268.45L433.12,270.26L454.13,257.74L454.18,257.71L454.47,257.54L454.94,257.27L454.98,257.24L455.73,256.81L456.58,256.31L457.07,256.02L457.47,255.79L458.32,255.29L458.73,255.06L459.11,255.01L459.83,254.93L460.43,254.86L460.58,254.84L460.82,254.81L460.99,254.79L462.87,254.57L462.87,256.03L465.62,255.71Z"></path><path class="cls-10 FaVLwhhy_293" d="M462.87,256.03L462.87,254.57L462.87,253.62L462.87,251.02L465.49,252.61L465.62,252.69L465.62,255.71L462.87,256.03Z"></path><path class="cls-10 FaVLwhhy_294" d="M465.62,252.69L465.49,252.61L462.87,251.02L462.74,250.94L462.6,250.85L462.6,249.82"></path><path class="cls-10 FaVLwhhy_295" d="M468.37,253.92L468.37,254.1L465.62,255.71L465.62,252.69L468.37,251.08L468.37,253.92Z"></path><path class="cls-10 FaVLwhhy_296" d="M435.83,292.12L439.03,290.25L442.7,288.11L443.75,288.71L443.75,289.08L444.67,289.61L444.99,289.42L449.25,291.85L449.25,292.22L450.17,292.74L450.48,292.55L451.86,293.34L444.99,297.35L435.83,292.12Z"></path><path class="cls-10 FaVLwhhy_297" d="M443.75,277.45L443.75,288.71L442.7,288.11L435.83,284.19L435.83,271.3L445.9,270.11L458.73,286.25L458.73,297.26L451.86,293.34L450.48,292.55L450.48,280.92L444.07,277.26L443.75,277.45Z"></path><path class="cls-10 FaVLwhhy_298" d="M445.9,270.11L435.83,271.3L433.08,271.62L433.12,270.26L446.69,268.45L458.73,284.67L458.73,287.11L445.9,270.11Z"></path><path class="cls-10 FaVLwhhy_299" d="M446.69,268.45L471.55,253.55L478.85,262.74L484.37,269.69"></path><path class="cls-10 FaVLwhhy_300" d="M484.37,271.28L481.62,272.88L474.01,277.32L467.38,281.2L467.11,281.36L458.73,286.25L458.73,284.67L484.37,269.69L484.37,271.28Z"></path><path class="cls-10 FaVLwhhy_301" d="M467.92,290.12v-7.38l5.93-3.47v7.38Z"></path><path class="cls-10 FaVLwhhy_302" d="M481.62,288.12L458.73,301.49L458.73,297.26L481.62,283.89L481.62,288.12Z"></path><path class="cls-10 FaVLwhhy_303" d="M435.83,288.42L435.83,284.19L442.7,288.11L439.03,290.25L435.83,288.42Z"></path><path class="cls-10 FaVLwhhy_304" d="M458.73,297.26L458.73,301.49L451.86,297.57L451.86,293.34L458.73,297.26Z"></path><path class="cls-10 FaVLwhhy_305" d="M451.86,293.34L451.86,297.57L441.69,303.5L441.69,302.45L442.79,301.81L442.79,300.75L443.89,300.11L443.89,299.05L444.99,298.41L444.99,297.35L451.86,293.34Z"></path><path class="cls-10 FaVLwhhy_306" d="M444.99,297.35L444.99,298.41L435.83,293.18L435.83,292.12"></path><path class="cls-10 FaVLwhhy_307" d="M444.99,298.41L443.89,299.05L434.73,293.82L435.83,293.18"></path><path class="cls-10 FaVLwhhy_308" d="M443.89,299.05L443.89,300.11L434.73,294.88L434.73,293.82"></path><path class="cls-10 FaVLwhhy_309" d="M443.89,300.11L442.79,300.75L433.63,295.52L434.73,294.88"></path><path class="cls-10 FaVLwhhy_310" d="M442.79,300.75L442.79,301.81L433.63,296.58L433.63,295.52"></path><path class="cls-10 FaVLwhhy_311" d="M442.79,301.81L441.69,302.45L432.53,297.22L433.63,296.58"></path><path class="cls-10 FaVLwhhy_312" d="M441.69,302.45L441.69,303.5L432.53,298.28L432.53,297.22"></path><path class="cls-10 FaVLwhhy_313" d="M462.6,249.82L465.81,248.28L468.65,249.78"></path><path class="cls-10 FaVLwhhy_314" d="M481.62,288.12L481.62,273.08"></path><path class="cls-1 FaVLwhhy_315" d="M197.15,223.21c0,5.75,4.67,13.17,10.43,16.59S218,241.32,218,235.58,213.34,222.4,207.58,219,197.15,217.46,197.15,223.21Z"></path><path class="cls-1 FaVLwhhy_316" d="M213.78,238.16L212.82,236.8"></path><path class="cls-1 FaVLwhhy_317" d="M215.27,236.39L214.11,235.33"></path><path class="cls-1 FaVLwhhy_318" d="M213.27,238.4c1.49-.58,2.41-2.07,2.41-4.32,0-4.46-3.63-10.23-8.1-12.88s-8.1-1.18-8.1,3.28a11.94,11.94,0,0,0,1,4.4"></path><path class="cls-1 FaVLwhhy_319" d="M215.66,233.53L214.39,232.87"></path><path class="cls-1 FaVLwhhy_320" d="M214.87,230.1L213.82,229.99"></path><path class="cls-1 FaVLwhhy_321" d="M213.02,226.53L212.22,226.94"></path><path class="cls-1 FaVLwhhy_322" d="M207.3,221.04L207.34,222.27"></path><path class="cls-1 FaVLwhhy_323" d="M204.27,219.94L204.76,221.33"></path><path class="cls-1 FaVLwhhy_324" d="M201.74,220.22L202.59,221.56"></path><path class="cls-1 FaVLwhhy_325" d="M200.06,221.82L201.14,222.91"></path><path class="cls-1 FaVLwhhy_326" d="M199.48,224.51L200.64,225.21"></path><path class="cls-1 FaVLwhhy_327" d="M200.07,227.88L201.15,228.09"></path><path class="cls-1 FaVLwhhy_328" d="M204.29,234.53L211.04,238.53L211.04,236.81L204.29,232.8L204.29,234.53Z"></path><path class="cls-1 FaVLwhhy_329" d="M207.31,230.29L201.93,224.79L207.59,228.14L207.31,230.29Z"></path><path class="cls-1 FaVLwhhy_330" d="M208.88,230a3.19,3.19,0,0,0-1.57-2.35c-.83-.46-1.47-.14-1.43.71a3.23,3.23,0,0,0,1.57,2.36,1.37,1.37,0,0,0,.85.19C208.67,230.83,208.9,230.51,208.88,230Z"></path><path class="cls-1 FaVLwhhy_331" d="M92.57,122.74C87.29,122,83,126,83,131.73s4.31,10.93,9.59,11.67,9.56-3.26,9.55-9S97.85,123.48,92.57,122.74Z"></path><path class="cls-1 FaVLwhhy_332" d="M92.17,125.92c-3.66-.51-6.62,2.27-6.61,6.22a8.23,8.23,0,0,0,6.64,8.09c3.66.51,6.62-2.26,6.62-6.23S95.84,126.43,92.17,125.92Z"></path><path class="cls-1 FaVLwhhy_333" d="M92.17,130.92a1.56,1.56,0,0,0-1.08.22c-.48.3-3.94,2.88-3.94,2.88l2.42,3s3.1-2.09,3.33-2.16A1.68,1.68,0,0,0,94,133.19,2.32,2.32,0,0,0,92.17,130.92Z"></path><path class="cls-1 FaVLwhhy_334" d="M88.31,137.04L92.17,134.88L92.17,167.26L88.31,169.43L88.31,137.04Z"></path><path class="cls-1 FaVLwhhy_335" d="M83.87,134.76L88.31,137.04L88.31,169.43L83.87,167.15L83.87,134.76Z"></path><path class="cls-1 FaVLwhhy_336" d="M88.31,137.04L83.87,134.76L87.73,132.6L92.17,134.88L88.31,137.04Z"></path><path class="cls-1 FaVLwhhy_337" d="M9.84,81.91c-3.66-.51-6.63,2.28-6.62,6.22s3,7.58,6.64,8.09S16.48,94,16.47,90A8.23,8.23,0,0,0,9.84,81.91Z"></path><path class="cls-1 FaVLwhhy_338" d="M9.83,86.91a1.57,1.57,0,0,0-1.08.23C8.28,87.43,4.81,90,4.81,90l2.41,3s3.11-2.08,3.34-2.15a1.71,1.71,0,0,0,1.13-1.69A2.33,2.33,0,0,0,9.83,86.91Z"></path><path class="cls-1 FaVLwhhy_339" d="M5.97,93.03L9.83,90.87L9.83,123.26L5.97,125.42L5.97,93.03Z"></path><path class="cls-1 FaVLwhhy_340" d="M1.53,90.75L5.97,93.03L5.97,125.42L1.53,123.14L1.53,90.75Z"></path><path class="cls-1 FaVLwhhy_341" d="M5.97,93.03L1.53,90.75L5.39,88.59L9.83,90.87L5.97,93.03Z"></path></g></g><style data-made-with="vivus-instant">.FaVLwhhy_0{stroke-dasharray:25 27;stroke-dashoffset:26;animation:FaVLwhhy_draw 3333ms linear 0ms forwards;}.FaVLwhhy_1{stroke-dasharray:28 30;stroke-dashoffset:29;animation:FaVLwhhy_draw 3333ms linear 4ms forwards;}.FaVLwhhy_2{stroke-dasharray:41 43;stroke-dashoffset:42;animation:FaVLwhhy_draw 3333ms linear 9ms forwards;}.FaVLwhhy_3{stroke-dasharray:42 44;stroke-dashoffset:43;animation:FaVLwhhy_draw 3333ms linear 14ms forwards;}.FaVLwhhy_4{stroke-dasharray:52 54;stroke-dashoffset:53;animation:FaVLwhhy_draw 3333ms linear 19ms forwards;}.FaVLwhhy_5{stroke-dasharray:50 52;stroke-dashoffset:51;animation:FaVLwhhy_draw 3333ms linear 24ms forwards;}.FaVLwhhy_6{stroke-dasharray:50 52;stroke-dashoffset:51;animation:FaVLwhhy_draw 3333ms linear 29ms forwards;}.FaVLwhhy_7{stroke-dasharray:50 52;stroke-dashoffset:51;animation:FaVLwhhy_draw 3333ms linear 34ms forwards;}.FaVLwhhy_8{stroke-dasharray:54 56;stroke-dashoffset:55;animation:FaVLwhhy_draw 3333ms linear 39ms forwards;}.FaVLwhhy_9{stroke-dasharray:55 57;stroke-dashoffset:56;animation:FaVLwhhy_draw 3333ms linear 43ms forwards;}.FaVLwhhy_10{stroke-dasharray:57 59;stroke-dashoffset:58;animation:FaVLwhhy_draw 3333ms linear 48ms forwards;}.FaVLwhhy_11{stroke-dasharray:61 63;stroke-dashoffset:62;animation:FaVLwhhy_draw 3333ms linear 53ms forwards;}.FaVLwhhy_12{stroke-dasharray:54 56;stroke-dashoffset:55;animation:FaVLwhhy_draw 3333ms linear 58ms forwards;}.FaVLwhhy_13{stroke-dasharray:22 24;stroke-dashoffset:23;animation:FaVLwhhy_draw 3333ms linear 63ms forwards;}.FaVLwhhy_14{stroke-dasharray:3 5;stroke-dashoffset:4;animation:FaVLwhhy_draw 3333ms linear 68ms forwards;}.FaVLwhhy_15{stroke-dasharray:3 5;stroke-dashoffset:4;animation:FaVLwhhy_draw 3333ms linear 73ms forwards;}.FaVLwhhy_16{stroke-dasharray:22 24;stroke-dashoffset:23;animation:FaVLwhhy_draw 3333ms linear 78ms forwards;}.FaVLwhhy_17{stroke-dasharray:3 5;stroke-dashoffset:4;animation:FaVLwhhy_draw 3333ms linear 83ms forwards;}.FaVLwhhy_18{stroke-dasharray:3 5;stroke-dashoffset:4;animation:FaVLwhhy_draw 3333ms linear 87ms forwards;}.FaVLwhhy_19{stroke-dasharray:184 186;stroke-dashoffset:185;animation:FaVLwhhy_draw 3333ms linear 92ms forwards;}.FaVLwhhy_20{stroke-dasharray:152 154;stroke-dashoffset:153;animation:FaVLwhhy_draw 3333ms linear 97ms forwards;}.FaVLwhhy_21{stroke-dasharray:166 168;stroke-dashoffset:167;animation:FaVLwhhy_draw 3333ms linear 102ms forwards;}.FaVLwhhy_22{stroke-dasharray:119 121;stroke-dashoffset:120;animation:FaVLwhhy_draw 3333ms linear 107ms forwards;}.FaVLwhhy_23{stroke-dasharray:64 66;stroke-dashoffset:65;animation:FaVLwhhy_draw 3333ms linear 112ms forwards;}.FaVLwhhy_24{stroke-dasharray:37 39;stroke-dashoffset:38;animation:FaVLwhhy_draw 3333ms linear 117ms forwards;}.FaVLwhhy_25{stroke-dasharray:95 97;stroke-dashoffset:96;animation:FaVLwhhy_draw 3333ms linear 122ms forwards;}.FaVLwhhy_26{stroke-dasharray:53 55;stroke-dashoffset:54;animation:FaVLwhhy_draw 3333ms linear 127ms forwards;}.FaVLwhhy_27{stroke-dasharray:60 62;stroke-dashoffset:61;animation:FaVLwhhy_draw 3333ms linear 131ms forwards;}.FaVLwhhy_28{stroke-dasharray:32 34;stroke-dashoffset:33;animation:FaVLwhhy_draw 3333ms linear 136ms forwards;}.FaVLwhhy_29{stroke-dasharray:158 160;stroke-dashoffset:159;animation:FaVLwhhy_draw 3333ms linear 141ms forwards;}.FaVLwhhy_30{stroke-dasharray:182 184;stroke-dashoffset:183;animation:FaVLwhhy_draw 3333ms linear 146ms forwards;}.FaVLwhhy_31{stroke-dasharray:160 162;stroke-dashoffset:161;animation:FaVLwhhy_draw 3333ms linear 151ms forwards;}.FaVLwhhy_32{stroke-dasharray:145 147;stroke-dashoffset:146;animation:FaVLwhhy_draw 3333ms linear 156ms forwards;}.FaVLwhhy_33{stroke-dasharray:31 33;stroke-dashoffset:32;animation:FaVLwhhy_draw 3333ms linear 161ms forwards;}.FaVLwhhy_34{stroke-dasharray:160 162;stroke-dashoffset:161;animation:FaVLwhhy_draw 3333ms linear 166ms forwards;}.FaVLwhhy_35{stroke-dasharray:145 147;stroke-dashoffset:146;animation:FaVLwhhy_draw 3333ms linear 171ms forwards;}.FaVLwhhy_36{stroke-dasharray:31 33;stroke-dashoffset:32;animation:FaVLwhhy_draw 3333ms linear 175ms forwards;}.FaVLwhhy_37{stroke-dasharray:32 34;stroke-dashoffset:33;animation:FaVLwhhy_draw 3333ms linear 180ms forwards;}.FaVLwhhy_38{stroke-dasharray:158 160;stroke-dashoffset:159;animation:FaVLwhhy_draw 3333ms linear 185ms forwards;}.FaVLwhhy_39{stroke-dasharray:182 184;stroke-dashoffset:183;animation:FaVLwhhy_draw 3333ms linear 190ms forwards;}.FaVLwhhy_40{stroke-dasharray:105 107;stroke-dashoffset:106;animation:FaVLwhhy_draw 3333ms linear 195ms forwards;}.FaVLwhhy_41{stroke-dasharray:10 12;stroke-dashoffset:11;animation:FaVLwhhy_draw 3333ms linear 200ms forwards;}.FaVLwhhy_42{stroke-dasharray:10 12;stroke-dashoffset:11;animation:FaVLwhhy_draw 3333ms linear 205ms forwards;}.FaVLwhhy_43{stroke-dasharray:22 24;stroke-dashoffset:23;animation:FaVLwhhy_draw 3333ms linear 210ms forwards;}.FaVLwhhy_44{stroke-dasharray:3 5;stroke-dashoffset:4;animation:FaVLwhhy_draw 3333ms linear 215ms forwards;}.FaVLwhhy_45{stroke-dasharray:3 5;stroke-dashoffset:4;animation:FaVLwhhy_draw 3333ms linear 219ms forwards;}.FaVLwhhy_46{stroke-dasharray:22 24;stroke-dashoffset:23;animation:FaVLwhhy_draw 3333ms linear 224ms forwards;}.FaVLwhhy_47{stroke-dasharray:3 5;stroke-dashoffset:4;animation:FaVLwhhy_draw 3333ms linear 229ms forwards;}.FaVLwhhy_48{stroke-dasharray:3 5;stroke-dashoffset:4;animation:FaVLwhhy_draw 3333ms linear 234ms forwards;}.FaVLwhhy_49{stroke-dasharray:36 38;stroke-dashoffset:37;animation:FaVLwhhy_draw 3333ms linear 239ms forwards;}.FaVLwhhy_50{stroke-dasharray:52 54;stroke-dashoffset:53;animation:FaVLwhhy_draw 3333ms linear 244ms forwards;}.FaVLwhhy_51{stroke-dasharray:46 48;stroke-dashoffset:47;animation:FaVLwhhy_draw 3333ms linear 249ms forwards;}.FaVLwhhy_52{stroke-dasharray:74 76;stroke-dashoffset:75;animation:FaVLwhhy_draw 3333ms linear 254ms forwards;}.FaVLwhhy_53{stroke-dasharray:75 77;stroke-dashoffset:76;animation:FaVLwhhy_draw 3333ms linear 259ms forwards;}.FaVLwhhy_54{stroke-dasharray:19 21;stroke-dashoffset:20;animation:FaVLwhhy_draw 3333ms linear 263ms forwards;}.FaVLwhhy_55{stroke-dasharray:107 109;stroke-dashoffset:108;animation:FaVLwhhy_draw 3333ms linear 268ms forwards;}.FaVLwhhy_56{stroke-dasharray:554 556;stroke-dashoffset:555;animation:FaVLwhhy_draw 3333ms linear 273ms forwards;}.FaVLwhhy_57{stroke-dasharray:512 514;stroke-dashoffset:513;animation:FaVLwhhy_draw 3333ms linear 278ms forwards;}.FaVLwhhy_58{stroke-dasharray:70 72;stroke-dashoffset:71;animation:FaVLwhhy_draw 3333ms linear 283ms forwards;}.FaVLwhhy_59{stroke-dasharray:73 75;stroke-dashoffset:74;animation:FaVLwhhy_draw 3333ms linear 288ms forwards;}.FaVLwhhy_60{stroke-dasharray:320 322;stroke-dashoffset:321;animation:FaVLwhhy_draw 3333ms linear 293ms forwards;}.FaVLwhhy_61{stroke-dasharray:484 486;stroke-dashoffset:485;animation:FaVLwhhy_draw 3333ms linear 298ms forwards;}.FaVLwhhy_62{stroke-dasharray:117 119;stroke-dashoffset:118;animation:FaVLwhhy_draw 3333ms linear 303ms forwards;}.FaVLwhhy_63{stroke-dasharray:108 110;stroke-dashoffset:109;animation:FaVLwhhy_draw 3333ms linear 307ms forwards;}.FaVLwhhy_64{stroke-dasharray:98 100;stroke-dashoffset:99;animation:FaVLwhhy_draw 3333ms linear 312ms forwards;}.FaVLwhhy_65{stroke-dasharray:34 36;stroke-dashoffset:35;animation:FaVLwhhy_draw 3333ms linear 317ms forwards;}.FaVLwhhy_66{stroke-dasharray:35 37;stroke-dashoffset:36;animation:FaVLwhhy_draw 3333ms linear 322ms forwards;}.FaVLwhhy_67{stroke-dasharray:7 9;stroke-dashoffset:8;animation:FaVLwhhy_draw 3333ms linear 327ms forwards;}.FaVLwhhy_68{stroke-dasharray:51 53;stroke-dashoffset:52;animation:FaVLwhhy_draw 3333ms linear 332ms forwards;}.FaVLwhhy_69{stroke-dasharray:7 9;stroke-dashoffset:8;animation:FaVLwhhy_draw 3333ms linear 337ms forwards;}.FaVLwhhy_70{stroke-dasharray:51 53;stroke-dashoffset:52;animation:FaVLwhhy_draw 3333ms linear 342ms forwards;}.FaVLwhhy_71{stroke-dasharray:7 9;stroke-dashoffset:8;animation:FaVLwhhy_draw 3333ms linear 347ms forwards;}.FaVLwhhy_72{stroke-dasharray:51 53;stroke-dashoffset:52;animation:FaVLwhhy_draw 3333ms linear 351ms forwards;}.FaVLwhhy_73{stroke-dasharray:5 7;stroke-dashoffset:6;animation:FaVLwhhy_draw 3333ms linear 356ms forwards;}.FaVLwhhy_74{stroke-dasharray:6 8;stroke-dashoffset:7;animation:FaVLwhhy_draw 3333ms linear 361ms forwards;}.FaVLwhhy_75{stroke-dasharray:6 8;stroke-dashoffset:7;animation:FaVLwhhy_draw 3333ms linear 366ms forwards;}.FaVLwhhy_76{stroke-dasharray:10 12;stroke-dashoffset:11;animation:FaVLwhhy_draw 3333ms linear 371ms forwards;}.FaVLwhhy_77{stroke-dasharray:10 12;stroke-dashoffset:11;animation:FaVLwhhy_draw 3333ms linear 376ms forwards;}.FaVLwhhy_78{stroke-dasharray:6 8;stroke-dashoffset:7;animation:FaVLwhhy_draw 3333ms linear 381ms forwards;}.FaVLwhhy_79{stroke-dasharray:63 65;stroke-dashoffset:64;animation:FaVLwhhy_draw 3333ms linear 386ms forwards;}.FaVLwhhy_80{stroke-dasharray:44 46;stroke-dashoffset:45;animation:FaVLwhhy_draw 3333ms linear 391ms forwards;}.FaVLwhhy_81{stroke-dasharray:63 65;stroke-dashoffset:64;animation:FaVLwhhy_draw 3333ms linear 395ms forwards;}.FaVLwhhy_82{stroke-dasharray:44 46;stroke-dashoffset:45;animation:FaVLwhhy_draw 3333ms linear 400ms forwards;}.FaVLwhhy_83{stroke-dasharray:24 26;stroke-dashoffset:25;animation:FaVLwhhy_draw 3333ms linear 405ms forwards;}.FaVLwhhy_84{stroke-dasharray:20 22;stroke-dashoffset:21;animation:FaVLwhhy_draw 3333ms linear 410ms forwards;}.FaVLwhhy_85{stroke-dasharray:74 76;stroke-dashoffset:75;animation:FaVLwhhy_draw 3333ms linear 415ms forwards;}.FaVLwhhy_86{stroke-dasharray:75 77;stroke-dashoffset:76;animation:FaVLwhhy_draw 3333ms linear 420ms forwards;}.FaVLwhhy_87{stroke-dasharray:19 21;stroke-dashoffset:20;animation:FaVLwhhy_draw 3333ms linear 425ms forwards;}.FaVLwhhy_88{stroke-dasharray:20 22;stroke-dashoffset:21;animation:FaVLwhhy_draw 3333ms linear 430ms forwards;}.FaVLwhhy_89{stroke-dasharray:74 76;stroke-dashoffset:75;animation:FaVLwhhy_draw 3333ms linear 434ms forwards;}.FaVLwhhy_90{stroke-dasharray:75 77;stroke-dashoffset:76;animation:FaVLwhhy_draw 3333ms linear 439ms forwards;}.FaVLwhhy_91{stroke-dasharray:19 21;stroke-dashoffset:20;animation:FaVLwhhy_draw 3333ms linear 444ms forwards;}.FaVLwhhy_92{stroke-dasharray:358 360;stroke-dashoffset:359;animation:FaVLwhhy_draw 3333ms linear 449ms forwards;}.FaVLwhhy_93{stroke-dasharray:491 493;stroke-dashoffset:492;animation:FaVLwhhy_draw 3333ms linear 454ms forwards;}.FaVLwhhy_94{stroke-dasharray:440 442;stroke-dashoffset:441;animation:FaVLwhhy_draw 3333ms linear 459ms forwards;}.FaVLwhhy_95{stroke-dasharray:330 332;stroke-dashoffset:331;animation:FaVLwhhy_draw 3333ms linear 464ms forwards;}.FaVLwhhy_96{stroke-dasharray:209 211;stroke-dashoffset:210;animation:FaVLwhhy_draw 3333ms linear 469ms forwards;}.FaVLwhhy_97{stroke-dasharray:147 149;stroke-dashoffset:148;animation:FaVLwhhy_draw 3333ms linear 474ms forwards;}.FaVLwhhy_98{stroke-dasharray:33 35;stroke-dashoffset:34;animation:FaVLwhhy_draw 3333ms linear 478ms forwards;}.FaVLwhhy_99{stroke-dasharray:26 28;stroke-dashoffset:27;animation:FaVLwhhy_draw 3333ms linear 483ms forwards;}.FaVLwhhy_100{stroke-dasharray:33 35;stroke-dashoffset:34;animation:FaVLwhhy_draw 3333ms linear 488ms forwards;}.FaVLwhhy_101{stroke-dasharray:26 28;stroke-dashoffset:27;animation:FaVLwhhy_draw 3333ms linear 493ms forwards;}.FaVLwhhy_102{stroke-dasharray:33 35;stroke-dashoffset:34;animation:FaVLwhhy_draw 3333ms linear 498ms forwards;}.FaVLwhhy_103{stroke-dasharray:26 28;stroke-dashoffset:27;animation:FaVLwhhy_draw 3333ms linear 503ms forwards;}.FaVLwhhy_104{stroke-dasharray:491 493;stroke-dashoffset:492;animation:FaVLwhhy_draw 3333ms linear 508ms forwards;}.FaVLwhhy_105{stroke-dasharray:440 442;stroke-dashoffset:441;animation:FaVLwhhy_draw 3333ms linear 513ms forwards;}.FaVLwhhy_106{stroke-dasharray:330 332;stroke-dashoffset:331;animation:FaVLwhhy_draw 3333ms linear 518ms forwards;}.FaVLwhhy_107{stroke-dasharray:209 211;stroke-dashoffset:210;animation:FaVLwhhy_draw 3333ms linear 522ms forwards;}.FaVLwhhy_108{stroke-dasharray:147 149;stroke-dashoffset:148;animation:FaVLwhhy_draw 3333ms linear 527ms forwards;}.FaVLwhhy_109{stroke-dasharray:33 35;stroke-dashoffset:34;animation:FaVLwhhy_draw 3333ms linear 532ms forwards;}.FaVLwhhy_110{stroke-dasharray:26 28;stroke-dashoffset:27;animation:FaVLwhhy_draw 3333ms linear 537ms forwards;}.FaVLwhhy_111{stroke-dasharray:33 35;stroke-dashoffset:34;animation:FaVLwhhy_draw 3333ms linear 542ms forwards;}.FaVLwhhy_112{stroke-dasharray:26 28;stroke-dashoffset:27;animation:FaVLwhhy_draw 3333ms linear 547ms forwards;}.FaVLwhhy_113{stroke-dasharray:33 35;stroke-dashoffset:34;animation:FaVLwhhy_draw 3333ms linear 552ms forwards;}.FaVLwhhy_114{stroke-dasharray:26 28;stroke-dashoffset:27;animation:FaVLwhhy_draw 3333ms linear 557ms forwards;}.FaVLwhhy_115{stroke-dasharray:467 469;stroke-dashoffset:468;animation:FaVLwhhy_draw 3333ms linear 562ms forwards;}.FaVLwhhy_116{stroke-dasharray:94 96;stroke-dashoffset:95;animation:FaVLwhhy_draw 3333ms linear 566ms forwards;}.FaVLwhhy_117{stroke-dasharray:51 53;stroke-dashoffset:52;animation:FaVLwhhy_draw 3333ms linear 571ms forwards;}.FaVLwhhy_118{stroke-dasharray:33 35;stroke-dashoffset:34;animation:FaVLwhhy_draw 3333ms linear 576ms forwards;}.FaVLwhhy_119{stroke-dasharray:29 31;stroke-dashoffset:30;animation:FaVLwhhy_draw 3333ms linear 581ms forwards;}.FaVLwhhy_120{stroke-dasharray:10 12;stroke-dashoffset:11;animation:FaVLwhhy_draw 3333ms linear 586ms forwards;}.FaVLwhhy_121{stroke-dasharray:10 12;stroke-dashoffset:11;animation:FaVLwhhy_draw 3333ms linear 591ms forwards;}.FaVLwhhy_122{stroke-dasharray:10 12;stroke-dashoffset:11;animation:FaVLwhhy_draw 3333ms linear 596ms forwards;}.FaVLwhhy_123{stroke-dasharray:94 96;stroke-dashoffset:95;animation:FaVLwhhy_draw 3333ms linear 601ms forwards;}.FaVLwhhy_124{stroke-dasharray:51 53;stroke-dashoffset:52;animation:FaVLwhhy_draw 3333ms linear 606ms forwards;}.FaVLwhhy_125{stroke-dasharray:33 35;stroke-dashoffset:34;animation:FaVLwhhy_draw 3333ms linear 610ms forwards;}.FaVLwhhy_126{stroke-dasharray:29 31;stroke-dashoffset:30;animation:FaVLwhhy_draw 3333ms linear 615ms forwards;}.FaVLwhhy_127{stroke-dasharray:10 12;stroke-dashoffset:11;animation:FaVLwhhy_draw 3333ms linear 620ms forwards;}.FaVLwhhy_128{stroke-dasharray:10 12;stroke-dashoffset:11;animation:FaVLwhhy_draw 3333ms linear 625ms forwards;}.FaVLwhhy_129{stroke-dasharray:10 12;stroke-dashoffset:11;animation:FaVLwhhy_draw 3333ms linear 630ms forwards;}.FaVLwhhy_130{stroke-dasharray:50 52;stroke-dashoffset:51;animation:FaVLwhhy_draw 3333ms linear 635ms forwards;}.FaVLwhhy_131{stroke-dasharray:28 30;stroke-dashoffset:29;animation:FaVLwhhy_draw 3333ms linear 640ms forwards;}.FaVLwhhy_132{stroke-dasharray:74 76;stroke-dashoffset:75;animation:FaVLwhhy_draw 3333ms linear 645ms forwards;}.FaVLwhhy_133{stroke-dasharray:75 77;stroke-dashoffset:76;animation:FaVLwhhy_draw 3333ms linear 650ms forwards;}.FaVLwhhy_134{stroke-dasharray:19 21;stroke-dashoffset:20;animation:FaVLwhhy_draw 3333ms linear 654ms forwards;}.FaVLwhhy_135{stroke-dasharray:107 109;stroke-dashoffset:108;animation:FaVLwhhy_draw 3333ms linear 659ms forwards;}.FaVLwhhy_136{stroke-dasharray:494 496;stroke-dashoffset:495;animation:FaVLwhhy_draw 3333ms linear 664ms forwards;}.FaVLwhhy_137{stroke-dasharray:450 452;stroke-dashoffset:451;animation:FaVLwhhy_draw 3333ms linear 669ms forwards;}.FaVLwhhy_138{stroke-dasharray:73 75;stroke-dashoffset:74;animation:FaVLwhhy_draw 3333ms linear 674ms forwards;}.FaVLwhhy_139{stroke-dasharray:73 75;stroke-dashoffset:74;animation:FaVLwhhy_draw 3333ms linear 679ms forwards;}.FaVLwhhy_140{stroke-dasharray:488 490;stroke-dashoffset:489;animation:FaVLwhhy_draw 3333ms linear 684ms forwards;}.FaVLwhhy_141{stroke-dasharray:483 485;stroke-dashoffset:484;animation:FaVLwhhy_draw 3333ms linear 689ms forwards;}.FaVLwhhy_142{stroke-dasharray:117 119;stroke-dashoffset:118;animation:FaVLwhhy_draw 3333ms linear 694ms forwards;}.FaVLwhhy_143{stroke-dasharray:107 109;stroke-dashoffset:108;animation:FaVLwhhy_draw 3333ms linear 698ms forwards;}.FaVLwhhy_144{stroke-dasharray:98 100;stroke-dashoffset:99;animation:FaVLwhhy_draw 3333ms linear 703ms forwards;}.FaVLwhhy_145{stroke-dasharray:47 49;stroke-dashoffset:48;animation:FaVLwhhy_draw 3333ms linear 708ms forwards;}.FaVLwhhy_146{stroke-dasharray:58 60;stroke-dashoffset:59;animation:FaVLwhhy_draw 3333ms linear 713ms forwards;}.FaVLwhhy_147{stroke-dasharray:44 46;stroke-dashoffset:45;animation:FaVLwhhy_draw 3333ms linear 718ms forwards;}.FaVLwhhy_148{stroke-dasharray:51 53;stroke-dashoffset:52;animation:FaVLwhhy_draw 3333ms linear 723ms forwards;}.FaVLwhhy_149{stroke-dasharray:10 12;stroke-dashoffset:11;animation:FaVLwhhy_draw 3333ms linear 728ms forwards;}.FaVLwhhy_150{stroke-dasharray:10 12;stroke-dashoffset:11;animation:FaVLwhhy_draw 3333ms linear 733ms forwards;}.FaVLwhhy_151{stroke-dasharray:7 9;stroke-dashoffset:8;animation:FaVLwhhy_draw 3333ms linear 738ms forwards;}.FaVLwhhy_152{stroke-dasharray:63 65;stroke-dashoffset:64;animation:FaVLwhhy_draw 3333ms linear 742ms forwards;}.FaVLwhhy_153{stroke-dasharray:44 46;stroke-dashoffset:45;animation:FaVLwhhy_draw 3333ms linear 747ms forwards;}.FaVLwhhy_154{stroke-dasharray:63 65;stroke-dashoffset:64;animation:FaVLwhhy_draw 3333ms linear 752ms forwards;}.FaVLwhhy_155{stroke-dasharray:44 46;stroke-dashoffset:45;animation:FaVLwhhy_draw 3333ms linear 757ms forwards;}.FaVLwhhy_156{stroke-dasharray:63 65;stroke-dashoffset:64;animation:FaVLwhhy_draw 3333ms linear 762ms forwards;}.FaVLwhhy_157{stroke-dasharray:44 46;stroke-dashoffset:45;animation:FaVLwhhy_draw 3333ms linear 767ms forwards;}.FaVLwhhy_158{stroke-dasharray:223 225;stroke-dashoffset:224;animation:FaVLwhhy_draw 3333ms linear 772ms forwards;}.FaVLwhhy_159{stroke-dasharray:20 22;stroke-dashoffset:21;animation:FaVLwhhy_draw 3333ms linear 777ms forwards;}.FaVLwhhy_160{stroke-dasharray:74 76;stroke-dashoffset:75;animation:FaVLwhhy_draw 3333ms linear 782ms forwards;}.FaVLwhhy_161{stroke-dasharray:75 77;stroke-dashoffset:76;animation:FaVLwhhy_draw 3333ms linear 786ms forwards;}.FaVLwhhy_162{stroke-dasharray:19 21;stroke-dashoffset:20;animation:FaVLwhhy_draw 3333ms linear 791ms forwards;}.FaVLwhhy_163{stroke-dasharray:20 22;stroke-dashoffset:21;animation:FaVLwhhy_draw 3333ms linear 796ms forwards;}.FaVLwhhy_164{stroke-dasharray:74 76;stroke-dashoffset:75;animation:FaVLwhhy_draw 3333ms linear 801ms forwards;}.FaVLwhhy_165{stroke-dasharray:75 77;stroke-dashoffset:76;animation:FaVLwhhy_draw 3333ms linear 806ms forwards;}.FaVLwhhy_166{stroke-dasharray:19 21;stroke-dashoffset:20;animation:FaVLwhhy_draw 3333ms linear 811ms forwards;}.FaVLwhhy_167{stroke-dasharray:20 22;stroke-dashoffset:21;animation:FaVLwhhy_draw 3333ms linear 816ms forwards;}.FaVLwhhy_168{stroke-dasharray:74 76;stroke-dashoffset:75;animation:FaVLwhhy_draw 3333ms linear 821ms forwards;}.FaVLwhhy_169{stroke-dasharray:75 77;stroke-dashoffset:76;animation:FaVLwhhy_draw 3333ms linear 826ms forwards;}.FaVLwhhy_170{stroke-dasharray:19 21;stroke-dashoffset:20;animation:FaVLwhhy_draw 3333ms linear 830ms forwards;}.FaVLwhhy_171{stroke-dasharray:19 21;stroke-dashoffset:20;animation:FaVLwhhy_draw 3333ms linear 835ms forwards;}.FaVLwhhy_172{stroke-dasharray:170 172;stroke-dashoffset:171;animation:FaVLwhhy_draw 3333ms linear 840ms forwards;}.FaVLwhhy_173{stroke-dasharray:322 324;stroke-dashoffset:323;animation:FaVLwhhy_draw 3333ms linear 845ms forwards;}.FaVLwhhy_174{stroke-dasharray:151 153;stroke-dashoffset:152;animation:FaVLwhhy_draw 3333ms linear 850ms forwards;}.FaVLwhhy_175{stroke-dasharray:137 139;stroke-dashoffset:138;animation:FaVLwhhy_draw 3333ms linear 855ms forwards;}.FaVLwhhy_176{stroke-dasharray:205 207;stroke-dashoffset:206;animation:FaVLwhhy_draw 3333ms linear 860ms forwards;}.FaVLwhhy_177{stroke-dasharray:22 24;stroke-dashoffset:23;animation:FaVLwhhy_draw 3333ms linear 865ms forwards;}.FaVLwhhy_178{stroke-dasharray:24 26;stroke-dashoffset:25;animation:FaVLwhhy_draw 3333ms linear 869ms forwards;}.FaVLwhhy_179{stroke-dasharray:23 25;stroke-dashoffset:24;animation:FaVLwhhy_draw 3333ms linear 874ms forwards;}.FaVLwhhy_180{stroke-dasharray:27 29;stroke-dashoffset:28;animation:FaVLwhhy_draw 3333ms linear 879ms forwards;}.FaVLwhhy_181{stroke-dasharray:29 31;stroke-dashoffset:30;animation:FaVLwhhy_draw 3333ms linear 884ms forwards;}.FaVLwhhy_182{stroke-dasharray:57 59;stroke-dashoffset:58;animation:FaVLwhhy_draw 3333ms linear 889ms forwards;}.FaVLwhhy_183{stroke-dasharray:59 61;stroke-dashoffset:60;animation:FaVLwhhy_draw 3333ms linear 894ms forwards;}.FaVLwhhy_184{stroke-dasharray:57 59;stroke-dashoffset:58;animation:FaVLwhhy_draw 3333ms linear 899ms forwards;}.FaVLwhhy_185{stroke-dasharray:59 61;stroke-dashoffset:60;animation:FaVLwhhy_draw 3333ms linear 904ms forwards;}.FaVLwhhy_186{stroke-dasharray:27 29;stroke-dashoffset:28;animation:FaVLwhhy_draw 3333ms linear 909ms forwards;}.FaVLwhhy_187{stroke-dasharray:29 31;stroke-dashoffset:30;animation:FaVLwhhy_draw 3333ms linear 913ms forwards;}.FaVLwhhy_188{stroke-dasharray:41 43;stroke-dashoffset:42;animation:FaVLwhhy_draw 3333ms linear 918ms forwards;}.FaVLwhhy_189{stroke-dasharray:43 45;stroke-dashoffset:44;animation:FaVLwhhy_draw 3333ms linear 923ms forwards;}.FaVLwhhy_190{stroke-dasharray:41 43;stroke-dashoffset:42;animation:FaVLwhhy_draw 3333ms linear 928ms forwards;}.FaVLwhhy_191{stroke-dasharray:43 45;stroke-dashoffset:44;animation:FaVLwhhy_draw 3333ms linear 933ms forwards;}.FaVLwhhy_192{stroke-dasharray:27 29;stroke-dashoffset:28;animation:FaVLwhhy_draw 3333ms linear 938ms forwards;}.FaVLwhhy_193{stroke-dasharray:29 31;stroke-dashoffset:30;animation:FaVLwhhy_draw 3333ms linear 943ms forwards;}.FaVLwhhy_194{stroke-dasharray:28 30;stroke-dashoffset:29;animation:FaVLwhhy_draw 3333ms linear 948ms forwards;}.FaVLwhhy_195{stroke-dasharray:30 32;stroke-dashoffset:31;animation:FaVLwhhy_draw 3333ms linear 953ms forwards;}.FaVLwhhy_196{stroke-dasharray:28 30;stroke-dashoffset:29;animation:FaVLwhhy_draw 3333ms linear 957ms forwards;}.FaVLwhhy_197{stroke-dasharray:30 32;stroke-dashoffset:31;animation:FaVLwhhy_draw 3333ms linear 962ms forwards;}.FaVLwhhy_198{stroke-dasharray:16 18;stroke-dashoffset:17;animation:FaVLwhhy_draw 3333ms linear 967ms forwards;}.FaVLwhhy_199{stroke-dasharray:36 38;stroke-dashoffset:37;animation:FaVLwhhy_draw 3333ms linear 972ms forwards;}.FaVLwhhy_200{stroke-dasharray:38 40;stroke-dashoffset:39;animation:FaVLwhhy_draw 3333ms linear 977ms forwards;}.FaVLwhhy_201{stroke-dasharray:57 59;stroke-dashoffset:58;animation:FaVLwhhy_draw 3333ms linear 982ms forwards;}.FaVLwhhy_202{stroke-dasharray:62 64;stroke-dashoffset:63;animation:FaVLwhhy_draw 3333ms linear 987ms forwards;}.FaVLwhhy_203{stroke-dasharray:25 27;stroke-dashoffset:26;animation:FaVLwhhy_draw 3333ms linear 992ms forwards;}.FaVLwhhy_204{stroke-dasharray:25 27;stroke-dashoffset:26;animation:FaVLwhhy_draw 3333ms linear 997ms forwards;}.FaVLwhhy_205{stroke-dasharray:25 27;stroke-dashoffset:26;animation:FaVLwhhy_draw 3333ms linear 1001ms forwards;}.FaVLwhhy_206{stroke-dasharray:20 22;stroke-dashoffset:21;animation:FaVLwhhy_draw 3333ms linear 1006ms forwards;}.FaVLwhhy_207{stroke-dasharray:22 24;stroke-dashoffset:23;animation:FaVLwhhy_draw 3333ms linear 1011ms forwards;}.FaVLwhhy_208{stroke-dasharray:18 20;stroke-dashoffset:19;animation:FaVLwhhy_draw 3333ms linear 1016ms forwards;}.FaVLwhhy_209{stroke-dasharray:20 22;stroke-dashoffset:21;animation:FaVLwhhy_draw 3333ms linear 1021ms forwards;}.FaVLwhhy_210{stroke-dasharray:22 24;stroke-dashoffset:23;animation:FaVLwhhy_draw 3333ms linear 1026ms forwards;}.FaVLwhhy_211{stroke-dasharray:28 30;stroke-dashoffset:29;animation:FaVLwhhy_draw 3333ms linear 1031ms forwards;}.FaVLwhhy_212{stroke-dasharray:30 32;stroke-dashoffset:31;animation:FaVLwhhy_draw 3333ms linear 1036ms forwards;}.FaVLwhhy_213{stroke-dasharray:28 30;stroke-dashoffset:29;animation:FaVLwhhy_draw 3333ms linear 1041ms forwards;}.FaVLwhhy_214{stroke-dasharray:116 118;stroke-dashoffset:117;animation:FaVLwhhy_draw 3333ms linear 1045ms forwards;}.FaVLwhhy_215{stroke-dasharray:117 119;stroke-dashoffset:118;animation:FaVLwhhy_draw 3333ms linear 1050ms forwards;}.FaVLwhhy_216{stroke-dasharray:16 18;stroke-dashoffset:17;animation:FaVLwhhy_draw 3333ms linear 1055ms forwards;}.FaVLwhhy_217{stroke-dasharray:37 39;stroke-dashoffset:38;animation:FaVLwhhy_draw 3333ms linear 1060ms forwards;}.FaVLwhhy_218{stroke-dasharray:71 73;stroke-dashoffset:72;animation:FaVLwhhy_draw 3333ms linear 1065ms forwards;}.FaVLwhhy_219{stroke-dasharray:10 12;stroke-dashoffset:11;animation:FaVLwhhy_draw 3333ms linear 1070ms forwards;}.FaVLwhhy_220{stroke-dasharray:12 14;stroke-dashoffset:13;animation:FaVLwhhy_draw 3333ms linear 1075ms forwards;}.FaVLwhhy_221{stroke-dasharray:18 20;stroke-dashoffset:19;animation:FaVLwhhy_draw 3333ms linear 1080ms forwards;}.FaVLwhhy_222{stroke-dasharray:20 22;stroke-dashoffset:21;animation:FaVLwhhy_draw 3333ms linear 1085ms forwards;}.FaVLwhhy_223{stroke-dasharray:22 24;stroke-dashoffset:23;animation:FaVLwhhy_draw 3333ms linear 1089ms forwards;}.FaVLwhhy_224{stroke-dasharray:23 25;stroke-dashoffset:24;animation:FaVLwhhy_draw 3333ms linear 1094ms forwards;}.FaVLwhhy_225{stroke-dasharray:17 19;stroke-dashoffset:18;animation:FaVLwhhy_draw 3333ms linear 1099ms forwards;}.FaVLwhhy_226{stroke-dasharray:24 26;stroke-dashoffset:25;animation:FaVLwhhy_draw 3333ms linear 1104ms forwards;}.FaVLwhhy_227{stroke-dasharray:19 21;stroke-dashoffset:20;animation:FaVLwhhy_draw 3333ms linear 1109ms forwards;}.FaVLwhhy_228{stroke-dasharray:26 28;stroke-dashoffset:27;animation:FaVLwhhy_draw 3333ms linear 1114ms forwards;}.FaVLwhhy_229{stroke-dasharray:103 105;stroke-dashoffset:104;animation:FaVLwhhy_draw 3333ms linear 1119ms forwards;}.FaVLwhhy_230{stroke-dasharray:106 108;stroke-dashoffset:107;animation:FaVLwhhy_draw 3333ms linear 1124ms forwards;}.FaVLwhhy_231{stroke-dasharray:95 97;stroke-dashoffset:96;animation:FaVLwhhy_draw 3333ms linear 1129ms forwards;}.FaVLwhhy_232{stroke-dasharray:83 85;stroke-dashoffset:84;animation:FaVLwhhy_draw 3333ms linear 1133ms forwards;}.FaVLwhhy_233{stroke-dasharray:152 154;stroke-dashoffset:153;animation:FaVLwhhy_draw 3333ms linear 1138ms forwards;}.FaVLwhhy_234{stroke-dasharray:65 67;stroke-dashoffset:66;animation:FaVLwhhy_draw 3333ms linear 1143ms forwards;}.FaVLwhhy_235{stroke-dasharray:151 153;stroke-dashoffset:152;animation:FaVLwhhy_draw 3333ms linear 1148ms forwards;}.FaVLwhhy_236{stroke-dasharray:65 67;stroke-dashoffset:66;animation:FaVLwhhy_draw 3333ms linear 1153ms forwards;}.FaVLwhhy_237{stroke-dasharray:63 65;stroke-dashoffset:64;animation:FaVLwhhy_draw 3333ms linear 1158ms forwards;}.FaVLwhhy_238{stroke-dasharray:63 65;stroke-dashoffset:64;animation:FaVLwhhy_draw 3333ms linear 1163ms forwards;}.FaVLwhhy_239{stroke-dasharray:16 18;stroke-dashoffset:17;animation:FaVLwhhy_draw 3333ms linear 1168ms forwards;}.FaVLwhhy_240{stroke-dasharray:16 18;stroke-dashoffset:17;animation:FaVLwhhy_draw 3333ms linear 1173ms forwards;}.FaVLwhhy_241{stroke-dasharray:16 18;stroke-dashoffset:17;animation:FaVLwhhy_draw 3333ms linear 1177ms forwards;}.FaVLwhhy_242{stroke-dasharray:16 18;stroke-dashoffset:17;animation:FaVLwhhy_draw 3333ms linear 1182ms forwards;}.FaVLwhhy_243{stroke-dasharray:16 18;stroke-dashoffset:17;animation:FaVLwhhy_draw 3333ms linear 1187ms forwards;}.FaVLwhhy_244{stroke-dasharray:16 18;stroke-dashoffset:17;animation:FaVLwhhy_draw 3333ms linear 1192ms forwards;}.FaVLwhhy_245{stroke-dasharray:16 18;stroke-dashoffset:17;animation:FaVLwhhy_draw 3333ms linear 1197ms forwards;}.FaVLwhhy_246{stroke-dasharray:16 18;stroke-dashoffset:17;animation:FaVLwhhy_draw 3333ms linear 1202ms forwards;}.FaVLwhhy_247{stroke-dasharray:16 18;stroke-dashoffset:17;animation:FaVLwhhy_draw 3333ms linear 1207ms forwards;}.FaVLwhhy_248{stroke-dasharray:16 18;stroke-dashoffset:17;animation:FaVLwhhy_draw 3333ms linear 1212ms forwards;}.FaVLwhhy_249{stroke-dasharray:16 18;stroke-dashoffset:17;animation:FaVLwhhy_draw 3333ms linear 1217ms forwards;}.FaVLwhhy_250{stroke-dasharray:16 18;stroke-dashoffset:17;animation:FaVLwhhy_draw 3333ms linear 1221ms forwards;}.FaVLwhhy_251{stroke-dasharray:16 18;stroke-dashoffset:17;animation:FaVLwhhy_draw 3333ms linear 1226ms forwards;}.FaVLwhhy_252{stroke-dasharray:16 18;stroke-dashoffset:17;animation:FaVLwhhy_draw 3333ms linear 1231ms forwards;}.FaVLwhhy_253{stroke-dasharray:16 18;stroke-dashoffset:17;animation:FaVLwhhy_draw 3333ms linear 1236ms forwards;}.FaVLwhhy_254{stroke-dasharray:16 18;stroke-dashoffset:17;animation:FaVLwhhy_draw 3333ms linear 1241ms forwards;}.FaVLwhhy_255{stroke-dasharray:16 18;stroke-dashoffset:17;animation:FaVLwhhy_draw 3333ms linear 1246ms forwards;}.FaVLwhhy_256{stroke-dasharray:16 18;stroke-dashoffset:17;animation:FaVLwhhy_draw 3333ms linear 1251ms forwards;}.FaVLwhhy_257{stroke-dasharray:16 18;stroke-dashoffset:17;animation:FaVLwhhy_draw 3333ms linear 1256ms forwards;}.FaVLwhhy_258{stroke-dasharray:16 18;stroke-dashoffset:17;animation:FaVLwhhy_draw 3333ms linear 1260ms forwards;}.FaVLwhhy_259{stroke-dasharray:16 18;stroke-dashoffset:17;animation:FaVLwhhy_draw 3333ms linear 1265ms forwards;}.FaVLwhhy_260{stroke-dasharray:16 18;stroke-dashoffset:17;animation:FaVLwhhy_draw 3333ms linear 1270ms forwards;}.FaVLwhhy_261{stroke-dasharray:16 18;stroke-dashoffset:17;animation:FaVLwhhy_draw 3333ms linear 1275ms forwards;}.FaVLwhhy_262{stroke-dasharray:16 18;stroke-dashoffset:17;animation:FaVLwhhy_draw 3333ms linear 1280ms forwards;}.FaVLwhhy_263{stroke-dasharray:16 18;stroke-dashoffset:17;animation:FaVLwhhy_draw 3333ms linear 1285ms forwards;}.FaVLwhhy_264{stroke-dasharray:16 18;stroke-dashoffset:17;animation:FaVLwhhy_draw 3333ms linear 1290ms forwards;}.FaVLwhhy_265{stroke-dasharray:16 18;stroke-dashoffset:17;animation:FaVLwhhy_draw 3333ms linear 1295ms forwards;}.FaVLwhhy_266{stroke-dasharray:16 18;stroke-dashoffset:17;animation:FaVLwhhy_draw 3333ms linear 1300ms forwards;}.FaVLwhhy_267{stroke-dasharray:16 18;stroke-dashoffset:17;animation:FaVLwhhy_draw 3333ms linear 1304ms forwards;}.FaVLwhhy_268{stroke-dasharray:17 19;stroke-dashoffset:18;animation:FaVLwhhy_draw 3333ms linear 1309ms forwards;}.FaVLwhhy_269{stroke-dasharray:16 18;stroke-dashoffset:17;animation:FaVLwhhy_draw 3333ms linear 1314ms forwards;}.FaVLwhhy_270{stroke-dasharray:16 18;stroke-dashoffset:17;animation:FaVLwhhy_draw 3333ms linear 1319ms forwards;}.FaVLwhhy_271{stroke-dasharray:16 18;stroke-dashoffset:17;animation:FaVLwhhy_draw 3333ms linear 1324ms forwards;}.FaVLwhhy_272{stroke-dasharray:16 18;stroke-dashoffset:17;animation:FaVLwhhy_draw 3333ms linear 1329ms forwards;}.FaVLwhhy_273{stroke-dasharray:16 18;stroke-dashoffset:17;animation:FaVLwhhy_draw 3333ms linear 1334ms forwards;}.FaVLwhhy_274{stroke-dasharray:16 18;stroke-dashoffset:17;animation:FaVLwhhy_draw 3333ms linear 1339ms forwards;}.FaVLwhhy_275{stroke-dasharray:16 18;stroke-dashoffset:17;animation:FaVLwhhy_draw 3333ms linear 1344ms forwards;}.FaVLwhhy_276{stroke-dasharray:16 18;stroke-dashoffset:17;animation:FaVLwhhy_draw 3333ms linear 1348ms forwards;}.FaVLwhhy_277{stroke-dasharray:16 18;stroke-dashoffset:17;animation:FaVLwhhy_draw 3333ms linear 1353ms forwards;}.FaVLwhhy_278{stroke-dasharray:16 18;stroke-dashoffset:17;animation:FaVLwhhy_draw 3333ms linear 1358ms forwards;}.FaVLwhhy_279{stroke-dasharray:21 23;stroke-dashoffset:22;animation:FaVLwhhy_draw 3333ms linear 1363ms forwards;}.FaVLwhhy_280{stroke-dasharray:9 11;stroke-dashoffset:10;animation:FaVLwhhy_draw 3333ms linear 1368ms forwards;}.FaVLwhhy_281{stroke-dasharray:15 17;stroke-dashoffset:16;animation:FaVLwhhy_draw 3333ms linear 1373ms forwards;}.FaVLwhhy_282{stroke-dasharray:10 12;stroke-dashoffset:11;animation:FaVLwhhy_draw 3333ms linear 1378ms forwards;}.FaVLwhhy_283{stroke-dasharray:5 7;stroke-dashoffset:6;animation:FaVLwhhy_draw 3333ms linear 1383ms forwards;}.FaVLwhhy_284{stroke-dasharray:8 10;stroke-dashoffset:9;animation:FaVLwhhy_draw 3333ms linear 1388ms forwards;}.FaVLwhhy_285{stroke-dasharray:21 23;stroke-dashoffset:22;animation:FaVLwhhy_draw 3333ms linear 1392ms forwards;}.FaVLwhhy_286{stroke-dasharray:10 12;stroke-dashoffset:11;animation:FaVLwhhy_draw 3333ms linear 1397ms forwards;}.FaVLwhhy_287{stroke-dasharray:15 17;stroke-dashoffset:16;animation:FaVLwhhy_draw 3333ms linear 1402ms forwards;}.FaVLwhhy_288{stroke-dasharray:11 13;stroke-dashoffset:12;animation:FaVLwhhy_draw 3333ms linear 1407ms forwards;}.FaVLwhhy_289{stroke-dasharray:5 7;stroke-dashoffset:6;animation:FaVLwhhy_draw 3333ms linear 1412ms forwards;}.FaVLwhhy_290{stroke-dasharray:8 10;stroke-dashoffset:9;animation:FaVLwhhy_draw 3333ms linear 1417ms forwards;}.FaVLwhhy_291{stroke-dasharray:169 171;stroke-dashoffset:170;animation:FaVLwhhy_draw 3333ms linear 1422ms forwards;}.FaVLwhhy_292{stroke-dasharray:88 90;stroke-dashoffset:89;animation:FaVLwhhy_draw 3333ms linear 1427ms forwards;}.FaVLwhhy_293{stroke-dasharray:15 17;stroke-dashoffset:16;animation:FaVLwhhy_draw 3333ms linear 1432ms forwards;}.FaVLwhhy_294{stroke-dasharray:5 7;stroke-dashoffset:6;animation:FaVLwhhy_draw 3333ms linear 1436ms forwards;}.FaVLwhhy_295{stroke-dasharray:13 15;stroke-dashoffset:14;animation:FaVLwhhy_draw 3333ms linear 1441ms forwards;}.FaVLwhhy_296{stroke-dasharray:38 40;stroke-dashoffset:39;animation:FaVLwhhy_draw 3333ms linear 1446ms forwards;}.FaVLwhhy_297{stroke-dasharray:104 106;stroke-dashoffset:105;animation:FaVLwhhy_draw 3333ms linear 1451ms forwards;}.FaVLwhhy_298{stroke-dasharray:72 74;stroke-dashoffset:73;animation:FaVLwhhy_draw 3333ms linear 1456ms forwards;}.FaVLwhhy_299{stroke-dasharray:50 52;stroke-dashoffset:51;animation:FaVLwhhy_draw 3333ms linear 1461ms forwards;}.FaVLwhhy_300{stroke-dasharray:63 65;stroke-dashoffset:64;animation:FaVLwhhy_draw 3333ms linear 1466ms forwards;}.FaVLwhhy_301{stroke-dasharray:29 31;stroke-dashoffset:30;animation:FaVLwhhy_draw 3333ms linear 1471ms forwards;}.FaVLwhhy_302{stroke-dasharray:62 64;stroke-dashoffset:63;animation:FaVLwhhy_draw 3333ms linear 1476ms forwards;}.FaVLwhhy_303{stroke-dasharray:21 23;stroke-dashoffset:22;animation:FaVLwhhy_draw 3333ms linear 1480ms forwards;}.FaVLwhhy_304{stroke-dasharray:25 27;stroke-dashoffset:26;animation:FaVLwhhy_draw 3333ms linear 1485ms forwards;}.FaVLwhhy_305{stroke-dasharray:33 35;stroke-dashoffset:34;animation:FaVLwhhy_draw 3333ms linear 1490ms forwards;}.FaVLwhhy_306{stroke-dasharray:13 15;stroke-dashoffset:14;animation:FaVLwhhy_draw 3333ms linear 1495ms forwards;}.FaVLwhhy_307{stroke-dasharray:14 16;stroke-dashoffset:15;animation:FaVLwhhy_draw 3333ms linear 1500ms forwards;}.FaVLwhhy_308{stroke-dasharray:13 15;stroke-dashoffset:14;animation:FaVLwhhy_draw 3333ms linear 1505ms forwards;}.FaVLwhhy_309{stroke-dasharray:14 16;stroke-dashoffset:15;animation:FaVLwhhy_draw 3333ms linear 1510ms forwards;}.FaVLwhhy_310{stroke-dasharray:13 15;stroke-dashoffset:14;animation:FaVLwhhy_draw 3333ms linear 1515ms forwards;}.FaVLwhhy_311{stroke-dasharray:14 16;stroke-dashoffset:15;animation:FaVLwhhy_draw 3333ms linear 1520ms forwards;}.FaVLwhhy_312{stroke-dasharray:13 15;stroke-dashoffset:14;animation:FaVLwhhy_draw 3333ms linear 1524ms forwards;}.FaVLwhhy_313{stroke-dasharray:7 9;stroke-dashoffset:8;animation:FaVLwhhy_draw 3333ms linear 1529ms forwards;}.FaVLwhhy_314{stroke-dasharray:16 18;stroke-dashoffset:17;animation:FaVLwhhy_draw 3333ms linear 1534ms forwards;}.FaVLwhhy_315{stroke-dasharray:70 72;stroke-dashoffset:71;animation:FaVLwhhy_draw 3333ms linear 1539ms forwards;}.FaVLwhhy_316{stroke-dasharray:2 4;stroke-dashoffset:3;animation:FaVLwhhy_draw 3333ms linear 1544ms forwards;}.FaVLwhhy_317{stroke-dasharray:2 4;stroke-dashoffset:3;animation:FaVLwhhy_draw 3333ms linear 1549ms forwards;}.FaVLwhhy_318{stroke-dasharray:37 39;stroke-dashoffset:38;animation:FaVLwhhy_draw 3333ms linear 1554ms forwards;}.FaVLwhhy_319{stroke-dasharray:2 4;stroke-dashoffset:3;animation:FaVLwhhy_draw 3333ms linear 1559ms forwards;}.FaVLwhhy_320{stroke-dasharray:2 4;stroke-dashoffset:3;animation:FaVLwhhy_draw 3333ms linear 1564ms forwards;}.FaVLwhhy_321{stroke-dasharray:1 3;stroke-dashoffset:2;animation:FaVLwhhy_draw 3333ms linear 1568ms forwards;}.FaVLwhhy_322{stroke-dasharray:2 4;stroke-dashoffset:3;animation:FaVLwhhy_draw 3333ms linear 1573ms forwards;}.FaVLwhhy_323{stroke-dasharray:2 4;stroke-dashoffset:3;animation:FaVLwhhy_draw 3333ms linear 1578ms forwards;}.FaVLwhhy_324{stroke-dasharray:2 4;stroke-dashoffset:3;animation:FaVLwhhy_draw 3333ms linear 1583ms forwards;}.FaVLwhhy_325{stroke-dasharray:2 4;stroke-dashoffset:3;animation:FaVLwhhy_draw 3333ms linear 1588ms forwards;}.FaVLwhhy_326{stroke-dasharray:2 4;stroke-dashoffset:3;animation:FaVLwhhy_draw 3333ms linear 1593ms forwards;}.FaVLwhhy_327{stroke-dasharray:2 4;stroke-dashoffset:3;animation:FaVLwhhy_draw 3333ms linear 1598ms forwards;}.FaVLwhhy_328{stroke-dasharray:20 22;stroke-dashoffset:21;animation:FaVLwhhy_draw 3333ms linear 1603ms forwards;}.FaVLwhhy_329{stroke-dasharray:17 19;stroke-dashoffset:18;animation:FaVLwhhy_draw 3333ms linear 1608ms forwards;}.FaVLwhhy_330{stroke-dasharray:11 13;stroke-dashoffset:12;animation:FaVLwhhy_draw 3333ms linear 1612ms forwards;}.FaVLwhhy_331{stroke-dasharray:63 65;stroke-dashoffset:64;animation:FaVLwhhy_draw 3333ms linear 1617ms forwards;}.FaVLwhhy_332{stroke-dasharray:44 46;stroke-dashoffset:45;animation:FaVLwhhy_draw 3333ms linear 1622ms forwards;}.FaVLwhhy_333{stroke-dasharray:20 22;stroke-dashoffset:21;animation:FaVLwhhy_draw 3333ms linear 1627ms forwards;}.FaVLwhhy_334{stroke-dasharray:74 76;stroke-dashoffset:75;animation:FaVLwhhy_draw 3333ms linear 1632ms forwards;}.FaVLwhhy_335{stroke-dasharray:75 77;stroke-dashoffset:76;animation:FaVLwhhy_draw 3333ms linear 1637ms forwards;}.FaVLwhhy_336{stroke-dasharray:19 21;stroke-dashoffset:20;animation:FaVLwhhy_draw 3333ms linear 1642ms forwards;}.FaVLwhhy_337{stroke-dasharray:44 46;stroke-dashoffset:45;animation:FaVLwhhy_draw 3333ms linear 1647ms forwards;}.FaVLwhhy_338{stroke-dasharray:20 22;stroke-dashoffset:21;animation:FaVLwhhy_draw 3333ms linear 1652ms forwards;}.FaVLwhhy_339{stroke-dasharray:74 76;stroke-dashoffset:75;animation:FaVLwhhy_draw 3333ms linear 1656ms forwards;}.FaVLwhhy_340{stroke-dasharray:75 77;stroke-dashoffset:76;animation:FaVLwhhy_draw 3333ms linear 1661ms forwards;}.FaVLwhhy_341{stroke-dasharray:19 21;stroke-dashoffset:20;animation:FaVLwhhy_draw 3333ms linear 1666ms forwards;}@keyframes FaVLwhhy_draw{100%{stroke-dashoffset:0;}}@keyframes FaVLwhhy_fade{0%{stroke-opacity:1;}95.65217391304348%{stroke-opacity:1;}100%{stroke-opacity:0;}}</style></svg>