<svg xmlns="http://www.w3.org/2000/svg" xmlns:xlink="http://www.w3.org/1999/xlink" viewBox="0 0 372.96 646.77"><defs><style>.cls-1{mask:url(#mask);filter:url(#luminosity-noclip-2);}.cls-2{mix-blend-mode:multiply;fill:url(#åçûìßííûé_ãğàäèåíò_2);}.cls-15,.cls-18,.cls-3,.cls-30,.cls-31,.cls-7,.cls-8,.cls-9{fill:#fff;}.cls-12,.cls-15,.cls-17,.cls-18,.cls-3,.cls-4,.cls-5,.cls-6,.cls-7,.cls-8{stroke:#282828;stroke-linecap:round;stroke-linejoin:round;}.cls-12,.cls-15,.cls-3,.cls-6,.cls-8{stroke-width:0.5px;}.cls-12,.cls-4,.cls-5{fill:none;}.cls-5{stroke-dasharray:4;}.cls-11,.cls-16,.cls-17,.cls-6{fill:#f4f4f4;}.cls-8{opacity:0.34;}.cls-10{clip-path:url(#clip-path);}.cls-11,.cls-14,.cls-24{opacity:0.47;}.cls-13{clip-path:url(#clip-path-2);}.cls-14,.cls-25{fill:#dbdbdb;}.cls-15{opacity:0.5;}.cls-17,.cls-18{stroke-width:0.3px;}.cls-19{clip-path:url(#clip-path-3);}.cls-20{clip-path:url(#clip-path-4);}.cls-21{clip-path:url(#clip-path-5);}.cls-22{clip-path:url(#clip-path-6);}.cls-23{clip-path:url(#clip-path-7);}.cls-26{clip-path:url(#clip-path-8);}.cls-27{clip-path:url(#clip-path-9);}.cls-28{mask:url(#mask-2);}.cls-29{fill:#282828;}.cls-30{fill-rule:evenodd;}.cls-31{font-size:11.67px;font-family:OpenSans-Bold, Open Sans;font-weight:700;}.cls-32{filter:url(#luminosity-noclip);}</style><filter id="luminosity-noclip" x="277.26" y="-3596.48" width="9.08" height="32766" filterUnits="userSpaceOnUse" color-interpolation-filters="sRGB"><feFlood flood-color="#fff" result="bg"/><feBlend in="SourceGraphic" in2="bg"/></filter><mask id="mask" x="277.26" y="-3596.48" width="9.08" height="32766" maskUnits="userSpaceOnUse"><g class="cls-32"/></mask><linearGradient id="åçûìßííûé_ãğàäèåíò_2" x1="279.54" y1="193.03" x2="285.9" y2="199.24" gradientUnits="userSpaceOnUse"><stop offset="0" stop-color="#fff"/><stop offset="0.18" stop-color="#cacaca"/><stop offset="0.48" stop-color="#747474"/><stop offset="0.73" stop-color="#363636"/><stop offset="0.91" stop-color="#0f0f0f"/><stop offset="1"/></linearGradient><clipPath id="clip-path"><rect class="cls-3" x="37.4" y="136.36" width="27.95" height="48.67"/></clipPath><clipPath id="clip-path-2"><polygon class="cls-3" points="90.75 259.37 58.24 259.36 58.24 293.73 71.43 293.74 71.43 315.28 102.89 315.28 102.89 315.28 121.12 315.28 121.12 238.87 90.75 238.87 90.75 259.37"/></clipPath><clipPath id="clip-path-3"><polygon class="cls-3" points="35.05 455.65 34.99 455.88 34.5 455.77 34.38 455.74 33.46 455.53 32.37 455.29 32.25 455.26 32.1 455.23 31.35 455.06 30.39 454.84 30.61 453.87 30.76 453.19 31.07 451.82 31.09 451.76 31.23 451.09 31.89 451.24 32.28 451.32 32.46 451.36 32.46 451.36 34.74 451.88 34.8 451.89 35.84 452.13 35.53 453.52 35.52 453.57 35.05 455.65"/></clipPath><clipPath id="clip-path-4"><polygon class="cls-3" points="51.51 499.15 51.43 498.93 51.91 498.76 52.03 498.72 52.91 498.41 53.97 498.04 54.08 498 54.22 497.95 54.95 497.69 55.88 497.37 56.21 498.31 56.44 498.96 56.91 500.29 56.93 500.35 57.16 501 56.52 501.22 56.15 501.35 55.97 501.41 55.97 501.41 53.77 502.18 53.7 502.21 52.7 502.56 52.23 501.21 52.21 501.16 51.51 499.15"/></clipPath><clipPath id="clip-path-5"><polygon class="cls-3" points="53.48 465.16 53.35 465.36 52.92 465.1 52.81 465.03 52.01 464.54 51.06 463.95 47.8 461.94 47.67 461.86 47.01 461.45 46.17 460.94 46.69 460.09 47.05 459.5 47.8 458.3 47.83 458.25 48.19 457.66 48.76 458.02 49.1 458.23 49.26 458.32 49.26 458.32 54.4 461.5 54.46 461.53 55.37 462.09 54.62 463.31 54.59 463.35 53.48 465.16"/></clipPath><clipPath id="clip-path-6"><polygon class="cls-3" points="28.05 499.24 28.11 499.01 28.6 499.13 28.72 499.16 29.64 499.39 30.72 499.66 34.44 500.57 34.58 500.61 35.34 500.8 36.29 501.03 36.05 502 35.89 502.67 35.55 504.04 35.53 504.1 35.37 504.77 34.71 504.6 34.33 504.51 34.15 504.47 34.15 504.47 28.28 503.01 28.22 503 27.18 502.74 27.53 501.36 27.54 501.3 28.05 499.24"/></clipPath><clipPath id="clip-path-7"><rect class="cls-3" x="283.59" y="532.66" width="64.2" height="81.42"/></clipPath><clipPath id="clip-path-8"><rect class="cls-3" x="271.31" y="151.46" width="51.6" height="51.6"/></clipPath><clipPath id="clip-path-9"><rect class="cls-3" x="301.24" y="146.41" width="26.17" height="26.08"/></clipPath><filter id="luminosity-noclip-2" x="277.26" y="191.59" width="9.08" height="8.09" filterUnits="userSpaceOnUse" color-interpolation-filters="sRGB"><feFlood flood-color="#fff" result="bg"/><feBlend in="SourceGraphic" in2="bg"/></filter><mask id="mask-2" x="277.26" y="191.59" width="9.08" height="8.09" maskUnits="userSpaceOnUse"><g class="cls-1"><polygon class="cls-2" points="277.26 194.47 282.27 199.68 286.34 195.69 280.51 191.59 277.26 194.47"/></g></mask></defs><title>Asset 6</title><g id="Layer_2" data-name="Layer 2"><g id="Layer_1-2" data-name="Layer 1"><rect class="cls-4" x="1.01" y="0.5" width="371.07" height="645.77"/><line class="cls-4" x1="198.59" y1="19.34" x2="198.59" y2="0.5"/><line class="cls-4" x1="174.5" y1="19.34" x2="174.5" y2="0.5"/><line class="cls-5" x1="186.55" y1="146.41" x2="186.55" y2="625.09"/><path class="cls-4" d="M.5,625.4H111.62c41.34,0,38.67-40,38.67-40V296.06h0V164.78c0-26.15-10.71-38.31-10.71-38.31l-.2-.32a64.24,64.24,0,1,1,96.31-2.33l-2.35,2.64s-10.7,12.16-10.7,38.31V585.4s-2.67,40,38.67,40H372.46"/><line class="cls-4" x1="372.08" y1="128.55" x2="231.86" y2="128.55"/><line class="cls-4" x1="141.33" y1="128.55" x2="1.01" y2="128.55"/><line class="cls-4" x1="372.08" y1="228.06" x2="222.68" y2="228.06"/><line class="cls-4" x1="150.33" y1="228.06" x2="1.01" y2="228.06"/><line class="cls-4" x1="372.08" y1="327.57" x2="222.68" y2="327.57"/><line class="cls-4" x1="150.33" y1="327.57" x2="1.01" y2="327.57"/><line class="cls-4" x1="372.08" y1="427.08" x2="222.68" y2="427.08"/><line class="cls-4" x1="150.33" y1="427.08" x2="1.01" y2="427.08"/><line class="cls-4" x1="372.08" y1="526.59" x2="222.68" y2="526.59"/><line class="cls-4" x1="150.33" y1="526.59" x2="1.01" y2="526.59"/><rect class="cls-3" x="284.45" y="438.37" width="63.12" height="77.96"/><rect class="cls-6" x="316.19" y="438.37" width="31.74" height="77.96" transform="translate(664.12 954.7) rotate(180)"/><polygon class="cls-3" points="284.45 516.33 285.12 515.75 286.41 514.63 287.22 513.92 290.71 510.9 291.41 510.29 293.65 508.35 294.46 507.64 296.99 505.44 297.69 504.84 300.89 502.06 301.69 501.36 303.27 499.99 303.98 499.38 308.12 495.78 308.94 495.07 309.56 494.54 310.26 493.93 315.37 489.49 315.85 489.08 316.18 488.79 316.19 488.78 316.19 488.79 316.44 489 316.54 489.1 317 489.49 322.12 493.93 322.83 494.55 323.44 495.07 324.25 495.78 328.41 499.4 329.11 500 330.68 501.36 331.49 502.06 334.69 504.84 335.4 505.46 337.91 507.64 338.73 508.35 340.98 510.3 341.68 510.92 345.15 513.92 345.96 514.63 347.27 515.76 347.56 516.01 347.92 516.33 284.45 516.33"/><polygon class="cls-3" points="347.27 516.33 347.27 515.76 347.93 516.33 347.27 516.33"/><polygon class="cls-3" points="284.45 516.33 285.12 515.75 285.12 516.33 284.45 516.33"/><polygon class="cls-3" points="268.8 490.33 268.8 438.38 307.4 438.38 307.4 464.36 306.98 464.84 306.65 465.2 306.04 465.9 301.1 471.48 300.48 472.18 295.54 477.77 294.92 478.47 289.98 484.05 289.36 484.75 284.42 490.33 268.8 490.33"/><polygon class="cls-6" points="268.8 490.33 268.8 438.69 269.27 439.24 273.22 443.79 273.72 444.36 277.65 448.89 278.14 449.46 282.1 454.01 282.6 454.58 286.53 459.12 287.03 459.7 290.98 464.24 291.21 464.52 291 464.77 290.96 464.81 287.02 469.34 286.52 469.93 282.58 474.47 282.09 475.03 278.14 479.58 277.65 480.16 273.71 484.69 273.2 485.26 269.26 489.81 268.81 490.33 268.8 490.33"/><polygon class="cls-3" points="268.8 489.81 269.26 489.81 268.8 490.34 268.8 489.81"/><polygon class="cls-3" points="268.8 439.24 268.8 438.69 269.27 439.24 268.8 439.24"/><polygon class="cls-6" points="268.8 490.34 272.1 486.54 272.79 485.74 278.38 479.31 279.08 478.49 284.66 472.07 285.37 471.25 290.95 464.82 291.21 464.52 297.93 464.52 303.52 464.52 307.4 464.52 304.21 468.11 303.52 468.89 297.93 475.16 297.23 475.95 291.65 482.22 290.95 483.01 285.37 489.28 284.66 490.07 284.42 490.34 268.8 490.34"/><rect class="cls-3" x="308.69" y="472.05" width="4.25" height="7.76" transform="translate(621.62 951.85) rotate(180)"/><path class="cls-3" d="M261.74,590.84a5.47,5.47,0,1,0-10.9.65,3.63,3.63,0,0,0-4.69,5.52s0,0,.07.07a4,4,0,0,0-2.1,1.13A4.06,4.06,0,0,0,248,605a8.6,8.6,0,0,0,3.84,3.65A5.87,5.87,0,1,0,263,609.87a6,6,0,0,0,5.16-10.13,6,6,0,0,0-2.62-1.52,4.44,4.44,0,0,0-3.81-7.38Z"/><path class="cls-7" d="M125.29,15.48a4.24,4.24,0,0,0-2.83,7.32A4.18,4.18,0,0,0,126,23.89a2.81,2.81,0,0,0,4.36,3.51l.05-.06a3.18,3.18,0,0,0,.92,1.6,3.13,3.13,0,0,0,5.17-3.12,6.67,6.67,0,0,0,2.74-3.05,4.53,4.53,0,1,0,.7-8.66A4.61,4.61,0,0,0,132,10.34a4.71,4.71,0,0,0-1.12,2.05,3.43,3.43,0,0,0-5.62,3.09Z"/><path class="cls-3" d="M238.16,201.14a4.24,4.24,0,0,0-2.83,7.32,4.18,4.18,0,0,0,3.56,1.09,2.81,2.81,0,0,0,4.36,3.51l.05-.06a3.18,3.18,0,0,0,.92,1.6,3.13,3.13,0,0,0,5.17-3.12,6.67,6.67,0,0,0,2.74-3,4.53,4.53,0,1,0,.7-8.66A4.61,4.61,0,0,0,244.9,196a4.71,4.71,0,0,0-1.12,2.05,3.43,3.43,0,0,0-5.62,3.09Z"/><path class="cls-3" d="M111.77,541.34a4.23,4.23,0,1,0-7.37,4.1,2.8,2.8,0,0,0-1.42,5.41l.07,0a3.18,3.18,0,0,0-1.09,1.49,3.14,3.14,0,0,0,5,3.45,6.57,6.57,0,0,0,3.89,1.25,4.53,4.53,0,1,0,8.2-2.89,4.61,4.61,0,0,0,.2-8.78,4.54,4.54,0,0,0-2.33-.18,3.44,3.44,0,0,0-5.12-3.87Z"/><path class="cls-3" d="M244.43,507.18a4.24,4.24,0,0,0-2.84,7.32,4.2,4.2,0,0,0,3.57,1.09,2.81,2.81,0,0,0,4.36,3.51l0-.06a3.09,3.09,0,0,0,.91,1.6,3.14,3.14,0,0,0,5.18-3.12,7.12,7.12,0,0,0,1.51-1.2,6.9,6.9,0,0,0,1.22-1.85,4.53,4.53,0,1,0,.71-8.66,4.61,4.61,0,0,0-7.93-3.77,4.52,4.52,0,0,0-1.12,2,3.43,3.43,0,0,0-5.62,3.09Z"/><path class="cls-3" d="M7.72,437.81a4.23,4.23,0,1,0,.73,8.4,2.81,2.81,0,0,0,4.36,3.51l0-.06a3.18,3.18,0,0,0,.92,1.6A3.13,3.13,0,0,0,19,448.14a6.67,6.67,0,0,0,2.74-3.05,4.53,4.53,0,1,0,.7-8.66,4.61,4.61,0,0,0-7.93-3.77,4.71,4.71,0,0,0-1.12,2,3.44,3.44,0,0,0-5.62,3.1Z"/><path class="cls-3" d="M40.68,402.84a4.24,4.24,0,0,0-2.84,7.32,4.2,4.2,0,0,0,3.57,1.09,2.81,2.81,0,0,0,4.36,3.51l0-.06a3.09,3.09,0,0,0,.91,1.6,3.14,3.14,0,0,0,5.18-3.12,7.12,7.12,0,0,0,1.51-1.2,6.9,6.9,0,0,0,1.22-1.85,4.53,4.53,0,1,0,.7-8.66,4.61,4.61,0,0,0-9-1.72,3.45,3.45,0,0,0-4.73.27A3.41,3.41,0,0,0,40.68,402.84Z"/><path class="cls-3" d="M258.32,407a9.51,9.51,0,0,0-18.95-1.13h-.08a5.31,5.31,0,0,0-.44,10.61v.05a7.86,7.86,0,1,0,15.72,0,8.21,8.21,0,0,0-.21-1.8A9.52,9.52,0,0,0,258.32,407Z"/><path class="cls-3" d="M26.7,394.18a5.43,5.43,0,0,0-9.81-4.61l0,0a3,3,0,0,0-2.47,5.53v0a4.49,4.49,0,1,0,8.33,3.33,4.64,4.64,0,0,0,.27-1A5.43,5.43,0,0,0,26.7,394.18Z"/><path class="cls-3" d="M256.65,22.11a5.06,5.06,0,1,0-4.93-8.81,3.36,3.36,0,0,0-6.48-1.68s0,.06,0,.09a3.7,3.7,0,0,0-1.79-1.3,3.75,3.75,0,0,0-4.1,5.95,8.12,8.12,0,0,0-1.06,2.05,8,8,0,0,0-.43,2.61,5.42,5.42,0,1,0,3.49,9.8,5.51,5.51,0,0,0,10.5.22,5.57,5.57,0,0,0,.21-2.79,4.11,4.11,0,0,0,4.61-6.14Z"/><path class="cls-3" d="M253.79,455.93a5.06,5.06,0,1,0-4.93-8.81,3.35,3.35,0,0,0-6.47-1.68l0,.09a3.75,3.75,0,1,0-5.89,4.65,8,8,0,0,0-1.06,2.06,8.16,8.16,0,0,0-.43,2.61,5.42,5.42,0,1,0,3.49,9.79,5.51,5.51,0,0,0,10.5.22,5.45,5.45,0,0,0,.21-2.79,4.11,4.11,0,0,0,4.61-6.14Z"/><path class="cls-3" d="M139.84,588.11a5.06,5.06,0,1,0-4.93-8.81,3.36,3.36,0,0,0-6.48-1.68s0,.06,0,.09a3.7,3.7,0,0,0-1.79-1.3,3.75,3.75,0,0,0-4.1,6,8.12,8.12,0,0,0-1.06,2A8,8,0,0,0,121,587a5.42,5.42,0,1,0,3.49,9.8A5.51,5.51,0,0,0,135,597a5.57,5.57,0,0,0,.21-2.79,4.11,4.11,0,0,0,4.61-6.14Z"/><rect class="cls-6" x="34.01" y="24.55" width="49.16" height="81.52"/><rect class="cls-3" x="33.73" y="24.55" width="24.72" height="81.52"/><polygon class="cls-6" points="113.4 24.55 113.4 54.06 77.81 54.06 77.36 53.72 76.81 53.3 72.46 49.98 71.92 49.57 67.57 46.26 67.03 45.84 62.68 42.53 62.13 42.11 58.45 39.31 62.13 36.51 62.68 36.09 67.03 32.78 67.57 32.36 71.92 29.04 72.46 28.63 76.81 25.32 77.36 24.9 77.81 24.55 113.4 24.55"/><polygon class="cls-3" points="113.4 24.55 113.4 39.31 58.45 39.31 62.13 36.51 62.68 36.09 67.03 32.78 67.57 32.36 71.92 29.04 72.46 28.63 76.81 25.32 77.36 24.9 77.81 24.55 113.4 24.55"/><polygon class="cls-8" points="66.76 185.4 66.76 198.03 89.68 220.78 89.68 162.65 66.76 185.4"/><rect class="cls-9" x="37.4" y="136.36" width="27.95" height="48.67"/><g class="cls-10"><polygon class="cls-11" points="43.84 162.65 41.43 165.31 41.43 185.03 43.84 185.03 43.84 162.65"/></g><rect class="cls-12" x="37.4" y="136.36" width="27.95" height="48.67"/><rect class="cls-3" x="37.4" y="184.8" width="27.92" height="0.23"/><rect class="cls-3" x="43.84" y="162.65" width="45.84" height="58.13"/><polygon class="cls-6" points="66.76 185.4 65.08 183.72 64.71 183.36 61.81 180.48 61.44 180.12 58.55 177.24 58.18 176.87 55.28 174 54.91 173.63 52.01 170.75 51.65 170.39 48.74 167.51 48.37 167.14 45.47 164.26 45.11 163.91 43.84 162.65 89.68 162.65 87.95 164.37 87.58 164.74 84.68 167.61 84.31 167.98 81.41 170.85 81.05 171.22 78.15 174.1 77.78 174.46 74.88 177.34 74.51 177.7 71.61 180.58 71.25 180.94 68.34 183.83 67.98 184.19 66.76 185.4"/><polygon class="cls-6" points="66.76 198.03 68.45 199.71 68.82 200.07 71.72 202.95 72.08 203.31 74.98 206.19 75.35 206.56 78.25 209.43 78.61 209.79 81.52 212.68 81.88 213.04 84.78 215.92 85.15 216.29 88.05 219.16 88.41 219.52 89.68 220.78 43.84 220.78 45.58 219.06 45.95 218.69 48.85 215.81 49.21 215.45 52.11 212.57 52.48 212.21 55.38 209.33 55.75 208.97 58.65 206.09 59.01 205.73 61.92 202.84 62.28 202.49 65.18 199.6 65.55 199.24 66.76 198.03"/><polygon class="cls-6" points="96.65 200.33 89.64 200.33 86.34 197.97 85.82 197.61 81.75 194.7 81.24 194.34 77.96 192 78.76 191.44 79.26 191.08 83.33 188.17 83.85 187.81 87.92 184.91 88.44 184.54 89.64 183.68 96.65 183.68 96.65 200.33"/><polygon class="cls-3" points="96.65 192 77.96 192 78.76 191.44 79.26 191.08 83.33 188.17 83.85 187.81 87.92 184.91 88.44 184.54 89.64 183.68 96.65 183.68 96.65 192"/><polygon class="cls-3" points="94.31 192 96.65 188.14 96.65 195.58 94.31 192"/><line class="cls-3" x1="66.76" y1="185.39" x2="66.76" y2="198.03"/><polygon class="cls-3" points="88.89 257.64 56.54 257.64 56.54 295.4 69.67 295.4 69.67 317.35 103.61 317.35 103.61 317.35 122.82 317.35 122.82 236.8 88.89 236.8 88.89 257.64"/><polygon class="cls-9" points="90.75 259.37 58.24 259.36 58.24 293.73 71.43 293.74 71.43 315.28 102.89 315.28 102.89 315.28 121.12 315.28 121.12 238.87 90.75 238.87 90.75 259.37"/><g class="cls-13"><polygon class="cls-14" points="117.47 241.46 117.47 246.46 88.65 246.46 92.3 241.46 117.47 241.46"/></g><polygon class="cls-12" points="90.75 259.37 58.24 259.36 58.24 293.73 71.43 293.74 71.43 315.28 102.89 315.28 102.89 315.28 121.12 315.28 121.12 238.87 90.75 238.87 90.75 259.37"/><polygon class="cls-7" points="93.02 315.28 93.03 259.37 58.24 259.36 58.24 293.73 71.43 293.74 71.43 315.28 93.02 315.28"/><rect class="cls-3" x="61.72" y="303.59" width="21.41" height="1.98" transform="translate(-232.14 377.05) rotate(-90.01)"/><rect class="cls-3" x="58.24" y="291.89" width="15.17" height="1.98" transform="translate(131.65 585.77) rotate(180)"/><rect class="cls-3" x="72.69" y="313.3" width="20.33" height="1.98" transform="translate(165.71 628.58) rotate(-180)"/><rect class="cls-15" x="93.03" y="313.3" width="28.09" height="1.98" transform="translate(214.15 628.58) rotate(180)"/><polyline class="cls-3" points="80.79 272.78 79.09 266.57 78.41 266.83 78.41 266.83 68.9 270.24 66.24 272.68"/><polyline class="cls-3" points="80.79 272.78 77.3 274.03 75.6 269.31"/><rect class="cls-3" x="69.26" y="268.38" width="5.02" height="9.95" transform="matrix(0.34, 0.94, -0.94, 0.34, 304.59, 113.13)"/><rect class="cls-3" x="66.81" y="271.88" width="5.02" height="4.73" transform="matrix(0.34, 0.94, -0.94, 0.34, 303.8, 116.03)"/><rect class="cls-3" x="73.67" y="271.47" width="5.02" height="0.59" transform="translate(306.1 108.07) rotate(70.21)"/><polygon class="cls-3" points="71.23 270.26 71.42 270.81 75.6 269.31 75.41 268.76 71.23 270.26"/><polygon class="cls-3" points="73.13 275.54 73.33 276.09 77.5 274.58 77.3 274.03 73.13 275.54"/><polygon class="cls-3" points="82.57 273.79 81.89 274.05 81.89 274.05 72.39 277.45 69.73 279.89 82.4 275.33 84.27 279.99 82.57 273.79"/><rect class="cls-3" x="79.17" y="276.41" width="5.02" height="3.71" transform="translate(315.88 107.23) rotate(70.22)"/><rect class="cls-3" x="72.74" y="275.6" width="5.02" height="9.95" transform="translate(313.71 114.66) rotate(70.18)"/><rect class="cls-3" x="70.29" y="279.1" width="5.02" height="4.73" transform="translate(312.92 117.56) rotate(70.18)"/><rect class="cls-3" x="77.15" y="278.7" width="5.02" height="0.59" transform="translate(315.16 109.53) rotate(70.2)"/><rect class="cls-3" x="76.6" y="274.79" width="0.59" height="4.44" transform="translate(311.34 110.62) rotate(70.15)"/><rect class="cls-3" x="78.5" y="280.06" width="0.59" height="4.44" transform="translate(317.54 112.3) rotate(70.15)"/><rect class="cls-7" x="73.46" y="268.48" width="66.02" height="21.99" transform="translate(-173 385.95) rotate(-90)"/><rect class="cls-3" x="3.78" y="265.78" width="57.68" height="32.05" transform="translate(-249.18 314.42) rotate(-90)"/><rect class="cls-3" x="5.4" y="267.21" width="54.45" height="29.2" transform="translate(-249.18 314.43) rotate(-90)"/><polygon class="cls-14" points="18.02 254.58 18.02 305.75 18.02 305.97 18.02 309.03 47.22 309.03 47.22 305.75 21.31 305.75 21.31 254.58 18.02 254.58"/><path class="cls-3" d="M14.55,260.78h3.56l.54.08v5l-.54.08H14.55v.7h3.68l1.65-.23,2-.29h.05l.92-.13a.36.36,0,0,0,.31-.35.35.35,0,0,0-.4-.34l-.83.11v-4.1l.83.11a.35.35,0,0,0,.4-.34.36.36,0,0,0-.31-.35l-3-.42-1.65-.24H14.55Zm6.84.46v4.26l-.84.11v-4.49ZM20,261.05v4.64l-.13,0-.69.09v-4.87l.69.1Z"/><path class="cls-15" d="M19.88,261l.13,0v4.64l-.13,0v.72l2-.29h.05l.92-.13a.36.36,0,0,0,.31-.35.35.35,0,0,0-.4-.34l-.83.11v-4.1l.83.11a.35.35,0,0,0,.4-.34.36.36,0,0,0-.31-.35l-3-.42Zm1.51.21v4.26l-.84.11v-4.49Z"/><g id="car"><path class="cls-16" d="M211.69,259.72h0v0a.76.76,0,0,0,0-.15v0a.45.45,0,0,0,0-.11v-.08a2.33,2.33,0,0,0,0-.28v0h0a3.42,3.42,0,0,0-.52-1.21,7.71,7.71,0,0,0-2.57-2.31,2,2,0,0,0-.92-.23h-4.37a2,2,0,0,0-.92.23,7.71,7.71,0,0,0-2.57,2.31,3.42,3.42,0,0,0-.52,1.21,4.27,4.27,0,0,0-.07.71l.22,22.18a2.29,2.29,0,0,0,1.2,1.94l.26.13a8,8,0,0,0,1,.36,13.89,13.89,0,0,0,3.62.55A12.77,12.77,0,0,0,210,284h0l0,0h0l.27-.13a2.25,2.25,0,0,0,1.09-1.3l0,0a2.26,2.26,0,0,0,.09-.58Z"/><path class="cls-3" d="M210.53,259v0l-.22,22.17a2.22,2.22,0,0,1-1.19,1.94l-.27.13a12.77,12.77,0,0,1-4.58.91,14.08,14.08,0,0,1-3.62-.54,6.68,6.68,0,0,1-1-.37l-.26-.13a2.22,2.22,0,0,1-1.09-1.3,2.26,2.26,0,0,1-.11-.64L198,259a3.32,3.32,0,0,1,.59-1.92,7.71,7.71,0,0,1,2.57-2.31,1.85,1.85,0,0,1,.92-.23h4.37a1.85,1.85,0,0,1,.92.23,7.71,7.71,0,0,1,2.57,2.31,3.34,3.34,0,0,1,.52,1.21c0,.1,0,.2,0,.3a.19.19,0,0,1,0,.08.37.37,0,0,1,0,.11v0C210.52,258.9,210.53,259,210.53,259Z"/><path class="cls-3" d="M207.54,279.57l1.31,3.71.27-.13a2.22,2.22,0,0,0,1.19-1.94l.22-22.17a3.35,3.35,0,0,0-.07-.71l-.17-.12-1.74,4.8Z"/><path class="cls-3" d="M204.12,260.85s-3.49,0-5.28,1.74l.78,5,3.87-.47a6.63,6.63,0,0,1,1.26,0l3.87.47.78-5C207.6,260.85,204.12,260.85,204.12,260.85Z"/><path class="cls-17" d="M198.59,265.24v8.48l.95.44C199.67,266.68,198.59,265.24,198.59,265.24Z"/><polygon class="cls-17" points="199.55 274.65 198.59 274.15 198.59 274.32 199.07 280.29 199.73 278.82 199.55 274.65"/><path class="cls-17" d="M208.9,274.16l.95-.44v-8.48S208.77,266.68,208.9,274.16Z"/><polygon class="cls-17" points="208.71 278.82 209.37 280.29 209.85 274.32 209.85 274.15 208.89 274.65 208.71 278.82"/><path class="cls-3" d="M200.81,283.11l-.16.54a6.68,6.68,0,0,1-1-.37l-.26-.13a2.22,2.22,0,0,1-1.09-1.3.61.61,0,0,1,.39-.42h0l1.78,1A.6.6,0,0,1,200.81,283.11Z"/><path class="cls-3" d="M207.75,283.09l.16.54a8,8,0,0,0,1-.36l.27-.13a2.24,2.24,0,0,0,1.09-1.31.68.68,0,0,0-.39-.42h0l-1.79,1A.6.6,0,0,0,207.75,283.09Z"/><path class="cls-6" d="M200.69,280.71a8.1,8.1,0,0,0,6.66,0l.78,1.89a10.42,10.42,0,0,1-8.18,0Z"/></g><g id="car-2" data-name="car"><path class="cls-16" d="M242.16,541.68h-.41l-.29,0h0a3.18,3.18,0,0,0-1.21.52,7.66,7.66,0,0,0-2.31,2.56,1.88,1.88,0,0,0-.23.92v4.38a1.85,1.85,0,0,0,.23.92,7.66,7.66,0,0,0,2.31,2.56,3.18,3.18,0,0,0,1.21.52,3.35,3.35,0,0,0,.71.07l22.17-.22a2.25,2.25,0,0,0,.64-.1,2.22,2.22,0,0,0,1.3-1.09,2.24,2.24,0,0,0,.13-.27,6.68,6.68,0,0,0,.37-1,14,14,0,0,0,.54-3.61,12.77,12.77,0,0,0-.91-4.58h0v0h0c-.05-.09-.09-.18-.13-.27A2.21,2.21,0,0,0,265,542l0,0a1.92,1.92,0,0,0-.59-.09Z"/><path class="cls-3" d="M241.44,542.84h0l22.18.22a2.22,2.22,0,0,1,1.94,1.19c0,.09.08.18.13.27a12.77,12.77,0,0,1,.91,4.58,14,14,0,0,1-.54,3.61,10.42,10.42,0,0,1-.37,1c-.05.08-.09.18-.13.26a2.22,2.22,0,0,1-1.3,1.09,2,2,0,0,1-.64.1l-22.18.22a2.73,2.73,0,0,1-.7-.07,3,3,0,0,1-1.21-.52,7.57,7.57,0,0,1-2.32-2.56,2,2,0,0,1-.22-.92v-4.37a1.92,1.92,0,0,1,.22-.92,7.52,7.52,0,0,1,2.32-2.57,3.11,3.11,0,0,1,1.21-.52l.29,0h.38Z"/><path class="cls-3" d="M262,545.83l3.71-1.31c-.05-.09-.09-.18-.13-.27a2.22,2.22,0,0,0-1.94-1.19l-22.18-.22a3.26,3.26,0,0,0-.7.07l-.12.16,4.8,1.74Z"/><path class="cls-3" d="M243.29,549.25s0,3.48,1.74,5.28l5-.78-.47-3.87a5.31,5.31,0,0,1,0-1.26l.47-3.87-5-.78C243.29,545.77,243.29,549.25,243.29,549.25Z"/><path class="cls-17" d="M247.68,554.77h8.48l.43-.94C249.12,553.69,247.68,554.77,247.68,554.77Z"/><polygon class="cls-17" points="257.09 553.82 256.59 554.77 256.76 554.77 262.73 554.29 261.26 553.63 257.09 553.82"/><path class="cls-17" d="M256.59,544.46l-.43-.94h-8.48S249.12,544.6,256.59,544.46Z"/><polygon class="cls-17" points="261.26 544.66 262.73 544 256.76 543.52 256.59 543.52 257.09 544.48 261.26 544.66"/><path class="cls-3" d="M265.55,552.55l.54.16a10.42,10.42,0,0,1-.37,1c-.05.08-.09.18-.13.26a2.22,2.22,0,0,1-1.3,1.09.62.62,0,0,1-.43-.39,0,0,0,0,1,0,0l1-1.78A.61.61,0,0,1,265.55,552.55Z"/><path class="cls-3" d="M265.53,545.62l.54-.16a6.68,6.68,0,0,0-.37-1c0-.09-.08-.18-.13-.27a2.22,2.22,0,0,0-1.3-1.09.63.63,0,0,0-.42.39v0l1,1.78A.62.62,0,0,0,265.53,545.62Z"/><path class="cls-6" d="M263.15,552.67a8.09,8.09,0,0,0,0-6.66l1.89-.78a10.44,10.44,0,0,1,0,8.19Z"/></g><g id="car-3" data-name="car"><path class="cls-16" d="M210.88,379.93h0v-.21a.49.49,0,0,1,0-.12v-.08c0-.09,0-.19,0-.28h0a3.22,3.22,0,0,0-.52-1.22,7.66,7.66,0,0,0-2.56-2.31,2,2,0,0,0-.92-.23h-4.38a2,2,0,0,0-.92.23A7.66,7.66,0,0,0,199,378a3.22,3.22,0,0,0-.52,1.22,3.26,3.26,0,0,0-.07.7l.22,22.18a2.31,2.31,0,0,0,.1.64,2.22,2.22,0,0,0,1.09,1.3l.27.13a8,8,0,0,0,1,.36,13.79,13.79,0,0,0,3.61.55,12.77,12.77,0,0,0,4.58-.91h0a1.69,1.69,0,0,0,.27-.13,2.22,2.22,0,0,0,1.09-1.3s0,0,0,0a2.2,2.2,0,0,0,.08-.58Z"/><path class="cls-3" d="M209.72,379.21v0l-.22,22.18a2.21,2.21,0,0,1-1.19,1.93l-.27.13a12.77,12.77,0,0,1-4.58.91,14,14,0,0,1-3.61-.54,6.68,6.68,0,0,1-1-.37l-.27-.13a2.2,2.2,0,0,1-1.19-1.93l-.22-22.18a3.35,3.35,0,0,1,.07-.71,3.09,3.09,0,0,1,.52-1.21,7.66,7.66,0,0,1,2.56-2.31,2,2,0,0,1,.92-.23h4.38a2,2,0,0,1,.92.23,7.66,7.66,0,0,1,2.56,2.31,3.25,3.25,0,0,1,.52,1.21c0,.1,0,.2,0,.3s0,.05,0,.08a.41.41,0,0,0,0,.11v.18Z"/><path class="cls-3" d="M206.73,399.78l1.31,3.71.27-.13a2.21,2.21,0,0,0,1.19-1.93l.22-22.18a3.35,3.35,0,0,0-.07-.71l-.16-.12-1.74,4.8Z"/><path class="cls-3" d="M203.31,381.06s-3.48,0-5.28,1.74l.78,5,3.87-.46a5.31,5.31,0,0,1,1.26,0l3.87.46.78-5C206.79,381.06,203.31,381.06,203.31,381.06Z"/><path class="cls-18" d="M197.79,385.46v8.47l.94.44C198.87,386.9,197.79,385.46,197.79,385.46Z"/><polygon class="cls-18" points="198.75 394.86 197.79 394.37 197.79 394.53 198.27 400.5 198.93 399.03 198.75 394.86"/><path class="cls-18" d="M208.1,394.37l.94-.44v-8.47S208,386.9,208.1,394.37Z"/><polygon class="cls-18" points="207.9 399.03 208.56 400.5 209.04 394.53 209.04 394.37 208.09 394.86 207.9 399.03"/><path class="cls-3" d="M200,403.32l-.16.54a6.68,6.68,0,0,1-1-.37l-.27-.13a2.19,2.19,0,0,1-1.09-1.3.63.63,0,0,1,.39-.42h0l1.79,1A.62.62,0,0,1,200,403.32Z"/><path class="cls-3" d="M206.94,403.31l.16.54a10.22,10.22,0,0,0,1-.37l.27-.13a2.22,2.22,0,0,0,1.09-1.3.64.64,0,0,0-.39-.43h0l-1.78,1A.61.61,0,0,0,206.94,403.31Z"/><path class="cls-3" d="M199.89,400.92a8.09,8.09,0,0,0,6.66,0l.78,1.89a10.44,10.44,0,0,1-8.19,0Z"/></g><polygon class="cls-14" points="76.02 414.86 119.43 414.86 123.34 412.41 76.02 412.41 76.02 414.86"/><rect class="cls-3" x="15.35" y="341.54" width="52.85" height="35.06" transform="translate(83.55 718.14) rotate(180)"/><rect class="cls-3" x="17.06" y="343.05" width="49.4" height="32.03" transform="translate(83.52 718.14) rotate(180)"/><rect class="cls-3" x="76.02" y="341.39" width="47.32" height="71.02" transform="translate(199.37 753.8) rotate(180)"/><rect class="cls-3" x="76.02" y="341.39" width="23.66" height="71.02" transform="translate(175.71 753.8) rotate(180)"/><polygon class="cls-3" points="131.31 390.88 119.55 390.88 114 386.92 113.14 386.31 106.29 381.43 105.44 380.82 99.93 376.9 101.27 375.94 102.12 375.34 108.96 370.46 109.82 369.85 116.66 364.98 117.52 364.36 119.55 362.92 131.31 362.92 131.31 390.88"/><polygon class="cls-3" points="131.31 376.9 99.93 376.9 101.27 375.94 102.12 375.34 108.96 370.46 109.82 369.85 116.66 364.98 117.52 364.36 119.55 362.92 131.31 362.92 131.31 376.9"/><polygon class="cls-3" points="127.39 376.9 131.31 370.4 131.31 382.9 127.39 376.9"/><rect class="cls-3" x="84.1" y="351.46" width="5.18" height="4.58" transform="translate(173.39 707.5) rotate(180)"/><rect class="cls-3" x="85.16" y="352.49" width="3.07" height="2.53" transform="translate(173.39 707.5) rotate(180)"/><rect class="cls-3" x="34.94" y="371.34" width="14" height="11.74"/><rect class="cls-3" x="20.77" y="371.17" width="8.82" height="8.88"/><rect class="cls-3" x="54.47" y="371.17" width="8.82" height="8.88"/><polygon class="cls-14" points="75.05 436.96 80.91 437.56 80.91 514.87 114.56 514.87 114.56 519.36 120.9 511.53 120.9 433.94 80.91 433.94 75.05 436.96"/><rect class="cls-3" x="75.64" y="437.66" width="39.51" height="82.4"/><rect class="cls-3" x="112.87" y="437.66" width="0.55" height="82.4"/><rect class="cls-3" x="110.66" y="437.66" width="0.55" height="82.4"/><rect class="cls-3" x="108.45" y="437.66" width="0.55" height="82.4"/><rect class="cls-3" x="106.25" y="437.66" width="0.55" height="82.4"/><rect class="cls-3" x="104.04" y="437.66" width="0.55" height="82.4"/><rect class="cls-3" x="101.83" y="437.66" width="0.55" height="82.4"/><rect class="cls-3" x="99.63" y="437.66" width="0.55" height="82.4"/><rect class="cls-3" x="97.42" y="437.66" width="0.55" height="82.4"/><rect class="cls-3" x="95.22" y="437.66" width="0.55" height="82.4"/><rect class="cls-3" x="95.39" y="437.66" width="19.76" height="82.4"/><rect class="cls-3" x="115.07" y="437.66" width="0.08" height="82.4"/><polygon class="cls-3" points="115.15 520.06 75.64 520.06 77.84 518.53 80.6 516.63 82.25 515.48 84.46 513.96 85.01 513.57 87.22 512.05 88.87 510.9 91.63 509 93.28 507.85 93.84 507.47 95.39 506.39 95.49 506.46 96.04 506.85 98.25 508.37 99.9 509.52 102.11 511.04 102.66 511.42 104.32 512.57 106.52 514.09 107.07 514.48 109.28 516 110.94 517.14 113.69 519.05 115.15 520.06"/><polygon class="cls-3" points="115.15 437.66 75.64 437.66 77.84 439.18 80.6 441.09 82.25 442.23 84.46 443.76 85.01 444.14 87.22 445.66 88.87 446.81 91.63 448.71 93.28 449.86 93.84 450.24 95.39 451.32 95.49 451.25 96.04 450.87 98.25 449.34 99.9 448.2 102.11 446.67 102.66 446.29 104.32 445.15 106.52 443.62 107.07 443.24 109.28 441.71 110.94 440.57 113.69 438.67 115.15 437.66"/><path class="cls-3" d="M55.53,472.29a1.69,1.69,0,0,1-1.9.4A1,1,0,0,1,54.82,471C55.32,471.38,55.85,471.81,55.53,472.29Z"/><path class="cls-3" d="M37.38,497.63a1.52,1.52,0,0,1,.79-1.58.86.86,0,0,1,1.1.64.87.87,0,0,1-.6,1.14C38.15,498,37.54,498.13,37.38,497.63Z"/><path class="cls-3" d="M51.38,472.71a2.45,2.45,0,0,1-2.62,0,1.33,1.33,0,0,1,0-1.87,1.51,1.51,0,0,1,2,.18C51.32,471.57,51.87,472.2,51.38,472.71Z"/><path class="cls-3" d="M35.75,465.07a1.89,1.89,0,0,1-2.14.46A1.14,1.14,0,0,1,35,463.68C35.51,464.06,36.11,464.54,35.75,465.07Z"/><path class="cls-3" d="M33.92,462.27a1.53,1.53,0,0,1-.7-1.63.92.92,0,0,1,1.68.76C34.69,461.92,34.4,462.46,33.92,462.27Z"/><path class="cls-3" d="M28,464.2a1.53,1.53,0,0,1-1.62.73.93.93,0,0,1,.74-1.7C27.67,463.44,28.22,463.71,28,464.2Z"/><path class="cls-3" d="M29,463.46a2.63,2.63,0,0,1,2.18-1.73,1.42,1.42,0,0,1,1.17,1.6,1.61,1.61,0,0,1-1.79,1.14C29.83,464.38,29,464.2,29,463.46Z"/><path class="cls-3" d="M40.67,465.36A1.69,1.69,0,0,1,38.91,467c-1,0-2.16-1.83-2.16-2.72s1-.63,2-.63A2,2,0,0,1,40.67,465.36Z"/><path class="cls-3" d="M24.77,464.17a1.54,1.54,0,0,1-.46,1.75.95.95,0,0,1-.87-1.68C23.93,464,24.51,463.7,24.77,464.17Z"/><path class="cls-3" d="M21.84,464.31a1.26,1.26,0,0,1-1.47-.08.77.77,0,0,1,1.19-1C21.87,463.61,22.17,464,21.84,464.31Z"/><path class="cls-3" d="M20.49,469.55a1.25,1.25,0,0,1-.07,1.47.71.71,0,0,1-1.05-.12.72.72,0,0,1,.08-1.06C19.79,469.53,20.2,469.22,20.49,469.55Z"/><path class="cls-3" d="M21.15,468a2.14,2.14,0,0,1-.47-2.26,1.17,1.17,0,0,1,1.62-.28,1.34,1.34,0,0,1,.17,1.76C22.12,467.78,21.67,468.35,21.15,468Z"/><path class="cls-3" d="M25.34,460.33a1.4,1.4,0,0,1,.54,1.91c-.36.72-2.16.92-2.83.58s-.1-1,.27-1.69A1.64,1.64,0,0,1,25.34,460.33Z"/><path class="cls-3" d="M32.3,495.32a1.9,1.9,0,0,1-2.14.45,1.14,1.14,0,0,1,1.34-1.85C32.07,494.3,32.66,494.78,32.3,495.32Z"/><path class="cls-3" d="M32.06,492.84a1.55,1.55,0,0,1-.71-1.63.86.86,0,0,1,1.21-.42A.85.85,0,0,1,33,492C32.83,492.49,32.54,493,32.06,492.84Z"/><path class="cls-3" d="M28.89,489a1.53,1.53,0,0,1-1.62.73A.93.93,0,0,1,28,488C28.52,488.18,29.08,488.46,28.89,489Z"/><path class="cls-3" d="M27.12,491.7A2.58,2.58,0,0,1,29.3,490a1.41,1.41,0,0,1,1.17,1.59,1.6,1.6,0,0,1-1.79,1.14C27.9,492.61,27,492.44,27.12,491.7Z"/><path class="cls-3" d="M37.35,494.38A1.7,1.7,0,0,1,35.58,496c-1,0-2.15-1.83-2.15-2.72s1-.63,2-.63A2,2,0,0,1,37.35,494.38Z"/><path class="cls-3" d="M18.59,486.59a1.16,1.16,0,0,1,1.28-.5.72.72,0,0,1-.64,1.28C18.84,487.2,18.42,487,18.59,486.59Z"/><path class="cls-3" d="M23.9,488.9a1.53,1.53,0,0,1,1.47-1,.93.93,0,0,1-.44,1.8C24.39,489.6,23.8,489.42,23.9,488.9Z"/><path class="cls-3" d="M22.47,485.46a2.08,2.08,0,0,1,1.19,1.92,1.16,1.16,0,0,1-1.4.8,1.31,1.31,0,0,1-.75-1.56C21.66,486,21.88,485.32,22.47,485.46Z"/><path class="cls-3" d="M15.72,484a1.69,1.69,0,0,1,1.46-1.89c1-.17,2.44,1.44,2.59,2.32s-.86.79-1.82,1A2,2,0,0,1,15.72,484Z"/><path class="cls-3" d="M16.14,470.6a1.18,1.18,0,0,1,.66,1.2.67.67,0,0,1-.9.42.68.68,0,0,1-.46-.89C15.57,470.92,15.75,470.48,16.14,470.6Z"/><path class="cls-3" d="M18.46,473.77a1.51,1.51,0,0,1-1.35,1.14.92.92,0,0,1,.24-1.83C17.9,473.13,18.51,473.25,18.46,473.77Z"/><path class="cls-3" d="M15,479.08a1.51,1.51,0,0,1,1.16,1.34.92.92,0,0,1-1.83-.23C14.32,479.64,14.43,479,15,479.08Z"/><path class="cls-3" d="M17.13,476.42a2.12,2.12,0,0,1-1.77,1.41,1.13,1.13,0,0,1-1-1.29,1.3,1.3,0,0,1,1.45-.93C16.49,475.67,17.19,475.82,17.13,476.42Z"/><path class="cls-3" d="M17.52,466.47a1.69,1.69,0,0,1,2.06,1.22c.28.93-1.13,2.59-2,2.85s-.88-.76-1.17-1.7A2,2,0,0,1,17.52,466.47Z"/><path class="cls-3" d="M62.67,478.75a4.62,4.62,0,0,1-.07.73,9.1,9.1,0,0,1-2.06,4.21c-4.16,5.09-4.39,4.54-8.66,8s-6.68,7.72-14.79.92-23-8.73-18.53-16.63c4.23-7.52,6.06-15,18.75-7.62a.2.2,0,0,0,.08,0c.63.37,1.28.78,2,1.23,7.25,4.69,12.19,4.92,15.52,4.46.34,0,.67-.09,1-.15.84-.16,1.55-.34,2.16-.46a3,3,0,0,1,.73,0,3.73,3.73,0,0,1,1.86.71A5.25,5.25,0,0,1,62.67,478.75Z"/><polygon class="cls-3" points="36.96 451.39 35.83 456.38 34.93 456.17 34.99 455.88 30.39 454.84 30.32 455.13 29.37 454.92 30.49 449.93 36.96 451.39"/><polygon class="cls-9" points="35.05 455.65 34.99 455.88 34.5 455.77 34.38 455.74 33.46 455.53 32.37 455.29 32.25 455.26 32.1 455.23 31.35 455.06 30.39 454.84 30.61 453.87 30.76 453.19 31.07 451.82 31.09 451.76 31.23 451.09 31.89 451.24 32.28 451.32 32.46 451.36 32.46 451.36 34.74 451.88 34.8 451.89 35.84 452.13 35.53 453.52 35.52 453.57 35.05 455.65"/><g class="cls-19"><polygon class="cls-14" points="30.39 454.83 31.12 451.61 31.12 451.61 31.24 451.08 35.84 452.13 35.72 452.66 31.65 451.73 30.91 454.95 30.39 454.83"/></g><polygon class="cls-12" points="35.05 455.65 34.99 455.88 34.5 455.77 34.38 455.74 33.46 455.53 32.37 455.29 32.25 455.26 32.1 455.23 31.35 455.06 30.39 454.84 30.61 453.87 30.76 453.19 31.07 451.82 31.09 451.76 31.23 451.09 31.89 451.24 32.28 451.32 32.46 451.36 32.46 451.36 34.74 451.88 34.8 451.89 35.84 452.13 35.53 453.52 35.52 453.57 35.05 455.65"/><polygon class="cls-3" points="52.14 503.78 50.45 498.95 51.33 498.64 51.43 498.93 55.88 497.37 55.78 497.08 56.71 496.76 58.4 501.58 52.14 503.78"/><polygon class="cls-9" points="51.51 499.15 51.43 498.93 51.91 498.76 52.03 498.72 52.91 498.41 53.97 498.04 54.08 498 54.22 497.95 54.95 497.69 55.88 497.37 56.21 498.31 56.44 498.96 56.91 500.29 56.93 500.35 57.16 501 56.52 501.22 56.15 501.35 55.97 501.41 55.97 501.41 53.77 502.18 53.7 502.21 52.7 502.56 52.23 501.21 52.21 501.16 51.51 499.15"/><g class="cls-20"><polygon class="cls-14" points="55.89 497.37 56.98 500.49 56.98 500.49 57.15 501 52.7 502.56 52.52 502.04 56.46 500.67 55.38 497.55 55.89 497.37"/></g><polygon class="cls-12" points="51.51 499.15 51.43 498.93 51.91 498.76 52.03 498.72 52.91 498.41 53.97 498.04 54.08 498 54.22 497.95 54.95 497.69 55.88 497.37 56.21 498.31 56.44 498.96 56.91 500.29 56.93 500.35 57.16 501 56.52 501.22 56.15 501.35 55.97 501.41 55.97 501.41 53.77 502.18 53.7 502.21 52.7 502.56 52.23 501.21 52.21 501.16 51.51 499.15"/><polygon class="cls-3" points="56.66 461.75 53.98 466.11 53.19 465.62 53.35 465.36 46.17 460.94 46.02 461.19 45.18 460.68 47.86 456.33 56.66 461.75"/><polygon class="cls-9" points="53.48 465.16 53.35 465.36 52.92 465.1 52.81 465.03 52.01 464.54 51.06 463.95 47.8 461.94 47.67 461.86 47.01 461.45 46.17 460.94 46.69 460.09 47.05 459.5 47.8 458.3 47.83 458.25 48.19 457.66 48.76 458.02 49.1 458.23 49.26 458.32 49.26 458.32 54.4 461.5 54.46 461.53 55.37 462.09 54.62 463.31 54.59 463.35 53.48 465.16"/><g class="cls-21"><polygon class="cls-14" points="46.17 460.93 47.91 458.12 47.91 458.12 48.19 457.66 55.37 462.09 55.08 462.55 48.37 458.41 46.63 461.22 46.17 460.93"/></g><polygon class="cls-12" points="53.48 465.16 53.35 465.36 52.92 465.1 52.81 465.03 52.01 464.54 51.06 463.95 47.8 461.94 47.67 461.86 47.01 461.45 46.17 460.94 46.69 460.09 47.05 459.5 47.8 458.3 47.83 458.25 48.19 457.66 48.76 458.02 49.1 458.23 49.26 458.32 49.26 458.32 54.4 461.5 54.46 461.53 55.37 462.09 54.62 463.31 54.59 463.35 53.48 465.16"/><polygon class="cls-3" points="26.05 503.46 27.28 498.49 28.18 498.72 28.11 499.01 36.29 501.03 36.36 500.74 37.32 500.98 36.09 505.94 26.05 503.46"/><polygon class="cls-9" points="28.05 499.24 28.11 499.01 28.6 499.13 28.72 499.16 29.64 499.39 30.72 499.66 34.44 500.57 34.58 500.61 35.34 500.8 36.29 501.03 36.05 502 35.89 502.67 35.55 504.04 35.53 504.1 35.37 504.77 34.71 504.6 34.33 504.51 34.15 504.47 34.15 504.47 28.28 503.01 28.22 503 27.18 502.74 27.53 501.36 27.54 501.3 28.05 499.24"/><g class="cls-22"><polygon class="cls-14" points="36.29 501.04 35.49 504.25 35.49 504.25 35.36 504.77 27.18 502.74 27.31 502.21 34.97 504.11 35.77 500.91 36.29 501.04"/></g><polygon class="cls-12" points="28.05 499.24 28.11 499.01 28.6 499.13 28.72 499.16 29.64 499.39 30.72 499.66 34.44 500.57 34.58 500.61 35.34 500.8 36.29 501.03 36.05 502 35.89 502.67 35.55 504.04 35.53 504.1 35.37 504.77 34.71 504.6 34.33 504.51 34.15 504.47 34.15 504.47 28.28 503.01 28.22 503 27.18 502.74 27.53 501.36 27.54 501.3 28.05 499.24"/><rect class="cls-3" x="38.78" y="533.91" width="49.16" height="81.52"/><rect class="cls-6" x="38.5" y="533.9" width="24.72" height="81.52"/><polygon class="cls-3" points="87.94 533.9 87.42 534.36 86.42 535.23 85.79 535.78 83.07 538.13 82.52 538.61 80.78 540.12 80.15 540.67 78.18 542.38 77.64 542.85 75.14 545.02 74.51 545.57 73.28 546.63 72.73 547.11 69.51 549.91 68.87 550.46 68.39 550.88 67.84 551.36 63.85 554.81 63.49 555.13 63.23 555.36 63.22 555.36 63.22 555.36 63.03 555.19 62.95 555.12 62.59 554.81 58.6 551.35 58.05 550.87 57.58 550.46 56.95 549.91 53.7 547.09 53.16 546.63 51.94 545.57 51.3 545.02 48.81 542.85 48.26 542.37 46.3 540.67 45.66 540.12 43.91 538.6 43.36 538.12 40.66 535.78 40.03 535.23 39.01 534.35 38.78 534.15 38.5 533.9 87.94 533.9"/><polygon class="cls-3" points="39.01 533.9 39.01 534.34 38.5 533.9 39.01 533.9"/><polygon class="cls-3" points="87.94 533.9 87.42 534.36 87.42 533.9 87.94 533.9"/><polygon class="cls-6" points="100.14 574.94 100.14 615.42 70.07 615.42 70.07 595.18 70.4 594.81 70.65 594.52 71.13 593.98 74.97 589.63 75.46 589.08 79.31 584.73 79.79 584.19 83.64 579.84 84.12 579.29 87.97 574.94 100.14 574.94"/><polygon class="cls-3" points="100.14 574.94 100.14 615.18 99.77 614.75 96.69 611.21 96.31 610.76 93.24 607.23 92.86 606.79 89.78 603.24 89.39 602.79 86.32 599.26 85.94 598.81 82.86 595.27 82.68 595.06 82.85 594.86 82.87 594.83 85.94 591.3 86.33 590.84 89.4 587.3 89.78 586.86 92.86 583.32 93.25 582.87 96.31 579.34 96.71 578.89 99.78 575.35 100.13 574.94 100.14 574.94"/><polygon class="cls-3" points="100.14 575.35 99.78 575.35 100.14 574.94 100.14 575.35"/><polygon class="cls-3" points="100.14 614.75 100.14 615.18 99.77 614.75 100.14 614.75"/><polygon class="cls-6" points="100.14 574.94 97.57 577.9 97.03 578.52 92.68 583.53 92.13 584.17 87.78 589.17 87.23 589.81 82.88 594.82 82.68 595.06 77.44 595.06 73.09 595.05 70.07 595.05 72.55 592.26 73.09 591.65 77.44 586.76 77.99 586.15 82.34 581.26 82.88 580.65 87.23 575.77 87.78 575.15 87.97 574.94 100.14 574.94"/><rect class="cls-3" x="65.76" y="562.36" width="3.31" height="6.04"/><rect class="cls-9" x="283.59" y="532.66" width="64.2" height="81.42"/><g class="cls-23"><rect class="cls-6" x="315.69" y="530.41" width="54.06" height="107.74"/></g><rect class="cls-12" x="283.59" y="532.66" width="64.2" height="81.42"/><polygon class="cls-6" points="273.83 561.31 283.65 561.31 288.28 564.61 289 565.12 294.71 569.19 295.42 569.7 300.01 572.97 298.89 573.76 298.19 574.27 292.48 578.34 291.76 578.85 286.05 582.91 285.34 583.42 283.65 584.63 273.83 584.63 273.83 561.31"/><polygon class="cls-3" points="273.83 572.97 300.01 572.97 298.89 573.76 298.19 574.27 292.48 578.34 291.76 578.85 286.05 582.91 285.34 583.42 283.65 584.63 273.83 584.63 273.83 572.97"/><polygon class="cls-3" points="277.11 572.97 273.83 578.39 273.83 567.96 277.11 572.97"/><rect class="cls-6" x="246.14" y="344.49" width="75.44" height="45.83"/><rect class="cls-3" x="246.14" y="344.49" width="75.44" height="22.91"/><rect class="cls-3" x="301.81" y="344.49" width="0.51" height="22.91"/><rect class="cls-3" x="306.35" y="344.49" width="0.51" height="22.91"/><rect class="cls-3" x="310.88" y="344.49" width="0.51" height="22.91"/><rect class="cls-3" x="315.42" y="344.49" width="0.51" height="22.91"/><rect class="cls-3" x="319.96" y="344.49" width="0.51" height="22.91"/><rect class="cls-3" x="301.81" y="367.4" width="0.51" height="22.91"/><rect class="cls-3" x="306.35" y="367.4" width="0.51" height="22.91"/><rect class="cls-3" x="310.88" y="367.4" width="0.51" height="22.91"/><rect class="cls-3" x="315.42" y="367.4" width="0.51" height="22.91"/><rect class="cls-3" x="319.96" y="367.4" width="0.51" height="22.91"/><rect class="cls-6" x="297.78" y="344.49" width="45.83" height="51.02"/><rect class="cls-3" x="297.78" y="344.49" width="22.91" height="51.02"/><polygon class="cls-3" points="343.61 395.51 343.5 395.62 343.1 396.02 336.31 402.71 335.92 403.1 331.19 407.77 330.83 408.12 330.76 408.19 310.62 408.19 310.2 407.77 305.46 403.1 305.08 402.72 298.29 396.02 297.89 395.63 297.78 395.51 343.61 395.51"/><polygon class="cls-3" points="320.69 395.51 320.44 395.83 312.2 406.22 310.56 408.13 310.2 407.77 305.46 403.1 305.08 402.72 298.29 396.02 297.89 395.63 297.78 395.51 320.69 395.51"/><polygon class="cls-6" points="343.61 395.51 343.5 395.62 343.1 396.02 336.31 402.71 335.92 403.1 331.19 407.77 330.83 408.12 330.76 408.19 329.02 406 320.94 395.83 320.7 395.52 320.69 395.51 343.61 395.51"/><polygon class="cls-3" points="263 304.16 284.96 304.16 284.96 318.51 304.71 318.51 304.71 234.55 284.96 234.55 284.96 247.08 263 247.08 263 304.16"/><polygon class="cls-3" points="265.09 302.1 286.97 302.1 286.97 316.43 302.62 316.43 302.62 236.63 286.97 236.63 286.97 249.32 265.09 249.32 265.09 302.1"/><rect class="cls-3" x="304.71" y="256.04" width="23.2" height="57.08" transform="translate(632.62 569.15) rotate(180)"/><rect class="cls-3" x="304.71" y="258.22" width="21.18" height="52.66" transform="translate(630.6 569.1) rotate(180)"/><rect class="cls-15" x="304.71" y="256.04" width="7.89" height="57.08"/><rect class="cls-15" x="265.09" y="249.33" width="2.38" height="52.78"/><polygon class="cls-15" points="289.35 316.43 286.97 316.43 286.97 302.11 289.35 304.93 289.35 316.43"/><polygon class="cls-15" points="286.97 236.63 289.35 236.63 289.35 247.43 286.97 249.32 286.97 236.63"/><rect class="cls-3" x="304.71" y="313.12" width="28.07" height="5.4"/><g class="cls-24"><polygon class="cls-25" points="284.96 318.51 284.96 304.16 263 304.16 284.96 318.51"/><polygon class="cls-25" points="304.71 234.55 304.71 256.04 327.91 256.04 327.91 313.46 332.78 313.46 332.78 256.04 304.71 234.55"/></g><rect class="cls-3" x="268.6" y="148.76" width="57.02" height="57.02"/><rect class="cls-9" x="271.31" y="151.46" width="51.6" height="51.6"/><g class="cls-26"><rect class="cls-16" x="271.31" y="151.46" width="2.67" height="51.6"/><polygon class="cls-16" points="322.91 175.09 322.91 177.76 303.4 177.76 298.64 175.09 322.91 175.09"/></g><rect class="cls-12" x="271.31" y="151.46" width="51.6" height="51.6"/><rect class="cls-3" x="298.64" y="151.46" width="2.6" height="23.62"/><rect class="cls-3" x="311.75" y="161.98" width="2.6" height="23.62" transform="translate(139.27 486.84) rotate(-90)"/><rect class="cls-9" x="301.24" y="146.41" width="26.17" height="26.08"/><g class="cls-27"><polygon class="cls-16" points="304.56 169.42 304.56 152.15 301.24 148.76 301.24 169.42 301.24 172.49 304.56 172.49 327.53 172.49 327.53 169.42 304.56 169.42"/></g><rect class="cls-12" x="301.24" y="146.41" width="26.17" height="26.08"/><g class="cls-28"><polygon class="cls-16" points="277.26 194.47 282.27 199.68 286.34 195.69 280.51 191.59 277.26 194.47"/></g><path class="cls-3" d="M276.67,192.92a2.15,2.15,0,1,1,2.15,2.14A2.15,2.15,0,0,1,276.67,192.92Z"/><rect class="cls-3" x="273.19" y="22.06" width="53.52" height="80.32" transform="translate(599.89 124.43) rotate(180)"/><rect class="cls-6" x="273.19" y="22.06" width="26.76" height="80.32" transform="translate(573.13 124.43) rotate(180)"/><circle class="cls-5" cx="186.3" cy="82.57" r="37.92" transform="translate(-1.02 2.33) rotate(-0.72)"/><path class="cls-7" d="M30.94,14.36A5.48,5.48,0,1,0,20,15a3.63,3.63,0,0,0-4.69,5.52l.08.06a4.17,4.17,0,0,0-2.11,1.13,4.07,4.07,0,0,0,3.87,6.81,8.6,8.6,0,0,0,1.5,2A8.45,8.45,0,0,0,21,32.17,5.87,5.87,0,1,0,32.2,33.39a6,6,0,0,0,2.55-11.65,4.45,4.45,0,0,0-3.81-7.38Z"/><path class="cls-3" d="M338.09,283.68a5.48,5.48,0,1,0-10.91.65,3.63,3.63,0,0,0-4.69,5.51l.08.07a4.07,4.07,0,1,0,1.76,7.94,8.65,8.65,0,0,0,3.84,3.64,5.86,5.86,0,1,0,11.18,1.22,6,6,0,0,0,5.16-10.13,5.9,5.9,0,0,0-2.61-1.52,4.45,4.45,0,0,0-3.81-7.38Z"/><path class="cls-3" d="M30.3,469.41a6.37,6.37,0,0,1,3.77,2.43c1.19,1.91,3.87,2.53,5.25,2.53"/><path class="cls-3" d="M40.21,480.13s2.67,1,3.21,2,3.41,1.15,3.41,1.15"/><path class="cls-3" d="M59.89,477.09a4.24,4.24,0,0,0-3.33-.44c-2,.51-5.55-.24-7-.79"/><path class="cls-3" d="M26.62,483.28s5.38,1.62,7.45,3.46"/><path class="cls-3" d="M42.91,491.34a6.09,6.09,0,0,0,1.57.45"/><path class="cls-3" d="M40,505.43A5.07,5.07,0,1,1,45,510.5,5.07,5.07,0,0,1,40,505.43Z"/><path class="cls-3" d="M45,500.36V510.5a5.07,5.07,0,0,1,0-10.14Z"/><path class="cls-3" d="M45,500.36v5.07H40A5.07,5.07,0,0,1,45,500.36Z"/><path class="cls-3" d="M45,500.36v5.07H50.1A5.07,5.07,0,0,0,45,500.36Z"/><path class="cls-3" d="M48.65,501.88,45,505.43v-5.07A5,5,0,0,1,48.65,501.88Z"/><path class="cls-3" d="M45,510.5l0-5.07,3.6,3.58A5.07,5.07,0,0,1,45,510.5Z"/><path class="cls-3" d="M40,505.43H45l-3.58,3.63A5.07,5.07,0,0,1,40,505.43Z"/><path class="cls-3" d="M45,500.36v5.07l-3.63-3.59A5.06,5.06,0,0,1,45,500.36Z"/><path class="cls-3" d="M124.69,177.37c2.08.08,4.23.13,4.83.14a13.38,13.38,0,0,0,4.27-.45c.84-.42,2.85-1.57,3-2.68s.45-8.57.05-9.6a5,5,0,0,0-2.81-2.68c-.94-.44-5.7-.42-6.59-.51-.33,0-1.26,0-2.47-.08Z"/><path class="cls-3" d="M129.37,163.89s4-.35,4.66.17a4.2,4.2,0,0,1,1.72,2.32c.17,1,.1,6.2-.27,7a4.73,4.73,0,0,1-2.11,2.13c-.72.25-4-.35-4-.35s.11.13.33-1.74a42.93,42.93,0,0,0,.13-7.24A9.1,9.1,0,0,0,129.37,163.89Z"/><path class="cls-3" d="M126.2,165.69s2.66-2.34,3.15-1.66,1.12,8.52-.07,11.05c-.28.34-3.19-1.44-3.19-1.44Z"/><path class="cls-3" d="M124.87,165.14H126s2.62-1.66,2.22-2.08-2.25-.45-3.33-.46Z"/><path class="cls-3" d="M124.71,176.41a18.52,18.52,0,0,0,3.22-.2c.33-.19.64-.4.57-.75s-2.07-1.28-2.81-1.49a4.62,4.62,0,0,0-1-.09Z"/><path class="cls-3" d="M130.59,176.8l-1.19,0-.24,2.6a.72.72,0,0,0,.28.07C130,179.45,130.68,177.07,130.59,176.8Z"/><path class="cls-3" d="M130.79,162.4l-1.19,0-.16-2.6a.67.67,0,0,1,.28-.06C130.3,159.73,130.89,162.13,130.79,162.4Z"/><path class="cls-3" d="M105.64,161.24c-.29,0-.26-.13-.76.3s-2,1.63-2.14,2.77a81.39,81.39,0,0,0-.08,9.87,4.47,4.47,0,0,0,2,2.75,1.39,1.39,0,0,0,.78.19Z"/><path class="cls-3" d="M105.63,162.23a1.3,1.3,0,0,0-.47,0,6.05,6.05,0,0,0-1.09,2.59,71.57,71.57,0,0,0-.22,8.24,7.52,7.52,0,0,0,.84,2.75c.16.35.45.21.74.25Z"/><rect class="cls-3" x="107.18" y="159.54" width="15.88" height="19.55" transform="translate(-55.8 282.05) rotate(-89.2)"/><rect class="cls-3" x="116.49" y="167.94" width="13.83" height="2.98" transform="translate(-47.74 290.46) rotate(-89.2)"/><polygon class="cls-3" points="105.18 164.08 105.39 162.22 123.88 162.48 123.85 164.34 105.18 164.08"/><rect class="cls-3" x="113.4" y="165.93" width="1.86" height="18.72" transform="translate(-62.5 287.22) rotate(-89.22)"/><path class="cls-3" d="M103.41,165.59a.37.37,0,0,1-.39-.34l0-1.09a.36.36,0,0,1,.4-.33h0a.38.38,0,0,1,.39.34v1.09a.37.37,0,0,1-.41.33Z"/><path class="cls-3" d="M103.29,174.77a.39.39,0,0,1-.4-.35l0-1.09a.36.36,0,0,1,.4-.33h0a.36.36,0,0,1,.39.34v1.09a.39.39,0,0,1-.4.34Z"/><path class="cls-3" d="M122.29,166.17c0,.71-.08,6.11-.09,6.74s.68.57.68.57l2,0c.39,0,.72-.45.73-1.06l.1-5.79c0-.61-.31-1.1-.7-1.09l-2.17,0S122.3,165.45,122.29,166.17Z"/><path class="cls-3" d="M258.56,308.09a4.9,4.9,0,0,1,2.59,2.56c.44,1.39.4,5.93-.26,7.16a5.11,5.11,0,0,1-3,2.35,42.65,42.65,0,0,1-5.12.51c-1.53.14-10.6.22-12.13.22a27,27,0,0,1-5.63-.44c-1.1-.37-3.73-1.39-4-2.34s-.43-7.38.11-8.26c.8-1.32,2.52-1.9,3.76-2.27s7.53-.29,8.7-.36,8.7-.22,10.38-.08A15.68,15.68,0,0,1,258.56,308.09Z"/><path class="cls-3" d="M252.16,311.72a.93.93,0,0,0-.92-1l-4.74-.08a.92.92,0,0,0-.94.93l0,5a.91.91,0,0,0,.95.92l4.55-.15a1,1,0,0,0,1-1Z"/><path class="cls-3" d="M241.1,309.17s-5.28-.35-6.16.09-2,1.1-2.3,2-.25,5.34.22,6a5.67,5.67,0,0,0,2.74,1.86,35.48,35.48,0,0,0,5.34-.25s-.14.11-.4-1.5a23.65,23.65,0,0,1,0-6.23A6.14,6.14,0,0,1,241.1,309.17Z"/><path class="cls-3" d="M245.25,310.76s-3.47-2.05-4.13-1.46-1.64,7.31-.11,9.5c.37.3,4.24-1.2,4.24-1.2Z"/><path class="cls-3" d="M252.27,310.36l3.14-1.39a3.29,3.29,0,0,0-1.68-.58c-1-.09-5.35-.28-6.7-.28s-3.87,0-4.41.36,2.89,1.82,2.89,1.82Z"/><path class="cls-3" d="M254.76,319.57s-2.38-1.4-2.71-1.53a40.37,40.37,0,0,0-6.29-.15c-1,.18-3.63.94-3.72,1.24s.3.49.73.66a66.94,66.94,0,0,0,6.72.22C250.65,320,254.76,319.57,254.76,319.57Z"/><path class="cls-3" d="M256.44,308.9s2,0,2.63,1.1.44,3.06.44,4.24a6.89,6.89,0,0,1-.59,3.65c-.66,1-2.7,1.53-2.7,1.53l-.81-1.46.29-7.89Z"/><path class="cls-3" d="M252.71,317.31a16.11,16.11,0,0,0,3.14,1.68,5.62,5.62,0,0,0,1.17-2.63,31.24,31.24,0,0,0,0-5.23,4.66,4.66,0,0,0-.94-1.72s-3.24,1-3.39,1.39A36.33,36.33,0,0,0,252.71,317.31Z"/><path class="cls-3" d="M240,320.48h1.57l.27,2.24a1.5,1.5,0,0,1-.37,0C240.72,322.77,239.89,320.71,240,320.48Z"/><path class="cls-3" d="M240,308.09h1.57l.27-2.23a1.51,1.51,0,0,0-.37-.06C240.72,305.8,239.89,307.87,240,308.09Z"/><path class="cls-3" d="M159.85,468.77a4.9,4.9,0,0,1,2.56-2.59c1.39-.44,5.92-.41,7.16.25a5.14,5.14,0,0,1,2.34,3,42.45,42.45,0,0,1,.52,5.12c.14,1.53.21,10.6.21,12.13a27.07,27.07,0,0,1-.43,5.63c-.37,1.1-1.39,3.73-2.34,3.95s-7.38.43-8.27-.11c-1.31-.81-1.89-2.52-2.26-3.77s-.29-7.53-.37-8.69-.21-8.7-.07-10.38A15.28,15.28,0,0,1,159.85,468.77Z"/><path class="cls-3" d="M163.47,475.17a.94.94,0,0,0-1,.92l-.07,4.74a.92.92,0,0,0,.93.94l5,0a.92.92,0,0,0,.92-.95l-.16-4.55a1,1,0,0,0-1-1Z"/><path class="cls-3" d="M160.93,486.22s-.35,5.29.09,6.16,1.1,2.05,2,2.31,5.34.25,6-.22a5.75,5.75,0,0,0,1.86-2.75,35.34,35.34,0,0,0-.25-5.33s.1.14-1.5.4a24.17,24.17,0,0,1-6.24,0A5.89,5.89,0,0,1,160.93,486.22Z"/><path class="cls-3" d="M162.52,482.08s-2.05,3.47-1.46,4.13,7.31,1.64,9.5.11c.29-.37-1.21-4.24-1.21-4.24Z"/><path class="cls-3" d="M162.12,475.06l-1.39-3.14a3.35,3.35,0,0,0-.59,1.68c-.08,1-.27,5.35-.27,6.69s0,3.88.36,4.42,1.81-2.89,1.81-2.89Z"/><path class="cls-3" d="M171.33,472.57s-1.4,2.38-1.54,2.71a40.5,40.5,0,0,0-.14,6.29c.17,1,.94,3.62,1.24,3.72s.49-.3.66-.73.25-5.56.22-6.72S171.33,472.57,171.33,472.57Z"/><path class="cls-3" d="M160.66,470.89s0-2,1.09-2.63,3.07-.44,4.24-.44a6.92,6.92,0,0,1,3.66.59c1,.65,1.53,2.7,1.53,2.7l-1.46.81-7.9-.3Z"/><path class="cls-3" d="M169.06,474.62a16.11,16.11,0,0,0,1.68-3.14,5.57,5.57,0,0,0-2.63-1.17,30.18,30.18,0,0,0-5.22,0,4.76,4.76,0,0,0-1.72.95s1,3.24,1.39,3.39A37.17,37.17,0,0,0,169.06,474.62Z"/><path class="cls-3" d="M172.24,487.32v-1.57l2.23-.27a1.1,1.1,0,0,1,.06.37C174.53,486.61,172.47,487.44,172.24,487.32Z"/><path class="cls-3" d="M159.85,487.32v-1.57l-2.23-.27a1.1,1.1,0,0,0-.06.37C157.56,486.61,159.63,487.44,159.85,487.32Z"/><polygon class="cls-29" points="372.08 89.86 269.93 0.5 316.21 0.5 372.46 49.27 372.08 89.86"/><path class="cls-30" d="M307.09,7.92l.36-.41a1,1,0,0,1,1.15-.3,15.15,15.15,0,0,1,1.84.82,3.15,3.15,0,0,1,1.31,1.32c.33.62.63,1.26.91,1.9a16.59,16.59,0,0,0,1.11,2.13,3.87,3.87,0,0,0,.77.94,5.94,5.94,0,0,0,.85.56,2.45,2.45,0,0,1,.38.24,1.1,1.1,0,0,1,.2,1.17,1.13,1.13,0,0,1-1.62.56c-.36-.2-.72-.4-1.07-.62a3.21,3.21,0,0,1-.88-.92,14,14,0,0,1-1.17-2.19c-.31-.69-.62-1.37-1-2a3.52,3.52,0,0,0-.78-1,4.08,4.08,0,0,0-.85-.51l-1.8-.77a.28.28,0,0,1-.11-.46C306.84,8.22,307,8.07,307.09,7.92Z"/><path class="cls-30" d="M304.08,11.38l.36-.41a1,1,0,0,1,1.18-.29c.57.23,1.12.48,1.68.74a3.14,3.14,0,0,1,1.5,1.51c.32.66.64,1.32.94,2a15.49,15.49,0,0,0,1.17,2.16,3.48,3.48,0,0,0,1.26,1.15l.45.25a.9.9,0,0,1,.4.63,1.07,1.07,0,0,1-.43,1.13,1,1,0,0,1-1.2.12c-.38-.2-.75-.42-1.11-.65a3.17,3.17,0,0,1-.91-1,14.74,14.74,0,0,1-1.14-2.15c-.31-.69-.62-1.37-1-2a3.27,3.27,0,0,0-.84-1,3.63,3.63,0,0,0-.78-.46c-.61-.27-1.21-.53-1.82-.78a.27.27,0,0,1-.18-.34.17.17,0,0,1,.06-.1Z"/><text class="cls-31" transform="matrix(0.75, 0.66, -0.66, 0.75, 313.84, 24.06)">SOLD OUT</text></g></g></svg>