<svg xmlns="http://www.w3.org/2000/svg" viewBox="0 0 372.96 646.77"><defs><style>.cls-1,.cls-10,.cls-11,.cls-12,.cls-13,.cls-14,.cls-15,.cls-2,.cls-3,.cls-4,.cls-5,.cls-6,.cls-7,.cls-8,.cls-9{fill:none;stroke:#282828;stroke-linecap:round;stroke-linejoin:round;}.cls-2{stroke-dasharray:11.06 11.06;}.cls-3{stroke-dasharray:20.42 4.86;}.cls-4{stroke-dasharray:30.14 10.7 20.42 4.86;}.cls-5{stroke-dasharray:21.35 5.08;}.cls-6{stroke-dasharray:31.52 11.19 21.35 5.08;}.cls-7{stroke-dasharray:21.84 5.2;}.cls-8{stroke-dasharray:32.25 11.44 21.84 5.2;}.cls-9{stroke-dasharray:21.86 5.21;}.cls-10{stroke-dasharray:32.27 11.45 21.86 5.21;}.cls-11{stroke-dasharray:23.68 5.64;}.cls-12{stroke-dasharray:34.96 12.4 23.68 5.64;}.cls-13{stroke-dasharray:23.66 5.63;}.cls-14{stroke-dasharray:34.93 12.39 23.66 5.63;}.cls-15{stroke-dasharray:11;}.cls-16{font-size:12px;font-family:OpenSans-Bold, Open Sans;font-weight:700;}</style></defs><title>Asset 4</title><g id="Layer_2" data-name="Layer 2"><g id="Layer_1-2" data-name="Layer 1"><rect class="cls-1" x="1.01" y="0.5" width="371.07" height="645.77"/><line class="cls-1" x1="198.59" y1="19.34" x2="198.59" y2="0.5"/><line class="cls-1" x1="174.5" y1="19.34" x2="174.5" y2="0.5"/><line class="cls-1" x1="186.55" y1="71.06" x2="186.55" y2="76.56"/><line class="cls-2" x1="186.55" y1="87.62" x2="186.55" y2="635.24"/><line class="cls-1" x1="186.55" y1="640.77" x2="186.55" y2="646.27"/><path class="cls-1" d="M.5,625.4H16"/><path class="cls-3" d="M26.69,625.4H49.54"/><path class="cls-4" d="M52,625.4h59.65c41.34,0,38.67-40,38.67-40V314"/><path class="cls-1" d="M150.29,311.56v-15.5h0V280.57"/><path class="cls-5" d="M150.33,269.38V245.5"/><path class="cls-6" d="M150.33,243V164.78c0-26.15-10.71-38.31-10.71-38.31l-.2-.32a64.24,64.24,0,1,1,96.31-2.33l-2.35,2.64s-10.7,12.16-10.7,38.31V585.4s-2.67,40,38.67,40H354.4"/><path class="cls-1" d="M357,625.4h15.5"/><line class="cls-1" x1="372.08" y1="128.55" x2="356.58" y2="128.55"/><line class="cls-7" x1="345.14" y1="128.55" x2="320.69" y2="128.55"/><line class="cls-8" x1="318.09" y1="128.55" x2="249.96" y2="128.55"/><line class="cls-1" x1="247.36" y1="128.55" x2="231.86" y2="128.55"/><line class="cls-1" x1="141.33" y1="128.55" x2="125.83" y2="128.55"/><line class="cls-9" x1="114.38" y1="128.55" x2="89.91" y2="128.55"/><line class="cls-10" x1="87.31" y1="128.55" x2="19.12" y2="128.55"/><line class="cls-1" x1="16.51" y1="128.55" x2="1.01" y2="128.55"/><line class="cls-1" x1="372.08" y1="228.06" x2="356.58" y2="228.06"/><line class="cls-11" x1="344.18" y1="228.06" x2="317.68" y2="228.06"/><line class="cls-12" x1="314.86" y1="228.06" x2="241" y2="228.06"/><line class="cls-1" x1="238.18" y1="228.06" x2="222.68" y2="228.06"/><line class="cls-1" x1="150.33" y1="228.06" x2="134.83" y2="228.06"/><line class="cls-13" x1="122.43" y1="228.06" x2="95.95" y2="228.06"/><line class="cls-14" x1="93.14" y1="228.06" x2="19.33" y2="228.06"/><line class="cls-1" x1="16.51" y1="228.06" x2="1.01" y2="228.06"/><line class="cls-1" x1="372.08" y1="327.57" x2="356.58" y2="327.57"/><line class="cls-11" x1="344.18" y1="327.57" x2="317.68" y2="327.57"/><line class="cls-12" x1="314.86" y1="327.57" x2="241" y2="327.57"/><line class="cls-1" x1="238.18" y1="327.57" x2="222.68" y2="327.57"/><line class="cls-1" x1="150.33" y1="327.57" x2="134.83" y2="327.57"/><line class="cls-13" x1="122.43" y1="327.57" x2="95.95" y2="327.57"/><line class="cls-14" x1="93.14" y1="327.57" x2="19.33" y2="327.57"/><line class="cls-1" x1="16.51" y1="327.57" x2="1.01" y2="327.57"/><line class="cls-1" x1="372.08" y1="427.08" x2="356.58" y2="427.08"/><line class="cls-11" x1="344.18" y1="427.08" x2="317.68" y2="427.08"/><line class="cls-12" x1="314.86" y1="427.08" x2="241" y2="427.08"/><line class="cls-1" x1="238.18" y1="427.08" x2="222.68" y2="427.08"/><line class="cls-1" x1="150.33" y1="427.08" x2="134.83" y2="427.08"/><line class="cls-13" x1="122.43" y1="427.08" x2="95.95" y2="427.08"/><line class="cls-14" x1="93.14" y1="427.08" x2="19.33" y2="427.08"/><line class="cls-1" x1="16.51" y1="427.08" x2="1.01" y2="427.08"/><line class="cls-1" x1="372.08" y1="526.59" x2="356.58" y2="526.59"/><line class="cls-11" x1="344.18" y1="526.59" x2="317.68" y2="526.59"/><line class="cls-12" x1="314.86" y1="526.59" x2="241" y2="526.59"/><line class="cls-1" x1="238.18" y1="526.59" x2="222.68" y2="526.59"/><line class="cls-1" x1="150.33" y1="526.59" x2="134.83" y2="526.59"/><line class="cls-13" x1="122.43" y1="526.59" x2="95.95" y2="526.59"/><line class="cls-14" x1="93.14" y1="526.59" x2="19.33" y2="526.59"/><line class="cls-1" x1="16.51" y1="526.59" x2="1.01" y2="526.59"/><line class="cls-15" x1="137.13" y1="625.4" x2="235.71" y2="625.4"/><text class="cls-16" transform="translate(70.35 578.79)">1</text><text class="cls-16" transform="translate(70.35 477.35)">2</text><text class="cls-16" transform="translate(70.35 381.79)">3</text><text class="cls-16" transform="translate(70.35 283.3)">4</text><text class="cls-16" transform="translate(70.35 184.79)">5</text><text class="cls-16" transform="translate(70.35 71.56)">6</text><text class="cls-16" transform="translate(292.82 578.79)">12</text><text class="cls-16" transform="translate(292.82 477.35)">11</text><text class="cls-16" transform="translate(290.53 381.79)">10</text><text class="cls-16" transform="translate(293.96 283.3)">9</text><text class="cls-16" transform="translate(293.96 184.79)">8</text><text class="cls-16" transform="translate(293.96 71.56)">7</text></g></g></svg>