<svg xmlns="http://www.w3.org/2000/svg" viewBox="0 0 146.02 68.34"><defs><style>.cls-1{fill:none;stroke:#282828;stroke-linecap:round;stroke-linejoin:round;stroke-width:1.25px;}</style></defs><title>Asset 7</title><g id="Layer_2" data-name="Layer 2"><g id="Layer_1-2" data-name="Layer 1"><g id="house"><polyline class="cls-1" points="0.62 33.64 27.7 10.93 55.73 34.06"/><polyline class="cls-1" points="0.62 23.33 27.7 0.62 55.73 23.75"/><polygon class="cls-1" points="49.54 40.17 49.54 67.25 34.69 67.25 34.69 52.4 20.72 52.4 20.72 67.25 5.86 67.25 5.86 40.17 27.7 21.83 49.54 40.17"/></g><path class="cls-1" d="M104,57.73a3.42,3.42,0,0,1,2.86-1.42h20c1.58,0,10.3-8.75,11.41-10a75.06,75.06,0,0,0,7.13-11.41c-.82-1.12-3.06-2-5.7-1.43s-4,2.4-5.71,5.71l-6.54,3.39"/><path class="cls-1" d="M112.58,47.75H124c5.7,0,5.7-7.14,0-7.14h-7.54c-1.19,0-3.42-2.85-5.3-2.85H104c-1.92,0-4.32,1.56-5.7,2.85l-5.71,5.71"/><rect class="cls-1" x="89.71" y="43.49" width="10.09" height="24.21" transform="translate(-11.56 83.28) rotate(-45)"/><line class="cls-1" x1="89.76" y1="50.6" x2="92.61" y2="53.45"/><polyline class="cls-1" points="135.41 36.33 132.56 33.48 128.28 33.48 124 30.63 121.14 30.63 118.29 29.2 115.44 32.05 111.16 32.05 106.88 34.91 106.88 37.76"/><path class="cls-1" d="M126.78,17.16c-3.75,2.17-4.21,7.76-4.21,7.76s5.35,2.12,9.1-.06,8-9.92,8-9.92S130.53,15,126.78,17.16Z"/><path class="cls-1" d="M116,24.38c3.48-3.58,2.88-9.73,1-12.35C112.52,5.6,104.28,7.3,98.43,3.52c-4.33,10.17.79,23,14.15,21.4"/><path class="cls-1" d="M118.29,30.63c-1.18-10.71-9.47-14.73-15-19.46"/></g></g></svg>