<svg xmlns="http://www.w3.org/2000/svg" viewBox="0 0 64.02 65.44"><defs><style>.cls-1{fill:none;stroke:#282828;stroke-linecap:round;stroke-linejoin:round;stroke-width:1.25px;}</style></defs><title>Asset 3</title><g id="Layer_2" data-name="Layer 2"><g id="Layer_1-2" data-name="Layer 1"><path class="cls-1" d="M22,54.83a3.42,3.42,0,0,1,2.86-1.42h20c1.58,0,10.3-8.75,11.41-10A75.06,75.06,0,0,0,63.39,32c-.82-1.12-3.06-2-5.7-1.43s-4,2.4-5.71,5.71l-6.54,3.39"/><path class="cls-1" d="M30.58,44.85H42c5.7,0,5.7-7.13,0-7.13H34.46c-1.19,0-3.42-2.86-5.3-2.86H22c-1.92,0-4.32,1.57-5.7,2.86l-5.71,5.7"/><rect class="cls-1" x="7.71" y="40.59" width="10.09" height="24.21" transform="translate(-33.53 24.45) rotate(-45)"/><line class="cls-1" x1="7.76" y1="47.7" x2="10.61" y2="50.55"/><polyline class="cls-1" points="53.41 33.44 50.55 30.58 46.27 30.58 41.99 27.73 39.14 27.73 36.29 26.3 33.44 29.16 29.16 29.16 24.88 32.01 24.88 34.86"/><path class="cls-1" d="M44.78,14.26C41,16.43,40.57,22,40.57,22s5.35,2.12,9.1-.06,8-9.92,8-9.92S48.53,12.08,44.78,14.26Z"/><path class="cls-1" d="M34,21.48c3.48-3.58,2.88-9.73,1-12.35C30.52,2.71,22.28,4.41,16.43.62c-4.33,10.17.79,23,14.15,21.4"/><path class="cls-1" d="M36.29,27.73C35.11,17,26.82,13,21.29,8.27"/></g></g></svg>