<svg xmlns="http://www.w3.org/2000/svg" xmlns:xlink="http://www.w3.org/1999/xlink" viewBox="0 0 442.2 386.77"><defs><style>.cls-1,.cls-6{fill:#fff;}.cls-1,.cls-4,.cls-5{stroke:#282828;stroke-linecap:round;stroke-linejoin:round;}.cls-2{isolation:isolate;}.cls-3,.cls-4{fill:#edeeef;}.cls-5{fill:none;}.cls-7{opacity:0.25;}.cls-7,.cls-9{mix-blend-mode:multiply;}.cls-8{clip-path:url(#clip-path);}.cls-9{opacity:0.35;}</style><clipPath id="clip-path"><path class="cls-1" d="M96.75,245.21h14.88V215.77H96.75Z"/></clipPath></defs><title>Asset 3</title><g class="cls-2"><g id="Layer_2" data-name="Layer 2"><g id="Layer_1-2" data-name="Layer 1"><polygon class="cls-1" points="50.17 183.8 56.09 180.35 56.17 154.46 50.25 157.9 50.17 183.8"/><polygon class="cls-1" points="56.46 161.48 62.39 158.04 47.56 122.35 41.64 125.79 56.46 161.48"/><polygon class="cls-1" points="41.64 125.79 26.66 144.27 32.87 147.86 32.79 173.76 50.17 183.8 50.25 157.9 56.46 161.48 41.64 125.79"/><polygon class="cls-1" points="338.23 176.73 349.94 169.92 350.09 63.98 338.38 70.79 338.23 176.73"/><polygon class="cls-1" points="350.67 77.88 362.38 71.07 333.07 0.5 321.36 7.31 350.67 77.88"/><polygon class="cls-1" points="321.36 7.31 291.73 43.85 304.02 50.95 303.86 156.89 338.23 176.73 338.38 70.79 350.67 77.88 321.36 7.31"/><polygon class="cls-1" points="233.14 211.25 244.85 204.44 245.01 98.51 233.3 105.31 233.14 211.25"/><polygon class="cls-1" points="245.58 112.4 257.3 105.6 227.99 35.02 216.28 41.83 245.58 112.4"/><polygon class="cls-1" points="216.28 41.83 186.65 78.38 198.94 85.47 198.78 191.41 233.14 211.25 233.3 105.31 245.58 112.4 216.28 41.83"/><polygon class="cls-1" points="132.16 195.43 139.51 191.15 139.61 124.64 132.26 128.92 132.16 195.43"/><polygon class="cls-1" points="139.97 133.37 147.32 129.09 128.92 84.79 121.57 89.06 139.97 133.37"/><polygon class="cls-1" points="121.57 89.06 102.97 112.01 110.68 116.46 110.59 182.97 132.16 195.43 132.26 128.92 139.97 133.37 121.57 89.06"/><path class="cls-3" d="M436.64,377.13c0,2.86-5.69,5.17-12.71,5.17s-12.7-2.31-12.7-5.17,5.69-5.17,12.7-5.17S436.64,374.28,436.64,377.13Z"/><line class="cls-4" x1="423.98" y1="350.63" x2="423.98" y2="377.13"/><line class="cls-4" x1="423.97" y1="359.56" x2="430.11" y2="354.59"/><line class="cls-4" x1="423.89" y1="359.56" x2="417.76" y2="354.59"/><line class="cls-4" x1="424" y1="350.51" x2="426.86" y2="347.65"/><line class="cls-4" x1="423.87" y1="350.51" x2="421.01" y2="347.65"/><path class="cls-5" d="M432.54,339.25c.79-5.69-2.57-11-7.5-11.95s-9.55,3-10.34,8.67"/><path class="cls-5" d="M438,355.28a11,11,0,0,0,3.71-8.51c0-5.76-4.1-10.4-9.09-10.36"/><path class="cls-4" d="M434.76,357a8.36,8.36,0,0,0,3.23-1.72"/><path class="cls-5" d="M410,354.65a11.4,11.4,0,0,1-3.06-10.6c1.19-5.6,6.09-9,10.93-7.63"/><path class="cls-5" d="M424.18,366.19a8.44,8.44,0,0,1-11.65-.79c-3.74-3.82-3.86-10.41-.56-14.74"/><path class="cls-5" d="M424.07,366.31c3.32,2.49,8.27,2.82,11.38-.35,2.54-2.59,3-7,2.38-10.61"/><path class="cls-3" d="M30.46,288.11c0,2.85-5.69,5.17-12.71,5.17S5.05,291,5.05,288.11s5.68-5.17,12.7-5.17S30.46,285.25,30.46,288.11Z"/><line class="cls-4" x1="17.8" y1="261.61" x2="17.8" y2="288.11"/><line class="cls-4" x1="17.8" y1="270.54" x2="23.92" y2="265.56"/><line class="cls-4" x1="17.71" y1="270.54" x2="11.58" y2="265.56"/><line class="cls-4" x1="17.81" y1="261.49" x2="20.67" y2="258.63"/><line class="cls-4" x1="17.69" y1="261.49" x2="14.83" y2="258.63"/><path class="cls-5" d="M26.36,250.23c.79-5.7-2.57-11-7.5-11.95s-9.56,3-10.34,8.66"/><path class="cls-5" d="M31.81,266.26a11,11,0,0,0,3.71-8.51c0-5.76-4.1-10.41-9.09-10.37"/><path class="cls-4" d="M28.58,268a8.63,8.63,0,0,0,3.23-1.72"/><path class="cls-5" d="M3.83,265.63A11.41,11.41,0,0,1,.77,255c1.19-5.6,6.09-9,10.93-7.63"/><path class="cls-5" d="M18,277.17a8.44,8.44,0,0,1-11.65-.8c-3.74-3.81-3.86-10.41-.56-14.74"/><path class="cls-5" d="M17.89,277.28c3.32,2.49,8.27,2.82,11.38-.35,2.54-2.58,3-7,2.38-10.6"/><polygon class="cls-6" points="32 211.13 54.68 198.36 54.36 183.51 57.04 181.76 57.04 180.21 43.87 164.77 32.37 165.75 6.99 180.5 6.96 181.82 9.54 181.69 9.64 198.25 13.04 200.08 32 211.13"/><polyline class="cls-1" points="36.05 165.33 44.52 164.38 20.24 178.8 6.99 180.5 27.51 168.38 27.56 168.36 27.84 168.19 28.3 167.93 28.34 167.9 29.07 167.48 29.9 167 30.39 166.72 30.77 166.5 31.6 166.02 32 165.78 32.37 165.75 33.08 165.66 33.66 165.6 33.81 165.58 34.05 165.56 34.21 165.54 36.05 165.33"/><polygon class="cls-1" points="9.64 201.86 12.77 200.05 16.35 197.98 17.37 198.58 17.37 198.94 18.27 199.45 18.58 199.27 22.74 201.67 22.74 202.03 23.64 202.54 23.95 202.36 25.29 203.14 18.58 207.02 9.64 201.86"/><polygon class="cls-1" points="17.37 187.57 17.37 198.58 16.35 197.98 9.64 194.12 9.64 181.52 19.48 180.42 32 196.25 32 207 25.29 203.14 23.95 202.36 23.95 191 17.69 187.4 17.37 187.57"/><polygon class="cls-1" points="19.48 180.42 9.64 181.52 6.96 181.82 6.99 180.5 20.24 178.8 32 194.7 32 197.09 19.48 180.42"/><polyline class="cls-5" points="20.24 178.8 44.52 164.38 51.65 173.4 56.04 178.95 57.04 180.21 32 194.7"/><polygon class="cls-1" points="57.04 181.76 54.36 183.31 46.93 187.62 40.44 191.37 40.18 191.52 32 196.25 32 194.7 57.04 180.21 57.04 181.76"/><path class="cls-1" d="M41,200.08v-7.21l5.8-3.35v7.2Z"/><polygon class="cls-1" points="54.36 198.19 32 211.13 32 207 54.36 194.06 54.36 198.19"/><polygon class="cls-1" points="9.64 198.25 9.64 194.12 16.35 197.98 12.77 200.05 9.64 198.25"/><polygon class="cls-1" points="32 207 32 211.13 25.29 207.27 25.29 203.14 32 207"/><polygon class="cls-1" points="25.29 203.14 25.29 207.27 15.36 213.01 15.36 211.98 16.43 211.36 16.43 210.32 17.51 209.71 17.51 208.67 18.58 208.05 18.58 207.02 25.29 203.14"/><polyline class="cls-1" points="18.58 207.02 18.58 208.05 9.64 202.9 9.64 201.86"/><polyline class="cls-1" points="18.58 208.05 17.51 208.67 8.57 203.52 9.64 202.9"/><polyline class="cls-1" points="17.51 208.67 17.51 209.71 8.57 204.55 8.57 203.52"/><polyline class="cls-1" points="17.51 209.71 16.43 210.32 7.49 205.17 8.57 204.55"/><polyline class="cls-1" points="16.43 210.32 16.43 211.36 7.49 206.2 7.49 205.17"/><polyline class="cls-1" points="16.43 211.36 15.36 211.98 6.42 206.82 7.49 206.2"/><polyline class="cls-1" points="15.36 211.98 15.36 213.01 6.42 207.86 6.42 206.82"/><line class="cls-1" x1="54.36" y1="198.19" x2="54.36" y2="183.51"/><g id="corner_shop" data-name="corner shop"><polygon class="cls-1" points="104.19 257.26 52.67 227.51 104.19 197.77 155.71 227.51 104.19 257.26"/><polygon class="cls-1" points="155.71 227.51 155.71 230.6 104.19 260.34 104.19 257.26 155.71 227.51"/><polygon class="cls-1" points="52.67 227.51 52.67 230.6 104.19 260.34 104.19 257.26 52.67 227.51"/><polygon class="cls-1" points="146.42 227.51 114.15 246.14 114.15 204.35 146.42 185.72 146.42 227.51"/><polygon class="cls-1" points="94.22 246.14 61.96 227.51 61.96 185.72 94.22 204.35 94.22 246.14"/><rect class="cls-1" x="94.22" y="204.35" width="19.93" height="41.79"/><polygon class="cls-1" points="114.15 209.81 146.42 191.19 146.42 185.72 114.15 204.35 114.15 209.81"/><polygon class="cls-1" points="61.96 191.19 94.22 209.81 94.22 204.35 61.96 185.72 61.96 191.19"/><rect class="cls-1" x="94.22" y="204.35" width="19.93" height="5.47"/><polygon class="cls-1" points="142.58 220.76 118 234.95 118 213.07 142.58 198.88 142.58 220.76"/><polygon class="cls-1" points="141.26 219.81 119.31 232.49 119.31 213.88 141.26 201.2 141.26 219.81"/><polyline class="cls-1" points="119.31 231.27 119.31 232.49 141.26 219.81"/><path class="cls-1" d="M134.23,219.92a.16.16,0,0,1-.1,0,.19.19,0,0,1-.06-.25l1.57-2.72a.18.18,0,1,1,.32.18l-1.58,2.72A.16.16,0,0,1,134.23,219.92Z"/><path class="cls-1" d="M126.67,224.13h0c-.7.41-1.28,0-1.28-1v-2.71L128,219v2.71A3.07,3.07,0,0,1,126.67,224.13Z"/><path class="cls-1" d="M131.81,221.17h0c-.71.41-1.28,0-1.28-1v-2.72L133.1,216v2.71A3.08,3.08,0,0,1,131.81,221.17Z"/><path class="cls-1" d="M137,218.2h0c-.71.41-1.28,0-1.28-1v-2.71l2.57-1.49v2.72A3.08,3.08,0,0,1,137,218.2Z"/><path class="cls-1" d="M142.09,215.23h0c-.71.41-1.29,0-1.29-1v-2.71l2.57-1.48v2.71A3,3,0,0,1,142.09,215.23Z"/><path class="cls-1" d="M147.23,212.27h0c-.71.41-1.29,0-1.29-1v-2.72l2.57-1.48v2.71A3.08,3.08,0,0,1,147.23,212.27Z"/><path class="cls-1" d="M129.24,222.65h0c-.7.41-1.28,0-1.28-1V219l2.57-1.49v2.72A3.08,3.08,0,0,1,129.24,222.65Z"/><path class="cls-1" d="M134.38,219.68h0c-.71.41-1.28,0-1.28-1V216l2.57-1.48v2.71A3.07,3.07,0,0,1,134.38,219.68Z"/><path class="cls-1" d="M139.52,216.72h0c-.71.41-1.28,0-1.28-1V213l2.56-1.48v2.71A3.08,3.08,0,0,1,139.52,216.72Z"/><path class="cls-1" d="M144.66,213.75h0c-.71.41-1.29,0-1.29-1v-2.71l2.57-1.49v2.72A3.07,3.07,0,0,1,144.66,213.75Z"/><path class="cls-1" d="M149.8,210.79h0c-.71.4-1.29,0-1.29-1V207.1l2.57-1.48v2.71A3.1,3.1,0,0,1,149.8,210.79Z"/><polygon class="cls-1" points="143.13 196.99 117.44 211.82 125.39 220.45 151.08 205.62 143.13 196.99"/><polygon class="cls-1" points="122.58 208.85 130.53 217.48 133.1 216 125.15 207.37 122.58 208.85"/><polygon class="cls-1" points="127.72 205.89 135.67 214.52 138.24 213.03 130.28 204.4 127.72 205.89"/><polygon class="cls-1" points="117.44 211.82 125.39 220.45 127.96 218.97 120.01 210.34 117.44 211.82"/><polygon class="cls-1" points="140.56 198.47 137.99 199.95 145.94 208.58 148.51 207.1 140.56 198.47"/><polygon class="cls-1" points="132.85 202.92 140.81 211.55 143.37 210.07 135.42 201.44 132.85 202.92"/><polygon class="cls-1" points="120.01 210.34 127.96 218.97 130.53 217.48 122.58 208.85 120.01 210.34"/><polygon class="cls-1" points="125.15 207.37 133.1 216 135.67 214.52 127.72 205.89 125.15 207.37"/><polygon class="cls-1" points="148.51 207.1 151.08 205.62 143.13 196.99 140.56 198.47 148.51 207.1"/><polygon class="cls-1" points="135.42 201.44 143.37 210.07 145.94 208.58 137.99 199.95 135.42 201.44"/><polygon class="cls-1" points="130.28 204.4 138.24 213.03 140.81 211.55 132.85 202.92 130.28 204.4"/><polygon class="cls-1" points="104.19 161.34 61.96 185.72 94.22 204.35 114.15 204.35 146.42 185.72 104.19 161.34"/><polygon class="cls-1" points="104.19 165.56 69.28 185.72 95.95 201.12 112.43 201.12 139.1 185.72 104.19 165.56"/><path class="cls-1" d="M104.19,161.34,62,185.72l32.26,18.63h19.93l32.27-18.63Zm8.24,39.78H96l-26.67-15.4,34.91-20.16,34.91,20.16Z"/><polygon class="cls-1" points="72.96 187.84 104.19 169.81 104.19 165.56 69.28 185.72 72.96 187.84"/><polygon class="cls-1" points="104.19 169.81 135.42 187.84 139.1 185.72 104.19 165.56 104.19 169.81"/><g class="cls-7"><path class="cls-6" d="M96.75,245.21h14.88V215.77H96.75Z"/><g class="cls-8"><rect class="cls-1" x="96.75" y="215.77" width="0.09" height="29.44"/><rect class="cls-1" x="96.84" y="215.77" width="0.37" height="29.44"/><rect class="cls-1" x="97.21" y="215.77" width="0.37" height="29.44"/><rect class="cls-1" x="97.57" y="215.77" width="0.37" height="29.44"/><rect class="cls-1" x="97.94" y="215.77" width="0.37" height="29.44"/><rect class="cls-1" x="98.31" y="215.77" width="0.37" height="29.44"/><rect class="cls-1" x="98.68" y="215.77" width="0.37" height="29.44"/><rect class="cls-1" x="99.04" y="215.77" width="0.37" height="29.44"/><rect class="cls-1" x="99.41" y="215.77" width="0.37" height="29.44"/><rect class="cls-1" x="99.78" y="215.77" width="0.37" height="29.44"/><rect class="cls-1" x="100.15" y="215.77" width="0.37" height="29.44"/><rect class="cls-1" x="100.51" y="215.77" width="0.37" height="29.44"/><rect class="cls-1" x="100.88" y="215.77" width="0.37" height="29.44"/><rect class="cls-1" x="101.25" y="215.77" width="0.37" height="29.44"/><rect class="cls-1" x="101.62" y="215.77" width="0.37" height="29.44"/><rect class="cls-1" x="101.99" y="215.77" width="0.37" height="29.44"/><rect class="cls-1" x="102.35" y="215.77" width="0.37" height="29.44"/><rect class="cls-1" x="102.72" y="215.77" width="0.37" height="29.44"/><rect class="cls-1" x="103.09" y="215.77" width="0.37" height="29.44"/><rect class="cls-1" x="103.45" y="215.77" width="0.37" height="29.44"/><rect class="cls-1" x="103.82" y="215.77" width="0.37" height="29.44"/><rect class="cls-1" x="104.19" y="215.77" width="0.37" height="29.44"/><rect class="cls-1" x="104.56" y="215.77" width="0.37" height="29.44"/><rect class="cls-1" x="104.92" y="215.77" width="0.37" height="29.44"/><rect class="cls-1" x="105.29" y="215.77" width="0.37" height="29.44"/><rect class="cls-1" x="105.66" y="215.77" width="0.37" height="29.44"/><rect class="cls-1" x="106.03" y="215.77" width="0.37" height="29.44"/><rect class="cls-1" x="106.39" y="215.77" width="0.37" height="29.44"/><rect class="cls-1" x="106.76" y="215.77" width="0.37" height="29.44"/><rect class="cls-1" x="107.13" y="215.77" width="0.37" height="29.44"/><rect class="cls-1" x="107.5" y="215.77" width="0.37" height="29.44"/><rect class="cls-1" x="107.87" y="215.77" width="0.37" height="29.44"/><rect class="cls-1" x="108.23" y="215.77" width="0.37" height="29.44"/><rect class="cls-1" x="108.6" y="215.77" width="0.37" height="29.44"/><rect class="cls-1" x="108.97" y="215.77" width="0.37" height="29.44"/><rect class="cls-1" x="109.34" y="215.77" width="0.37" height="29.44"/><rect class="cls-1" x="109.7" y="215.77" width="0.37" height="29.44"/><rect class="cls-1" x="110.07" y="215.77" width="0.37" height="29.44"/><rect class="cls-1" x="110.44" y="215.77" width="0.37" height="29.44"/><rect class="cls-1" x="110.8" y="215.77" width="0.37" height="29.44"/><rect class="cls-1" x="111.17" y="215.77" width="0.37" height="29.44"/><rect class="cls-1" x="111.54" y="215.77" width="0.09" height="29.44"/><rect class="cls-1" x="95.78" y="214.8" width="0.33" height="31.39"/><rect class="cls-1" x="96.1" y="214.8" width="0.37" height="31.39"/><rect class="cls-1" x="96.47" y="214.8" width="0.37" height="31.39"/><rect class="cls-1" x="96.84" y="214.8" width="0.37" height="31.39"/><rect class="cls-1" x="97.21" y="214.8" width="0.37" height="31.39"/><rect class="cls-1" x="97.57" y="214.8" width="0.37" height="31.39"/><rect class="cls-1" x="97.94" y="214.8" width="0.37" height="31.39"/><rect class="cls-1" x="98.31" y="214.8" width="0.37" height="31.39"/><rect class="cls-1" x="98.68" y="214.8" width="0.37" height="31.39"/><rect class="cls-1" x="99.04" y="214.8" width="0.37" height="31.39"/><rect class="cls-1" x="99.41" y="214.8" width="0.37" height="31.39"/><rect class="cls-1" x="99.78" y="214.8" width="0.37" height="31.39"/><rect class="cls-1" x="100.15" y="214.8" width="0.37" height="31.39"/><rect class="cls-1" x="100.51" y="214.8" width="0.37" height="31.39"/><rect class="cls-1" x="100.88" y="214.8" width="0.37" height="31.39"/><rect class="cls-1" x="101.25" y="214.8" width="0.37" height="31.39"/><rect class="cls-1" x="101.62" y="214.8" width="0.37" height="31.39"/><rect class="cls-1" x="101.99" y="214.8" width="0.37" height="31.39"/><rect class="cls-1" x="102.35" y="214.8" width="0.37" height="31.39"/><rect class="cls-1" x="102.72" y="214.8" width="0.37" height="31.39"/><rect class="cls-1" x="103.09" y="214.8" width="0.37" height="31.39"/><rect class="cls-1" x="103.45" y="214.8" width="0.37" height="31.39"/><rect class="cls-1" x="103.82" y="214.8" width="0.37" height="31.39"/><rect class="cls-1" x="104.19" y="214.8" width="0.37" height="31.39"/><rect class="cls-1" x="104.56" y="214.8" width="0.37" height="31.39"/><rect class="cls-1" x="104.92" y="214.8" width="0.37" height="31.39"/><rect class="cls-1" x="105.29" y="214.8" width="0.37" height="31.39"/><rect class="cls-1" x="105.66" y="214.8" width="0.37" height="31.39"/><rect class="cls-1" x="106.03" y="214.8" width="0.37" height="31.39"/><rect class="cls-1" x="106.39" y="214.8" width="0.37" height="31.39"/><rect class="cls-1" x="106.76" y="214.8" width="0.37" height="31.39"/><rect class="cls-1" x="107.13" y="214.8" width="0.37" height="31.39"/><rect class="cls-1" x="107.5" y="214.8" width="0.37" height="31.39"/><rect class="cls-1" x="107.87" y="214.8" width="0.37" height="31.39"/><rect class="cls-1" x="108.23" y="214.8" width="0.37" height="31.39"/><rect class="cls-1" x="108.6" y="214.8" width="0.37" height="31.39"/><rect class="cls-1" x="108.97" y="214.8" width="0.37" height="31.39"/><rect class="cls-1" x="109.34" y="214.8" width="0.37" height="31.39"/><rect class="cls-1" x="109.7" y="214.8" width="0.37" height="31.39"/><rect class="cls-1" x="110.07" y="214.8" width="0.37" height="31.39"/><rect class="cls-1" x="110.44" y="214.8" width="0.37" height="31.39"/><rect class="cls-1" x="110.8" y="214.8" width="0.37" height="31.39"/><rect class="cls-1" x="111.17" y="214.8" width="0.37" height="31.39"/><rect class="cls-1" x="111.54" y="214.8" width="0.37" height="31.39"/><rect class="cls-1" x="111.91" y="214.8" width="0.37" height="31.39"/><rect class="cls-1" x="112.28" y="214.8" width="0.33" height="31.39"/></g><path class="cls-5" d="M96.75,245.21h14.88V215.77H96.75Z"/></g><rect class="cls-1" x="96.27" y="215.29" width="15.85" height="30.85"/><g class="cls-9"><path class="cls-1" d="M97.67,245.66h13V218.23h-13Z"/></g><rect class="cls-1" x="97.67" y="217.98" width="12.98" height="28.16"/><rect class="cls-1" x="99.41" y="219.81" width="9.55" height="11.69"/><path class="cls-1" d="M109,234.35a.75.75,0,1,1-.75-.74A.74.74,0,0,1,109,234.35Z"/><polyline class="cls-1" points="66.86 198.27 65.8 198.88 90.38 213.07"/><polygon class="cls-1" points="65.8 220.76 90.38 234.95 90.38 213.07 65.8 198.88 65.8 220.76"/><polygon class="cls-1" points="67.11 219.81 89.07 232.49 89.07 213.88 67.11 201.2 67.11 219.81"/><path class="cls-1" d="M74.15,219.92a.19.19,0,0,1-.16-.09l-1.57-2.72a.18.18,0,0,1,.32-.18l1.57,2.72a.18.18,0,0,1-.07.25A.15.15,0,0,1,74.15,219.92Z"/><path class="cls-1" d="M81.7,224.13h0c.71.41,1.29,0,1.29-1v-2.71L80.42,219v2.71A3.06,3.06,0,0,0,81.7,224.13Z"/><path class="cls-1" d="M76.56,221.17h0c.71.41,1.29,0,1.29-1v-2.72L75.28,216v2.71A3.08,3.08,0,0,0,76.56,221.17Z"/><path class="cls-1" d="M71.43,218.2h0c.71.41,1.28,0,1.28-1v-2.71L70.14,213v2.72A3.08,3.08,0,0,0,71.43,218.2Z"/><path class="cls-1" d="M66.29,215.23h0c.71.41,1.28,0,1.28-1v-2.71L65,210.07v2.71A3.05,3.05,0,0,0,66.29,215.23Z"/><path class="cls-1" d="M61.15,212.27h0c.71.41,1.29,0,1.29-1v-2.72l-2.57-1.48v2.71A3.08,3.08,0,0,0,61.15,212.27Z"/><path class="cls-1" d="M79.13,222.65h0c.71.41,1.29,0,1.29-1V219l-2.57-1.49v2.72A3.07,3.07,0,0,0,79.13,222.65Z"/><path class="cls-1" d="M74,219.68h0c.71.41,1.28,0,1.28-1V216l-2.57-1.48v2.71A3.07,3.07,0,0,0,74,219.68Z"/><path class="cls-1" d="M68.86,216.72h0c.71.41,1.28,0,1.28-1V213l-2.57-1.48v2.71A3.08,3.08,0,0,0,68.86,216.72Z"/><path class="cls-1" d="M63.72,213.75h0c.71.41,1.28,0,1.28-1v-2.71l-2.56-1.49v2.72A3.07,3.07,0,0,0,63.72,213.75Z"/><path class="cls-1" d="M58.58,210.79h0c.71.4,1.29,0,1.29-1V207.1l-2.57-1.48v2.71A3.08,3.08,0,0,0,58.58,210.79Z"/><polygon class="cls-1" points="65.25 196.99 90.94 211.82 82.99 220.45 57.3 205.62 65.25 196.99"/><polygon class="cls-1" points="85.8 208.85 77.85 217.48 75.28 216 83.23 207.37 85.8 208.85"/><polygon class="cls-1" points="80.66 205.89 72.71 214.52 70.14 213.03 78.09 204.4 80.66 205.89"/><polygon class="cls-1" points="90.94 211.82 82.99 220.45 80.42 218.97 88.37 210.34 90.94 211.82"/><polygon class="cls-1" points="67.82 198.47 70.39 199.95 62.44 208.58 59.87 207.1 67.82 198.47"/><polygon class="cls-1" points="75.52 202.92 67.57 211.55 65 210.07 72.95 201.44 75.52 202.92"/><polygon class="cls-1" points="88.37 210.34 80.42 218.97 77.85 217.48 85.8 208.85 88.37 210.34"/><polygon class="cls-1" points="83.23 207.37 75.28 216 72.71 214.52 80.66 205.89 83.23 207.37"/><polygon class="cls-1" points="59.87 207.1 57.3 205.62 65.25 196.99 67.82 198.47 59.87 207.1"/><polygon class="cls-1" points="72.95 201.44 65 210.07 62.44 208.58 70.39 199.95 72.95 201.44"/><polygon class="cls-1" points="78.09 204.4 70.14 213.03 67.57 211.55 75.52 202.92 78.09 204.4"/></g><polygon class="cls-1" points="151.1 137.97 151.1 144.35 206.38 176.37 247.68 152.74 247.68 145.86 151.1 137.97"/><polygon class="cls-1" points="192.56 114.04 247.68 145.86 206.38 169.89 151.1 137.97 192.56 114.04"/><polygon class="cls-1" points="169.24 137.02 169.24 141 203.76 160.99 229.54 146.24 229.54 141.94 169.24 137.02"/><polygon class="cls-4" points="195.13 122.07 229.54 141.94 203.76 156.94 169.24 137.02 195.13 122.07"/><polygon class="cls-1" points="151.1 144.35 150.95 289.09 206.23 321.01 206.38 176.37 151.1 144.35"/><polygon class="cls-1" points="206.23 321.01 247.68 297.57 247.68 152.74 206.38 176.37 206.23 321.01"/><polygon class="cls-1" points="213.71 179.08 213.71 184.19 209.28 186.75 209.28 181.64 213.71 179.08"/><polygon class="cls-1" points="220.06 175.65 220.06 180.77 215.63 183.32 215.63 178.21 220.06 175.65"/><polygon class="cls-1" points="226.4 171.94 226.4 177.06 221.97 179.62 221.97 174.5 226.4 171.94"/><polygon class="cls-1" points="232.75 168.39 232.75 173.5 228.32 176.06 228.32 170.95 232.75 168.39"/><polygon class="cls-1" points="239.09 164.56 239.09 169.67 234.66 172.23 234.66 167.11 239.09 164.56"/><polygon class="cls-1" points="245.44 160.92 245.44 166.04 241.01 168.6 241.01 163.48 245.44 160.92"/><polygon class="cls-1" points="213.71 188.49 213.71 193.6 209.28 196.16 209.28 191.05 213.71 188.49"/><polygon class="cls-1" points="220.06 185.06 220.06 190.18 215.63 192.73 215.63 187.62 220.06 185.06"/><polygon class="cls-1" points="226.4 181.35 226.4 186.47 221.97 189.03 221.97 183.91 226.4 181.35"/><polygon class="cls-1" points="232.75 177.8 232.75 182.91 228.32 185.47 228.32 180.35 232.75 177.8"/><polygon class="cls-1" points="239.09 173.96 239.09 179.08 234.66 181.63 234.66 176.52 239.09 173.96"/><polygon class="cls-1" points="245.44 170.33 245.44 175.45 241.01 178 241.01 172.89 245.44 170.33"/><polygon class="cls-1" points="213.71 197.9 213.71 203.01 209.28 205.57 209.28 200.46 213.71 197.9"/><polygon class="cls-1" points="220.06 194.47 220.06 199.59 215.63 202.14 215.63 197.03 220.06 194.47"/><polygon class="cls-1" points="226.4 190.76 226.4 195.88 221.97 198.44 221.97 193.32 226.4 190.76"/><polygon class="cls-1" points="232.75 187.21 232.75 192.32 228.32 194.88 228.32 189.76 232.75 187.21"/><polygon class="cls-1" points="239.09 183.37 239.09 188.49 234.66 191.05 234.66 185.93 239.09 183.37"/><polygon class="cls-1" points="245.44 179.74 245.44 184.86 241.01 187.41 241.01 182.3 245.44 179.74"/><polygon class="cls-1" points="213.71 207.31 213.71 212.42 209.28 214.98 209.28 209.87 213.71 207.31"/><polygon class="cls-1" points="220.06 203.88 220.06 208.99 215.63 211.55 215.63 206.44 220.06 203.88"/><polygon class="cls-1" points="226.4 200.17 226.4 205.29 221.97 207.84 221.97 202.73 226.4 200.17"/><polygon class="cls-1" points="232.75 196.62 232.75 201.73 228.32 204.29 228.32 199.18 232.75 196.62"/><polygon class="cls-1" points="239.09 192.78 239.09 197.9 234.66 200.45 234.66 195.34 239.09 192.78"/><polygon class="cls-1" points="245.44 189.15 245.44 194.27 241.01 196.82 241.01 191.71 245.44 189.15"/><polygon class="cls-1" points="213.71 216.72 213.71 221.83 209.28 224.39 209.28 219.27 213.71 216.72"/><polygon class="cls-1" points="220.06 213.29 220.06 218.4 215.63 220.96 215.63 215.85 220.06 213.29"/><polygon class="cls-1" points="226.4 209.58 226.4 214.69 221.97 217.25 221.97 212.14 226.4 209.58"/><polygon class="cls-1" points="232.75 206.03 232.75 211.14 228.32 213.7 228.32 208.58 232.75 206.03"/><polygon class="cls-1" points="239.09 202.19 239.09 207.3 234.66 209.86 234.66 204.75 239.09 202.19"/><polygon class="cls-1" points="245.44 198.56 245.44 203.67 241.01 206.23 241.01 201.12 245.44 198.56"/><polygon class="cls-1" points="213.71 226.13 213.71 231.24 209.28 233.8 209.28 228.69 213.71 226.13"/><polygon class="cls-1" points="220.06 222.7 220.06 227.81 215.63 230.37 215.63 225.26 220.06 222.7"/><polygon class="cls-1" points="226.4 218.99 226.4 224.1 221.97 226.66 221.97 221.55 226.4 218.99"/><polygon class="cls-1" points="232.75 215.44 232.75 220.55 228.32 223.11 228.32 217.99 232.75 215.44"/><polygon class="cls-1" points="239.09 211.6 239.09 216.72 234.66 219.27 234.66 214.16 239.09 211.6"/><polygon class="cls-1" points="245.44 207.97 245.44 213.08 241.01 215.64 241.01 210.52 245.44 207.97"/><polygon class="cls-1" points="213.71 235.53 213.71 240.65 209.28 243.21 209.28 238.09 213.71 235.53"/><polygon class="cls-1" points="220.06 232.11 220.06 237.22 215.63 239.78 215.63 234.67 220.06 232.11"/><polygon class="cls-1" points="226.4 228.4 226.4 233.51 221.97 236.07 221.97 230.96 226.4 228.4"/><polygon class="cls-1" points="232.75 224.84 232.75 229.96 228.32 232.52 228.32 227.41 232.75 224.84"/><polygon class="cls-1" points="239.09 221.01 239.09 226.13 234.66 228.68 234.66 223.57 239.09 221.01"/><polygon class="cls-1" points="245.44 217.38 245.44 222.49 241.01 225.05 241.01 219.94 245.44 217.38"/><polygon class="cls-1" points="213.71 244.94 213.71 250.06 209.28 252.62 209.28 247.5 213.71 244.94"/><polygon class="cls-1" points="220.06 241.52 220.06 246.63 215.63 249.19 215.63 244.07 220.06 241.52"/><polygon class="cls-1" points="226.4 237.81 226.4 242.92 221.97 245.48 221.97 240.37 226.4 237.81"/><polygon class="cls-1" points="232.75 234.25 232.75 239.37 228.32 241.93 228.32 236.81 232.75 234.25"/><polygon class="cls-1" points="239.09 230.42 239.09 235.53 234.66 238.09 234.66 232.98 239.09 230.42"/><polygon class="cls-1" points="245.44 226.79 245.44 231.9 241.01 234.46 241.01 229.34 245.44 226.79"/><polygon class="cls-1" points="213.71 254.35 213.71 259.47 209.28 262.03 209.28 256.91 213.71 254.35"/><polygon class="cls-1" points="220.06 250.93 220.06 256.04 215.63 258.6 215.63 253.48 220.06 250.93"/><polygon class="cls-1" points="226.4 247.22 226.4 252.33 221.97 254.89 221.97 249.78 226.4 247.22"/><polygon class="cls-1" points="232.75 243.66 232.75 248.78 228.32 251.34 228.32 246.22 232.75 243.66"/><polygon class="cls-1" points="239.09 239.83 239.09 244.94 234.66 247.5 234.66 242.38 239.09 239.83"/><polygon class="cls-1" points="245.44 236.2 245.44 241.31 241.01 243.87 241.01 238.75 245.44 236.2"/><polygon class="cls-1" points="213.71 263.76 213.71 268.88 209.28 271.44 209.28 266.32 213.71 263.76"/><polygon class="cls-1" points="220.06 260.34 220.06 265.45 215.63 268.01 215.63 262.89 220.06 260.34"/><polygon class="cls-1" points="226.4 256.63 226.4 261.74 221.97 264.3 221.97 259.19 226.4 256.63"/><polygon class="cls-1" points="232.75 253.07 232.75 258.19 228.32 260.75 228.32 255.63 232.75 253.07"/><polygon class="cls-1" points="239.09 249.24 239.09 254.35 234.66 256.91 234.66 251.79 239.09 249.24"/><polygon class="cls-1" points="245.44 245.6 245.44 250.72 241.01 253.28 241.01 248.16 245.44 245.6"/><polygon class="cls-1" points="213.71 273.17 213.71 278.29 209.28 280.84 209.28 275.73 213.71 273.17"/><polygon class="cls-1" points="220.06 269.75 220.06 274.86 215.63 277.42 215.63 272.3 220.06 269.75"/><polygon class="cls-1" points="226.4 266.04 226.4 271.15 221.97 273.71 221.97 268.6 226.4 266.04"/><polygon class="cls-1" points="232.75 262.48 232.75 267.6 228.32 270.15 228.32 265.04 232.75 262.48"/><polygon class="cls-1" points="239.09 258.65 239.09 263.76 234.66 266.32 234.66 261.2 239.09 258.65"/><polygon class="cls-1" points="245.44 255.01 245.44 260.13 241.01 262.69 241.01 257.57 245.44 255.01"/><polygon class="cls-1" points="213.71 282.58 213.71 287.7 209.28 290.25 209.28 285.14 213.71 282.58"/><polygon class="cls-1" points="220.06 279.15 220.06 284.27 215.63 286.83 215.63 281.71 220.06 279.15"/><polygon class="cls-1" points="226.4 275.44 226.4 280.56 221.97 283.12 221.97 278 226.4 275.44"/><polygon class="cls-1" points="232.75 271.89 232.75 277 228.32 279.56 228.32 274.45 232.75 271.89"/><polygon class="cls-1" points="239.09 268.05 239.09 273.17 234.66 275.73 234.66 270.61 239.09 268.05"/><polygon class="cls-1" points="245.44 264.42 245.44 269.54 241.01 272.1 241.01 266.98 245.44 264.42"/><polygon class="cls-1" points="213.71 291.99 213.71 297.11 209.28 299.66 209.28 294.55 213.71 291.99"/><polygon class="cls-1" points="220.06 288.56 220.06 293.68 215.63 296.24 215.63 291.12 220.06 288.56"/><polygon class="cls-1" points="226.4 284.85 226.4 289.97 221.97 292.53 221.97 287.41 226.4 284.85"/><polygon class="cls-1" points="232.75 281.3 232.75 286.42 228.32 288.97 228.32 283.86 232.75 281.3"/><polygon class="cls-1" points="239.09 277.46 239.09 282.58 234.66 285.14 234.66 280.02 239.09 277.46"/><polygon class="cls-1" points="245.44 273.83 245.44 278.94 241.01 281.51 241.01 276.39 245.44 273.83"/><polygon class="cls-1" points="213.71 301.4 213.71 306.51 209.28 309.07 209.28 303.96 213.71 301.4"/><polygon class="cls-1" points="220.06 297.97 220.06 303.09 215.63 305.64 215.63 300.53 220.06 297.97"/><polygon class="cls-1" points="226.4 294.26 226.4 299.38 221.97 301.94 221.97 296.82 226.4 294.26"/><polygon class="cls-1" points="232.75 290.71 232.75 295.82 228.32 298.38 228.32 293.27 232.75 290.71"/><polygon class="cls-1" points="239.09 286.87 239.09 291.99 234.66 294.54 234.66 289.43 239.09 286.87"/><polygon class="cls-1" points="245.44 283.24 245.44 288.36 241.01 290.91 241.01 285.8 245.44 283.24"/><polygon class="cls-1" points="191.85 179.08 191.85 184.19 196.28 186.75 196.28 181.64 191.85 179.08"/><polygon class="cls-1" points="185.5 175.65 185.5 180.77 189.94 183.32 189.94 178.21 185.5 175.65"/><polygon class="cls-1" points="179.16 171.94 179.16 177.06 183.59 179.62 183.59 174.5 179.16 171.94"/><polygon class="cls-1" points="172.81 168.39 172.81 173.5 177.24 176.06 177.24 170.95 172.81 168.39"/><polygon class="cls-1" points="166.47 164.56 166.47 169.67 170.9 172.23 170.9 167.11 166.47 164.56"/><polygon class="cls-1" points="160.12 160.92 160.12 166.04 164.55 168.6 164.55 163.48 160.12 160.92"/><polygon class="cls-1" points="191.85 188.49 191.85 193.6 196.28 196.16 196.28 191.05 191.85 188.49"/><polygon class="cls-1" points="185.5 185.06 185.5 190.18 189.94 192.73 189.94 187.62 185.5 185.06"/><polygon class="cls-1" points="179.16 181.35 179.16 186.47 183.59 189.03 183.59 183.91 179.16 181.35"/><polygon class="cls-1" points="172.81 177.8 172.81 182.91 177.24 185.47 177.24 180.35 172.81 177.8"/><polygon class="cls-1" points="166.47 173.96 166.47 179.08 170.9 181.63 170.9 176.52 166.47 173.96"/><polygon class="cls-1" points="160.12 170.33 160.12 175.45 164.55 178 164.55 172.89 160.12 170.33"/><polygon class="cls-1" points="191.85 197.9 191.85 203.01 196.28 205.57 196.28 200.46 191.85 197.9"/><polygon class="cls-1" points="185.5 194.47 185.5 199.59 189.94 202.14 189.94 197.03 185.5 194.47"/><polygon class="cls-1" points="179.16 190.76 179.16 195.88 183.59 198.44 183.59 193.32 179.16 190.76"/><polygon class="cls-1" points="172.81 187.21 172.81 192.32 177.24 194.88 177.24 189.76 172.81 187.21"/><polygon class="cls-1" points="166.47 183.37 166.47 188.49 170.9 191.05 170.9 185.93 166.47 183.37"/><polygon class="cls-1" points="160.12 179.74 160.12 184.86 164.55 187.41 164.55 182.3 160.12 179.74"/><polygon class="cls-1" points="191.85 207.31 191.85 212.42 196.28 214.98 196.28 209.87 191.85 207.31"/><polygon class="cls-1" points="185.5 203.88 185.5 208.99 189.94 211.55 189.94 206.44 185.5 203.88"/><polygon class="cls-1" points="179.16 200.17 179.16 205.29 183.59 207.84 183.59 202.73 179.16 200.17"/><polygon class="cls-1" points="172.81 196.62 172.81 201.73 177.24 204.29 177.24 199.18 172.81 196.62"/><polygon class="cls-1" points="166.47 192.78 166.47 197.9 170.9 200.45 170.9 195.34 166.47 192.78"/><polygon class="cls-1" points="160.12 189.15 160.12 194.27 164.55 196.82 164.55 191.71 160.12 189.15"/><polygon class="cls-1" points="191.85 216.72 191.85 221.83 196.28 224.39 196.28 219.27 191.85 216.72"/><polygon class="cls-1" points="185.5 213.29 185.5 218.4 189.94 220.96 189.94 215.85 185.5 213.29"/><polygon class="cls-1" points="179.16 209.58 179.16 214.69 183.59 217.25 183.59 212.14 179.16 209.58"/><polygon class="cls-1" points="172.81 206.03 172.81 211.14 177.24 213.7 177.24 208.58 172.81 206.03"/><polygon class="cls-1" points="166.47 202.19 166.47 207.3 170.9 209.86 170.9 204.75 166.47 202.19"/><polygon class="cls-1" points="160.12 198.56 160.12 203.67 164.55 206.23 164.55 201.12 160.12 198.56"/><polygon class="cls-1" points="191.85 226.13 191.85 231.24 196.28 233.8 196.28 228.69 191.85 226.13"/><polygon class="cls-1" points="185.5 222.7 185.5 227.81 189.94 230.37 189.94 225.26 185.5 222.7"/><polygon class="cls-1" points="179.16 218.99 179.16 224.1 183.59 226.66 183.59 221.55 179.16 218.99"/><polygon class="cls-1" points="172.81 215.44 172.81 220.55 177.24 223.11 177.24 217.99 172.81 215.44"/><polygon class="cls-1" points="166.47 211.6 166.47 216.72 170.9 219.27 170.9 214.16 166.47 211.6"/><polygon class="cls-1" points="160.12 207.97 160.12 213.08 164.55 215.64 164.55 210.52 160.12 207.97"/><polygon class="cls-1" points="191.85 235.53 191.85 240.65 196.28 243.21 196.28 238.09 191.85 235.53"/><polygon class="cls-1" points="185.5 232.11 185.5 237.22 189.94 239.78 189.94 234.67 185.5 232.11"/><polygon class="cls-1" points="179.16 228.4 179.16 233.51 183.59 236.07 183.59 230.96 179.16 228.4"/><polygon class="cls-1" points="172.81 224.84 172.81 229.96 177.24 232.52 177.24 227.41 172.81 224.84"/><polygon class="cls-1" points="166.47 221.01 166.47 226.13 170.9 228.68 170.9 223.57 166.47 221.01"/><polygon class="cls-1" points="160.12 217.38 160.12 222.49 164.55 225.05 164.55 219.94 160.12 217.38"/><polygon class="cls-1" points="191.85 244.94 191.85 250.06 196.28 252.62 196.28 247.5 191.85 244.94"/><polygon class="cls-1" points="185.5 241.52 185.5 246.63 189.94 249.19 189.94 244.07 185.5 241.52"/><polygon class="cls-1" points="179.16 237.81 179.16 242.92 183.59 245.48 183.59 240.37 179.16 237.81"/><polygon class="cls-1" points="172.81 234.25 172.81 239.37 177.24 241.93 177.24 236.81 172.81 234.25"/><polygon class="cls-1" points="166.47 230.42 166.47 235.53 170.9 238.09 170.9 232.98 166.47 230.42"/><polygon class="cls-1" points="160.12 226.79 160.12 231.9 164.55 234.46 164.55 229.34 160.12 226.79"/><polygon class="cls-1" points="191.85 254.35 191.85 259.47 196.28 262.03 196.28 256.91 191.85 254.35"/><polygon class="cls-1" points="185.5 250.93 185.5 256.04 189.94 258.6 189.94 253.48 185.5 250.93"/><polygon class="cls-1" points="179.16 247.22 179.16 252.33 183.59 254.89 183.59 249.78 179.16 247.22"/><polygon class="cls-1" points="172.81 243.66 172.81 248.78 177.24 251.34 177.24 246.22 172.81 243.66"/><polygon class="cls-1" points="166.47 239.83 166.47 244.94 170.9 247.5 170.9 242.38 166.47 239.83"/><polygon class="cls-1" points="160.12 236.2 160.12 241.31 164.55 243.87 164.55 238.75 160.12 236.2"/><polygon class="cls-1" points="191.85 263.76 191.85 268.88 196.28 271.44 196.28 266.32 191.85 263.76"/><polygon class="cls-1" points="185.5 260.34 185.5 265.45 189.94 268.01 189.94 262.89 185.5 260.34"/><polygon class="cls-1" points="179.16 256.63 179.16 261.74 183.59 264.3 183.59 259.19 179.16 256.63"/><polygon class="cls-1" points="172.81 253.07 172.81 258.19 177.24 260.75 177.24 255.63 172.81 253.07"/><polygon class="cls-1" points="166.47 249.24 166.47 254.35 170.9 256.91 170.9 251.79 166.47 249.24"/><polygon class="cls-1" points="160.12 245.6 160.12 250.72 164.55 253.28 164.55 248.16 160.12 245.6"/><polygon class="cls-1" points="191.85 273.17 191.85 278.29 196.28 280.84 196.28 275.73 191.85 273.17"/><polygon class="cls-1" points="185.5 269.75 185.5 274.86 189.94 277.42 189.94 272.3 185.5 269.75"/><polygon class="cls-1" points="179.16 266.04 179.16 271.15 183.59 273.71 183.59 268.6 179.16 266.04"/><polygon class="cls-1" points="172.81 262.48 172.81 267.6 177.24 270.15 177.24 265.04 172.81 262.48"/><polygon class="cls-1" points="166.47 258.65 166.47 263.76 170.9 266.32 170.9 261.2 166.47 258.65"/><polygon class="cls-1" points="160.12 255.01 160.12 260.13 164.55 262.69 164.55 257.57 160.12 255.01"/><polygon class="cls-1" points="191.85 282.58 191.85 287.7 196.28 290.25 196.28 285.14 191.85 282.58"/><polygon class="cls-1" points="185.5 279.15 185.5 284.27 189.94 286.83 189.94 281.71 185.5 279.15"/><polygon class="cls-1" points="179.16 275.44 179.16 280.56 183.59 283.12 183.59 278 179.16 275.44"/><polygon class="cls-1" points="172.81 271.89 172.81 277 177.24 279.56 177.24 274.45 172.81 271.89"/><polygon class="cls-1" points="166.47 268.05 166.47 273.17 170.9 275.73 170.9 270.61 166.47 268.05"/><polygon class="cls-1" points="160.12 264.42 160.12 269.54 164.55 272.1 164.55 266.98 160.12 264.42"/><polygon class="cls-1" points="191.85 291.99 191.85 297.11 196.28 299.66 196.28 294.55 191.85 291.99"/><polygon class="cls-1" points="185.5 288.56 185.5 293.68 189.94 296.24 189.94 291.12 185.5 288.56"/><polygon class="cls-1" points="179.16 284.85 179.16 289.97 183.59 292.53 183.59 287.41 179.16 284.85"/><polygon class="cls-1" points="172.81 281.3 172.81 286.42 177.24 288.97 177.24 283.86 172.81 281.3"/><polygon class="cls-1" points="166.47 277.46 166.47 282.58 170.9 285.14 170.9 280.02 166.47 277.46"/><polygon class="cls-1" points="160.12 273.83 160.12 278.94 164.55 281.51 164.55 276.39 160.12 273.83"/><polygon class="cls-1" points="191.85 301.4 191.85 306.51 196.28 309.07 196.28 303.96 191.85 301.4"/><polygon class="cls-1" points="185.5 297.97 185.5 303.09 189.94 305.64 189.94 300.53 185.5 297.97"/><polygon class="cls-1" points="179.16 294.26 179.16 299.38 183.59 301.94 183.59 296.82 179.16 294.26"/><polygon class="cls-1" points="172.81 290.71 172.81 295.82 177.24 298.38 177.24 293.27 172.81 290.71"/><polygon class="cls-1" points="166.47 286.87 166.47 291.99 170.9 294.54 170.9 289.43 166.47 286.87"/><polygon class="cls-1" points="160.12 283.24 160.12 288.36 164.55 290.91 164.55 285.8 160.12 283.24"/><polygon class="cls-1" points="256.7 156.58 256.7 163.11 313.34 195.91 355.65 171.71 355.65 164.66 256.7 156.58"/><polygon class="cls-1" points="299.18 132.06 355.65 164.66 313.34 189.28 256.7 156.58 299.18 132.06"/><polygon class="cls-1" points="275.29 155.6 275.29 159.68 310.65 180.16 337.06 165.05 337.06 160.65 275.29 155.6"/><polygon class="cls-4" points="301.81 140.29 337.06 160.65 310.65 176.02 275.29 155.6 301.81 140.29"/><polygon class="cls-1" points="256.7 163.11 256.55 352.68 313.34 386.27 313.34 195.91 256.7 163.11"/><polygon class="cls-1" points="313.34 386.27 355.65 361.36 355.65 171.71 313.34 195.91 313.34 386.27"/><polygon class="cls-1" points="316.35 204.87 316.35 218.89 352.63 197.94 352.63 183.92 316.35 204.87"/><polygon class="cls-1" points="316.35 223.85 316.35 237.88 352.63 216.93 352.63 202.91 316.35 223.85"/><polygon class="cls-1" points="316.35 242.84 316.35 256.87 352.63 235.92 352.63 221.9 316.35 242.84"/><polygon class="cls-1" points="316.35 261.83 316.35 275.86 352.63 254.91 352.63 240.89 316.35 261.83"/><polygon class="cls-1" points="316.35 280.82 316.35 294.84 352.63 273.9 352.63 259.87 316.35 280.82"/><polygon class="cls-1" points="316.35 299.81 316.35 313.83 352.63 292.88 352.63 278.86 316.35 299.81"/><polygon class="cls-1" points="316.35 318.8 316.35 332.82 352.63 311.87 352.63 297.85 316.35 318.8"/><polygon class="cls-1" points="316.35 337.78 316.35 351.8 352.63 330.86 352.63 316.84 316.35 337.78"/><polygon class="cls-1" points="316.35 356.77 316.35 370.79 352.63 349.85 352.63 335.82 316.35 356.77"/><polygon class="cls-1" points="303.44 204.87 303.44 218.89 267.15 197.94 267.15 183.92 303.44 204.87"/><polygon class="cls-1" points="303.44 223.85 303.44 237.88 267.15 216.93 267.15 202.91 303.44 223.85"/><polygon class="cls-1" points="303.44 242.84 303.44 256.87 267.15 235.92 267.15 221.9 303.44 242.84"/><polygon class="cls-1" points="303.44 261.83 303.44 275.86 267.15 254.91 267.15 240.89 303.44 261.83"/><polygon class="cls-1" points="303.44 280.82 303.44 294.84 267.15 273.9 267.15 259.87 303.44 280.82"/><polygon class="cls-1" points="303.44 299.81 303.44 313.83 267.15 292.88 267.15 278.86 303.44 299.81"/><polygon class="cls-1" points="303.44 318.8 303.44 332.82 267.15 311.87 267.15 297.85 303.44 318.8"/><polygon class="cls-1" points="303.44 337.78 303.44 351.8 267.15 330.86 267.15 316.84 303.44 337.78"/><polygon class="cls-1" points="303.44 356.77 303.44 370.79 267.15 349.85 267.15 335.82 303.44 356.77"/><line class="cls-1" x1="354.81" y1="86.54" x2="354.81" y2="139.51"/><line class="cls-1" x1="359.38" y1="101.51" x2="359.38" y2="115.21"/><line class="cls-1" x1="250.7" y1="115.48" x2="250.7" y2="137.21"/><line class="cls-1" x1="255.27" y1="127.75" x2="255.27" y2="133.37"/><line class="cls-1" x1="255.27" y1="136.7" x2="255.27" y2="140.29"/><line class="cls-1" x1="106.47" y1="129.72" x2="106.47" y2="143.83"/><line class="cls-1" x1="106.47" y1="146.81" x2="106.47" y2="150.09"/><line class="cls-1" x1="29.93" y1="151.15" x2="29.93" y2="157.3"/><line class="cls-1" x1="29.93" y1="160.04" x2="29.93" y2="161.47"/></g></g></g></svg>