<svg xmlns="http://www.w3.org/2000/svg" viewBox="0 0 132.03 151.37"><defs><style>.cls-1,.cls-2{fill:#fff;stroke:#282828;stroke-linecap:round;stroke-linejoin:round;}.cls-1{fill-rule:evenodd;}.cls-3{fill:#282828;}</style></defs><title>Asset 14</title><g id="Layer_2" data-name="Layer 2"><g id="Layer_1-2" data-name="Layer 1"><path class="cls-1" d="M18.14,113.18l.32-31.75c.11-10.16,32.29-10.14,32.4,0l.34,31.72m-16.53,32.4V113.61M43,145.55l1.64-32.48V85M24.74,85v28.11l1.64,32.48m15-86.84c-.64-6.9-12.82-6.9-13.47,0-.16,1.79.24,6,1.12,7.63a7.22,7.22,0,0,0,4.54,3.21,5.24,5.24,0,0,0,2.16,0,7.24,7.24,0,0,0,4.54-3.21C41.17,64.74,41.57,60.5,41.4,58.71Z"/><path class="cls-2" d="M64.38,40.32a17.1,17.1,0,0,1,.37-3.57l.14-.67-.46-.49A17.2,17.2,0,0,1,77.05,6.69a17.4,17.4,0,0,1,4.49.59l.8.21.54-.62a18.44,18.44,0,0,1,30.45,3.85l.37.74h1.13a16.7,16.7,0,0,1,9.64,30.33l-.46.33-.08.56a17.2,17.2,0,0,1-28.8,10.22L94.24,52l-.9.84a17.2,17.2,0,0,1-29-12.56Z"/><path class="cls-2" d="M60.44,60.69a4,4,0,1,1,4,4A4,4,0,0,1,60.44,60.69Z"/><path class="cls-2" d="M51.2,65.8a2,2,0,1,1,2,2A2,2,0,0,1,51.2,65.8Z"/><line class="cls-2" x1="0.5" y1="150.87" x2="68.84" y2="150.87"/><polygon class="cls-3" points="109.06 39.43 80.87 39.43 80.87 25.32 82.22 25.32 82.22 38.08 107.72 38.08 107.72 25.32 109.06 25.32 109.06 39.43"/><path class="cls-3" d="M111.06,26h-8.9L95,21.41,87.77,26H78.88l3.55-9.41H107.5Zm-8.51-1.34h6.56l-2.54-6.72H83.36l-2.54,6.72h6.56L95,19.82Z"/><path class="cls-3" d="M97.66,39.43H92.28V28.68h5.38Zm-4-1.35h2.69V30H93.62Z"/><path class="cls-3" d="M105.7,34.72h-5.37V29.35h5.37Zm-4-1.34h2.69V30.69h-2.69Z"/><path class="cls-3" d="M89.61,34.72H84.23V29.35h5.38Zm-4-1.34h2.68V30.69H85.58Z"/><rect class="cls-3" x="91.61" y="40.77" width="6.72" height="1.34"/><rect class="cls-3" x="89.59" y="43.46" width="10.75" height="1.34"/><path class="cls-3" d="M89.61,17.93h-4V13.22h4Zm-2.69-1.35h1.34v-2H86.92Z"/></g></g></svg>