<svg xmlns="http://www.w3.org/2000/svg" viewBox="0 0 861.5 335.04"><defs><style>.cls-1,.cls-2,.cls-3{fill:#fff;}.cls-1,.cls-2,.cls-3,.cls-4,.cls-5{stroke:#282828;stroke-linecap:round;stroke-linejoin:round;}.cls-2,.cls-3{fill-rule:evenodd;}.cls-3{stroke-width:0.75px;}.cls-4{fill:#282828;}.cls-5{fill:none;}</style></defs><title>Asset 19</title><g id="Layer_2" data-name="Layer 2"><g id="Layer_1-2" data-name="Layer 1"><path class="cls-1" d="M308.05,296.21c-.07-21.19,5.53-38.36,12.51-38.37s12.73,17.16,12.79,38.33-12.49,38.37-12.49,38.37S308.14,317.39,308.05,296.21Z"/><path class="cls-1" d="M420,296.21c-.07-21.19,5.53-38.36,12.51-38.37s12.72,17.16,12.79,38.33-12.5,38.37-12.5,38.37S420.07,317.39,420,296.21Z"/><path class="cls-1" d="M349,260.63c-.08-9.38,2.35-17,5.44-17s5.68,7.62,5.76,17-5.44,17-5.44,17S349.13,270,349,260.63Z"/><path class="cls-1" d="M393,260.79c-.08-9.38,2.36-17,5.45-17s5.68,7.63,5.76,17-5.44,17-5.44,17S393.11,270.17,393,260.79Z"/><path class="cls-1" d="M376.51.5h0c-16.16,8.38-33,46.76-33,64.9v158h66V65.4C409.5,47.26,392.67,8.88,376.51.5Z"/><rect class="cls-1" x="343.25" y="74.01" width="66.74" height="56.84"/><rect class="cls-1" x="305" y="258.73" width="31.77" height="13.21"/><rect class="cls-1" x="302.91" y="250.13" width="35.96" height="13.21"/><rect class="cls-1" x="416.83" y="258.73" width="31.76" height="13.21"/><rect class="cls-1" x="414.73" y="250.13" width="35.96" height="13.21"/><path class="cls-1" d="M320.88,67.67c-12.82,7.61-23.09,42.31-23.09,55V253.29H344V122.68C344,110,333.71,75.28,320.88,67.67Z"/><path class="cls-1" d="M320.88,67.67c-12.82,7.61-23.09,42.31-23.09,55V253.29H344V122.68C344,110,333.71,75.28,320.88,67.67Z"/><path class="cls-1" d="M432.71,67.67c-12.83,7.61-23.09,42.31-23.09,55V253.29h46.19V122.68C455.81,110,445.54,75.28,432.71,67.67Z"/><rect class="cls-1" x="297.94" y="120.49" width="46.03" height="2.66"/><rect class="cls-1" x="409.77" y="120.49" width="46.04" height="2.66"/><path class="cls-1" d="M405.25,121.7H348a117.7,117.7,0,0,1-35.31,84.06h0v20.11l25.52,6.26A12.84,12.84,0,0,1,348,244.61h57.25a12.84,12.84,0,0,1,9.8-12.48l25.51-6.26V205.76h0A117.74,117.74,0,0,1,405.25,121.7Z"/><path class="cls-1" d="M376.62,58.06h0C362.6,65.33,348,98.63,348,114.38V251.53h57.25V114.38C405.25,98.63,390.65,65.33,376.62,58.06Z"/><path class="cls-1" d="M376.62,58.06h0C362.6,65.33,348,98.63,348,114.38V251.53h57.25V114.38C405.25,98.63,390.65,65.33,376.62,58.06Z"/><path class="cls-1" d="M357.84,81.47h37.58c-5.31-10.57-12.11-19.95-18.8-23.41h0C370,61.52,363.14,70.9,357.84,81.47Z"/><rect class="cls-1" x="324.72" y="207.53" width="15.18" height="9.28"/><rect class="cls-1" x="413.35" y="207.53" width="15.18" height="9.28"/><rect class="cls-1" x="347.36" y="254.26" width="14.56" height="4.53"/><path class="cls-1" d="M354.64,220.4A10.59,10.59,0,0,0,344.08,231v23.28H365.2V231A10.59,10.59,0,0,0,354.64,220.4Z"/><rect class="cls-1" x="391.33" y="254.26" width="14.56" height="4.53"/><path class="cls-1" d="M398.61,220.4A10.59,10.59,0,0,0,388.05,231v23.28h21.12V231A10.59,10.59,0,0,0,398.61,220.4Z"/><path class="cls-1" d="M393,120.49a16.35,16.35,0,1,1-16.34-16.34A16.35,16.35,0,0,1,393,120.49Z"/><path class="cls-1" d="M450.08,147.4a17.49,17.49,0,1,1-17.49-17.48A17.49,17.49,0,0,1,450.08,147.4Z"/><path class="cls-2" d="M420.47,143.28v-1.09a2.1,2.1,0,0,1,1.35-2,36.15,36.15,0,0,1,3.84-1.16,6.23,6.23,0,0,1,3.72.28c1.31.49,2.59,1.07,3.86,1.66a32.29,32.29,0,0,0,4.46,1.76,8,8,0,0,0,2.41.41,11.41,11.41,0,0,0,2-.27,4.45,4.45,0,0,1,.88-.13,2.14,2.14,0,0,1,1.84,1.5,2.28,2.28,0,0,1-1.7,3c-.81.16-1.63.33-2.44.45a6.08,6.08,0,0,1-2.54-.23,28.46,28.46,0,0,1-4.63-1.76c-1.37-.63-2.74-1.27-4.16-1.79a6.41,6.41,0,0,0-2.45-.45,7,7,0,0,0-2,.34c-1.24.38-2.49.78-3.73,1.19a.56.56,0,0,1-.77-.56C420.49,144.05,420.47,143.67,420.47,143.28Z"/><path class="cls-2" d="M420.47,152.46v-1.09a2.08,2.08,0,0,1,1.4-2c1.16-.38,2.32-.74,3.5-1.08a6.2,6.2,0,0,1,4.26.31c1.34.57,2.68,1.15,4,1.75a32.07,32.07,0,0,0,4.59,1.73,7.19,7.19,0,0,0,3.42.08l1-.21a1.8,1.8,0,0,1,1.43.4,2.18,2.18,0,0,1,.85,2.28,2.08,2.08,0,0,1-1.67,1.75c-.83.2-1.68.35-2.53.49a6.36,6.36,0,0,1-2.6-.25,28.93,28.93,0,0,1-4.56-1.74c-1.37-.63-2.74-1.26-4.15-1.78a6.36,6.36,0,0,0-2.62-.46A7.73,7.73,0,0,0,425,153c-1.26.39-2.51.8-3.77,1.2a.55.55,0,0,1-.72-.27.59.59,0,0,1,0-.23C420.46,153.25,420.47,152.85,420.47,152.46Z"/><rect class="cls-1" x="305.02" y="129.74" width="31.73" height="33.33" rx="6.9"/><path class="cls-3" d="M320,150.12c0-.59,0-1.19,0-1.79a1.94,1.94,0,0,0-.45-1.29,2.66,2.66,0,0,1-.72-1.4,2.49,2.49,0,0,0-.82-1.52c-.88-.91-1.82-1.77-2.69-2.69a.64.64,0,0,0-.91-.13,5.17,5.17,0,0,1-5.32-.62,4.31,4.31,0,0,1-1.36-4.85,4.41,4.41,0,0,1,4.66-3,4.9,4.9,0,0,1,4.32,4.41,5,5,0,0,1-.54,2.41c-.1.2-.16.39.05.57,1.1.93,2.13,1.94,3.28,2.82a2.57,2.57,0,0,0,3,0,37.73,37.73,0,0,0,2.73-2.64.92.92,0,0,0,.24-1.05,4.15,4.15,0,0,1-.19-.93,4.44,4.44,0,0,1,2.35-4.9,4.61,4.61,0,0,1,6.57,5.16,4.38,4.38,0,0,1-3.21,3.22,5.27,5.27,0,0,1-3.59-.49.53.53,0,0,0-.7.09c-.78.69-1.59,1.34-2.37,2A3.22,3.22,0,0,0,323,145.8a1.69,1.69,0,0,1-.71,1.26,1.38,1.38,0,0,0-.62,1.22c0,1,0,2,0,3s-.24.9.95,1.41a4.47,4.47,0,0,1,2.86,4.93,4.57,4.57,0,0,1-5.18,3.64,4.62,4.62,0,0,1-3.53-2.58,4.34,4.34,0,0,1,.86-5.11,4.78,4.78,0,0,1,1.79-1,.68.68,0,0,0,.58-.8c0-.55,0-1.11,0-1.66Zm7.51-13.29a1,1,0,0,0-.05.44.47.47,0,0,0,.44.45c.27,0,.3-.17.36-.36a1.51,1.51,0,0,1,2.12-1,1.31,1.31,0,0,1,.74,1.54,1.12,1.12,0,0,1-1.09,1c-.29,0-.68,0-.59.44a.63.63,0,0,0,.85.53,2.62,2.62,0,0,0,1.92-2.38,2.58,2.58,0,0,0-2.4-2.19A2.66,2.66,0,0,0,327.49,136.83ZM310,138.46a2.65,2.65,0,0,0,1.81,1.17c.39.09.55-.2.59-.52s-.16-.45-.47-.48c-.85-.08-1.26-.49-1.27-1.25a1.36,1.36,0,0,1,1.21-1.44,1.49,1.49,0,0,1,1.57,1.11c.06.32.19.47.52.42s.43-.29.39-.59a2.62,2.62,0,0,0-2.12-1.82A2.29,2.29,0,0,0,310,138.46Zm13,19.49a2.21,2.21,0,0,0,0-2.3c-.11-.21-.28-.4-.54-.35-.42.07-.38.37-.26.66a1.58,1.58,0,0,1-.13,1.73,1.32,1.32,0,0,1-1.27.56,1.36,1.36,0,0,1-1.1-.93,1.56,1.56,0,0,1,.17-1.49c.13-.19.23-.33,0-.48s-.48-.3-.68,0a2.21,2.21,0,0,0-.35,2.32,2.39,2.39,0,0,0,2.25,1.42A2.31,2.31,0,0,0,322.93,158Z"/><path d="M486.09,66.66l-.41-.91c.79-.35,1.68-.7,2.66-1l.33.94C487.72,66,486.85,66.33,486.09,66.66Z"/><path d="M519.5,60.77c-.77,0-1.6-.06-2.52-.06v-1c.92,0,1.79,0,2.58.06Z"/><path d="M503.33,81.57A15.38,15.38,0,0,1,500.71,51a15.93,15.93,0,0,1,2.66-.23A15.38,15.38,0,0,1,506,81.34,15.75,15.75,0,0,1,503.33,81.57Zm0-29.77a15,15,0,0,0-2.49.22,14.38,14.38,0,0,0,2.45,28.55,13.89,13.89,0,0,0,2.49-.22,14.38,14.38,0,0,0-2.45-28.55Z"/><path d="M503.89,79.22l0-1a12,12,0,0,0,1.57-.17l.17,1A12.1,12.1,0,0,1,503.89,79.22Z"/><path d="M506.49,78.85l-.23-1a12,12,0,0,0,7-4.77,11.84,11.84,0,0,0,1.41-2.65l.94.36A13.89,13.89,0,0,1,514,73.69,13,13,0,0,1,506.49,78.85Z"/><path d="M502.47,54.17l-.07-1a15,15,0,0,1,1.64,0l-.05,1A12.91,12.91,0,0,0,502.47,54.17Z"/><path d="M490.5,68.43a13.05,13.05,0,0,1,10.61-15.1l.17,1a12,12,0,0,0-9.79,13.93Z"/><path d="M489.48,72h-.91c-4.6-.09-7.06-.86-7.3-2.28-.22-1.23,1.22-2.51,4.41-3.92l.41.91c-3,1.32-3.93,2.35-3.84,2.84.27,1.54,8.65,2.3,21.68,0s20.67-5.82,20.4-7.37c-.09-.51-1.41-1.17-4.83-1.39l.06-1c3.65.23,5.54,1,5.76,2.22.25,1.42-1.81,3-6.11,4.62a86,86,0,0,1-15.1,3.9A88.76,88.76,0,0,1,489.48,72Z"/><path d="M260,151.65a3.85,3.85,0,0,1-1.25-.2l.32-1a2.94,2.94,0,0,0,3.72-3.71l1-.33a4,4,0,0,1-3.76,5.21Z"/><path d="M259.93,154.08a6.32,6.32,0,0,1-3.16-.84l.51-.89a5.37,5.37,0,0,0,7.33-7.32l.89-.51a6.4,6.4,0,0,1-5.57,9.56Z"/><path d="M252.14,154.16h0a.51.51,0,0,1-.36-.15,10.24,10.24,0,0,1,14.49-14.48.51.51,0,0,1,0,.72L252.51,154A.51.51,0,0,1,252.14,154.16ZM259,137.55a9.23,9.23,0,0,0-6.88,15.37l13-13A9.14,9.14,0,0,0,259,137.55Z"/><path d="M249.58,145a.52.52,0,0,1-.37-.16l-11-11a.51.51,0,0,1,0-.72l7.12-7.12a.52.52,0,0,1,.73,0l11,11a.51.51,0,0,1,.13.5.5.5,0,0,1-.37.36,9.23,9.23,0,0,0-6.75,6.75.52.52,0,0,1-.35.37Zm-10.26-11.5,10,10a10.26,10.26,0,0,1,6.39-6.4l-10-10Z"/><rect x="251.25" y="130.84" width="2.56" height="1.03" transform="translate(-19.02 216.68) rotate(-44.92)"/><rect x="242.32" y="139.77" width="2.56" height="1.02" transform="translate(-27.89 213.17) rotate(-44.96)"/><path d="M240,132.59a.49.49,0,0,1-.36-.15l-2-2a.51.51,0,0,1,0-.72l4.36-4.37a.53.53,0,0,1,.72,0l2,2a.51.51,0,0,1,0,.72l-4.37,4.36A.48.48,0,0,1,240,132.59Zm-1.25-2.48,1.25,1.25,3.64-3.64-1.25-1.25Z"/><path d="M255.73,133.25a.51.51,0,0,1-.36-.15l-4.59-4.59a.53.53,0,0,1-.15-.36.51.51,0,0,1,.15-.36l9.18-9.18a.51.51,0,0,1,.72,0l4.59,4.59a.48.48,0,0,1,.15.36.51.51,0,0,1-.15.37l-9.17,9.17A.55.55,0,0,1,255.73,133.25Zm-3.86-5.1,3.86,3.86,8.45-8.45-3.86-3.86Z"/><path d="M235.82,153.16a.44.44,0,0,1-.36-.15l-4.59-4.58a.51.51,0,0,1-.15-.36.51.51,0,0,1,.15-.37l9.17-9.17a.5.5,0,0,1,.37-.15h0a.47.47,0,0,1,.35.15l4.59,4.59a.51.51,0,0,1,0,.72L236.18,153A.47.47,0,0,1,235.82,153.16ZM232,148.07l3.87,3.86,8.45-8.45-3.86-3.86Z"/><polygon class="cls-1" points="490.3 132.07 492.95 137.44 498.87 138.3 494.59 142.48 495.6 148.37 490.3 145.59 485 148.37 486.02 142.48 481.73 138.3 487.65 137.44 490.3 132.07"/><polygon class="cls-1" points="258.02 208.09 259.35 210.78 262.32 211.21 260.17 213.3 260.68 216.25 258.02 214.86 255.37 216.25 255.88 213.3 253.73 211.21 256.7 210.78 258.02 208.09"/><polygon class="cls-1" points="276.35 38.27 279.93 45.5 287.91 46.66 282.13 52.29 283.49 60.24 276.35 56.49 269.22 60.24 270.58 52.29 264.81 46.66 272.78 45.5 276.35 38.27"/><polygon class="cls-1" points="509.38 207.53 511.1 211 514.93 211.56 512.16 214.26 512.81 218.08 509.38 216.28 505.95 218.08 506.61 214.26 503.84 211.56 507.67 211 509.38 207.53"/><path class="cls-1" d="M644.21,296.21c-.07-21.19,5.53-38.36,12.51-38.37s12.73,17.16,12.79,38.33S657,334.54,657,334.54,644.3,317.39,644.21,296.21Z"/><path class="cls-1" d="M756.14,296.21c-.07-21.19,5.53-38.36,12.51-38.37s12.72,17.16,12.79,38.33-12.5,38.37-12.5,38.37S756.23,317.39,756.14,296.21Z"/><path class="cls-1" d="M685.19,260.63c-.08-9.38,2.36-17,5.45-17s5.68,7.62,5.76,17-5.44,17-5.44,17S685.28,270,685.19,260.63Z"/><path class="cls-1" d="M729.17,260.79c-.08-9.38,2.36-17,5.45-17s5.67,7.63,5.76,17-5.45,17-5.45,17S729.26,270.17,729.17,260.79Z"/><path class="cls-1" d="M712.67.5h0c-16.16,8.38-33,46.76-33,64.9v158h66V65.4C745.66,47.26,728.83,8.88,712.67.5Z"/><rect class="cls-1" x="679.41" y="74.01" width="66.74" height="56.84"/><rect class="cls-1" x="641.16" y="258.73" width="31.77" height="13.21"/><rect class="cls-1" x="639.06" y="250.13" width="35.96" height="13.21"/><rect class="cls-1" x="752.99" y="258.73" width="31.76" height="13.21"/><rect class="cls-1" x="750.89" y="250.13" width="35.96" height="13.21"/><path class="cls-1" d="M657,67.67c-12.83,7.61-23.1,42.31-23.1,55V253.29h46.2V122.68C680.14,110,669.87,75.28,657,67.67Z"/><path class="cls-1" d="M657,67.67c-12.83,7.61-23.1,42.31-23.1,55V253.29h46.2V122.68C680.14,110,669.87,75.28,657,67.67Z"/><path class="cls-1" d="M768.87,67.67c-12.83,7.61-23.1,42.31-23.1,55V253.29H792V122.68C792,110,781.7,75.28,768.87,67.67Z"/><rect class="cls-1" x="634.1" y="120.49" width="46.04" height="2.66"/><rect class="cls-1" x="745.93" y="120.49" width="46.04" height="2.66"/><path class="cls-1" d="M741.41,121.7H684.16a117.74,117.74,0,0,1-35.31,84.06h0v20.11l25.52,6.26a12.85,12.85,0,0,1,9.79,12.48h57.25a12.84,12.84,0,0,1,9.79-12.48l25.52-6.26V205.76h0A117.7,117.7,0,0,1,741.41,121.7Z"/><path class="cls-1" d="M712.78,58.06h0c-14,7.27-28.62,40.57-28.62,56.32V251.53h57.25V114.38C741.41,98.63,726.8,65.33,712.78,58.06Z"/><path class="cls-1" d="M712.78,58.06h0c-14,7.27-28.62,40.57-28.62,56.32V251.53h57.25V114.38C741.41,98.63,726.8,65.33,712.78,58.06Z"/><path class="cls-1" d="M694,81.47h37.59c-5.31-10.57-12.12-19.95-18.8-23.41h0C706.1,61.52,699.3,70.9,694,81.47Z"/><rect class="cls-1" x="660.88" y="207.53" width="15.18" height="9.28"/><rect class="cls-1" x="749.51" y="207.53" width="15.18" height="9.28"/><rect class="cls-1" x="683.51" y="254.26" width="14.56" height="4.53"/><path class="cls-1" d="M690.8,220.4A10.59,10.59,0,0,0,680.23,231v23.28h21.12V231A10.59,10.59,0,0,0,690.8,220.4Z"/><rect class="cls-1" x="727.49" y="254.26" width="14.56" height="4.53"/><path class="cls-1" d="M734.77,220.4A10.59,10.59,0,0,0,724.21,231v23.28h21.12V231A10.59,10.59,0,0,0,734.77,220.4Z"/><path class="cls-1" d="M729.13,120.49a16.35,16.35,0,1,1-16.34-16.34A16.35,16.35,0,0,1,729.13,120.49Z"/><path class="cls-4" d="M786.23,147.4a17.49,17.49,0,1,1-17.48-17.48A17.49,17.49,0,0,1,786.23,147.4Z"/><path class="cls-2" d="M756.62,143.28v-1.09a2.11,2.11,0,0,1,1.36-2,36.15,36.15,0,0,1,3.84-1.16,6.2,6.2,0,0,1,3.71.28c1.32.49,2.6,1.07,3.87,1.66a32.29,32.29,0,0,0,4.46,1.76,7.92,7.92,0,0,0,2.41.41,11.41,11.41,0,0,0,2-.27,4.45,4.45,0,0,1,.88-.13,2.15,2.15,0,0,1,1.84,1.5,2.28,2.28,0,0,1-1.7,3c-.81.16-1.63.33-2.45.45a6,6,0,0,1-2.53-.23,28.46,28.46,0,0,1-4.63-1.76c-1.37-.63-2.74-1.27-4.16-1.79a6.43,6.43,0,0,0-2.46-.45,6.89,6.89,0,0,0-2,.34c-1.24.38-2.49.78-3.73,1.19a.56.56,0,0,1-.77-.56C756.64,144.05,756.62,143.67,756.62,143.28Z"/><path class="cls-2" d="M756.62,152.46v-1.09a2.09,2.09,0,0,1,1.41-2c1.15-.38,2.32-.74,3.49-1.08a6.22,6.22,0,0,1,4.27.31c1.34.57,2.68,1.15,4,1.75a32.07,32.07,0,0,0,4.59,1.73,7.15,7.15,0,0,0,3.41.08l1-.21a1.8,1.8,0,0,1,1.43.4,2.16,2.16,0,0,1,.84,2.28,2.06,2.06,0,0,1-1.66,1.75c-.83.2-1.68.35-2.54.49a6.33,6.33,0,0,1-2.59-.25,28.56,28.56,0,0,1-4.56-1.74c-1.37-.63-2.74-1.26-4.15-1.78a6.41,6.41,0,0,0-2.63-.46,7.74,7.74,0,0,0-1.78.32c-1.26.39-2.52.8-3.77,1.2a.55.55,0,0,1-.72-.27.59.59,0,0,1,0-.23C756.62,153.25,756.62,152.85,756.62,152.46Z"/><rect class="cls-4" x="641.18" y="129.74" width="31.73" height="33.33" rx="6.9"/><path class="cls-3" d="M656.13,150.12c0-.59,0-1.19,0-1.79a1.94,1.94,0,0,0-.45-1.29,2.66,2.66,0,0,1-.72-1.4,2.49,2.49,0,0,0-.82-1.52c-.89-.91-1.82-1.77-2.7-2.69a.63.63,0,0,0-.9-.13,5.16,5.16,0,0,1-5.32-.62,4.29,4.29,0,0,1-1.36-4.85,4.41,4.41,0,0,1,4.66-3,4.9,4.9,0,0,1,4.32,4.41,5.13,5.13,0,0,1-.54,2.41c-.1.2-.16.39.05.57,1.1.93,2.13,1.94,3.28,2.82a2.57,2.57,0,0,0,3,0,35.65,35.65,0,0,0,2.72-2.64.93.93,0,0,0,.25-1.05,4.15,4.15,0,0,1-.19-.93,4.44,4.44,0,0,1,2.35-4.9,4.61,4.61,0,0,1,6.57,5.16,4.41,4.41,0,0,1-3.21,3.22,5.3,5.3,0,0,1-3.6-.49.51.51,0,0,0-.69.09c-.78.69-1.59,1.34-2.37,2a3.22,3.22,0,0,0-1.34,2.24,1.67,1.67,0,0,1-.72,1.26,1.4,1.4,0,0,0-.61,1.22c0,1,0,2,0,3s-.24.9.95,1.41a4.48,4.48,0,0,1,2.86,4.93,4.63,4.63,0,0,1-8.71,1.06,4.34,4.34,0,0,1,.86-5.11,4.74,4.74,0,0,1,1.78-1,.68.68,0,0,0,.59-.8c0-.55,0-1.11,0-1.66Zm7.52-13.29a1.12,1.12,0,0,0-.06.44.49.49,0,0,0,.45.45c.27,0,.3-.17.36-.36a1.51,1.51,0,0,1,2.12-1,1.3,1.3,0,0,1,.73,1.54,1.1,1.1,0,0,1-1.08,1c-.3,0-.68,0-.59.44a.62.62,0,0,0,.85.53,2.62,2.62,0,0,0,1.92-2.38,2.58,2.58,0,0,0-2.4-2.19A2.64,2.64,0,0,0,663.65,136.83Zm-17.52,1.63a2.65,2.65,0,0,0,1.81,1.17c.38.09.54-.2.59-.52s-.16-.45-.47-.48c-.85-.08-1.26-.49-1.27-1.25a1.36,1.36,0,0,1,1.21-1.44,1.49,1.49,0,0,1,1.57,1.11c.06.32.18.47.52.42s.43-.29.39-.59a2.65,2.65,0,0,0-2.12-1.82A2.29,2.29,0,0,0,646.13,138.46Zm13,19.49a2.19,2.19,0,0,0,0-2.3c-.11-.21-.28-.4-.54-.35-.42.07-.38.37-.26.66a1.58,1.58,0,0,1-.13,1.73,1.32,1.32,0,0,1-1.27.56,1.38,1.38,0,0,1-1.11-.93,1.59,1.59,0,0,1,.18-1.49c.12-.19.22-.33,0-.48s-.48-.3-.68,0a2.19,2.19,0,0,0-.35,2.32,2.39,2.39,0,0,0,2.25,1.42A2.28,2.28,0,0,0,659.08,158Z"/><path d="M822.24,66.66l-.4-.91c.79-.35,1.68-.7,2.65-1l.34.94C823.88,66,823,66.33,822.24,66.66Z"/><path d="M855.66,60.77q-1.15-.06-2.52-.06v-1c.92,0,1.79,0,2.58.06Z"/><path d="M839.49,81.57A15.38,15.38,0,0,1,836.87,51a15.84,15.84,0,0,1,2.66-.23,15.38,15.38,0,0,1,2.62,30.54A15.84,15.84,0,0,1,839.49,81.57Zm0-29.77A14.87,14.87,0,0,0,837,52a14.38,14.38,0,0,0,2.45,28.55,13.89,13.89,0,0,0,2.49-.22,14.38,14.38,0,0,0-2.45-28.55Z"/><path d="M840.05,79.22l0-1a12,12,0,0,0,1.57-.17l.17,1A12.1,12.1,0,0,1,840.05,79.22Z"/><path d="M842.65,78.85l-.24-1a12.1,12.1,0,0,0,7-4.77,12.26,12.26,0,0,0,1.41-2.65l.93.36a13.1,13.1,0,0,1-9.06,8Z"/><path d="M838.63,54.17l-.07-1a15,15,0,0,1,1.64,0l-.05,1A12.88,12.88,0,0,0,838.63,54.17Z"/><path d="M826.66,68.43a13.05,13.05,0,0,1,10.61-15.1l.17,1a12.06,12.06,0,0,0-9.8,13.93Z"/><path d="M825.64,72h-.91c-4.6-.09-7.06-.86-7.31-2.28-.21-1.23,1.23-2.51,4.42-3.92l.4.91c-3,1.32-3.92,2.35-3.83,2.84.27,1.54,8.65,2.3,21.68,0s20.67-5.82,20.4-7.37c-.09-.51-1.41-1.17-4.84-1.39l.07-1c3.65.23,5.53,1,5.76,2.22.24,1.42-1.81,3-6.11,4.62a85.86,85.86,0,0,1-15.11,3.9A88.55,88.55,0,0,1,825.64,72Z"/><path d="M596.1,151.65a3.83,3.83,0,0,1-1.24-.2l.32-1a2.93,2.93,0,0,0,3.71-3.71l1-.33a4,4,0,0,1-1,4.05A3.93,3.93,0,0,1,596.1,151.65Z"/><path d="M596.09,154.08a6.29,6.29,0,0,1-3.16-.84l.51-.89a5.37,5.37,0,0,0,7.33-7.32l.89-.51a6.4,6.4,0,0,1-5.57,9.56Z"/><path d="M588.3,154.16h0a.51.51,0,0,1-.36-.15,10.24,10.24,0,1,1,14.48-14.48.49.49,0,0,1,0,.72L588.67,154A.51.51,0,0,1,588.3,154.16Zm6.88-16.61a9.22,9.22,0,0,0-6.87,15.37l13-13A9.15,9.15,0,0,0,595.18,137.55Z"/><path d="M585.73,145a.52.52,0,0,1-.36-.16l-11-11a.51.51,0,0,1,0-.72l7.12-7.12a.51.51,0,0,1,.72,0l11,11a.51.51,0,0,1,.13.5.5.5,0,0,1-.37.36,9.23,9.23,0,0,0-6.75,6.75.54.54,0,0,1-.36.37Zm-10.26-11.5,10,10a10.33,10.33,0,0,1,2.46-3.94,10.17,10.17,0,0,1,3.94-2.46l-10-10Z"/><rect x="587.41" y="130.84" width="2.56" height="1.03" transform="translate(79.35 454.42) rotate(-44.96)"/><rect x="578.48" y="139.77" width="2.56" height="1.02" transform="translate(70.62 451.04) rotate(-45)"/><path d="M576.13,132.59a.49.49,0,0,1-.36-.15l-2-2a.51.51,0,0,1,0-.72l4.36-4.37a.53.53,0,0,1,.72,0l2,2a.51.51,0,0,1,0,.72l-4.37,4.36A.49.49,0,0,1,576.13,132.59Zm-1.25-2.48,1.25,1.25,3.64-3.64-1.25-1.25Z"/><path d="M591.89,133.25a.51.51,0,0,1-.36-.15l-4.59-4.59a.53.53,0,0,1-.15-.36.51.51,0,0,1,.15-.36l9.18-9.18a.51.51,0,0,1,.72,0l4.59,4.59a.51.51,0,0,1,.15.36.56.56,0,0,1-.15.37l-9.18,9.17A.51.51,0,0,1,591.89,133.25Zm-3.86-5.1,3.86,3.86,8.45-8.45-3.86-3.86Z"/><path d="M572,153.16a.48.48,0,0,1-.37-.15L567,148.43a.5.5,0,0,1,0-.73l9.17-9.17a.48.48,0,0,1,.36-.15h0a.48.48,0,0,1,.36.15l4.59,4.59a.51.51,0,0,1,0,.72L572.34,153A.48.48,0,0,1,572,153.16Zm-3.87-5.09,3.87,3.86,8.44-8.45-3.86-3.86Z"/><polygon class="cls-1" points="826.46 132.07 829.11 137.44 835.03 138.3 830.75 142.48 831.76 148.37 826.46 145.59 821.16 148.37 822.17 142.48 817.89 138.3 823.81 137.44 826.46 132.07"/><polygon class="cls-1" points="594.18 208.09 595.51 210.78 598.48 211.21 596.33 213.3 596.84 216.25 594.18 214.86 591.53 216.25 592.04 213.3 589.89 211.21 592.86 210.78 594.18 208.09"/><polygon class="cls-1" points="612.51 38.27 616.08 45.5 624.07 46.66 618.29 52.29 619.65 60.24 612.51 56.49 605.38 60.24 606.74 52.29 600.96 46.66 608.94 45.5 612.51 38.27"/><polygon class="cls-1" points="845.54 207.53 847.26 211 851.09 211.56 848.32 214.26 848.97 218.08 845.54 216.28 842.11 218.08 842.77 214.26 840 211.56 843.83 211 845.54 207.53"/><path class="cls-5" d="M87.74,234.64h32.41V119.34s-.3-57-38-104.25a6.4,6.4,0,0,0-4.81-1.5"/><path class="cls-5" d="M66.62,234.64h-32V119.34s.3-57,38-104.25a6.37,6.37,0,0,1,4.81-1.5"/><path class="cls-5" d="M99.45,76.17A22.09,22.09,0,1,1,77.37,54.08,22.08,22.08,0,0,1,99.45,76.17Z"/><polyline class="cls-5" points="120.15 152.39 154.23 179.22 154.23 219.74 34.58 219.74"/><polyline class="cls-5" points="34.58 152.39 0.5 179.22 0.5 219.74 34.58 219.74"/><line class="cls-5" x1="34.58" y1="206.87" x2="120.15" y2="206.87"/><path class="cls-5" d="M86.58,262.69a9.4,9.4,0,1,1-9.4-9.4A9.4,9.4,0,0,1,86.58,262.69Z"/><path class="cls-5" d="M104.24,269.21a6.52,6.52,0,1,1-6.52-6.52A6.52,6.52,0,0,1,104.24,269.21Z"/><path class="cls-5" d="M63.15,269.21a6.52,6.52,0,1,1-6.51-6.52A6.51,6.51,0,0,1,63.15,269.21Z"/><path class="cls-5" d="M94.61,76.17A17.25,17.25,0,1,1,77.37,58.92,17.24,17.24,0,0,1,94.61,76.17Z"/><path class="cls-1" d="M97.72,297.05a20.54,20.54,0,1,1-20.54-20.54A20.54,20.54,0,0,1,97.72,297.05Z"/><path class="cls-2" d="M62.94,292.21v-1.28a2.44,2.44,0,0,1,1.58-2.32A41.37,41.37,0,0,1,69,287.23a7.4,7.4,0,0,1,4.36.34c1.55.58,3,1.25,4.54,1.94a38.09,38.09,0,0,0,5.24,2.08,9.45,9.45,0,0,0,2.84.48,14.67,14.67,0,0,0,2.37-.32,4.58,4.58,0,0,1,1-.15,2.54,2.54,0,0,1,2.17,1.76,2.68,2.68,0,0,1-2,3.5c-1,.19-1.91.39-2.87.53a7.31,7.31,0,0,1-3-.27,33.21,33.21,0,0,1-5.45-2.07c-1.61-.74-3.21-1.49-4.88-2.1a7.89,7.89,0,0,0-2.89-.54,9,9,0,0,0-2.3.41c-1.47.45-2.93.92-4.38,1.4a.66.66,0,0,1-.91-.66C63,293.11,62.94,292.66,62.94,292.21Z"/><path class="cls-2" d="M62.94,303v-1.28a2.45,2.45,0,0,1,1.65-2.36c1.35-.45,2.72-.87,4.1-1.27a7.33,7.33,0,0,1,5,.37c1.58.67,3.15,1.34,4.71,2.05a36.82,36.82,0,0,0,5.39,2,8.29,8.29,0,0,0,4,.09l1.17-.24a2.09,2.09,0,0,1,1.68.47,2.54,2.54,0,0,1,1,2.68,2.44,2.44,0,0,1-2,2.06c-1,.23-2,.41-3,.57a7.51,7.51,0,0,1-3-.29,34.26,34.26,0,0,1-5.35-2c-1.61-.75-3.22-1.49-4.88-2.1a7.56,7.56,0,0,0-3.08-.54,8.66,8.66,0,0,0-2.09.38c-1.49.46-3,.94-4.44,1.41a.64.64,0,0,1-.84-.32.62.62,0,0,1-.05-.27C62.93,303.93,62.94,303.46,62.94,303Z"/><rect class="cls-1" x="67.51" y="241.44" width="19.33" height="6.01"/><path class="cls-1" d="M77.18,196.48a14.06,14.06,0,0,0-14,14v30.9h28V210.5A14.06,14.06,0,0,0,77.18,196.48Z"/></g></g></svg>