<svg xmlns="http://www.w3.org/2000/svg" viewBox="0 0 349.66 316.22"><defs><style>.cls-1,.cls-2{fill:#fff;}.cls-1,.cls-2,.cls-3{stroke:#282828;stroke-linecap:round;stroke-linejoin:round;}.cls-2{fill-rule:evenodd;}.cls-3{fill:#282828;}</style></defs><title>Asset 2</title><g id="Layer_2" data-name="Layer 2"><g id="Layer_1-2" data-name="Layer 1"><rect class="cls-1" x="235.22" y="78.73" width="33.28" height="189.09"/><line class="cls-1" x1="235.22" y1="228.5" x2="268.5" y2="198.66"/><line class="cls-1" x1="268.5" y1="228.5" x2="235.22" y2="198.66"/><line class="cls-1" x1="235.22" y1="258.34" x2="268.5" y2="228.5"/><line class="cls-1" x1="268.5" y1="258.34" x2="235.22" y2="228.5"/><line class="cls-1" x1="235.22" y1="198.66" x2="268.5" y2="168.83"/><line class="cls-1" x1="268.5" y1="198.66" x2="235.22" y2="168.83"/><line class="cls-1" x1="235.22" y1="168.83" x2="268.5" y2="138.99"/><line class="cls-1" x1="268.5" y1="168.83" x2="235.22" y2="138.99"/><line class="cls-1" x1="235.22" y1="138.99" x2="268.5" y2="109.15"/><line class="cls-1" x1="268.5" y1="138.99" x2="235.22" y2="109.15"/><line class="cls-1" x1="235.22" y1="109.15" x2="268.5" y2="79.32"/><line class="cls-1" x1="268.5" y1="109.15" x2="235.22" y2="79.32"/><line class="cls-1" x1="220.43" y1="78.73" x2="235.59" y2="78.73"/><line class="cls-1" x1="223.66" y1="109.15" x2="235.59" y2="109.15"/><line class="cls-1" x1="226.59" y1="139.58" x2="235.59" y2="139.58"/><rect class="cls-1" x="268.5" y="126.38" width="33.12" height="141.43"/><line class="cls-1" x1="319.87" y1="267.82" x2="95.62" y2="267.82"/><line class="cls-1" x1="235.22" y1="216.41" x2="200.05" y2="216.41"/><path class="cls-1" d="M254.88,61.81a2.43,2.43,0,1,1-2.43-2.44A2.43,2.43,0,0,1,254.88,61.81Z"/><line class="cls-1" x1="252.45" y1="64.24" x2="252.45" y2="78.35"/><rect class="cls-1" x="274.72" y="230.42" width="20.68" height="21.72" rx="4.5"/><path class="cls-2" d="M284.47,243.71c0-.39,0-.78,0-1.17a1.23,1.23,0,0,0-.29-.84,1.71,1.71,0,0,1-.47-.91,1.63,1.63,0,0,0-.54-1c-.57-.59-1.18-1.15-1.75-1.75a.42.42,0,0,0-.6-.08,3.36,3.36,0,0,1-3.46-.41,2.81,2.81,0,0,1-.89-3.16,2.87,2.87,0,0,1,3-2,3.18,3.18,0,0,1,2.81,2.87,3.32,3.32,0,0,1-.35,1.58c-.06.13-.1.25,0,.37.71.6,1.39,1.26,2.13,1.83a1.68,1.68,0,0,0,2,0,24.09,24.09,0,0,0,1.78-1.72.63.63,0,0,0,.16-.69,2.38,2.38,0,0,1-.13-.6,2.89,2.89,0,0,1,1.53-3.19,3,3,0,0,1,4.29,3.36,2.89,2.89,0,0,1-2.1,2.1,3.47,3.47,0,0,1-2.34-.32.34.34,0,0,0-.45,0c-.51.45-1,.88-1.54,1.33a2.07,2.07,0,0,0-.88,1.46,1.1,1.1,0,0,1-.47.82.91.91,0,0,0-.4.8c0,.65,0,1.3,0,2s-.16.59.61.92a2.9,2.9,0,0,1,1.87,3.21,3,3,0,0,1-3.38,2.37,3,3,0,0,1-2.3-1.68,2.85,2.85,0,0,1,.56-3.33,3.12,3.12,0,0,1,1.17-.64.44.44,0,0,0,.38-.53c0-.35,0-.71,0-1.07Zm4.9-8.66a.66.66,0,0,0,0,.28.34.34,0,0,0,.29.3c.18,0,.2-.12.24-.24a1,1,0,0,1,1.38-.66.86.86,0,0,1,.48,1,.72.72,0,0,1-.71.66c-.19,0-.44,0-.38.29a.41.41,0,0,0,.55.34,1.7,1.7,0,0,0,1.25-1.55,1.67,1.67,0,0,0-1.56-1.43A1.72,1.72,0,0,0,289.37,235.05ZM278,236.11a1.76,1.76,0,0,0,1.18.76c.25.06.36-.13.39-.34s-.11-.29-.31-.31c-.55-.06-.82-.32-.83-.82a.89.89,0,0,1,.79-.94,1,1,0,0,1,1,.73c0,.2.12.3.33.27s.28-.19.26-.38a1.73,1.73,0,0,0-1.39-1.19A1.5,1.5,0,0,0,278,236.11Zm8.45,12.7a1.44,1.44,0,0,0,0-1.5c-.07-.14-.18-.26-.35-.23s-.25.24-.17.43a1.05,1.05,0,0,1-.08,1.13.85.85,0,0,1-.83.36.86.86,0,0,1-.72-.6,1,1,0,0,1,.11-1c.08-.12.15-.21,0-.31s-.31-.19-.44,0a1.44,1.44,0,0,0-.23,1.51,1.57,1.57,0,0,0,1.47.93A1.51,1.51,0,0,0,286.4,248.81Z"/><path class="cls-1" d="M111.93,245.5a14.78,14.78,0,1,1-14.78,14.78"/><path class="cls-1" d="M106.34,228.66a13,13,0,0,1,0,26"/><path class="cls-1" d="M84.86,203.31a19.43,19.43,0,0,1-8.49,37.92"/><path class="cls-1" d="M46.12,233.48a15.62,15.62,0,1,1-6.85-26.9"/><path class="cls-1" d="M36,252.07A19.69,19.69,0,1,1,20.55,220.7"/><path class="cls-1" d="M46.86,241.61a14.32,14.32,0,1,1-21.61,18.67"/><path class="cls-1" d="M47.6,198.91A15.62,15.62,0,1,1,69,191.84"/><path class="cls-1" d="M68.6,197.6a15.62,15.62,0,1,1-21.71-5.94"/><path class="cls-1" d="M76.11,173.93a15.92,15.92,0,1,1,18.74,19.14"/><path class="cls-1" d="M68.9,176.9A11.64,11.64,0,0,1,86.13,182"/><path class="cls-1" d="M81.76,181.5a14.16,14.16,0,0,1,10.39,23.79"/><path class="cls-1" d="M158.93,107.88H101.68a117.72,117.72,0,0,1-35.31,84.06h0v20.11l25.52,6.26a12.86,12.86,0,0,1,9.79,12.48h57.25"/><path class="cls-1" d="M130.3,44.24h0c-14,7.27-28.62,40.58-28.62,56.32V237.71h57.25V100.56C158.93,84.82,144.32,51.51,130.3,44.24Z"/><path class="cls-1" d="M130.3,44.24h0c-14,7.27-28.62,40.58-28.62,56.32V237.71h57.25V100.56C158.93,84.82,144.32,51.51,130.3,44.24Z"/><path class="cls-1" d="M111.51,67.65H149.1c-5.31-10.57-12.12-20-18.8-23.41h0C123.62,47.7,116.82,57.08,111.51,67.65Z"/><rect class="cls-1" x="78.4" y="193.71" width="15.18" height="9.28"/><path class="cls-1" d="M144,98.22a13.74,13.74,0,1,1-13.73-13.73A13.73,13.73,0,0,1,144,98.22Z"/><path class="cls-1" d="M130.31,315.72c-25.26-79.13,0-73.94,0-73.94S155.56,236.59,130.31,315.72Z"/><path class="cls-1" d="M130.31,296.61c-15.67-49.09,0-45.87,0-45.87S146,247.52,130.31,296.61Z"/><rect class="cls-1" x="119.4" y="240.57" width="21.82" height="6.79"/><path class="cls-1" d="M130.31,189.82a15.87,15.87,0,0,0-15.83,15.82v34.89h31.65V205.64A15.87,15.87,0,0,0,130.31,189.82Z"/><polygon class="cls-1" points="296.71 92.23 298.66 96.17 303.02 96.81 299.87 99.88 300.61 104.22 296.71 102.17 292.82 104.22 293.56 99.88 290.41 96.81 294.76 96.17 296.71 92.23"/><polygon class="cls-1" points="344.74 201.98 346.11 204.74 349.16 205.18 346.95 207.34 347.47 210.37 344.74 208.94 342.01 210.37 342.54 207.34 340.33 205.18 343.38 204.74 344.74 201.98"/><polygon class="cls-1" points="324.29 44.24 325.65 47 328.7 47.45 326.49 49.6 327.01 52.64 324.29 51.2 321.56 52.64 322.08 49.6 319.87 47.45 322.92 47 324.29 44.24"/><polygon class="cls-1" points="68.9 132.58 70.26 135.34 73.31 135.79 71.11 137.94 71.63 140.98 68.9 139.54 66.17 140.98 66.69 137.94 64.48 135.79 67.54 135.34 68.9 132.58"/><polygon class="cls-1" points="54.88 71.83 57.32 76.76 62.76 77.55 58.82 81.39 59.75 86.8 54.88 84.25 50.02 86.8 50.95 81.39 47.02 77.55 52.45 76.76 54.88 71.83"/><polygon class="cls-1" points="237.77 6.72 240.78 12.83 247.53 13.81 242.65 18.57 243.8 25.28 237.77 22.11 231.74 25.28 232.89 18.57 228.01 13.81 234.75 12.83 237.77 6.72"/><path class="cls-1" d="M203.39,226.06V44.23C203.39,32,192.05,6.14,181.16.5h0C170.27,6.14,158.93,32,158.93,44.23V226.06"/><path class="cls-3" d="M196.61,135.54a15.45,15.45,0,1,1-15.45-15.45A15.45,15.45,0,0,1,196.61,135.54Z"/><path class="cls-2" d="M170.45,131.9v-1a1.86,1.86,0,0,1,1.19-1.75,33.3,33.3,0,0,1,3.4-1,5.59,5.59,0,0,1,3.28.25c1.16.44,2.29.94,3.41,1.46a27.12,27.12,0,0,0,3.94,1.56,7.07,7.07,0,0,0,2.14.37,11.9,11.9,0,0,0,1.78-.24,3.52,3.52,0,0,1,.77-.12,1.91,1.91,0,0,1,1.63,1.33,2,2,0,0,1-1.5,2.63c-.72.14-1.44.29-2.16.4a5.49,5.49,0,0,1-2.24-.21A25.5,25.5,0,0,1,182,134c-1.21-.56-2.42-1.12-3.67-1.58a5.82,5.82,0,0,0-2.18-.41,6.76,6.76,0,0,0-1.73.31c-1.1.34-2.2.69-3.29,1a.5.5,0,0,1-.69-.49C170.47,132.58,170.45,132.24,170.45,131.9Z"/><path class="cls-2" d="M170.45,140v-1a1.84,1.84,0,0,1,1.24-1.77c1-.34,2.05-.65,3.09-1a5.48,5.48,0,0,1,3.76.27c1.19.51,2.37,1,3.54,1.54a26.85,26.85,0,0,0,4.06,1.53,6.3,6.3,0,0,0,3,.07l.88-.18a1.55,1.55,0,0,1,1.26.35,1.94,1.94,0,0,1,.75,2,1.85,1.85,0,0,1-1.47,1.54c-.74.18-1.49.32-2.24.43a5.45,5.45,0,0,1-2.3-.22,24.11,24.11,0,0,1-4-1.53c-1.21-.56-2.42-1.12-3.67-1.58a5.77,5.77,0,0,0-2.32-.4,6.39,6.39,0,0,0-1.57.28l-3.34,1.06a.47.47,0,0,1-.63-.24.45.45,0,0,1,0-.2Z"/><line class="cls-1" x1="159.28" y1="40.05" x2="203.04" y2="40.05"/><path class="cls-1" d="M203.39,202v25.94a22.22,22.22,0,0,1-22.23,22.22h0a22.22,22.22,0,0,1-22.23-22.22V202"/><path class="cls-1" d="M181.16,315.72c-18.58-61.35,0-57.33,0-57.33S199.73,254.37,181.16,315.72Z"/><rect class="cls-1" x="174.34" y="257.77" width="13.63" height="4.24"/><path class="cls-1" d="M181.16,226.06a9.92,9.92,0,0,0-9.89,9.89v21.79H191V236A9.91,9.91,0,0,0,181.16,226.06Z"/><path class="cls-1" d="M181.16,300.17c-11.53-38.06,0-35.57,0-35.57S192.68,262.11,181.16,300.17Z"/></g></g></svg>