<svg xmlns="http://www.w3.org/2000/svg" viewBox="0 0 294.62 335.04"><defs><style>.cls-1,.cls-3,.cls-4{fill:#fff;}.cls-1,.cls-2,.cls-3,.cls-4{stroke:#282828;stroke-linecap:round;stroke-linejoin:round;}.cls-2{fill:#282828;}.cls-3,.cls-4{fill-rule:evenodd;}.cls-4{stroke-width:0.75px;}</style></defs><title>Asset 5</title><g id="Layer_2" data-name="Layer 2"><g id="Layer_1-2" data-name="Layer 1"><path class="cls-1" d="M77.34,296.21c-.07-21.19,5.53-38.36,12.51-38.37s12.72,17.16,12.79,38.33-12.5,38.37-12.5,38.37S77.42,317.39,77.34,296.21Z"/><path class="cls-1" d="M189.27,296.21c-.07-21.19,5.53-38.36,12.51-38.37S214.5,275,214.57,296.17s-12.5,38.37-12.5,38.37S189.35,317.39,189.27,296.21Z"/><path class="cls-1" d="M118.32,260.63c-.08-9.38,2.35-17,5.45-17s5.67,7.62,5.75,17-5.44,17-5.44,17S118.41,270,118.32,260.63Z"/><path class="cls-1" d="M162.3,260.79c-.08-9.38,2.35-17,5.45-17s5.67,7.63,5.75,17-5.44,17-5.44,17S162.39,270.17,162.3,260.79Z"/><path class="cls-1" d="M145.79.5h0c-16.16,8.38-33,46.76-33,64.9v158h66V65.4C178.78,47.26,162,8.88,145.79.5Z"/><rect class="cls-1" x="112.54" y="74.01" width="66.74" height="56.84"/><rect class="cls-1" x="74.28" y="258.73" width="31.77" height="13.21"/><rect class="cls-1" x="72.19" y="250.13" width="35.96" height="13.21"/><rect class="cls-1" x="186.12" y="258.73" width="31.76" height="13.21"/><rect class="cls-1" x="184.01" y="250.13" width="35.96" height="13.21"/><path class="cls-1" d="M90.17,67.67c-12.83,7.61-23.1,42.31-23.1,55V253.29h46.19V122.68C113.26,110,103,75.28,90.17,67.67Z"/><path class="cls-1" d="M90.17,67.67c-12.83,7.61-23.1,42.31-23.1,55V253.29h46.19V122.68C113.26,110,103,75.28,90.17,67.67Z"/><path class="cls-1" d="M202,67.67c-12.83,7.61-23.1,42.31-23.1,55V253.29h46.19V122.68C225.09,110,214.82,75.28,202,67.67Z"/><rect class="cls-1" x="67.23" y="120.49" width="46.04" height="2.66"/><rect class="cls-1" x="179.05" y="120.49" width="46.04" height="2.66"/><path class="cls-1" d="M174.54,121.7H117.28A117.7,117.7,0,0,1,82,205.76h0v20.11l25.52,6.26a12.84,12.84,0,0,1,9.79,12.48h57.26a12.84,12.84,0,0,1,9.79-12.48l25.51-6.26V205.76h0A117.73,117.73,0,0,1,174.54,121.7Z"/><path class="cls-1" d="M145.91,58.06h0c-14,7.27-28.63,40.57-28.63,56.32V251.53h57.26V114.38C174.54,98.63,159.93,65.33,145.91,58.06Z"/><path class="cls-1" d="M145.91,58.06h0c-14,7.27-28.63,40.57-28.63,56.32V251.53h57.26V114.38C174.54,98.63,159.93,65.33,145.91,58.06Z"/><path class="cls-1" d="M127.12,81.47H164.7c-5.3-10.57-12.11-19.95-18.79-23.41h0C139.23,61.52,132.42,70.9,127.12,81.47Z"/><rect class="cls-1" x="94.01" y="207.53" width="15.18" height="9.28"/><rect class="cls-1" x="182.63" y="207.53" width="15.18" height="9.28"/><rect class="cls-1" x="116.64" y="254.26" width="14.56" height="4.53"/><path class="cls-1" d="M123.92,220.4A10.59,10.59,0,0,0,113.36,231v23.28h21.12V231A10.59,10.59,0,0,0,123.92,220.4Z"/><rect class="cls-1" x="160.62" y="254.26" width="14.56" height="4.53"/><path class="cls-1" d="M167.9,220.4A10.59,10.59,0,0,0,157.34,231v23.28h21.12V231A10.59,10.59,0,0,0,167.9,220.4Z"/><path class="cls-1" d="M162.25,120.49a16.34,16.34,0,1,1-16.34-16.34A16.34,16.34,0,0,1,162.25,120.49Z"/><path class="cls-2" d="M219.36,147.4a17.49,17.49,0,1,1-17.49-17.48A17.49,17.49,0,0,1,219.36,147.4Z"/><path class="cls-3" d="M189.75,143.28v-1.09a2.1,2.1,0,0,1,1.35-2,36.87,36.87,0,0,1,3.84-1.16,6.23,6.23,0,0,1,3.72.28c1.31.49,2.59,1.07,3.86,1.66a32.79,32.79,0,0,0,4.46,1.76,8,8,0,0,0,2.42.41,11.53,11.53,0,0,0,2-.27,4.47,4.47,0,0,1,.87-.13,2.17,2.17,0,0,1,1.85,1.5,2.28,2.28,0,0,1-1.71,3c-.81.16-1.62.33-2.44.45a6,6,0,0,1-2.53-.23,28.57,28.57,0,0,1-4.64-1.76c-1.37-.63-2.73-1.27-4.15-1.79a6.5,6.5,0,0,0-2.46-.45,6.89,6.89,0,0,0-2,.34c-1.25.38-2.5.78-3.73,1.19a.57.57,0,0,1-.78-.56C189.77,144.05,189.75,143.67,189.75,143.28Z"/><path class="cls-3" d="M189.75,152.46v-1.09a2.09,2.09,0,0,1,1.41-2c1.15-.38,2.32-.74,3.49-1.08a6.2,6.2,0,0,1,4.26.31c1.34.57,2.68,1.15,4,1.75a32.52,32.52,0,0,0,4.59,1.73,7.19,7.19,0,0,0,3.42.08l1-.21a1.78,1.78,0,0,1,1.43.4,2.16,2.16,0,0,1,.85,2.28,2.06,2.06,0,0,1-1.66,1.75c-.84.2-1.69.35-2.54.49a6.36,6.36,0,0,1-2.6-.25,28.93,28.93,0,0,1-4.56-1.74c-1.36-.63-2.73-1.26-4.15-1.78a6.36,6.36,0,0,0-2.62-.46,7.55,7.55,0,0,0-1.78.32c-1.27.39-2.52.8-3.78,1.2a.53.53,0,0,1-.71-.27.46.46,0,0,1-.05-.23Z"/><rect class="cls-2" x="74.3" y="129.74" width="31.73" height="33.33" rx="6.9"/><path class="cls-4" d="M89.26,150.12c0-.59,0-1.19,0-1.79a1.88,1.88,0,0,0-.44-1.29,2.61,2.61,0,0,1-.73-1.4,2.53,2.53,0,0,0-.81-1.52c-.89-.91-1.82-1.77-2.7-2.69a.64.64,0,0,0-.91-.13,5.15,5.15,0,0,1-5.31-.62A4.31,4.31,0,0,1,77,135.83a4.41,4.41,0,0,1,4.67-3A4.89,4.89,0,0,1,86,137.23a5,5,0,0,1-.54,2.41c-.1.2-.16.39.06.57,1.09.93,2.13,1.94,3.27,2.82a2.57,2.57,0,0,0,3,0,34,34,0,0,0,2.73-2.64.92.92,0,0,0,.24-1.05,4.79,4.79,0,0,1-.19-.93,4.45,4.45,0,0,1,2.35-4.9,4.62,4.62,0,0,1,6.58,5.16,4.41,4.41,0,0,1-3.21,3.22,5.29,5.29,0,0,1-3.6-.49.53.53,0,0,0-.7.09c-.77.69-1.59,1.34-2.36,2a3.27,3.27,0,0,0-1.35,2.24,1.69,1.69,0,0,1-.71,1.26,1.38,1.38,0,0,0-.62,1.22c0,1,0,2,0,3s-.23.9,1,1.41a4.46,4.46,0,0,1,2.86,4.93,4.63,4.63,0,0,1-8.7,1.06,4.33,4.33,0,0,1,.85-5.11,4.78,4.78,0,0,1,1.79-1,.67.67,0,0,0,.58-.8c0-.55,0-1.11,0-1.66Zm7.52-13.29a.84.84,0,0,0-.06.44.47.47,0,0,0,.44.45c.28,0,.31-.17.37-.36a1.5,1.5,0,0,1,2.12-1,1.31,1.31,0,0,1,.73,1.54,1.11,1.11,0,0,1-1.09,1c-.29,0-.68,0-.58.44a.62.62,0,0,0,.84.53,2.6,2.6,0,0,0,1.92-2.38,2.57,2.57,0,0,0-2.4-2.19A2.64,2.64,0,0,0,96.78,136.83Zm-17.53,1.63a2.7,2.7,0,0,0,1.81,1.17c.39.09.55-.2.6-.52s-.17-.45-.48-.48c-.84-.08-1.26-.49-1.27-1.25a1.36,1.36,0,0,1,1.21-1.44,1.5,1.5,0,0,1,1.58,1.11c.06.32.18.47.51.42s.43-.29.4-.59a2.65,2.65,0,0,0-2.13-1.82A2.3,2.3,0,0,0,79.25,138.46Zm13,19.49a2.21,2.21,0,0,0,0-2.3c-.12-.21-.29-.4-.55-.35s-.37.37-.25.66a1.6,1.6,0,0,1-.13,1.73,1.33,1.33,0,0,1-1.27.56,1.37,1.37,0,0,1-1.11-.93,1.56,1.56,0,0,1,.18-1.49c.12-.19.22-.33,0-.48s-.49-.3-.68,0a2.17,2.17,0,0,0-.35,2.32,2.37,2.37,0,0,0,2.24,1.42A2.29,2.29,0,0,0,92.21,158Z"/><path d="M255.37,66.66l-.4-.91c.79-.35,1.68-.7,2.65-1l.34.94C257,66,256.14,66.33,255.37,66.66Z"/><path d="M288.78,60.77c-.77,0-1.6-.06-2.51-.06v-1c.91,0,1.78,0,2.57.06Z"/><path d="M272.62,81.57A15.38,15.38,0,0,1,270,51a16,16,0,0,1,2.67-.23,15.38,15.38,0,0,1,2.62,30.54A15.93,15.93,0,0,1,272.62,81.57Zm0-29.77a15.08,15.08,0,0,0-2.5.22,14.38,14.38,0,0,0,2.46,28.55,13.89,13.89,0,0,0,2.49-.22,14.38,14.38,0,0,0-2.45-28.55Z"/><path d="M273.18,79.22l-.05-1a11.92,11.92,0,0,0,1.58-.17l.17,1A12.26,12.26,0,0,1,273.18,79.22Z"/><path d="M275.78,78.85l-.24-1a12,12,0,0,0,6.95-4.77,11.88,11.88,0,0,0,1.42-2.65l.93.36a13.43,13.43,0,0,1-1.53,2.87A13,13,0,0,1,275.78,78.85Z"/><path d="M271.76,54.17l-.08-1a15,15,0,0,1,1.64,0l-.05,1A12.74,12.74,0,0,0,271.76,54.17Z"/><path d="M259.78,68.43a13,13,0,0,1,10.62-15.1l.17,1a12,12,0,0,0-9.8,13.93Z"/><path d="M258.76,72h-.91c-4.6-.09-7.05-.86-7.3-2.28-.22-1.23,1.23-2.51,4.42-3.92l.4.91c-3,1.32-3.92,2.35-3.84,2.84.27,1.54,8.65,2.3,21.69,0s20.67-5.82,20.4-7.37c-.09-.51-1.41-1.17-4.84-1.39l.06-1c3.66.23,5.54,1,5.76,2.22.25,1.42-1.8,3-6.1,4.62a86.09,86.09,0,0,1-15.11,3.9A88.66,88.66,0,0,1,258.76,72Z"/><path d="M29.23,151.65a3.85,3.85,0,0,1-1.25-.2l.32-1A2.94,2.94,0,0,0,32,146.77l1-.33a4,4,0,0,1-3.76,5.21Z"/><path d="M29.21,154.08a6.25,6.25,0,0,1-3.15-.84l.5-.89A5.37,5.37,0,0,0,33.89,145l.89-.51a6.39,6.39,0,0,1-5.57,9.56Z"/><path d="M21.43,154.16h0a.48.48,0,0,1-.36-.15,10.24,10.24,0,1,1,14.48-14.48.51.51,0,0,1,0,.72L21.79,154A.51.51,0,0,1,21.43,154.16Zm6.88-16.61a9.22,9.22,0,0,0-6.87,15.37l13-13A9.17,9.17,0,0,0,28.31,137.55Z"/><path d="M18.86,145a.48.48,0,0,1-.36-.16l-11-11a.51.51,0,0,1,0-.72L14.63,126a.52.52,0,0,1,.73,0l11,11a.51.51,0,0,1,.13.5.49.49,0,0,1-.36.36,9.19,9.19,0,0,0-6.75,6.75.56.56,0,0,1-.36.37ZM8.6,133.46l10,10a10.31,10.31,0,0,1,6.4-6.4l-10-10Z"/><rect x="20.54" y="130.84" width="2.56" height="1.03" transform="translate(-86.44 53.83) rotate(-44.96)"/><rect x="11.61" y="139.77" width="2.56" height="1.02" transform="translate(-95.42 50.2) rotate(-45)"/><path d="M9.25,132.59a.47.47,0,0,1-.35-.15l-2-2a.51.51,0,0,1,0-.72l4.36-4.37a.54.54,0,0,1,.73,0l2,2a.51.51,0,0,1,0,.72l-4.36,4.36A.51.51,0,0,1,9.25,132.59ZM8,130.11l1.24,1.25,3.64-3.64-1.25-1.25Z"/><path d="M25,133.25a.49.49,0,0,1-.35-.15l-4.59-4.59a.5.5,0,0,1-.16-.36.48.48,0,0,1,.16-.36l9.17-9.18a.51.51,0,0,1,.72,0l4.59,4.59a.48.48,0,0,1,.15.36.51.51,0,0,1-.15.37l-9.17,9.17A.51.51,0,0,1,25,133.25Zm-3.86-5.1L25,132l8.46-8.45L29.6,119.7Z"/><path d="M5.1,153.16a.47.47,0,0,1-.36-.15L.15,148.43a.52.52,0,0,1,0-.73l9.18-9.17a.48.48,0,0,1,.36-.15h0a.51.51,0,0,1,.36.15l4.58,4.59a.51.51,0,0,1,0,.72L5.46,153A.47.47,0,0,1,5.1,153.16Zm-3.86-5.09,3.86,3.86,8.45-8.45-3.86-3.86Z"/><polygon class="cls-1" points="259.59 132.07 262.23 137.44 268.16 138.3 263.87 142.48 264.88 148.37 259.59 145.59 254.29 148.37 255.3 142.48 251.02 138.3 256.94 137.44 259.59 132.07"/><polygon class="cls-1" points="27.31 208.09 28.64 210.78 31.6 211.21 29.45 213.3 29.96 216.25 27.31 214.86 24.66 216.25 25.16 213.3 23.02 211.21 25.98 210.78 27.31 208.09"/><polygon class="cls-1" points="45.64 38.27 49.21 45.5 57.19 46.66 51.41 52.29 52.78 60.24 45.64 56.49 38.5 60.24 39.86 52.29 34.09 46.66 42.07 45.5 45.64 38.27"/><polygon class="cls-1" points="278.67 207.53 280.38 211 284.21 211.56 281.44 214.26 282.1 218.08 278.67 216.28 275.24 218.08 275.89 214.26 273.12 211.56 276.95 211 278.67 207.53"/></g></g></svg>