<svg xmlns="http://www.w3.org/2000/svg" viewBox="0 0 200.86 145.65"><defs><style>.cls-1{fill:#fff;stroke:#282828;stroke-linecap:round;stroke-linejoin:round;}</style></defs><title>Asset 12</title><g id="Layer_2" data-name="Layer 2"><g id="Layer_1-2" data-name="Layer 1"><g id="home"><polyline class="cls-1" points="32.75 67.76 89.48 20.18 146.22 67.76"/><polyline class="cls-1" points="116.93 31.16 116.93 23.84 135.24 23.84 135.24 45.8"/><polyline class="cls-1" points="43.73 75.08 43.73 119 62.03 119 62.03 75.08 83.99 75.08 83.99 119 135.24 119 135.24 75.08"/><line class="cls-1" x1="62.03" y1="126.32" x2="83.99" y2="126.32"/><line class="cls-1" x1="58.37" y1="133.64" x2="87.65" y2="133.64"/><rect class="cls-1" x="98.63" y="75.08" width="18.3" height="18.3"/></g><path class="cls-1" d="M30,7.41l-.4-.49C25.54,2.1,20.54-.45,14.14.86,7.51,2.21,3.06,6.22,1.22,12.72S1.11,24.93,6,29.61c2.52,2.41,5.13,4.74,7.76,7,4.94,4.33,9.89,8.66,14.9,12.9,1.91,1.61,1.4,1.63,3.34-.05,7.58-6.58,15.17-13.15,22.59-19.91a16.55,16.55,0,0,0-.76-25.34C48.39-.2,40.27-1.16,34,4,32.62,5.08,30,7.41,30,7.41Z"/><path class="cls-1" d="M6.73,15.39A10.24,10.24,0,0,1,17,5.15"/><path class="cls-1" d="M34.81,11a10.26,10.26,0,0,1,9.24-5.8"/><path class="cls-1" d="M162.13,98.56c9.24,0,16.73,2.68,16.73,6s-7.49,6-16.73,6-16.73-2.68-16.73-6S152.89,98.56,162.13,98.56Z"/><path class="cls-1" d="M145.4,104.54v6c0,3.3,7.49,6,16.73,6a44.94,44.94,0,0,0,5.32-.31"/><path class="cls-1" d="M146.8,112.9a3.19,3.19,0,0,0-1.4,2.39v1.2c0,3.29,7.49,6,16.73,6,.76,0,1.51,0,2.24,0"/><path class="cls-1" d="M146.8,118.87a3.2,3.2,0,0,0-1.4,2.39v1.2c0,3.3,7.49,6,16.73,6,.44,0,.87,0,1.29,0"/><path class="cls-1" d="M146.8,124.84a3.22,3.22,0,0,0-1.4,2.4v1.19c0,3.3,7.49,6,16.73,6,.69,0,1.37,0,2,0"/><path class="cls-1" d="M146.8,130.82a3.19,3.19,0,0,0-1.4,2.39v1.2c0,3.29,7.49,6,16.73,6a46,46,0,0,0,5.1-.28"/><path class="cls-1" d="M166.91,128.43a16.73,16.73,0,1,0,16.72-16.73A16.72,16.72,0,0,0,166.91,128.43Z"/><path class="cls-1" d="M180.05,132v1.2a2.39,2.39,0,0,0,2.39,2.39h2.39a2.39,2.39,0,0,0,2.39-2.39v-1.86a2.39,2.39,0,0,0-1.64-2.27l-3.9-1.3a2.4,2.4,0,0,1-1.63-2.27v-.67a2.39,2.39,0,0,1,2.39-2.38h2.39a2.39,2.39,0,0,1,2.39,2.38V126"/><line class="cls-1" x1="183.63" y1="122.46" x2="183.63" y2="118.87"/><line class="cls-1" x1="183.63" y1="135.6" x2="183.63" y2="139.18"/><line class="cls-1" x1="178.86" y1="104.54" x2="178.86" y2="108.12"/></g></g></svg>