<svg xmlns="http://www.w3.org/2000/svg" viewBox="0 0 163.82 147.34"><defs><style>.cls-1{fill:#fff;}.cls-1,.cls-2{stroke:#282828;stroke-linecap:round;stroke-linejoin:round;}.cls-2{fill:none;}</style></defs><title>Asset 13</title><g id="Layer_2" data-name="Layer 2"><g id="Layer_1-2" data-name="Layer 1"><g id="apartments_" data-name="apartments
"><polyline class="cls-1" points="4.5 62.5 4.5 25.5 14.5 25.5"/><polyline class="cls-1" points="8.5 25.5 8.5 19.5 14.5 19.5"/><polyline class="cls-1" points="18.5 62.5 18.5 7.5 54.5 7.5 54.5 62.5"/><rect class="cls-1" x="32.5" y="53.5" width="8" height="9"/><polyline class="cls-1" points="24.5 29.5 24.5 25.5 28.5 25.5"/><polyline class="cls-1" points="34.5 29.5 34.5 25.5 38.5 25.5"/><polyline class="cls-1" points="44.5 29.5 44.5 25.5 48.5 25.5"/><polyline class="cls-1" points="24.5 39.5 24.5 35.5 28.5 35.5"/><polyline class="cls-1" points="34.5 39.5 34.5 35.5 38.5 35.5"/><polyline class="cls-1" points="44.5 39.5 44.5 35.5 48.5 35.5"/><polyline class="cls-1" points="24.5 49.5 24.5 45.5 28.5 45.5"/><polyline class="cls-1" points="44.5 49.5 44.5 45.5 48.5 45.5"/><polyline class="cls-1" points="24.5 19.5 24.5 15.5 28.5 15.5"/><polyline class="cls-1" points="34.5 19.5 34.5 15.5 38.5 15.5"/><polyline class="cls-1" points="44.5 19.5 44.5 15.5 48.5 15.5"/><polyline class="cls-1" points="58.5 27.5 58.5 29.5 54.5 29.5"/><polyline class="cls-1" points="58.5 17.5 58.5 19.5 54.5 19.5"/><polyline class="cls-1" points="58.5 37.5 58.5 39.5 54.5 39.5"/><polyline class="cls-1" points="58.5 47.5 58.5 49.5 54.5 49.5"/><rect class="cls-1" x="25.5" y="0.5" width="22" height="7"/><line class="cls-1" x1="0.5" y1="62.5" x2="62.5" y2="62.5"/></g><path class="cls-1" d="M148.6,94v22.44a4.08,4.08,0,0,1-4.08,4.08H79.22a4.08,4.08,0,0,1-4.08-4.08V40.91a4.08,4.08,0,0,1,4.08-4.08h8.16"/><path class="cls-1" d="M136.35,36.83h8.17a4.08,4.08,0,0,1,4.08,4.08V71.52"/><polyline class="cls-1" points="140.43 102.13 140.43 112.33 83.3 112.33 83.3 44.99 87.38 44.99"/><polyline class="cls-1" points="136.35 44.99 140.43 44.99 140.43 79.68"/><path class="cls-1" d="M126.15,34.79H120a8.17,8.17,0,0,0-16.33,0H97.58a6.12,6.12,0,0,0-6.12,6.12V47h40.81V40.91A6.12,6.12,0,0,0,126.15,34.79Z"/><line class="cls-1" x1="111.87" y1="32.75" x2="111.87" y2="36.83"/><polyline class="cls-1" points="156.76 73.56 134.31 99.83 124.11 89.63"/><line class="cls-1" x1="95.54" y1="61.32" x2="99.62" y2="61.32"/><line class="cls-1" x1="103.7" y1="61.32" x2="128.19" y2="61.32"/><line class="cls-1" x1="95.54" y1="69.48" x2="99.62" y2="69.48"/><line class="cls-1" x1="103.7" y1="69.48" x2="128.19" y2="69.48"/><line class="cls-1" x1="95.54" y1="77.64" x2="99.62" y2="77.64"/><line class="cls-1" x1="103.7" y1="77.64" x2="128.19" y2="77.64"/><path class="cls-1" d="M140.85,120.32s-7.13-13-13.32-11.06,3.69,5.83,4.4,12.25,3.1,13.2,10.83,17.84l2,7.49"/><path class="cls-2" d="M162.38,145.89s6.28-38.2-13.58-50.1"/></g></g></svg>