<svg xmlns="http://www.w3.org/2000/svg" viewBox="0 0 372.96 646.77"><defs><style>.cls-1{isolation:isolate;}.cls-18,.cls-19,.cls-2,.cls-20,.cls-21,.cls-22,.cls-23,.cls-24,.cls-25,.cls-26,.cls-27,.cls-28,.cls-29,.cls-30,.cls-31,.cls-32,.cls-33,.cls-34{fill:none;}.cls-10,.cls-11,.cls-12,.cls-13,.cls-14,.cls-18,.cls-19,.cls-2,.cls-20,.cls-21,.cls-22,.cls-23,.cls-24,.cls-25,.cls-26,.cls-27,.cls-28,.cls-29,.cls-3,.cls-30,.cls-31,.cls-32,.cls-33,.cls-34,.cls-35,.cls-6,.cls-7,.cls-8,.cls-9{stroke:#282828;stroke-linecap:round;stroke-linejoin:round;}.cls-10,.cls-11,.cls-14,.cls-17,.cls-3,.cls-35,.cls-7,.cls-8,.cls-9{fill:#fff;}.cls-3,.cls-35,.cls-6,.cls-7{stroke-width:0.75px;}.cls-10,.cls-4,.cls-7{mix-blend-mode:multiply;}.cls-13,.cls-5,.cls-6{fill:#e2e2e2;}.cls-35,.cls-8{stroke-dasharray:4;}.cls-10,.cls-11,.cls-9{stroke-width:0.5px;}.cls-11{fill-rule:evenodd;}.cls-12{fill:#f4f4f4;}.cls-15{fill:#af8162;}.cls-16{fill:#9e734f;}.cls-18{stroke-dasharray:3.89 3.89;}.cls-19{stroke-dasharray:3.94 3.94;}.cls-20{stroke-dasharray:3.96 3.96;}.cls-21{stroke-dasharray:3.89 3.89;}.cls-22{stroke-dasharray:4.22 4.22;}.cls-23{stroke-dasharray:4.22 4.22;}.cls-24{stroke-dasharray:3.96 3.96;}.cls-25{stroke-dasharray:3.69 3.69;}.cls-26{stroke-dasharray:3.84 3.84;}.cls-27{stroke-dasharray:3.78 3.78;}.cls-28{stroke-dasharray:3.87 3.87;}.cls-29{stroke-dasharray:4.33 4.33;}.cls-30{stroke-dasharray:4.31 4.31;}.cls-31{stroke-dasharray:4.31 4.31;}.cls-32{stroke-dasharray:4.31 4.31;}.cls-33{stroke-dasharray:4.06 4.06;}.cls-34{stroke-dasharray:4.37 4.37;}</style></defs><title>Asset 5</title><g class="cls-1"><g id="Layer_2" data-name="Layer 2"><g id="Layer_1-2" data-name="Layer 1"><rect class="cls-2" x="1.01" y="0.5" width="371.07" height="645.77"/><line class="cls-2" x1="198.59" y1="19.34" x2="198.59" y2="0.5"/><line class="cls-2" x1="174.5" y1="19.34" x2="174.5" y2="0.5"/><line class="cls-2" x1="186.55" y1="71.06" x2="186.55" y2="646.27"/><path class="cls-2" d="M.5,625.4H111.62c41.34,0,38.67-40,38.67-40V296.06h0V164.78c0-26.15-10.71-38.31-10.71-38.31l-.2-.32a64.24,64.24,0,1,1,96.31-2.33l-2.35,2.64s-10.7,12.16-10.7,38.31V585.4s-2.67,40,38.67,40H372.46"/><line class="cls-2" x1="372.08" y1="128.55" x2="231.86" y2="128.55"/><line class="cls-2" x1="141.33" y1="128.55" x2="1.01" y2="128.55"/><line class="cls-2" x1="372.08" y1="228.06" x2="222.68" y2="228.06"/><line class="cls-2" x1="150.33" y1="228.06" x2="1.01" y2="228.06"/><line class="cls-2" x1="372.08" y1="327.57" x2="222.68" y2="327.57"/><line class="cls-2" x1="150.33" y1="327.57" x2="1.01" y2="327.57"/><line class="cls-2" x1="372.08" y1="427.08" x2="222.68" y2="427.08"/><line class="cls-2" x1="150.33" y1="427.08" x2="1.01" y2="427.08"/><line class="cls-2" x1="372.08" y1="526.59" x2="222.68" y2="526.59"/><line class="cls-2" x1="150.33" y1="526.59" x2="1.01" y2="526.59"/><path class="cls-3" d="M260,333.59h66.9a9.12,9.12,0,0,1,9.12,9.12v66.9a9.12,9.12,0,0,1-9.12,9.12H260a9.13,9.13,0,0,1-9.12-9.12v-66.9A9.13,9.13,0,0,1,260,333.59Z"/><rect class="cls-3" x="26.68" y="137.88" width="82.36" height="83.09"/><g class="cls-4"><polygon class="cls-5" points="61.22 179.44 67.14 185.22 60.01 185.62 61.22 179.44"/><polygon class="cls-5" points="66.06 218.68 60.15 219.35 61.09 213.84 66.06 218.68"/><polygon class="cls-5" points="107.18 186.02 107.31 192.74 67.27 192.34 67.27 203.49 64.44 203.49 59.11 200.01 60.28 186.69 107.18 186.02"/><polygon class="cls-5" points="29.37 164.18 29.37 144.21 28.84 143.69 28.97 139.12 33.24 139.81 47.51 139.81 47.78 138.58 59.88 138.99 71.25 139.81 88.69 139.81 89.04 138.72 107.58 137.91 107.72 146.25 98.85 146.11 92.14 142.46 77.25 142.46 79.63 144.36 79.76 147.45 67.81 147.05 68.07 168.42 65.92 168.69 59.11 165.47 59.65 146.98 52.22 146.92 48.86 142.46 40.18 142.46 41.47 143.96 41.47 145.98 37.17 146.25 37.17 147.99 32.86 147.99 31.66 147.49 31.66 159.18 34.07 161.7 33.94 168.28 31.92 167.88 31.92 167.88 31.66 185.39 35.02 185.22 35.96 187.23 35.96 190.06 31.66 190.06 31.66 219.75 29.37 219.75 29.37 164.98 29.23 164.92 29.37 164.18"/></g><rect class="cls-6" x="102.21" y="137.88" width="6.84" height="2.59"/><rect class="cls-3" x="95.35" y="137.88" width="6.84" height="2.59"/><rect class="cls-6" x="88.5" y="137.88" width="6.84" height="2.59"/><rect class="cls-3" x="81.64" y="137.88" width="6.84" height="2.59"/><rect class="cls-6" x="74.79" y="137.88" width="6.84" height="2.59"/><rect class="cls-3" x="67.94" y="137.88" width="6.84" height="2.59"/><rect class="cls-6" x="61.09" y="137.88" width="6.84" height="2.59"/><rect class="cls-3" x="54.23" y="137.88" width="6.84" height="2.59"/><rect class="cls-3" x="102.21" y="184.99" width="6.84" height="2.6"/><rect class="cls-3" x="95.35" y="184.99" width="6.84" height="2.6"/><rect class="cls-3" x="88.5" y="184.99" width="6.84" height="2.6"/><rect class="cls-3" x="81.64" y="184.99" width="6.84" height="2.6"/><rect class="cls-3" x="74.79" y="184.99" width="6.84" height="2.6"/><rect class="cls-3" x="67.94" y="184.99" width="6.84" height="2.6"/><rect class="cls-3" x="61.09" y="184.99" width="6.84" height="2.6"/><rect class="cls-6" x="47.38" y="137.88" width="6.84" height="2.59"/><rect class="cls-3" x="40.53" y="137.88" width="6.84" height="2.59"/><rect class="cls-6" x="33.67" y="137.88" width="6.84" height="2.59"/><rect class="cls-3" x="26.82" y="137.88" width="6.84" height="2.59"/><rect class="cls-3" x="54.23" y="184.83" width="6.84" height="2.59"/><rect class="cls-3" x="47.38" y="184.83" width="6.84" height="2.59"/><rect class="cls-3" x="26.82" y="184.83" width="6.84" height="2.59"/><rect class="cls-3" x="102.21" y="218.25" width="6.84" height="2.59"/><rect class="cls-6" x="95.35" y="218.25" width="6.84" height="2.59"/><rect class="cls-3" x="88.5" y="218.25" width="6.84" height="2.59"/><rect class="cls-6" x="67.94" y="218.25" width="6.84" height="2.59"/><rect class="cls-3" x="61.09" y="218.25" width="6.84" height="2.59"/><rect class="cls-6" x="54.23" y="218.25" width="6.84" height="2.59"/><rect class="cls-3" x="47.38" y="218.25" width="6.84" height="2.59"/><rect class="cls-6" x="40.53" y="218.25" width="6.84" height="2.59"/><rect class="cls-3" x="33.67" y="218.25" width="6.84" height="2.59"/><rect class="cls-6" x="26.82" y="218.25" width="6.84" height="2.59"/><rect class="cls-6" x="106.41" y="213.85" width="2.59" height="6.9"/><rect class="cls-3" x="106.41" y="206.94" width="2.59" height="6.89"/><rect class="cls-6" x="106.41" y="200.03" width="2.59" height="6.89"/><rect class="cls-3" x="106.41" y="193.12" width="2.59" height="6.89"/><rect class="cls-6" x="106.41" y="186.21" width="2.59" height="6.9"/><rect class="cls-3" x="106.41" y="179.3" width="2.59" height="6.89"/><rect class="cls-6" x="106.41" y="172.39" width="2.59" height="6.9"/><rect class="cls-3" x="106.41" y="165.48" width="2.59" height="6.89"/><rect class="cls-6" x="106.41" y="158.57" width="2.59" height="6.9"/><rect class="cls-3" x="106.41" y="151.66" width="2.59" height="6.89"/><rect class="cls-6" x="106.41" y="144.75" width="2.59" height="6.89"/><rect class="cls-3" x="106.41" y="137.84" width="2.59" height="6.89"/><rect class="cls-3" x="26.72" y="213.85" width="2.59" height="6.9"/><rect class="cls-6" x="26.72" y="206.94" width="2.59" height="6.89"/><rect class="cls-3" x="26.72" y="200.03" width="2.59" height="6.89"/><rect class="cls-6" x="26.72" y="193.12" width="2.59" height="6.89"/><rect class="cls-3" x="26.72" y="186.21" width="2.59" height="6.9"/><rect class="cls-6" x="26.72" y="179.3" width="2.59" height="6.89"/><rect class="cls-3" x="26.72" y="172.39" width="2.59" height="6.9"/><rect class="cls-6" x="26.72" y="165.48" width="2.59" height="6.89"/><rect class="cls-3" x="26.72" y="158.57" width="2.59" height="6.9"/><rect class="cls-6" x="26.72" y="151.66" width="2.59" height="6.89"/><rect class="cls-3" x="26.72" y="144.75" width="2.59" height="6.89"/><rect class="cls-6" x="26.72" y="137.84" width="2.59" height="6.89"/><rect class="cls-3" x="59.11" y="213.85" width="2.59" height="6.9"/><rect class="cls-3" x="59.11" y="193.12" width="2.59" height="6.89"/><rect class="cls-3" x="59.11" y="186.21" width="2.59" height="6.9"/><rect class="cls-3" x="59.11" y="179.3" width="2.59" height="6.89"/><rect class="cls-3" x="59.11" y="158.57" width="2.59" height="6.9"/><rect class="cls-3" x="59.11" y="151.66" width="2.59" height="6.89"/><rect class="cls-3" x="59.11" y="144.75" width="2.59" height="6.89"/><rect class="cls-3" x="59.11" y="137.84" width="2.59" height="6.89"/><path class="cls-7" d="M271.24,347.77v24.44h-1.4v1.64h1.4v6.21h-1.4v1.64h1.4v24.44h-1.4v1.64h1.4v7h6.88v1.45h1.72v-1.45h24v1.45h1.73v-1.45h6.24v1.45h1.72v-1.45h24v1.45h1.72v-1.45h7.05v-7h1.48v-1.64h-1.48V381.7h1.35v-1.64h-1.35v-6.21h1.48v-1.64h-1.48V347.77h1.35v-1.64h-1.35V339h-7.18v-1.41h-1.72V339H313.56v-1.41h-1.72V339h-6.38v-1.41h-1.72V339h-23.9v-1.41h-1.72V339h-6.88v7.18h-1.4v1.64Zm7.43,58.37V381.7h1.17v-1.54h23.9v1.54h1.72v-1.54h0v26h-1.62v1.17h-24v-1.17Zm0-33.93V347.77h1.17v-1.39h23.9v1.39h1.72v-1.39h0v25.83h-1.62v1.31h-24v-1.31Zm33.45,33.93V381.7h1.44v-1.54h23.91v1.54h1.47v24.44H337.6v1.17h-24v-1.17Zm0-33.93V347.77h1.44v-1.39h23.91v1.39h1.47v24.44H337.6v1.31h-24v-1.31Z"/><path class="cls-3" d="M269.89,338.19v75.29h74.63V338.19Zm6.93,6.94h27.31v27.63H276.82Zm60.76,0v27.63H310.27V345.13Zm0,61.42H310.27V378.91h27.31Zm-60.76,0V378.91h27.31v27.64Z"/><rect class="cls-3" x="335.86" y="345.13" width="1.72" height="1.64"/><rect class="cls-3" x="310.24" y="345.13" width="1.72" height="1.64"/><rect class="cls-3" x="310.24" y="371.21" width="1.72" height="1.64"/><rect class="cls-3" x="335.99" y="371.21" width="1.72" height="1.64"/><rect class="cls-3" x="302.14" y="345.13" width="1.72" height="1.64"/><rect class="cls-3" x="276.51" y="345.13" width="1.72" height="1.64"/><rect class="cls-3" x="276.51" y="371.21" width="1.72" height="1.64"/><rect class="cls-3" x="302.27" y="371.21" width="1.72" height="1.64"/><rect class="cls-3" x="335.86" y="379.06" width="1.72" height="1.64"/><rect class="cls-3" x="310.24" y="379.06" width="1.72" height="1.64"/><rect class="cls-3" x="310.24" y="405.14" width="1.72" height="1.64"/><rect class="cls-3" x="335.99" y="405.14" width="1.72" height="1.64"/><rect class="cls-3" x="302.14" y="379.06" width="1.72" height="1.64"/><rect class="cls-3" x="276.51" y="379.06" width="1.72" height="1.64"/><rect class="cls-3" x="276.51" y="405.14" width="1.72" height="1.64"/><rect class="cls-3" x="268.24" y="345.13" width="1.72" height="1.64"/><rect class="cls-3" x="268.24" y="371.21" width="1.72" height="1.64"/><rect class="cls-3" x="268.24" y="379.06" width="1.72" height="1.64"/><rect class="cls-3" x="268.24" y="405.14" width="1.72" height="1.64"/><rect class="cls-3" x="302.27" y="405.14" width="1.72" height="1.64"/><rect class="cls-3" x="310.24" y="413.55" width="1.72" height="1.63"/><rect class="cls-3" x="335.99" y="413.55" width="1.72" height="1.63"/><rect class="cls-3" x="276.51" y="413.55" width="1.72" height="1.63"/><rect class="cls-3" x="302.27" y="413.55" width="1.72" height="1.63"/><rect class="cls-3" x="335.86" y="345.13" width="1.72" height="1.64"/><rect class="cls-3" x="344.53" y="371.21" width="1.72" height="1.64"/><rect class="cls-3" x="344.4" y="379.06" width="1.72" height="1.64"/><rect class="cls-3" x="344.53" y="405.14" width="1.72" height="1.64"/><rect class="cls-3" x="344.4" y="345.13" width="1.72" height="1.64"/><rect class="cls-3" x="310.24" y="336.54" width="1.72" height="1.64"/><rect class="cls-3" x="302.14" y="336.54" width="1.72" height="1.64"/><rect class="cls-3" x="276.51" y="336.54" width="1.72" height="1.64"/><rect class="cls-3" x="335.86" y="336.54" width="1.72" height="1.64"/><g class="cls-4"><path class="cls-3" d="M278.72,138.71h63a8.6,8.6,0,0,1,8.6,8.6v63a8.6,8.6,0,0,1-8.6,8.6h-63a8.59,8.59,0,0,1-8.59-8.59v-63A8.6,8.6,0,0,1,278.72,138.71Z"/><g class="cls-4"><path class="cls-3" d="M276.44,144.92v70.94h70.32V144.92Zm6.53,6.54H308.7v26H283Zm57.25,0v26H314.49v-26Zm0,57.87H314.49V183.28h25.73Zm-57.25,0V183.28H308.7v26.05Z"/></g><path class="cls-3" d="M274.57,143.05V214h70.32V143.05Zm6.53,6.54h25.74v26H281.1Zm57.25,0v26H312.62v-26Zm0,57.87H312.62v-26h25.73Zm-57.25,0v-26h25.74v26Z"/><rect class="cls-3" x="310.25" y="143.05" width="34.64" height="11.46"/><rect class="cls-3" x="310.25" y="154.73" width="34.64" height="11.45"/><rect class="cls-3" x="310.25" y="166.4" width="34.64" height="11.45"/></g><path class="cls-8" d="M30.64,535.73h63a8.6,8.6,0,0,1,8.6,8.6v63a8.6,8.6,0,0,1-8.6,8.6h-63A8.59,8.59,0,0,1,22,607.37v-63A8.6,8.6,0,0,1,30.64,535.73Z"/><g class="cls-4"><path class="cls-8" d="M25.63,541.94v70.94H96V541.94Zm63.79,32.58H63.69v-26H89.42Zm-31.52-26v26H32.17v-26ZM32.17,580.3H57.9v26.05H32.17Zm31.52,26.05V580.3H89.42v26.05Z"/></g><path class="cls-8" d="M27.5,540.07V611H97.82V540.07Zm63.79,32.58H65.55v-26H91.29Zm-31.52-26v26H34v-26ZM34,578.44H59.77v26H34Zm31.51,26v-26H91.29v26Z"/><rect class="cls-8" x="27.5" y="540.07" width="34.64" height="11.46"/><rect class="cls-8" x="27.5" y="551.75" width="34.64" height="11.45"/><rect class="cls-8" x="27.5" y="563.42" width="34.64" height="11.45"/><rect class="cls-9" x="76.68" y="161.83" width="26.92" height="8.9" transform="matrix(1, -0.09, 0.09, 1, -15.16, 9.16)"/><path class="cls-9" d="M133.79,172.47c.24,0,.44-.13.44-.29v-2.62c0-.16-.19-.29-.43-.29l-20.69-.16c-.24,0-.44.12-.44.28V172c0,.16.19.29.43.29Z"/><path class="cls-9" d="M133.92,161.86c.24,0,.43-.12.43-.28l0-2.62c0-.16-.19-.29-.44-.29l-20.68-.17c-.25,0-.44.13-.44.29l0,2.62c0,.16.19.29.44.29Z"/><path class="cls-9" d="M131.26,161a.5.5,0,0,1,.53.47l-.23,8.39a.53.53,0,0,1-.56.45L115.33,170l.43-9.31Z"/><path class="cls-9" d="M114.77,169.47l.22-8.39a.47.47,0,0,1,.48-.45h.33l-.38,9.31h-.2A.47.47,0,0,1,114.77,169.47Z"/><path class="cls-9" d="M135.47,174.12a.87.87,0,0,0,.93-.79l.11-15.57a.87.87,0,0,0-.92-.81l-10.22-.08a.86.86,0,0,0-.93.79l-.1,15.56a.86.86,0,0,0,.91.81Z"/><rect class="cls-9" x="120.09" y="166.43" width="4.65" height="1.71" transform="translate(-46.32 287.68) rotate(-89.31)"/><path class="cls-9" d="M77.4,163.8c-.12,0-.23,0-.23,0l0,.07s.09.05.22.08L90.21,167c.12,0,.22,0,.22,0l0-.07s-.09-.05-.21-.08Z"/><path class="cls-9" d="M78,171.05c-.12,0-.21.09-.21.11l0,.07a.59.59,0,0,0,.22,0l12.44-4.44c.12,0,.21-.08.2-.1l0-.07a.56.56,0,0,0-.22.05Z"/><path class="cls-9" d="M90.35,166.76a.56.56,0,0,0-.2.12l0,.07a.61.61,0,0,0,.21-.07l11.94-5.64c.11-.06.2-.11.19-.12l0-.08a.55.55,0,0,0-.22.08Z"/><path class="cls-9" d="M90.14,166.93a.61.61,0,0,0-.23,0V167a.55.55,0,0,0,.22.05l13.07,1.71a.62.62,0,0,0,.23,0v-.07a.51.51,0,0,0-.22-.06Z"/><path class="cls-9" d="M88.42,165.52c-.08,0-.14.16-.14.35v1.69c0,.2.06.36.13.36L92,168c.07,0,.13-.16.13-.36V165.9c0-.19-.05-.36-.13-.36Z"/><path class="cls-9" d="M90.1,166a.32.32,0,0,0-.3.34v1a.31.31,0,0,0,.3.33l17.54.13a.33.33,0,0,0,.31-.33v-1a.31.31,0,0,0-.29-.34Z"/><path class="cls-9" d="M107.6,165.39c-.14,0-.26.26-.26.59l0,1.73c0,.33.1.59.24.59l14.87.2c.13,0,.25-.26.26-.6l0-1.72c0-.33-.1-.6-.25-.6Z"/><path class="cls-9" d="M90.08,166.62a1.17,1.17,0,0,0-.58.06v.21a1.42,1.42,0,0,0,.58.07l33.6.27a1.28,1.28,0,0,0,.58-.07V167a1.3,1.3,0,0,0-.57-.08Z"/><path class="cls-9" d="M124.25,166.92l12,5.46v.94a.8.8,0,0,1-.62.74l-11.42-5.18Z"/><path class="cls-9" d="M125.24,156.87l3,0,8.11,3.68v2l-11.82-5.37A.93.93,0,0,1,125.24,156.87Z"/><polygon class="cls-9" points="124.28 162.98 136.31 168.44 136.3 170.4 124.26 164.94 124.28 162.98"/><polygon class="cls-9" points="124.22 172.81 124.23 170.85 131.33 174.08 126.92 174.04 124.22 172.81"/><polygon class="cls-9" points="124.31 159.05 136.34 164.51 136.32 166.47 124.29 161 124.31 159.05"/><path class="cls-9" d="M135.47,157a.86.86,0,0,1,.91.8v.84l-3.67-1.66Z"/><polygon class="cls-9" points="132.7 156.93 136.37 158.59 136.36 160.57 128.25 156.89 132.7 156.93"/><path class="cls-9" d="M124.31,157.66a.72.72,0,0,1,.22-.5l11.82,5.37,0,2-12-5.46Z"/><polygon class="cls-9" points="124.29 161 136.32 166.47 136.31 168.44 124.28 162.98 124.29 161"/><polygon class="cls-9" points="124.26 164.94 136.3 170.4 136.29 172.38 124.25 166.92 124.26 164.94"/><path class="cls-9" d="M124.24,168.88l11.42,5.18a1.06,1.06,0,0,1-.31.05l-4,0-7.1-3.23Z"/><path class="cls-9" d="M125.13,174a.88.88,0,0,1-.92-.81v-.41l2.71,1.23Z"/><path class="cls-10" d="M125.13,174l1.8,0,4.44,0,4,0a.81.81,0,0,0,.31-.06.79.79,0,0,0,.62-.73v-4.88l0-2v-5.9l0-2v-.84a.85.85,0,0,0-.92-.8l-2.78,0-4.47,0-3,0a1,1,0,0,0-.72.3.73.73,0,0,0-.21.49V161l0,2v3.94l0,2v4.35A.89.89,0,0,0,125.13,174Zm1.22-.74a.77.77,0,0,1-.77-.75v-2.19l0-1.84V163l0-1.83v-3.11a.72.72,0,0,1,.18-.45.8.8,0,0,1,.61-.28l2.53,0,3.75,0,2.33,0a.74.74,0,0,1,.76.74v4.43l0,1.83v1.82l0,1.83v4.52a.74.74,0,0,1-.52.69.75.75,0,0,1-.26.05l-3.38,0-3.72,0Z"/><path class="cls-9" d="M117.63,165.05a.33.33,0,0,0,.36.29l9.7.06a.32.32,0,0,0,.36-.28l0-5.54a.33.33,0,0,0-.36-.28l-9.71-.06a.32.32,0,0,0-.36.28Z"/><path class="cls-9" d="M118.7,159.74a.38.38,0,0,0-.41.34l0,4.42a.37.37,0,0,0,.4.34l8.51.07a.37.37,0,0,0,.4-.34l0-4.42a.37.37,0,0,0-.4-.34Z"/><path class="cls-9" d="M118.92,160.44a5.7,5.7,0,0,0,0,.74l0,2.15a7.06,7.06,0,0,0,0,.73l1.45,0s0-.34,0-.75v-2.14a7.18,7.18,0,0,0,0-.74Z"/><path class="cls-9" d="M129.57,268.27a.56.56,0,0,1,.57.57l0,2.85a.56.56,0,0,1-.57.56h-.45l0-4Z"/><path class="cls-9" d="M125.06,272.35h-.47a.56.56,0,0,1-.56-.57l0-2.85a.57.57,0,0,1,.57-.56h.45l0,4.17Z"/><path class="cls-9" d="M132.16,263.67h-.83a.93.93,0,0,1-.29-.05v.45l-.27-5.51-.39-.33v-.65a1,1,0,0,1,1-1h.82a1,1,0,0,1,1,1l0,5.08A1,1,0,0,1,132.16,263.67Z"/><path class="cls-9" d="M123.46,263.59h-.75a1,1,0,0,1-1-1l.05-5.08a1,1,0,0,1,1-1h.82a1,1,0,0,1,1,1v.64l-.58.3Z"/><path class="cls-9" d="M131,264.06V266a1,1,0,0,1-1,1h-.88v1.31h0l0,4h0v.07a1,1,0,0,1-1,1l-2,0a1,1,0,0,1-1-.77l0-4.17h0v-1.44h-.65a1,1,0,0,1-1-1l0-2.3h0l.31-5.27.47-.37,6.06.17.46.43Z"/><path class="cls-11" d="M125.48,271.68a1,1,0,0,0,1,1h1.17a1,1,0,0,0,1-1l0-4.72a1,1,0,0,0-1-1h-1.17a1,1,0,0,0-1,1Z"/><path class="cls-11" d="M130.5,259.89a1,1,0,0,0-1-1l-4.44,0a1,1,0,0,0-1,1l0,5.47a1,1,0,0,0,1,1l4.44,0a1,1,0,0,0,1-1Z"/><path class="cls-9" d="M130.1,266.21a.34.34,0,0,0-.34-.35l-5.26,0a.33.33,0,0,0-.34.34h0a.32.32,0,0,0,.33.34l5.27.05a.34.34,0,0,0,.34-.34Z"/><rect class="cls-9" x="124.86" y="267.61" width="3.32" height="14.31" transform="translate(-162.76 363.2) rotate(-82.28)"/><rect class="cls-9" x="126.32" y="266.33" width="0.75" height="14.31" transform="translate(-161.36 362.23) rotate(-82.27)"/><path class="cls-9" d="M118.73,280.3c.6,3.41,3.79,5.09,7.2,4.49s3.93-3,3.33-6.44-3.07-4.63-6.48-4S118.13,276.89,118.73,280.3Z"/><rect class="cls-3" x="65.08" y="240.34" width="34.48" height="74.59"/><rect class="cls-3" x="28.73" y="240.34" width="36.69" height="74.59"/><rect class="cls-3" x="98.12" y="240.42" width="1.47" height="73.84"/><rect class="cls-3" x="91.6" y="240.42" width="1.47" height="73.84"/><rect class="cls-3" x="85.08" y="240.42" width="1.47" height="73.84"/><rect class="cls-3" x="78.55" y="240.42" width="1.47" height="73.84"/><rect class="cls-3" x="72.03" y="240.42" width="1.47" height="73.84"/><rect class="cls-3" x="65.5" y="240.42" width="1.47" height="73.84"/><rect class="cls-3" x="65.41" y="240.51" width="34.27" height="1.59"/><rect class="cls-3" x="65.41" y="252.65" width="34.27" height="1.6"/><rect class="cls-3" x="65.41" y="264.8" width="34.27" height="1.59"/><rect class="cls-3" x="65.41" y="276.95" width="34.27" height="1.59"/><rect class="cls-3" x="65.41" y="289.09" width="34.27" height="1.59"/><rect class="cls-3" x="65.41" y="301.24" width="34.27" height="1.59"/><rect class="cls-3" x="65.41" y="313.38" width="34.27" height="1.6"/><rect class="cls-3" x="61.42" y="240.42" width="1.47" height="73.84"/><rect class="cls-3" x="54.89" y="240.42" width="1.47" height="73.84"/><rect class="cls-3" x="48.37" y="240.42" width="1.47" height="73.84"/><rect class="cls-3" x="41.85" y="240.42" width="1.47" height="73.84"/><rect class="cls-3" x="35.32" y="240.42" width="1.47" height="73.84"/><rect class="cls-3" x="28.8" y="240.42" width="1.47" height="73.84"/><rect class="cls-3" x="28.71" y="240.51" width="34.27" height="1.59"/><rect class="cls-3" x="28.71" y="252.65" width="34.27" height="1.6"/><rect class="cls-3" x="28.71" y="264.8" width="34.27" height="1.59"/><rect class="cls-3" x="28.71" y="276.95" width="34.27" height="1.59"/><rect class="cls-3" x="28.71" y="289.09" width="34.27" height="1.59"/><rect class="cls-3" x="28.71" y="301.24" width="34.27" height="1.59"/><rect class="cls-3" x="28.71" y="313.38" width="34.27" height="1.6"/><rect class="cls-3" x="44.24" y="312.37" width="5.81" height="3.16"/><rect class="cls-3" x="44.24" y="309.2" width="5.81" height="3.17"/><rect class="cls-3" x="44.24" y="299.71" width="5.81" height="3.17"/><rect class="cls-3" x="44.24" y="296.54" width="5.81" height="3.16"/><rect class="cls-3" x="44.24" y="306.04" width="5.81" height="3.16"/><rect class="cls-3" x="44.24" y="302.88" width="5.81" height="3.16"/><rect class="cls-3" x="50.05" y="312.37" width="5.82" height="3.16"/><rect class="cls-3" x="32.62" y="271.26" width="5.82" height="3.17"/><rect class="cls-3" x="32.62" y="274.43" width="5.82" height="3.17"/><rect class="cls-3" x="32.62" y="268.1" width="5.82" height="3.16"/><rect class="cls-3" x="26.82" y="245.99" width="5.8" height="3.16"/><rect class="cls-3" x="26.82" y="293.38" width="5.8" height="3.16"/><rect class="cls-3" x="26.82" y="290.22" width="5.8" height="3.16"/><rect class="cls-3" x="26.82" y="296.54" width="5.8" height="3.16"/><rect class="cls-3" x="26.82" y="299.71" width="5.8" height="3.17"/><rect class="cls-3" x="26.82" y="283.92" width="5.8" height="3.16"/><rect class="cls-3" x="26.82" y="312.37" width="5.8" height="3.16"/><rect class="cls-3" x="26.82" y="280.76" width="5.8" height="3.17"/><rect class="cls-3" x="26.82" y="302.88" width="5.8" height="3.16"/><rect class="cls-3" x="26.82" y="306.04" width="5.8" height="3.16"/><rect class="cls-3" x="26.82" y="309.2" width="5.8" height="3.17"/><rect class="cls-3" x="26.82" y="287.08" width="5.8" height="3.13"/><rect class="cls-3" x="26.82" y="249.15" width="5.8" height="3.17"/><rect class="cls-3" x="26.82" y="252.31" width="5.8" height="3.16"/><rect class="cls-3" x="32.62" y="277.6" width="5.82" height="3.16"/><rect class="cls-3" x="26.82" y="239.66" width="5.8" height="3.16"/><rect class="cls-3" x="26.82" y="242.82" width="5.8" height="3.16"/><rect class="cls-3" x="26.82" y="277.6" width="5.8" height="3.16"/><rect class="cls-3" x="26.82" y="255.48" width="5.8" height="3.13"/><rect class="cls-3" x="26.82" y="271.26" width="5.8" height="3.17"/><rect class="cls-3" x="26.82" y="268.1" width="5.8" height="3.16"/><rect class="cls-3" x="26.82" y="274.43" width="5.8" height="3.17"/><rect class="cls-3" x="26.82" y="261.77" width="5.8" height="3.17"/><rect class="cls-3" x="26.82" y="258.61" width="5.8" height="3.16"/><rect class="cls-3" x="26.82" y="264.94" width="5.8" height="3.16"/><rect class="cls-3" x="38.44" y="312.37" width="5.8" height="3.16"/><rect class="cls-3" x="38.44" y="309.2" width="5.8" height="3.17"/><rect class="cls-3" x="38.44" y="306.04" width="5.8" height="3.16"/><rect class="cls-3" x="38.44" y="302.88" width="5.8" height="3.16"/><rect class="cls-3" x="38.44" y="296.54" width="5.8" height="3.16"/><rect class="cls-3" x="38.44" y="299.71" width="5.8" height="3.17"/><rect class="cls-3" x="38.44" y="293.38" width="5.8" height="3.16"/><rect class="cls-3" x="38.44" y="287.08" width="5.8" height="3.13"/><rect class="cls-3" x="38.44" y="290.22" width="5.8" height="3.16"/><rect class="cls-3" x="32.62" y="296.54" width="5.82" height="3.16"/><rect class="cls-3" x="32.62" y="299.71" width="5.82" height="3.17"/><rect class="cls-3" x="32.62" y="290.22" width="5.82" height="3.16"/><rect class="cls-3" x="32.62" y="293.38" width="5.82" height="3.16"/><rect class="cls-3" x="32.62" y="287.08" width="5.82" height="3.13"/><rect class="cls-3" x="32.62" y="283.92" width="5.82" height="3.16"/><rect class="cls-3" x="32.62" y="309.2" width="5.82" height="3.17"/><rect class="cls-3" x="32.62" y="312.37" width="5.82" height="3.16"/><rect class="cls-3" x="32.62" y="306.04" width="5.82" height="3.16"/><rect class="cls-3" x="32.62" y="302.88" width="5.82" height="3.16"/><rect class="cls-3" x="32.62" y="280.76" width="5.82" height="3.17"/><rect class="cls-3" x="77.12" y="305.05" width="5.81" height="3.16"/><rect class="cls-3" x="82.93" y="305.05" width="5.8" height="3.16"/><rect class="cls-3" x="71.3" y="305.05" width="5.82" height="3.16"/><rect class="cls-3" x="82.93" y="298.72" width="5.8" height="3.16"/><rect class="cls-3" x="82.93" y="295.59" width="5.8" height="3.13"/><rect class="cls-3" x="82.93" y="301.88" width="5.8" height="3.17"/><rect class="cls-3" x="65.5" y="305.05" width="5.8" height="3.16"/><rect class="cls-3" x="82.93" y="263.98" width="5.8" height="3.13"/><rect class="cls-3" x="82.93" y="292.43" width="5.8" height="3.16"/><rect class="cls-3" x="82.93" y="267.12" width="5.8" height="3.17"/><rect class="cls-3" x="82.93" y="260.82" width="5.8" height="3.16"/><rect class="cls-3" x="82.93" y="257.66" width="5.8" height="3.16"/><rect class="cls-3" x="82.93" y="254.49" width="5.8" height="3.17"/><rect class="cls-3" x="82.93" y="270.28" width="5.8" height="3.16"/><rect class="cls-3" x="82.93" y="286.1" width="5.8" height="3.16"/><rect class="cls-3" x="82.93" y="273.44" width="5.8" height="3.16"/><rect class="cls-3" x="82.93" y="289.26" width="5.8" height="3.17"/><rect class="cls-3" x="82.93" y="282.93" width="5.8" height="3.16"/><rect class="cls-3" x="82.93" y="276.6" width="5.8" height="3.16"/><rect class="cls-3" x="82.93" y="279.77" width="5.8" height="3.17"/><rect class="cls-3" x="71.3" y="282.93" width="5.82" height="3.16"/><rect class="cls-3" x="71.3" y="289.26" width="5.82" height="3.17"/><rect class="cls-3" x="71.3" y="276.6" width="5.82" height="3.16"/><rect class="cls-3" x="71.3" y="279.77" width="5.82" height="3.17"/><rect class="cls-3" x="71.3" y="292.43" width="5.82" height="3.16"/><rect class="cls-3" x="71.3" y="286.1" width="5.82" height="3.16"/><rect class="cls-3" x="65.5" y="292.43" width="5.8" height="3.16"/><rect class="cls-3" x="65.5" y="286.1" width="5.8" height="3.16"/><rect class="cls-3" x="71.3" y="295.59" width="5.82" height="3.13"/><rect class="cls-3" x="65.5" y="295.59" width="5.8" height="3.13"/><rect class="cls-3" x="65.5" y="298.72" width="5.8" height="3.16"/><rect class="cls-3" x="71.3" y="298.72" width="5.82" height="3.16"/><rect class="cls-3" x="65.5" y="289.26" width="5.8" height="3.17"/><rect class="cls-3" x="77.12" y="270.28" width="5.81" height="3.16"/><rect class="cls-3" x="77.12" y="289.26" width="5.81" height="3.17"/><rect class="cls-3" x="77.12" y="282.93" width="5.81" height="3.16"/><rect class="cls-3" x="77.12" y="279.77" width="5.81" height="3.17"/><rect class="cls-3" x="77.12" y="286.1" width="5.81" height="3.16"/><rect class="cls-3" x="77.12" y="276.6" width="5.81" height="3.16"/><rect class="cls-3" x="77.12" y="273.44" width="5.81" height="3.16"/><rect class="cls-3" x="77.12" y="301.88" width="5.81" height="3.17"/><rect class="cls-3" x="71.3" y="301.88" width="5.82" height="3.17"/><rect class="cls-3" x="65.5" y="301.88" width="5.8" height="3.17"/><rect class="cls-3" x="77.12" y="298.72" width="5.81" height="3.16"/><rect class="cls-3" x="77.12" y="292.43" width="5.81" height="3.16"/><rect class="cls-3" x="77.12" y="295.59" width="5.81" height="3.13"/><rect class="cls-3" x="94.55" y="260.82" width="5.8" height="3.16"/><rect class="cls-3" x="94.55" y="257.66" width="5.8" height="3.16"/><rect class="cls-3" x="94.55" y="263.98" width="5.8" height="3.13"/><rect class="cls-3" x="94.55" y="254.49" width="5.8" height="3.17"/><rect class="cls-3" x="94.55" y="267.12" width="5.8" height="3.17"/><rect class="cls-3" x="94.55" y="282.93" width="5.8" height="3.16"/><rect class="cls-3" x="94.55" y="279.77" width="5.8" height="3.17"/><rect class="cls-3" x="94.55" y="270.28" width="5.8" height="3.16"/><rect class="cls-3" x="94.55" y="286.1" width="5.8" height="3.16"/><rect class="cls-3" x="94.55" y="276.6" width="5.8" height="3.16"/><rect class="cls-3" x="94.55" y="273.44" width="5.8" height="3.16"/><rect class="cls-3" x="94.55" y="289.26" width="5.8" height="3.17"/><rect class="cls-3" x="94.55" y="298.72" width="5.8" height="3.16"/><rect class="cls-3" x="94.55" y="292.43" width="5.8" height="3.16"/><rect class="cls-3" x="94.55" y="305.05" width="5.8" height="3.16"/><rect class="cls-3" x="94.55" y="308.21" width="5.8" height="3.17"/><rect class="cls-3" x="94.55" y="301.88" width="5.8" height="3.17"/><rect class="cls-3" x="94.55" y="295.59" width="5.8" height="3.13"/><rect class="cls-3" x="94.55" y="311.38" width="5.8" height="4.15"/><rect class="cls-3" x="71.3" y="311.38" width="5.82" height="4.15"/><rect class="cls-3" x="88.73" y="311.38" width="5.82" height="4.15"/><rect class="cls-3" x="65.5" y="311.38" width="5.8" height="4.15"/><rect class="cls-3" x="82.93" y="311.38" width="5.8" height="4.15"/><rect class="cls-3" x="77.12" y="311.38" width="5.81" height="4.15"/><rect class="cls-3" x="71.3" y="308.21" width="5.82" height="3.17"/><rect class="cls-3" x="65.5" y="308.21" width="5.8" height="3.17"/><rect class="cls-3" x="77.12" y="308.21" width="5.81" height="3.17"/><rect class="cls-3" x="88.73" y="301.88" width="5.82" height="3.17"/><rect class="cls-3" x="88.73" y="305.05" width="5.82" height="3.16"/><rect class="cls-3" x="88.73" y="308.21" width="5.82" height="3.17"/><rect class="cls-3" x="82.93" y="308.21" width="5.8" height="3.17"/><rect class="cls-3" x="88.73" y="270.28" width="5.82" height="3.16"/><rect class="cls-3" x="88.73" y="273.44" width="5.82" height="3.16"/><rect class="cls-3" x="88.73" y="298.72" width="5.82" height="3.16"/><rect class="cls-3" x="88.73" y="260.82" width="5.82" height="3.16"/><rect class="cls-3" x="88.73" y="263.98" width="5.82" height="3.13"/><rect class="cls-3" x="88.73" y="276.6" width="5.82" height="3.16"/><rect class="cls-3" x="88.73" y="267.12" width="5.82" height="3.17"/><rect class="cls-3" x="88.73" y="289.26" width="5.82" height="3.17"/><rect class="cls-3" x="88.73" y="292.43" width="5.82" height="3.16"/><rect class="cls-3" x="88.73" y="279.77" width="5.82" height="3.17"/><rect class="cls-3" x="88.73" y="295.59" width="5.82" height="3.13"/><rect class="cls-3" x="88.73" y="286.1" width="5.82" height="3.16"/><rect class="cls-3" x="88.73" y="282.93" width="5.82" height="3.16"/><rect class="cls-3" x="88.73" y="257.66" width="5.82" height="3.16"/><rect class="cls-3" x="88.73" y="254.49" width="5.82" height="3.17"/><polygon class="cls-7" points="47.3 270.47 47.3 260.14 51.16 260.14 51.16 260.14 61.5 260.14 61.5 264.03 61.52 264.03 61.52 274.37 57.62 274.37 57.62 264.03 51.2 264.03 51.2 270.47 57.62 270.47 57.62 274.35 47.28 274.35 47.28 270.47 47.3 270.47"/><rect class="cls-3" x="49.01" y="260.58" width="8.04" height="10.34"/><rect class="cls-3" x="56.11" y="262.33" width="3.89" height="10.34"/><rect class="cls-3" x="45.79" y="258.44" width="3.89" height="10.34"/><rect class="cls-3" x="45.77" y="268.77" width="10.34" height="3.89"/><rect class="cls-3" x="49.64" y="258.44" width="10.34" height="3.89"/><rect class="cls-3" x="35.88" y="248.32" width="3.16" height="5.8" transform="translate(-208.99 189.76) rotate(-67.51)"/><rect class="cls-3" x="35.96" y="244.79" width="3.16" height="5.8" transform="translate(-205.67 187.6) rotate(-67.5)"/><rect class="cls-3" x="35.96" y="241.24" width="3.16" height="5.8" transform="translate(-202.38 185.37) rotate(-67.49)"/><rect class="cls-3" x="272.82" y="28.82" width="34.48" height="74.59"/><rect class="cls-3" x="306.97" y="28.82" width="36.69" height="74.59"/><rect class="cls-3" x="272.79" y="28.9" width="1.47" height="73.84"/><rect class="cls-3" x="279.31" y="28.9" width="1.47" height="73.84"/><rect class="cls-3" x="285.84" y="28.9" width="1.47" height="73.84"/><rect class="cls-3" x="292.37" y="28.9" width="1.47" height="73.84"/><rect class="cls-3" x="298.89" y="28.9" width="1.47" height="73.84"/><rect class="cls-3" x="305.41" y="28.9" width="1.47" height="73.84"/><rect class="cls-3" x="272.7" y="28.99" width="34.27" height="1.59"/><rect class="cls-3" x="272.7" y="41.13" width="34.27" height="1.6"/><rect class="cls-3" x="272.7" y="53.28" width="34.27" height="1.59"/><rect class="cls-3" x="272.7" y="65.43" width="34.27" height="1.59"/><rect class="cls-3" x="272.7" y="77.58" width="34.27" height="1.59"/><rect class="cls-3" x="272.7" y="89.72" width="34.27" height="1.59"/><rect class="cls-3" x="272.7" y="101.87" width="34.27" height="1.6"/><rect class="cls-3" x="309.5" y="28.9" width="1.47" height="73.84"/><rect class="cls-3" x="316.02" y="28.9" width="1.47" height="73.84"/><rect class="cls-3" x="322.55" y="28.9" width="1.47" height="73.84"/><rect class="cls-3" x="329.07" y="28.9" width="1.47" height="73.84"/><rect class="cls-3" x="335.6" y="28.9" width="1.47" height="73.84"/><rect class="cls-3" x="342.12" y="28.9" width="1.47" height="73.84"/><rect class="cls-3" x="309.41" y="28.99" width="34.27" height="1.59"/><rect class="cls-3" x="309.41" y="41.13" width="34.27" height="1.6"/><rect class="cls-3" x="309.41" y="53.28" width="34.27" height="1.59"/><rect class="cls-3" x="309.41" y="65.43" width="34.27" height="1.59"/><rect class="cls-3" x="309.41" y="77.58" width="34.27" height="1.59"/><rect class="cls-3" x="309.41" y="89.72" width="34.27" height="1.59"/><rect class="cls-3" x="309.41" y="101.87" width="34.27" height="1.6"/><rect class="cls-3" x="322.34" y="100.85" width="5.81" height="3.16"/><rect class="cls-3" x="322.34" y="97.69" width="5.81" height="3.17"/><rect class="cls-3" x="322.34" y="88.19" width="5.81" height="3.17"/><rect class="cls-3" x="322.34" y="85.03" width="5.81" height="3.16"/><rect class="cls-3" x="322.34" y="94.52" width="5.81" height="3.17"/><rect class="cls-3" x="322.34" y="91.36" width="5.81" height="3.16"/><rect class="cls-3" x="316.52" y="100.85" width="5.82" height="3.16"/><rect class="cls-3" x="333.95" y="59.75" width="5.82" height="3.17"/><rect class="cls-3" x="333.95" y="62.91" width="5.82" height="3.17"/><rect class="cls-3" x="333.95" y="56.58" width="5.82" height="3.16"/><rect class="cls-3" x="339.77" y="34.47" width="5.8" height="3.16"/><rect class="cls-3" x="339.77" y="81.86" width="5.8" height="3.16"/><rect class="cls-3" x="339.77" y="78.7" width="5.8" height="3.16"/><rect class="cls-3" x="339.77" y="85.03" width="5.8" height="3.16"/><rect class="cls-3" x="339.77" y="88.19" width="5.8" height="3.17"/><rect class="cls-3" x="339.77" y="72.41" width="5.8" height="3.16"/><rect class="cls-3" x="339.77" y="100.85" width="5.8" height="3.16"/><rect class="cls-3" x="339.77" y="69.24" width="5.8" height="3.17"/><rect class="cls-3" x="339.77" y="91.36" width="5.8" height="3.16"/><rect class="cls-3" x="339.77" y="94.52" width="5.8" height="3.17"/><rect class="cls-3" x="339.77" y="97.69" width="5.8" height="3.17"/><rect class="cls-3" x="339.77" y="75.57" width="5.8" height="3.13"/><rect class="cls-3" x="339.77" y="37.63" width="5.8" height="3.17"/><rect class="cls-3" x="339.77" y="40.8" width="5.8" height="3.16"/><rect class="cls-3" x="333.95" y="66.08" width="5.82" height="3.16"/><rect class="cls-3" x="339.77" y="28.14" width="5.8" height="3.16"/><rect class="cls-3" x="339.77" y="31.31" width="5.8" height="3.16"/><rect class="cls-3" x="339.77" y="66.08" width="5.8" height="3.16"/><rect class="cls-3" x="339.77" y="43.96" width="5.8" height="3.13"/><rect class="cls-3" x="339.77" y="59.75" width="5.8" height="3.17"/><rect class="cls-3" x="339.77" y="56.58" width="5.8" height="3.16"/><rect class="cls-3" x="339.77" y="62.91" width="5.8" height="3.17"/><rect class="cls-3" x="339.77" y="50.26" width="5.8" height="3.17"/><rect class="cls-3" x="339.77" y="47.09" width="5.8" height="3.16"/><rect class="cls-3" x="339.77" y="53.42" width="5.8" height="3.16"/><rect class="cls-3" x="328.14" y="100.85" width="5.8" height="3.16"/><rect class="cls-3" x="328.14" y="97.69" width="5.8" height="3.17"/><rect class="cls-3" x="328.14" y="94.52" width="5.8" height="3.17"/><rect class="cls-3" x="328.14" y="91.36" width="5.8" height="3.16"/><rect class="cls-3" x="328.14" y="85.03" width="5.8" height="3.16"/><rect class="cls-3" x="328.14" y="88.19" width="5.8" height="3.17"/><rect class="cls-3" x="328.14" y="81.86" width="5.8" height="3.16"/><rect class="cls-3" x="328.14" y="75.57" width="5.8" height="3.13"/><rect class="cls-3" x="328.14" y="78.7" width="5.8" height="3.16"/><rect class="cls-3" x="333.95" y="85.03" width="5.82" height="3.16"/><rect class="cls-3" x="333.95" y="88.19" width="5.82" height="3.17"/><rect class="cls-3" x="333.95" y="78.7" width="5.82" height="3.16"/><rect class="cls-3" x="333.95" y="81.86" width="5.82" height="3.16"/><rect class="cls-3" x="333.95" y="75.57" width="5.82" height="3.13"/><rect class="cls-3" x="333.95" y="72.41" width="5.82" height="3.16"/><rect class="cls-3" x="333.95" y="97.69" width="5.82" height="3.17"/><rect class="cls-3" x="333.95" y="100.85" width="5.82" height="3.16"/><rect class="cls-3" x="333.95" y="94.52" width="5.82" height="3.17"/><rect class="cls-3" x="333.95" y="91.36" width="5.82" height="3.16"/><rect class="cls-3" x="333.95" y="69.24" width="5.82" height="3.17"/><rect class="cls-9" x="113.19" y="296.86" width="4.95" height="1.86" transform="translate(-71.26 38.72) rotate(-14.58)"/><rect class="cls-9" x="119.49" y="308.55" width="4.95" height="1.86"/><rect class="cls-9" x="113.91" y="310.76" width="4.95" height="1.86"/><rect class="cls-9" x="119.45" y="303.78" width="4.95" height="1.86"/><rect class="cls-9" x="113.91" y="308.54" width="4.95" height="1.86"/><rect class="cls-9" x="119.43" y="306.07" width="4.95" height="1.86"/><rect class="cls-9" x="114.14" y="306.07" width="4.95" height="1.86"/><rect class="cls-9" x="114.25" y="303.99" width="4.95" height="1.86"/><rect class="cls-9" x="119.49" y="310.78" width="4.95" height="1.86"/><rect class="cls-9" x="119.46" y="306.14" width="4.95" height="1.86" transform="translate(-207.17 336.26) rotate(-73.41)"/><path class="cls-9" d="M112.1,270.93c1.21-.44,2.1-1,2-1.32s-1.17-.15-2.38.29-2.1,1-2,1.31S110.89,271.37,112.1,270.93Z"/><path class="cls-9" d="M110.14,265.79c1.21-.44,2.11-1,2-1.31s-1.16-.15-2.37.28-2.11,1-2,1.31S108.93,266.23,110.14,265.79Z"/><path class="cls-9" d="M108.76,265.08a1.43,1.43,0,0,0-.85,1.82l1.32,3.61a1.42,1.42,0,0,0,1.81.85h0a1.42,1.42,0,0,0,.85-1.82l-1.31-3.61a1.42,1.42,0,0,0-1.82-.85Z"/><path class="cls-9" d="M108.65,265.12c-.43.16-.58.86-.33,1.57l1.35,3.72c.26.71.82,1.15,1.27,1h0c.44-.16.59-.86.33-1.57l-1.35-3.72c-.26-.71-.82-1.15-1.27-1Z"/><path class="cls-9" d="M109.33,266.8a1.55,1.55,0,1,0,2.07.89A1.59,1.59,0,0,0,109.33,266.8Z"/><path class="cls-9" d="M109.37,267.1a1.32,1.32,0,0,0-.89,1.62,1.41,1.41,0,0,0,2.62-1A1.32,1.32,0,0,0,109.37,267.1Z"/><rect class="cls-9" x="112.24" y="263.82" width="3.16" height="5.8" transform="translate(-53.51 29.88) rotate(-12.13)"/><rect class="cls-12" x="284.45" y="438.72" width="63.12" height="77.96"/><rect class="cls-13" x="316.19" y="438.73" width="31.74" height="77.96" transform="translate(664.12 955.41) rotate(180)"/><polygon class="cls-14" points="284.45 516.68 285.12 516.1 286.41 514.99 287.22 514.28 290.71 511.26 291.41 510.64 293.65 508.7 294.46 508 296.99 505.8 297.69 505.2 300.89 502.42 301.69 501.71 303.27 500.35 303.98 499.74 308.12 496.14 308.94 495.43 309.56 494.89 310.26 494.28 315.37 489.85 315.85 489.44 316.18 489.15 316.19 489.14 316.19 489.15 316.44 489.36 316.54 489.45 317 489.85 322.12 494.29 322.83 494.91 323.44 495.43 324.25 496.14 328.41 499.75 329.11 500.36 330.68 501.71 331.49 502.42 334.69 505.2 335.4 505.82 337.91 508 338.73 508.7 340.98 510.65 341.68 511.27 345.15 514.28 345.96 514.99 347.27 516.12 347.56 516.37 347.92 516.68 284.45 516.68"/><polygon class="cls-15" points="347.27 516.69 347.27 516.12 347.93 516.69 347.27 516.69"/><polygon class="cls-15" points="284.45 516.68 285.12 516.1 285.12 516.68 284.45 516.68"/><polygon class="cls-13" points="268.8 490.69 268.8 438.73 307.4 438.73 307.4 464.71 306.98 465.19 306.65 465.56 306.04 466.26 301.1 471.83 300.48 472.54 295.54 478.13 294.92 478.82 289.98 484.41 289.36 485.11 284.42 490.69 268.8 490.69"/><polygon class="cls-14" points="268.8 490.69 268.8 439.05 269.27 439.6 273.22 444.14 273.72 444.72 277.65 449.25 278.14 449.81 282.1 454.36 282.6 454.94 286.53 459.48 287.03 460.05 290.98 464.59 291.21 464.87 291 465.12 290.96 465.17 287.02 469.7 286.52 470.28 282.58 474.82 282.09 475.39 278.14 479.94 277.65 480.51 273.71 485.04 273.2 485.62 269.26 490.17 268.81 490.69 268.8 490.69"/><polygon class="cls-16" points="268.8 490.17 269.26 490.17 268.8 490.7 268.8 490.17"/><polygon class="cls-16" points="268.8 439.6 268.8 439.05 269.27 439.6 268.8 439.6"/><polygon class="cls-12" points="268.8 490.7 272.1 486.9 272.79 486.1 278.38 479.67 279.08 478.85 284.66 472.43 285.37 471.61 290.95 465.18 291.21 464.87 297.93 464.87 303.52 464.88 307.4 464.88 304.21 468.46 303.52 469.25 297.93 475.52 297.23 476.31 291.65 482.58 290.95 483.36 285.37 489.64 284.66 490.43 284.42 490.7 268.8 490.7"/><rect class="cls-14" x="308.69" y="472.4" width="4.25" height="7.76" transform="translate(621.62 952.56) rotate(180)"/><rect class="cls-17" x="27.93" y="340.07" width="63.12" height="77.96"/><polyline class="cls-2" points="89.05 418.04 91.05 418.04 91.05 416.04"/><line class="cls-18" x1="91.05" y1="412.14" x2="91.05" y2="344.02"/><polyline class="cls-2" points="91.05 342.07 91.05 340.07 89.05 340.07"/><line class="cls-19" x1="85.11" y1="340.07" x2="31.9" y2="340.07"/><polyline class="cls-2" points="29.93 340.07 27.93 340.07 27.93 342.07"/><line class="cls-18" x1="27.93" y1="345.97" x2="27.93" y2="414.09"/><polyline class="cls-2" points="27.93 416.04 27.93 418.04 29.93 418.04"/><line class="cls-19" x1="33.87" y1="418.04" x2="87.08" y2="418.04"/><rect class="cls-17" x="27.57" y="340.08" width="31.74" height="77.96"/><polyline class="cls-2" points="59.31 342.08 59.31 340.08 57.31 340.08"/><line class="cls-20" x1="53.35" y1="340.08" x2="31.55" y2="340.08"/><polyline class="cls-2" points="29.57 340.08 27.57 340.08 27.57 342.08"/><line class="cls-21" x1="27.57" y1="345.97" x2="27.57" y2="414.09"/><polyline class="cls-2" points="27.57 416.04 27.57 418.04 29.57 418.04"/><line class="cls-20" x1="33.54" y1="418.04" x2="55.33" y2="418.04"/><polyline class="cls-2" points="57.31 418.04 59.31 418.04 59.31 416.04"/><line class="cls-21" x1="59.31" y1="412.15" x2="59.31" y2="344.02"/><polygon class="cls-17" points="91.05 418.04 90.37 417.45 89.09 416.34 88.28 415.63 84.79 412.61 84.08 412 81.85 410.06 81.03 409.35 78.51 407.15 77.81 406.55 74.61 403.77 73.8 403.07 72.23 401.7 71.52 401.09 67.38 397.49 66.56 396.78 65.94 396.24 65.23 395.63 60.12 391.2 59.65 390.79 59.32 390.5 59.31 390.49 59.3 390.5 59.06 390.71 58.95 390.81 58.5 391.2 53.38 395.64 52.66 396.26 52.06 396.78 51.25 397.49 47.09 401.11 46.39 401.71 44.82 403.07 44.01 403.77 40.8 406.55 40.1 407.17 37.59 409.35 36.77 410.06 34.52 412.01 33.81 412.63 30.35 415.63 29.54 416.34 28.23 417.47 27.93 417.72 27.57 418.04 91.05 418.04"/><polyline class="cls-2" points="89.05 418.04 91.05 418.04 90.37 417.45 89.54 416.73"/><polyline class="cls-22" points="86.35 413.96 84.79 412.61 84.08 412 81.85 410.06 81.03 409.35 78.51 407.15 77.81 406.55 74.61 403.77 73.8 403.07 72.23 401.7 71.52 401.09 67.38 397.49 66.56 396.78 65.94 396.24 65.23 395.63 62.42 393.19"/><polyline class="cls-2" points="60.82 391.8 60.12 391.2 59.65 390.79 59.32 390.5 59.31 390.49 59.3 390.5 59.06 390.71 58.95 390.81 58.5 391.2 57.8 391.81"/><polyline class="cls-23" points="54.61 394.57 53.38 395.64 52.66 396.26 52.06 396.78 51.25 397.49 47.09 401.11 46.39 401.71 44.82 403.07 44.01 403.77 40.8 406.55 40.1 407.17 37.59 409.35 36.77 410.06 34.52 412.01 33.81 412.63 30.68 415.34"/><polyline class="cls-2" points="29.09 416.73 28.23 417.47 27.93 417.72 27.57 418.04 29.57 418.04"/><line class="cls-24" x1="33.54" y1="418.04" x2="87.07" y2="418.04"/><polygon class="cls-17" points="28.23 418.04 28.23 417.47 27.57 418.04 28.23 418.04"/><polygon class="cls-2" points="28.23 418.04 28.23 417.47 27.57 418.04 28.23 418.04"/><polygon class="cls-17" points="91.05 418.04 90.37 417.45 90.37 418.04 91.05 418.04"/><polygon class="cls-2" points="91.05 418.04 90.37 417.45 90.37 418.04 91.05 418.04"/><polygon class="cls-17" points="106.7 392.04 106.7 340.08 68.1 340.08 68.1 366.07 68.52 366.55 68.84 366.91 69.46 367.61 74.39 373.19 75.02 373.89 79.96 379.48 80.58 380.18 85.52 385.76 86.14 386.46 91.08 392.04 106.7 392.04"/><polyline class="cls-2" points="104.7 392.04 106.7 392.04 106.7 390.04"/><line class="cls-25" x1="106.7" y1="386.35" x2="106.7" y2="343.93"/><polyline class="cls-2" points="106.7 342.08 106.7 340.08 104.7 340.08"/><line class="cls-26" x1="100.85" y1="340.08" x2="72.02" y2="340.08"/><polyline class="cls-2" points="70.1 340.08 68.1 340.08 68.1 342.08"/><polyline class="cls-27" points="68.1 345.86 68.1 366.07 68.52 366.55 68.84 366.91 69.46 367.61 74.39 373.19 75.02 373.89 79.96 379.48 80.58 380.18 85.52 385.76 86.14 386.46 88.5 389.13"/><polyline class="cls-2" points="89.76 390.55 91.08 392.04 93.08 392.04"/><line class="cls-28" x1="96.95" y1="392.04" x2="102.76" y2="392.04"/><polygon class="cls-17" points="106.7 392.04 106.7 340.4 106.23 340.95 102.28 345.5 101.78 346.07 97.84 350.6 97.36 351.17 93.4 355.72 92.9 356.29 88.96 360.83 88.47 361.41 84.52 365.95 84.28 366.23 84.5 366.48 84.54 366.52 88.48 371.05 88.97 371.64 92.92 376.18 93.41 376.74 97.36 381.29 97.85 381.87 101.79 386.39 102.3 386.97 106.23 391.52 106.69 392.04 106.7 392.04"/><polyline class="cls-2" points="105.38 390.53 106.23 391.52 106.69 392.04 106.7 392.04 106.7 390.04"/><line class="cls-29" x1="106.7" y1="385.71" x2="106.7" y2="344.56"/><polyline class="cls-2" points="106.7 342.4 106.7 340.4 106.23 340.95 105.39 341.91"/><polyline class="cls-30" points="102.56 345.17 102.28 345.5 101.78 346.07 97.84 350.6 97.36 351.17 93.4 355.72 92.9 356.29 88.96 360.83 88.47 361.41 87.01 363.08"/><polyline class="cls-2" points="85.59 364.71 84.52 365.95 84.28 366.23 84.5 366.48 84.54 366.52 85.6 367.74"/><polyline class="cls-31" points="88.42 370.99 88.48 371.05 88.97 371.64 92.92 376.18 93.41 376.74 97.36 381.29 97.85 381.87 101.79 386.39 102.3 386.97 103.97 388.9"/><polygon class="cls-17" points="106.7 391.52 106.23 391.52 106.7 392.05 106.7 391.52"/><polygon class="cls-2" points="106.7 391.52 106.23 391.52 106.7 392.05 106.7 391.52"/><polygon class="cls-17" points="106.7 340.95 106.7 340.4 106.23 340.95 106.7 340.95"/><polygon class="cls-2" points="106.7 340.95 106.7 340.4 106.23 340.95 106.7 340.95"/><polygon class="cls-17" points="106.7 392.05 103.4 388.25 102.71 387.45 97.12 381.02 96.42 380.2 90.84 373.78 90.13 372.96 84.55 366.53 84.28 366.23 77.57 366.23 71.98 366.23 68.1 366.23 71.28 369.81 71.98 370.6 77.57 376.87 78.26 377.66 83.85 383.93 84.55 384.71 90.13 390.99 90.84 391.78 91.08 392.05 106.7 392.05"/><polyline class="cls-2" points="104.7 392.05 106.7 392.05 105.39 390.54"/><polyline class="cls-32" points="102.56 387.28 97.12 381.02 96.42 380.2 90.84 373.78 90.13 372.96 87.01 369.37"/><polyline class="cls-2" points="85.59 367.74 84.55 366.53 84.28 366.23 82.28 366.23"/><polyline class="cls-33" points="78.22 366.23 77.57 366.23 72.13 366.23"/><polyline class="cls-2" points="70.1 366.23 68.1 366.23 69.43 367.73"/><polyline class="cls-34" points="72.33 370.99 77.57 376.87 78.26 377.66 83.85 383.93 84.55 384.71 88.3 388.93"/><polyline class="cls-2" points="89.75 390.56 90.13 390.99 90.84 391.78 91.08 392.05 93.08 392.05"/><line class="cls-28" x1="96.95" y1="392.05" x2="102.76" y2="392.05"/><rect class="cls-17" x="62.56" y="373.76" width="4.25" height="7.76"/><polyline class="cls-2" points="66.81 375.76 66.81 373.76 64.81 373.76"/><polyline class="cls-2" points="64.56 373.76 62.56 373.76 62.56 375.76"/><polyline class="cls-2" points="62.56 379.51 62.56 381.51 64.56 381.51"/><polyline class="cls-2" points="64.81 381.51 66.81 381.51 66.81 379.51"/><rect class="cls-17" x="27.93" y="27.09" width="63.12" height="77.96"/><polyline class="cls-2" points="89.05 105.06 91.05 105.06 91.05 103.06"/><line class="cls-18" x1="91.05" y1="99.16" x2="91.05" y2="31.04"/><polyline class="cls-2" points="91.05 29.09 91.05 27.09 89.05 27.09"/><line class="cls-19" x1="85.11" y1="27.09" x2="31.9" y2="27.09"/><polyline class="cls-2" points="29.93 27.09 27.93 27.09 27.93 29.09"/><line class="cls-18" x1="27.93" y1="32.99" x2="27.93" y2="101.11"/><polyline class="cls-2" points="27.93 103.06 27.93 105.06 29.93 105.06"/><line class="cls-19" x1="33.87" y1="105.06" x2="87.08" y2="105.06"/><rect class="cls-17" x="27.57" y="27.1" width="31.74" height="77.96"/><polyline class="cls-2" points="59.31 29.1 59.31 27.1 57.31 27.1"/><line class="cls-20" x1="53.35" y1="27.1" x2="31.55" y2="27.1"/><polyline class="cls-2" points="29.57 27.1 27.57 27.1 27.57 29.1"/><line class="cls-21" x1="27.57" y1="32.99" x2="27.57" y2="101.11"/><polyline class="cls-2" points="27.57 103.06 27.57 105.06 29.57 105.06"/><line class="cls-20" x1="33.54" y1="105.06" x2="55.33" y2="105.06"/><polyline class="cls-2" points="57.31 105.06 59.31 105.06 59.31 103.06"/><line class="cls-21" x1="59.31" y1="99.17" x2="59.31" y2="31.04"/><polygon class="cls-17" points="91.05 105.06 90.37 104.47 89.09 103.36 88.28 102.65 84.79 99.63 84.08 99.02 81.85 97.07 81.03 96.37 78.51 94.17 77.81 93.57 74.61 90.79 73.8 90.08 72.23 88.72 71.52 88.11 67.38 84.51 66.56 83.8 65.94 83.26 65.23 82.65 60.12 78.22 59.65 77.81 59.32 77.52 59.31 77.51 59.3 77.52 59.06 77.73 58.95 77.83 58.5 78.22 53.38 82.66 52.66 83.28 52.06 83.8 51.25 84.51 47.09 88.12 46.39 88.73 44.82 90.08 44.01 90.79 40.8 93.57 40.1 94.19 37.59 96.37 36.77 97.07 34.52 99.03 33.81 99.64 30.35 102.65 29.54 103.36 28.23 104.49 27.93 104.74 27.57 105.06 91.05 105.06"/><polyline class="cls-2" points="89.05 105.06 91.05 105.06 90.37 104.47 89.54 103.75"/><polyline class="cls-22" points="86.35 100.98 84.79 99.63 84.08 99.02 81.85 97.07 81.03 96.37 78.51 94.17 77.81 93.57 74.61 90.79 73.8 90.08 72.23 88.72 71.52 88.11 67.38 84.51 66.56 83.8 65.94 83.26 65.23 82.65 62.42 80.21"/><polyline class="cls-2" points="60.82 78.82 60.12 78.22 59.65 77.81 59.32 77.52 59.31 77.51 59.3 77.52 59.06 77.73 58.95 77.83 58.5 78.22 57.8 78.82"/><polyline class="cls-23" points="54.61 81.59 53.38 82.66 52.66 83.28 52.06 83.8 51.25 84.51 47.09 88.12 46.39 88.73 44.82 90.08 44.01 90.79 40.8 93.57 40.1 94.19 37.59 96.37 36.77 97.07 34.52 99.03 33.81 99.64 30.68 102.36"/><polyline class="cls-2" points="29.09 103.75 28.23 104.49 27.93 104.74 27.57 105.06 29.57 105.06"/><line class="cls-24" x1="33.54" y1="105.06" x2="87.07" y2="105.06"/><polygon class="cls-17" points="28.23 105.06 28.23 104.49 27.57 105.06 28.23 105.06"/><polygon class="cls-2" points="28.23 105.06 28.23 104.49 27.57 105.06 28.23 105.06"/><polygon class="cls-17" points="91.05 105.06 90.37 104.47 90.37 105.06 91.05 105.06"/><polygon class="cls-2" points="91.05 105.06 90.37 104.47 90.37 105.06 91.05 105.06"/><rect class="cls-17" x="65.78" y="60.78" width="4.25" height="7.76"/><polyline class="cls-2" points="70.03 62.77 70.03 60.77 68.03 60.77"/><polyline class="cls-2" points="67.78 60.77 65.78 60.77 65.78 62.77"/><polyline class="cls-2" points="65.78 66.53 65.78 68.53 67.78 68.53"/><polyline class="cls-2" points="68.03 68.53 70.03 68.53 70.03 66.53"/><path class="cls-14" d="M258.55,145.63a3.86,3.86,0,0,0-1.67-3.18,2.49,2.49,0,0,0,.24-1,2.5,2.5,0,0,0-3.7-2.21,5.23,5.23,0,0,0-4.1-2l-.54,0v0a2.21,2.21,0,1,0-4.41,0,2.07,2.07,0,0,0,.06.5,3,3,0,0,0-.79-.12,3,3,0,0,0-2.69,1.72,1.91,1.91,0,0,0-.71-.14,2,2,0,0,0-1.65,3.16,4.87,4.87,0,0,0,3.15,8.47,1.75,1.75,0,0,0-.57,1.3,1.79,1.79,0,0,0,3.56.31,5.51,5.51,0,0,0,3.77,1.48,5.57,5.57,0,0,0,2.67-.68,3.58,3.58,0,0,0,5.67-4.36A3.89,3.89,0,0,0,258.55,145.63Z"/><path class="cls-14" d="M119.09,506.5a5.06,5.06,0,1,0-4.93-8.81,3.35,3.35,0,0,0-6.47-1.69.46.46,0,0,1,0,.09,3.76,3.76,0,1,0-5.89,4.66,8,8,0,0,0-1.06,2.05,8.16,8.16,0,0,0-.43,2.61,5.42,5.42,0,1,0,3.49,9.79,5.52,5.52,0,0,0,10.71-2.57,4.1,4.1,0,0,0,4.61-6.13Z"/><path class="cls-14" d="M19.82,334.28a5.48,5.48,0,1,0-10.91.65,3.63,3.63,0,0,0-4.69,5.52l.08.07a4,4,0,0,0-2.11,1.13,4.06,4.06,0,0,0,3.87,6.8A8.6,8.6,0,0,0,9.9,352.1a5.87,5.87,0,1,0,11.18,1.21,6,6,0,0,0,2.55-11.65,4.45,4.45,0,0,0-3.81-7.38Z"/><path class="cls-14" d="M121.29,13.27a5.48,5.48,0,0,0-9.38-3.92,5.43,5.43,0,0,0-1.53,4.57,3.63,3.63,0,0,0-4.69,5.52.46.46,0,0,0,.07.07,4,4,0,0,0-2.1,1.13,4.06,4.06,0,0,0,3.86,6.8,8.6,8.6,0,0,0,3.84,3.65,5.87,5.87,0,1,0,11.19,1.21,6,6,0,0,0,5.16-10.13,5.91,5.91,0,0,0-2.62-1.51,4.45,4.45,0,0,0-3.8-7.39Z"/><path class="cls-14" d="M88.46,443.45a4.23,4.23,0,1,0,.73,8.41,2.8,2.8,0,0,0,4.36,3.5l0-.06a3.08,3.08,0,0,0,.91,1.61,3.14,3.14,0,0,0,5.18-3.13,7.12,7.12,0,0,0,1.51-1.2,6.85,6.85,0,0,0,1.22-1.84,4.53,4.53,0,1,0,.71-8.66,4.62,4.62,0,0,0-7.93-3.78,4.5,4.5,0,0,0-1.12,2.06,3.43,3.43,0,0,0-5.62,3.09Z"/><path class="cls-14" d="M239.8,502.59a4.23,4.23,0,1,0,.73,8.41,2.8,2.8,0,0,0,4.36,3.5l.05,0a3.14,3.14,0,1,0,6.09-1.53,6.54,6.54,0,0,0,1.51-1.2,6.62,6.62,0,0,0,1.22-1.84,4.53,4.53,0,1,0,.71-8.66,4.61,4.61,0,0,0-7.93-3.77,4.42,4.42,0,0,0-1.12,2.05,3.43,3.43,0,0,0-5.62,3.09Z"/><rect class="cls-8" x="270.12" y="242.82" width="80.23" height="68.55"/><rect class="cls-35" x="27.88" y="440.49" width="44.63" height="73.46"/><rect class="cls-35" x="24.63" y="466.06" width="73.46" height="22.31" transform="translate(538.57 415.86) rotate(90)"/><rect class="cls-35" x="50.2" y="477.02" width="22.31" height="0.49"/><rect class="cls-35" x="27.88" y="477.02" width="22.31" height="0.49"/><polygon class="cls-35" points="75.67 488.77 66.19 488.77 61.73 485.58 61.03 485.09 55.52 481.16 54.83 480.67 50.4 477.51 51.48 476.74 52.16 476.25 57.66 472.33 58.36 471.83 63.87 467.91 64.56 467.42 66.19 466.25 75.67 466.25 75.67 488.77"/><polygon class="cls-35" points="75.67 477.51 50.4 477.51 51.48 476.74 52.16 476.25 57.66 472.33 58.36 471.83 63.87 467.91 64.56 467.42 66.19 466.25 75.67 466.25 75.67 477.51"/><polygon class="cls-35" points="34.2 488.77 24.72 488.77 24.72 466.25 34.2 466.25 35.83 467.42 36.52 467.91 42.03 471.83 42.73 472.33 48.24 476.25 48.92 476.74 50 477.51 45.56 480.67 44.88 481.16 39.36 485.09 38.67 485.58 34.2 488.77"/><polygon class="cls-35" points="34.2 488.77 24.72 488.77 24.72 477.51 50 477.51 45.56 480.67 44.88 481.16 39.36 485.09 38.67 485.58 34.2 488.77"/><polygon class="cls-35" points="72.51 477.51 75.67 472.28 75.67 482.35 72.51 477.51"/><polygon class="cls-35" points="24.72 482.74 24.72 472.67 27.06 476.25 27.38 476.74 27.88 477.51 25.98 480.67 25.68 481.16 24.72 482.74"/><polygon class="cls-8" points="269.89 538.59 269.89 563.04 253.59 563.04 253.59 587.5 269.89 587.5 269.89 611.15 347.93 611.15 347.93 538.59 269.89 538.59"/><path class="cls-14" d="M275.18,243.76a9.51,9.51,0,0,0-18.95-1.13h-.08a5.31,5.31,0,0,0-.44,10.61v.05a7.86,7.86,0,0,0,15.72,0,8.21,8.21,0,0,0-.21-1.8A9.52,9.52,0,0,0,275.18,243.76Z"/><path class="cls-14" d="M350.66,321.79a7,7,0,0,0,7.58-11.7l0,0a3.91,3.91,0,0,0-6.63-4.12l0,0a5.78,5.78,0,1,0-5.7,10.05,6,6,0,0,0,1.23.52A7,7,0,0,0,350.66,321.79Z"/><path class="cls-14" d="M360.86,606.5a5.06,5.06,0,1,0-4.93-8.81,3.35,3.35,0,0,0-6.47-1.69l0,.09a3.83,3.83,0,0,0-1.79-1.3,3.76,3.76,0,0,0-4.1,6,7.92,7.92,0,0,0-1.49,4.66,5.42,5.42,0,1,0,3.49,9.79,5.51,5.51,0,0,0,10.5.22,5.56,5.56,0,0,0,.21-2.79,4.1,4.1,0,0,0,4.61-6.13Z"/><path class="cls-14" d="M273.55,96.07a5.48,5.48,0,1,0-10.91.65,3.63,3.63,0,0,0-4.69,5.52l.08.07a4.06,4.06,0,1,0,1.75,7.93,8.47,8.47,0,0,0,3.85,3.64,5.87,5.87,0,1,0,11.18,1.22,6,6,0,0,0,2.54-11.65,4.44,4.44,0,0,0-3.8-7.38Z"/></g></g></g></svg>