<svg xmlns="http://www.w3.org/2000/svg" xmlns:xlink="http://www.w3.org/1999/xlink" viewBox="0 0 649.87 250.62"><defs><style>.cls-1,.cls-3,.cls-6,.cls-7{fill:#fff;}.cls-1,.cls-10,.cls-3,.cls-4,.cls-6{stroke:#282828;stroke-linecap:round;stroke-linejoin:round;}.cls-1,.cls-10{stroke-width:0.75px;}.cls-2{isolation:isolate;}.cls-10,.cls-4{fill:none;}.cls-11,.cls-5,.cls-8{mix-blend-mode:multiply;}.cls-6{stroke-width:0.84px;}.cls-8{opacity:0.25;}.cls-9{clip-path:url(#clip-path);}.cls-11{opacity:0.35;}</style><clipPath id="clip-path"><path class="cls-1" d="M608.55,183.54h10.33V163.1H608.55Z"/></clipPath></defs><title>Asset 1</title><g class="cls-2"><g id="Layer_2" data-name="Layer 2"><g id="Layer_1-2" data-name="Layer 1"><path class="cls-3" d="M61.19,121.93a20.23,20.23,0,1,0-40.46,0c0,20.22,20.23,33.71,20.23,33.71S61.19,142.15,61.19,121.93Z"/><path class="cls-3" d="M50,121.93a9,9,0,1,0-9,9A9,9,0,0,0,50,121.93Z"/><path class="cls-4" d="M22.1,146.65h-8a2.43,2.43,0,0,0-2.21,1.73L.64,188.7c-.44,1.59.21,2.9,1.47,2.9H102.29c1.25,0,1.91-1.31,1.46-2.9L88,148.38a2.43,2.43,0,0,0-2.21-1.73H59.52"/><line class="cls-3" x1="7.78" y1="163.02" x2="96.65" y2="170.47"/><line class="cls-3" x1="40.96" y1="191.6" x2="70.18" y2="146.65"/><line class="cls-3" x1="10.37" y1="191.6" x2="29.72" y2="160.13"/><path class="cls-3" d="M40.75,79.72s-1-28.38,32.05-28.38h51.66"/><path class="cls-3" d="M343.51,79.72s1-28.38-32.05-28.38H259.8"/><path class="cls-3" d="M343.52,206.41s-1,28.38,32.05,28.38h51.66"/><path class="cls-3" d="M614.26,206.41s1,28.38-32,28.38H530.55"/><g class="cls-5"><path class="cls-3" d="M227.26,38.22c19.69,10,20.51,26.26,1.82,36.33s-49.81,10.11-69.5.11-20.51-26.27-1.82-36.33S207.56,28.22,227.26,38.22Z"/></g><path class="cls-3" d="M243.61,47.6h0c.14,6.56-4.4,13.09-13.71,18.1-19,10.23-50.64,10.28-70.67.11-10-5.07-15.19-11.72-15.55-18.39,0,1,.06,5.14,0,7.37-.23,7.06,5,15.13,15.57,20.51,20,10.16,51.67,10.12,70.67-.11,9.1-4.91,13.65-11.25,13.73-17.65C243.65,54.42,243.61,47.6,243.61,47.6Z"/><path class="cls-3" d="M228,28.75c-20-10.17-51.66-10.12-70.67.12-9.41,5.07-14,11.68-13.7,18.31h0a2.07,2.07,0,0,1,0,.23c.36,6.67,5.57,13.32,15.55,18.39,20,10.17,51.67,10.12,70.67-.11,9.31-5,13.85-11.54,13.71-18.1C243.46,40.78,238.25,33.94,228,28.75Z"/><polygon class="cls-3" points="193.78 66.05 193.85 43.38 160.74 25.48 160.74 46.83 193.78 66.05"/><polygon class="cls-3" points="193.78 66.13 226.06 46.64 226.06 20.54 211.34 19.58 193.78 43.36 193.78 66.13"/><polygon class="cls-3" points="196.71 2.52 230.48 21.83 211.56 20.23 177.74 0.59 196.71 2.52"/><polygon class="cls-3" points="211.91 20.18 193.36 43.36 159.22 24.16 177.93 0.5 211.91 20.18"/><polygon class="cls-3" points="197.52 24.09 197.52 19.17 201.52 20.03 201.52 26.35 197.52 24.09"/><polygon class="cls-3" points="201.52 26.35 204.96 22.01 204.96 19.38 201.52 20.03 201.52 26.35"/><polygon class="cls-3" points="204.96 19.38 200.96 17.06 197.52 19.17 201.52 21.36 204.96 19.38"/><polygon class="cls-3" points="173.99 37.29 173.99 49.59 164.77 44.29 164.77 32 173.99 37.29"/><polygon class="cls-3" points="188.44 45.74 188.44 58.05 179.21 52.74 179.21 40.45 188.44 45.74"/><polygon class="cls-3" points="200.2 44.13 200.2 56.22 209.27 51.01 209.27 38.94 200.2 44.13"/><polygon class="cls-3" points="223.13 48.36 223.13 28.18 214.93 33.12 214.93 53.41 223.13 48.36"/><path class="cls-3" d="M221.69,39.28a.36.36,0,0,1-.34.35h0a.33.33,0,0,1-.33-.33h0a.35.35,0,0,1,.33-.35h0a.32.32,0,0,1,.34.33Z"/><polygon class="cls-3" points="345.47 86.16 291.14 117.53 327.36 138.44 381.69 107.08 345.47 86.16"/><polygon class="cls-3" points="342.44 94.9 306.27 115.78 330.39 129.7 366.55 108.82 342.44 94.9"/><polygon class="cls-4" points="308.39 117.01 330.39 129.7 364.44 110.05 342.44 97.35 308.39 117.01"/><polygon class="cls-3" points="291.14 117.53 291.14 180.26 327.36 201.18 327.36 138.44 291.14 117.53"/><polygon class="cls-3" points="327.36 201.18 327.36 138.44 381.69 107.08 381.69 169.81 327.36 201.18"/><polygon class="cls-3" points="298.5 129.54 304.4 132.95 304.4 142.34 298.5 138.94 298.5 129.54"/><polygon class="cls-3" points="311.94 137.17 317.85 140.58 317.85 149.98 311.94 146.57 311.94 137.17"/><polygon class="cls-3" points="298.5 142.74 304.4 146.15 304.4 155.55 298.5 152.14 298.5 142.74"/><polygon class="cls-3" points="311.94 150.38 317.85 153.79 317.85 163.19 311.94 159.78 311.94 150.38"/><polygon class="cls-3" points="298.5 155.95 304.4 159.36 304.4 168.76 298.5 165.35 298.5 155.95"/><polygon class="cls-3" points="311.94 163.59 317.85 167 317.85 176.4 311.94 172.99 311.94 163.59"/><polygon class="cls-3" points="298.5 169.16 304.4 172.57 304.4 181.97 298.5 178.56 298.5 169.16"/><polygon class="cls-3" points="311.94 176.8 317.85 180.21 317.85 189.6 311.94 186.2 311.94 176.8"/><polygon class="cls-3" points="346.24 135.03 340.34 138.5 340.34 147.89 346.24 144.44 346.24 135.03"/><polygon class="cls-3" points="346.24 148.24 340.34 151.7 340.34 161.1 346.24 157.64 346.24 148.24"/><polygon class="cls-3" points="346.24 161.45 340.34 164.91 340.34 174.31 346.24 170.85 346.24 161.45"/><polygon class="cls-3" points="346.24 174.66 340.34 178.12 340.34 187.52 346.24 184.06 346.24 174.66"/><polygon class="cls-3" points="358.99 127.25 353.08 130.71 353.08 140.11 358.99 136.65 358.99 127.25"/><polygon class="cls-3" points="358.99 140.46 353.08 143.91 353.08 153.31 358.99 149.85 358.99 140.46"/><polygon class="cls-3" points="358.99 153.66 353.08 157.12 353.08 166.52 358.99 163.06 358.99 153.66"/><polygon class="cls-3" points="358.99 166.87 353.08 170.33 353.08 179.73 358.99 176.27 358.99 166.87"/><polygon class="cls-3" points="371.74 119.46 365.83 122.92 365.83 132.32 371.74 128.86 371.74 119.46"/><polygon class="cls-3" points="371.74 132.67 365.83 136.13 365.83 145.53 371.74 142.06 371.74 132.67"/><polygon class="cls-3" points="371.74 145.87 365.83 149.33 365.83 158.73 371.74 155.27 371.74 145.87"/><polygon class="cls-3" points="371.74 159.08 365.83 162.54 365.83 171.94 371.74 168.48 371.74 159.08"/><g id="For_Sale" data-name="For Sale"><polyline class="cls-6" points="456.24 205.35 456.18 248.09 452.59 250.2 452.66 201.22"/><polygon class="cls-6" points="452.66 201.22 452.59 250.2 448.98 248.14 449.04 199.15 452.66 201.22"/><polygon class="cls-6" points="454.19 194.06 452.66 194.96 451.12 194.08 452.65 193.18 454.19 194.06"/><polygon class="cls-6" points="454.19 194.06 456.24 199.11 452.66 201.22 452.66 194.96 454.19 194.06"/><polygon class="cls-6" points="452.66 194.96 452.66 201.22 449.04 199.15 451.12 194.08 452.66 194.96"/><polygon class="cls-6" points="485.33 221.5 485.32 246.68 457.64 230.91 457.66 205.73 485.33 221.5"/><polyline class="cls-6" points="485.25 221.49 457.66 205.73 458.21 205.4"/><polygon class="cls-6" points="485.33 222.01 454.46 204.09 454.46 202.06 485.32 219.98 485.33 222.01"/><polyline class="cls-6" points="485.32 219.98 454.46 202.06 456.23 201.03"/><polygon class="cls-6" points="483.83 243.96 459.41 230.02 459.41 208.68 483.83 222.62 483.83 243.96"/><polyline class="cls-6" points="456.44 202.42 456.44 195.81 485.32 212.15 485.32 219.34"/></g><polyline class="cls-3" points="443.84 179.02 465.61 191.59 476.61 180.96 471.21 173.28"/><g class="cls-2"><line class="cls-3" x1="443.84" y1="165.03" x2="443.84" y2="179.02"/><polyline class="cls-3" points="465.65 177.8 487.61 165.04 480.37 153.86 458.4 166.62"/><polygon class="cls-3" points="465.61 191.59 487.58 178.82 487.61 165.04 465.65 177.8 465.61 191.59"/><path class="cls-3" d="M465.65,177.8l0,13.79-5.42-3.16,0-12.33-12.61-7.28,0,12.34L443.84,179V163.8m7.72,4.89,4.5,2.59v-2.86l-4.5-2.59v2.86Z"/></g><g class="cls-2"><polygon class="cls-3" points="450.69 161.63 472.65 148.87 464.71 151.38 442.74 164.15 450.69 161.63"/><polygon class="cls-3" points="457.7 166.95 480.77 153.55 472.65 148.87 449.59 162.27 457.7 166.95"/><polygon class="cls-3" points="465.61 178.63 488.68 165.22 480.77 153.55 457.7 166.96 465.61 178.63"/></g><polygon class="cls-7" points="465.74 191.65 487.3 204.22 509.14 191.25 509.91 178.63 509.91 177.66 502.52 166.09 494.35 161.49 486.51 164.06 465.18 176.6 465.74 176.77 465.74 191.65"/><polyline class="cls-3" points="465.74 191.65 487.52 204.22 498.52 193.59 493.11 185.91"/><g class="cls-2"><line class="cls-3" x1="465.74" y1="177.66" x2="465.74" y2="191.65"/><polyline class="cls-3" points="487.56 190.42 509.52 177.66 502.27 166.48 480.3 179.25"/><polygon class="cls-3" points="487.52 204.22 509.48 191.45 509.52 177.66 487.56 190.42 487.52 204.22"/><path class="cls-3" d="M487.55,190.42l0,13.8-5.43-3.16,0-12.34-12.6-7.28,0,12.34-3.75-2.13V176.42m7.72,4.89,4.5,2.59V181l-4.5-2.59v2.86Z"/></g><g class="cls-2"><polygon class="cls-3" points="472.6 174.25 494.56 161.49 486.61 164 464.64 176.77 472.6 174.25"/><polygon class="cls-3" points="479.6 179.58 502.67 166.18 494.56 161.49 471.49 174.89 479.6 179.58"/><polygon class="cls-3" points="487.51 191.25 510.58 177.85 502.67 166.18 479.6 179.58 487.51 191.25"/></g><polygon class="cls-7" points="487.64 204.3 509.2 216.87 531.04 203.91 531.81 191.28 531.81 190.31 524.42 178.74 516.25 174.15 508.41 176.72 487.08 189.25 487.64 189.42 487.64 204.3"/><polyline class="cls-3" points="487.64 204.3 509.42 216.87 520.42 206.24 515.01 198.56"/><g class="cls-2"><line class="cls-3" x1="487.64" y1="190.31" x2="487.64" y2="204.3"/><polyline class="cls-3" points="509.46 203.08 531.42 190.32 524.17 179.14 502.2 191.9"/><polygon class="cls-3" points="509.42 216.87 531.38 204.1 531.42 190.32 509.46 203.08 509.42 216.87"/><path class="cls-3" d="M509.46,203.08l0,13.79L504,213.71l0-12.33-12.6-7.28,0,12.34-3.75-2.14V189.08m7.72,4.88,4.5,2.6V193.7l-4.5-2.59V194Z"/></g><g class="cls-2"><polygon class="cls-3" points="494.5 186.91 516.46 174.15 508.51 176.66 486.55 189.42 494.5 186.91"/><polygon class="cls-3" points="501.5 192.23 524.57 178.83 516.46 174.15 493.39 187.55 501.5 192.23"/><polygon class="cls-3" points="509.41 203.91 532.48 190.5 524.57 178.83 501.5 192.23 509.41 203.91"/></g><path d="M462.53,218.26a12.64,12.64,0,0,1,1.59.81,4.78,4.78,0,0,1,1.7,1.5,2.92,2.92,0,0,1,.48,1.6c0,.8-.47,1.07-.93,1v0a3.2,3.2,0,0,1,.71,1.59c.16.81.32,1.73.43,2l-1.22-.72a13.14,13.14,0,0,1-.37-1.68,1.81,1.81,0,0,0-.85-1.51l-.36-.21v2.47l-1.18-.69Zm1.18,3.4.47.28c.59.35.94.2.94-.35a1.61,1.61,0,0,0-.87-1.39,3.1,3.1,0,0,0-.54-.27Z"/><path d="M470.3,226.39l-1.94-1.15v1.5l2.17,1.27v1.17l-3.36-2v-6.29l3.25,1.92V224l-2.06-1.21v1.31l1.94,1.14Z"/><path d="M471.34,229.66v-6.29l1.39.82,1.09,2.95c.32.85.63,1.81.86,2.66h0c-.08-.87-.1-1.74-.1-2.68V225.3l1.09.64v6.29l-1.25-.74-1.13-3.09c-.31-.85-.65-1.87-.91-2.76h0c0,.85.05,1.74.05,2.77v1.89Z"/><path d="M477.75,228.34l-1.42-.83v-1.2l4.05,2.39v1.19l-1.44-.85v5.1l-1.19-.71Z"/><g id="corner_shop" data-name="corner shop"><polygon class="cls-1" points="613.71 191.91 577.94 171.25 613.71 150.59 649.49 171.25 613.71 191.91"/><polygon class="cls-1" points="649.49 171.25 649.49 173.39 613.71 194.05 613.71 191.91 649.49 171.25"/><polygon class="cls-1" points="577.94 171.25 577.94 173.39 613.71 194.05 613.71 191.91 577.94 171.25"/><polygon class="cls-1" points="643.04 171.25 620.63 184.18 620.63 155.16 643.04 142.22 643.04 171.25"/><polygon class="cls-1" points="606.79 184.18 584.39 171.25 584.39 142.22 606.79 155.16 606.79 184.18"/><rect class="cls-1" x="606.79" y="155.16" width="13.84" height="29.02"/><polygon class="cls-1" points="620.63 158.96 643.04 146.02 643.04 142.22 620.63 155.16 620.63 158.96"/><polygon class="cls-1" points="584.39 146.02 606.79 158.96 606.79 155.16 584.39 142.22 584.39 146.02"/><rect class="cls-1" x="606.79" y="155.16" width="13.84" height="3.8"/><polygon class="cls-1" points="640.37 166.56 623.3 176.42 623.3 161.22 640.37 151.36 640.37 166.56"/><polygon class="cls-1" points="639.46 165.9 624.21 174.7 624.21 161.78 639.46 152.98 639.46 165.9"/><polyline class="cls-1" points="624.21 173.86 624.21 174.7 639.46 165.9"/><path class="cls-1" d="M634.57,166l-.06,0a.13.13,0,0,1,0-.17l1.09-1.89a.14.14,0,0,1,.18-.05.13.13,0,0,1,0,.18l-1.09,1.89A.11.11,0,0,1,634.57,166Z"/><path class="cls-1" d="M629.33,168.9h0c-.49.29-.89,0-.89-.67v-1.89l1.78-1v1.89A2.14,2.14,0,0,1,629.33,168.9Z"/><path class="cls-1" d="M632.9,166.84h0c-.5.29-.9,0-.9-.67v-1.89l1.79-1v1.89A2.14,2.14,0,0,1,632.9,166.84Z"/><path class="cls-1" d="M636.46,164.78h0c-.49.29-.89,0-.89-.67v-1.89l1.79-1v1.89A2.12,2.12,0,0,1,636.46,164.78Z"/><path class="cls-1" d="M640,162.72h0c-.49.29-.89,0-.89-.67v-1.89l1.78-1V161A2.11,2.11,0,0,1,640,162.72Z"/><path class="cls-1" d="M643.6,160.66h0c-.49.29-.89,0-.89-.67V158.1l1.78-1V159A2.12,2.12,0,0,1,643.6,160.66Z"/><path class="cls-1" d="M631.11,167.87h0c-.49.29-.89,0-.89-.67v-1.89l1.78-1v1.89A2.11,2.11,0,0,1,631.11,167.87Z"/><path class="cls-1" d="M634.68,165.81h0c-.49.29-.89,0-.89-.67v-1.89l1.78-1v1.89A2.14,2.14,0,0,1,634.68,165.81Z"/><path class="cls-1" d="M638.25,163.75h0c-.49.29-.89,0-.89-.67v-1.89l1.78-1v1.89A2.12,2.12,0,0,1,638.25,163.75Z"/><path class="cls-1" d="M641.82,161.69h0c-.5.29-.9,0-.9-.67v-1.89l1.79-1V160A2.14,2.14,0,0,1,641.82,161.69Z"/><path class="cls-1" d="M645.38,159.63h0c-.49.29-.89,0-.89-.67v-1.89l1.79-1v1.89A2.12,2.12,0,0,1,645.38,159.63Z"/><polygon class="cls-1" points="640.76 150.05 622.92 160.35 628.44 166.34 646.28 156.04 640.76 150.05"/><polygon class="cls-1" points="626.48 158.29 632 164.28 633.79 163.25 628.27 157.26 626.48 158.29"/><polygon class="cls-1" points="630.05 156.23 635.57 162.22 637.36 161.19 631.84 155.2 630.05 156.23"/><polygon class="cls-1" points="622.92 160.35 628.44 166.34 630.22 165.31 624.7 159.32 622.92 160.35"/><polygon class="cls-1" points="638.97 151.08 637.19 152.11 642.71 158.1 644.49 157.07 638.97 151.08"/><polygon class="cls-1" points="633.62 154.17 639.14 160.16 640.92 159.13 635.4 153.14 633.62 154.17"/><polygon class="cls-1" points="624.7 159.32 630.22 165.31 632 164.28 626.48 158.29 624.7 159.32"/><polygon class="cls-1" points="628.27 157.26 633.79 163.25 635.57 162.22 630.05 156.23 628.27 157.26"/><polygon class="cls-1" points="644.49 157.07 646.28 156.04 640.76 150.05 638.97 151.08 644.49 157.07"/><polygon class="cls-1" points="635.4 153.14 640.92 159.13 642.71 158.1 637.19 152.11 635.4 153.14"/><polygon class="cls-1" points="631.84 155.2 637.36 161.19 639.14 160.16 633.62 154.17 631.84 155.2"/><polygon class="cls-1" points="613.71 125.29 584.39 142.22 606.79 155.16 620.63 155.16 643.04 142.22 613.71 125.29"/><polygon class="cls-1" points="613.71 128.23 589.47 142.22 607.99 152.92 619.43 152.92 637.96 142.22 613.71 128.23"/><path class="cls-1" d="M613.71,125.29l-29.32,16.93,22.4,12.94h13.84L643,142.22Zm5.72,27.63H608l-18.52-10.7,24.24-14,24.25,14Z"/><polygon class="cls-1" points="592.02 143.7 613.71 131.18 613.71 128.23 589.47 142.22 592.02 143.7"/><polygon class="cls-1" points="613.71 131.18 635.4 143.7 637.96 142.22 613.71 128.23 613.71 131.18"/><g class="cls-8"><path class="cls-7" d="M608.55,183.54h10.33V163.1H608.55Z"/><g class="cls-9"><rect class="cls-1" x="608.55" y="163.1" width="0.06" height="20.44"/><rect class="cls-1" x="608.61" y="163.1" width="0.26" height="20.44"/><rect class="cls-1" x="608.87" y="163.1" width="0.25" height="20.44"/><rect class="cls-1" x="609.12" y="163.1" width="0.26" height="20.44"/><rect class="cls-1" x="609.37" y="163.1" width="0.25" height="20.44"/><rect class="cls-1" x="609.63" y="163.1" width="0.26" height="20.44"/><rect class="cls-1" x="609.88" y="163.1" width="0.25" height="20.44"/><rect class="cls-1" x="610.14" y="163.1" width="0.26" height="20.44"/><rect class="cls-1" x="610.39" y="163.1" width="0.26" height="20.44"/><rect class="cls-1" x="610.65" y="163.1" width="0.25" height="20.44"/><rect class="cls-1" x="610.91" y="163.1" width="0.25" height="20.44"/><rect class="cls-1" x="611.16" y="163.1" width="0.26" height="20.44"/><rect class="cls-1" x="611.42" y="163.1" width="0.25" height="20.44"/><rect class="cls-1" x="611.67" y="163.1" width="0.26" height="20.44"/><rect class="cls-1" x="611.93" y="163.1" width="0.26" height="20.44"/><rect class="cls-1" x="612.18" y="163.1" width="0.25" height="20.44"/><rect class="cls-1" x="612.44" y="163.1" width="0.26" height="20.44"/><rect class="cls-1" x="612.69" y="163.1" width="0.26" height="20.44"/><rect class="cls-1" x="612.95" y="163.1" width="0.25" height="20.44"/><rect class="cls-1" x="613.2" y="163.1" width="0.26" height="20.44"/><rect class="cls-1" x="613.46" y="163.1" width="0.26" height="20.44"/><rect class="cls-1" x="613.71" y="163.1" width="0.26" height="20.44"/><rect class="cls-1" x="613.97" y="163.1" width="0.26" height="20.44"/><rect class="cls-1" x="614.22" y="163.1" width="0.25" height="20.44"/><rect class="cls-1" x="614.48" y="163.1" width="0.26" height="20.44"/><rect class="cls-1" x="614.73" y="163.1" width="0.26" height="20.44"/><rect class="cls-1" x="614.99" y="163.1" width="0.25" height="20.44"/><rect class="cls-1" x="615.24" y="163.1" width="0.26" height="20.44"/><rect class="cls-1" x="615.5" y="163.1" width="0.25" height="20.44"/><rect class="cls-1" x="615.75" y="163.1" width="0.26" height="20.44"/><rect class="cls-1" x="616.01" y="163.1" width="0.26" height="20.44"/><rect class="cls-1" x="616.27" y="163.1" width="0.26" height="20.44"/><rect class="cls-1" x="616.52" y="163.1" width="0.25" height="20.44"/><rect class="cls-1" x="616.78" y="163.1" width="0.26" height="20.44"/><rect class="cls-1" x="617.03" y="163.1" width="0.25" height="20.44"/><rect class="cls-1" x="617.29" y="163.1" width="0.26" height="20.44"/><rect class="cls-1" x="617.54" y="163.1" width="0.26" height="20.44"/><rect class="cls-1" x="617.8" y="163.1" width="0.26" height="20.44"/><rect class="cls-1" x="618.05" y="163.1" width="0.25" height="20.44"/><rect class="cls-1" x="618.31" y="163.1" width="0.26" height="20.44"/><rect class="cls-1" x="618.56" y="163.1" width="0.26" height="20.44"/><rect class="cls-1" x="618.82" y="163.1" width="0.06" height="20.44"/><rect class="cls-1" x="607.87" y="162.42" width="0.23" height="21.8"/><rect class="cls-1" x="608.1" y="162.42" width="0.25" height="21.8"/><rect class="cls-1" x="608.35" y="162.42" width="0.26" height="21.8"/><rect class="cls-1" x="608.61" y="162.42" width="0.26" height="21.8"/><rect class="cls-1" x="608.87" y="162.42" width="0.25" height="21.8"/><rect class="cls-1" x="609.12" y="162.42" width="0.26" height="21.8"/><rect class="cls-1" x="609.37" y="162.42" width="0.25" height="21.8"/><rect class="cls-1" x="609.63" y="162.42" width="0.26" height="21.8"/><rect class="cls-1" x="609.88" y="162.42" width="0.25" height="21.8"/><rect class="cls-1" x="610.14" y="162.42" width="0.26" height="21.8"/><rect class="cls-1" x="610.39" y="162.42" width="0.26" height="21.8"/><rect class="cls-1" x="610.65" y="162.42" width="0.25" height="21.8"/><rect class="cls-1" x="610.91" y="162.42" width="0.25" height="21.8"/><rect class="cls-1" x="611.16" y="162.42" width="0.26" height="21.8"/><rect class="cls-1" x="611.42" y="162.42" width="0.25" height="21.8"/><rect class="cls-1" x="611.67" y="162.42" width="0.26" height="21.8"/><rect class="cls-1" x="611.93" y="162.42" width="0.26" height="21.8"/><rect class="cls-1" x="612.18" y="162.42" width="0.25" height="21.8"/><rect class="cls-1" x="612.44" y="162.42" width="0.26" height="21.8"/><rect class="cls-1" x="612.69" y="162.42" width="0.26" height="21.8"/><rect class="cls-1" x="612.95" y="162.42" width="0.25" height="21.8"/><rect class="cls-1" x="613.2" y="162.42" width="0.26" height="21.8"/><rect class="cls-1" x="613.46" y="162.42" width="0.26" height="21.8"/><rect class="cls-1" x="613.71" y="162.42" width="0.26" height="21.8"/><rect class="cls-1" x="613.97" y="162.42" width="0.26" height="21.8"/><rect class="cls-1" x="614.22" y="162.42" width="0.25" height="21.8"/><rect class="cls-1" x="614.48" y="162.42" width="0.26" height="21.8"/><rect class="cls-1" x="614.73" y="162.42" width="0.26" height="21.8"/><rect class="cls-1" x="614.99" y="162.42" width="0.25" height="21.8"/><rect class="cls-1" x="615.24" y="162.42" width="0.26" height="21.8"/><rect class="cls-1" x="615.5" y="162.42" width="0.25" height="21.8"/><rect class="cls-1" x="615.75" y="162.42" width="0.26" height="21.8"/><rect class="cls-1" x="616.01" y="162.42" width="0.26" height="21.8"/><rect class="cls-1" x="616.27" y="162.42" width="0.26" height="21.8"/><rect class="cls-1" x="616.52" y="162.42" width="0.25" height="21.8"/><rect class="cls-1" x="616.78" y="162.42" width="0.26" height="21.8"/><rect class="cls-1" x="617.03" y="162.42" width="0.25" height="21.8"/><rect class="cls-1" x="617.29" y="162.42" width="0.26" height="21.8"/><rect class="cls-1" x="617.54" y="162.42" width="0.26" height="21.8"/><rect class="cls-1" x="617.8" y="162.42" width="0.26" height="21.8"/><rect class="cls-1" x="618.05" y="162.42" width="0.25" height="21.8"/><rect class="cls-1" x="618.31" y="162.42" width="0.26" height="21.8"/><rect class="cls-1" x="618.56" y="162.42" width="0.26" height="21.8"/><rect class="cls-1" x="618.82" y="162.42" width="0.25" height="21.8"/><rect class="cls-1" x="619.07" y="162.42" width="0.26" height="21.8"/><rect class="cls-1" x="619.33" y="162.42" width="0.23" height="21.8"/></g><path class="cls-10" d="M608.55,183.54h10.33V163.1H608.55Z"/></g><rect class="cls-1" x="608.21" y="162.76" width="11.01" height="21.43"/><g class="cls-11"><path class="cls-1" d="M609.18,183.85h9v-19h-9Z"/></g><rect class="cls-1" x="609.18" y="164.63" width="9.02" height="19.55"/><rect class="cls-1" x="610.39" y="165.9" width="6.63" height="8.12"/><path class="cls-1" d="M617.05,176a.52.52,0,1,1-.51-.52A.51.51,0,0,1,617.05,176Z"/><polyline class="cls-1" points="587.79 150.94 587.05 151.36 604.12 161.22"/><polygon class="cls-1" points="587.05 166.56 604.12 176.42 604.12 161.22 587.05 151.36 587.05 166.56"/><polygon class="cls-1" points="587.97 165.9 603.21 174.7 603.21 161.78 587.97 152.98 587.97 165.9"/><path class="cls-1" d="M592.85,166a.14.14,0,0,1-.11-.06L591.65,164a.14.14,0,0,1,.05-.18.13.13,0,0,1,.17.05l1.09,1.89a.12.12,0,0,1,0,.17Z"/><path class="cls-1" d="M598.1,168.9h0c.49.29.89,0,.89-.67v-1.89l-1.79-1v1.89A2.12,2.12,0,0,0,598.1,168.9Z"/><path class="cls-1" d="M594.53,166.84h0c.49.29.89,0,.89-.67v-1.89l-1.78-1v1.89A2.14,2.14,0,0,0,594.53,166.84Z"/><path class="cls-1" d="M591,164.78h0c.49.29.89,0,.89-.67v-1.89l-1.78-1v1.89A2.14,2.14,0,0,0,591,164.78Z"/><path class="cls-1" d="M587.39,162.72h0c.49.29.9,0,.9-.67v-1.89l-1.79-1V161A2.14,2.14,0,0,0,587.39,162.72Z"/><path class="cls-1" d="M583.82,160.66h0c.5.29.9,0,.9-.67V158.1l-1.79-1V159A2.12,2.12,0,0,0,583.82,160.66Z"/><path class="cls-1" d="M596.31,167.87h0c.49.29.89,0,.89-.67v-1.89l-1.78-1v1.89A2.14,2.14,0,0,0,596.31,167.87Z"/><path class="cls-1" d="M592.74,165.81h0c.5.29.9,0,.9-.67v-1.89l-1.79-1v1.89A2.14,2.14,0,0,0,592.74,165.81Z"/><path class="cls-1" d="M589.18,163.75h0c.49.29.89,0,.89-.67v-1.89l-1.78-1v1.89A2.12,2.12,0,0,0,589.18,163.75Z"/><path class="cls-1" d="M585.61,161.69h0c.49.29.89,0,.89-.67v-1.89l-1.78-1V160A2.14,2.14,0,0,0,585.61,161.69Z"/><path class="cls-1" d="M582,159.63h0c.49.29.89,0,.89-.67v-1.89l-1.78-1v1.89A2.14,2.14,0,0,0,582,159.63Z"/><polygon class="cls-1" points="586.67 150.05 604.51 160.35 598.99 166.34 581.15 156.04 586.67 150.05"/><polygon class="cls-1" points="600.94 158.29 595.42 164.28 593.64 163.25 599.16 157.26 600.94 158.29"/><polygon class="cls-1" points="597.37 156.23 591.85 162.22 590.07 161.19 595.59 155.2 597.37 156.23"/><polygon class="cls-1" points="604.51 160.35 598.99 166.34 597.2 165.31 602.73 159.32 604.51 160.35"/><polygon class="cls-1" points="588.45 151.08 590.24 152.11 584.72 158.1 582.93 157.07 588.45 151.08"/><polygon class="cls-1" points="593.81 154.17 588.28 160.16 586.5 159.13 592.02 153.14 593.81 154.17"/><polygon class="cls-1" points="602.73 159.32 597.2 165.31 595.42 164.28 600.94 158.29 602.73 159.32"/><polygon class="cls-1" points="599.16 157.26 593.64 163.25 591.85 162.22 597.37 156.23 599.16 157.26"/><polygon class="cls-1" points="582.93 157.07 581.15 156.04 586.67 150.05 588.45 151.08 582.93 157.07"/><polygon class="cls-1" points="592.02 153.14 586.5 159.13 584.72 158.1 590.24 152.11 592.02 153.14"/><polygon class="cls-1" points="595.59 155.2 590.07 161.19 588.28 160.16 593.81 154.17 595.59 155.2"/></g></g></g></g></svg>