<svg xmlns="http://www.w3.org/2000/svg" viewBox="0 0 65.12 59.63"><defs><style>.cls-1{fill:none;stroke:#282828;stroke-linecap:round;stroke-linejoin:round;stroke-width:1.25px;}.cls-2{fill:#fff;}</style></defs><title>Asset 1</title><g id="Layer_2" data-name="Layer 2"><g id="Layer_1-2" data-name="Layer 1"><path class="cls-1" d="M62,7.45H15.55V3.12a2.51,2.51,0,0,0-2.5-2.5h-3a2.51,2.51,0,0,0-2.5,2.5V7.45H3.12A2.51,2.51,0,0,0,.62,9.94v3a2.51,2.51,0,0,0,2.5,2.5H7.59v41.1a2.51,2.51,0,0,0,2.5,2.5h3a2.51,2.51,0,0,0,2.5-2.5V15.41h7.52V13a1.87,1.87,0,0,1,1.87-1.87h2.42A1.88,1.88,0,0,1,29.24,13v2.46H49.5V13a1.88,1.88,0,0,1,1.88-1.87H53.8A1.87,1.87,0,0,1,55.67,13v2.46H62a2.51,2.51,0,0,0,2.5-2.5v-3A2.5,2.5,0,0,0,62,7.45Z"/><path class="cls-1" d="M56.46,18.52h-.79v1.82a1.87,1.87,0,0,1-1.87,1.87H51.38a1.88,1.88,0,0,1-1.88-1.87V18.52H29.24v1.82a1.88,1.88,0,0,1-1.88,1.87H24.94a1.87,1.87,0,0,1-1.87-1.87V18.52h-.79a3.76,3.76,0,0,0-3.74,3.75V42.85a3.76,3.76,0,0,0,3.74,3.75H56.46a3.76,3.76,0,0,0,3.74-3.75V22.27A3.76,3.76,0,0,0,56.46,18.52Z"/><rect class="cls-1" x="24.87" y="13.62" width="2.57" height="6.06" rx="0.44"/><rect class="cls-1" x="51.26" y="13.62" width="2.57" height="6.06" rx="0.44"/><line class="cls-1" x1="10.68" y1="52" x2="10.68" y2="30.36"/><line class="cls-1" x1="10.68" y1="28.01" x2="10.68" y2="22.88"/><path class="cls-2" d="M27.56,29.41c0,.37,0,.73,0,1.1a.54.54,0,0,0,.75.54c1.19-.4,2.38-.78,3.58-1.15a7.49,7.49,0,0,1,1.88-.33,6.43,6.43,0,0,1,2.37.44c1.36.5,2.68,1.11,4,1.72a28.37,28.37,0,0,0,4.47,1.7,6,6,0,0,0,2.41.22c.79-.12,1.58-.28,2.38-.44A2.19,2.19,0,0,0,51,30.34a2.06,2.06,0,0,0-1.76-1.43,3.12,3.12,0,0,0-.85.12,11.57,11.57,0,0,1-1.95.26,8,8,0,0,1-2.33-.4,30.82,30.82,0,0,1-4.27-1.69c-1.23-.57-2.46-1.12-3.72-1.6a6.11,6.11,0,0,0-3.56-.27,31.91,31.91,0,0,0-3.72,1.13,2,2,0,0,0-1.3,1.9Z"/><path class="cls-2" d="M27.56,38.22v1.17a.5.5,0,0,0,.05.21.52.52,0,0,0,.7.26c1.3-.45,2.6-.9,3.94-1.24a6.59,6.59,0,0,1,2.3-.2,7.05,7.05,0,0,1,1.61.41c1.36.5,2.68,1.11,4,1.72a27.88,27.88,0,0,0,4.4,1.68,6,6,0,0,0,2.5.23c.82-.12,1.64-.27,2.44-.46a2,2,0,0,0,1.6-1.7,2.1,2.1,0,0,0-.83-2.19,1.67,1.67,0,0,0-1.38-.37L47.79,38a6.76,6.76,0,0,1-3.16-.11,28.81,28.81,0,0,1-4.4-1.66c-1.32-.61-2.64-1.21-4-1.74a6.17,6.17,0,0,0-4-.22c-1.09.32-2.18.66-3.26,1a2,2,0,0,0-1.39,2Z"/><path d="M27.56,29.41V28.36a2,2,0,0,1,1.3-1.9,31.91,31.91,0,0,1,3.72-1.13,6.11,6.11,0,0,1,3.56.27c1.26.48,2.49,1,3.72,1.6a30.82,30.82,0,0,0,4.27,1.69,8,8,0,0,0,2.33.4A11.57,11.57,0,0,0,48.41,29a3.12,3.12,0,0,1,.85-.12A2.06,2.06,0,0,1,51,30.34a2.19,2.19,0,0,1-1.62,2.87c-.8.16-1.59.32-2.38.44a6,6,0,0,1-2.41-.22,28.37,28.37,0,0,1-4.47-1.7c-1.32-.61-2.64-1.22-4-1.72a6.43,6.43,0,0,0-2.37-.44,7.49,7.49,0,0,0-1.88.33c-1.2.37-2.39.75-3.58,1.15a.54.54,0,0,1-.75-.54C27.58,30.14,27.56,29.78,27.56,29.41Z"/><path d="M27.56,38.22v-1a2,2,0,0,1,1.39-2c1.08-.35,2.17-.69,3.26-1a6.17,6.17,0,0,1,4,.22c1.36.53,2.68,1.13,4,1.74a28.81,28.81,0,0,0,4.4,1.66,6.76,6.76,0,0,0,3.16.11l1.09-.22a1.67,1.67,0,0,1,1.38.37,2.1,2.1,0,0,1,.83,2.19,2,2,0,0,1-1.6,1.7c-.8.19-1.62.34-2.44.46a6,6,0,0,1-2.5-.23,27.88,27.88,0,0,1-4.4-1.68c-1.31-.61-2.63-1.22-4-1.72a7.05,7.05,0,0,0-1.61-.41,6.59,6.59,0,0,0-2.3.2c-1.34.34-2.64.79-3.94,1.24a.52.52,0,0,1-.7-.26.5.5,0,0,1-.05-.21Z"/></g></g></svg>