<svg xmlns="http://www.w3.org/2000/svg" viewBox="0 0 158.17 157.68"><defs><style>.cls-1{fill:#fff;stroke:#282828;stroke-linecap:round;stroke-linejoin:round;}</style></defs><title>Asset 11</title><g id="Layer_2" data-name="Layer 2"><g id="Layer_1-2" data-name="Layer 1"><polyline class="cls-1" points="58.72 34.18 58.72 0.5 1.08 0.5 1.08 71.23 22.79 71.23 30.52 83.59 38.88 70.98"/><polyline class="cls-1" points="99.87 34.18 99.87 0.5 157.5 0.5 157.5 71.23 135.8 71.23 128.06 83.59 119.71 70.98"/><rect class="cls-1" x="0.5" y="135.21" width="157.17" height="21.97" rx="8.23"/><line class="cls-1" x1="100.96" y1="135.21" x2="100.96" y2="157.18"/><path class="cls-1" d="M118.11,146.19a2.95,2.95,0,1,1-2.94-2.94A2.94,2.94,0,0,1,118.11,146.19Z"/><path class="cls-1" d="M131.82,146.19a2.94,2.94,0,1,1-2.94-2.94A2.93,2.93,0,0,1,131.82,146.19Z"/><path class="cls-1" d="M145.54,146.19a2.94,2.94,0,1,1-2.94-2.94A2.94,2.94,0,0,1,145.54,146.19Z"/><polygon class="cls-1" points="79.09 125.45 86.97 112 107.5 112 107.5 41.74 50.68 41.74 50.68 111.86 71.93 111.86 79.09 125.45"/><path class="cls-1" d="M97.57,102.31a18.72,18.72,0,0,0-37.44,0Z"/><path class="cls-1" d="M41.89,46.38A18.73,18.73,0,0,0,12.36,61.67H41.25"/><path class="cls-1" d="M90.92,62.61A11.72,11.72,0,1,1,79.21,50.9,11.71,11.71,0,0,1,90.92,62.61Z"/><path class="cls-1" d="M41.61,21.88A11.71,11.71,0,1,1,29.9,10.17,11.71,11.71,0,0,1,41.61,21.88Z"/><path class="cls-1" d="M116.7,46.38a18.73,18.73,0,0,1,29.53,15.29H117.34"/><path class="cls-1" d="M117,21.88a11.71,11.71,0,1,0,11.71-11.71A11.71,11.71,0,0,0,117,21.88Z"/></g></g></svg>